# https://github.com/mikedh/trimesh
v 0.09588464 0.07838040 -0.09820014
v 0.09682502 0.08256547 -0.10306902
v 0.09591114 0.07838040 -0.10306902
v 0.11297053 0.07834939 -0.06541194
v 0.11331489 0.07834939 -0.06131067
v 0.11356655 0.07834939 -0.05912845
v 0.12161941 0.07834939 -0.02283115
v 0.12236113 0.07834939 -0.02008966
v 0.13269213 0.11902210 -0.01216127
v 0.13340735 0.12426118 -0.01318111
v 0.14221519 0.23930418 -0.08768379
v 0.12409621 0.18043416 -0.09820014
v 0.09683827 0.07838040 -0.11361827
v 0.09652039 0.07838040 -0.11013109
v 0.12409621 0.18043416 -0.09857298
v 0.11306323 0.07834939 -0.06674979
v 0.12735444 0.07834939 -0.00980360
v 0.12763260 0.08120145 -0.00980360
v 0.13471859 0.11902210 -0.00980360
v 0.19894295 0.36023727 -0.01164587
v 0.18829408 0.39371786 -0.07315390
v 0.18744641 0.39204382 -0.07483170
v 0.18829408 0.39505088 -0.07483170
v 0.13328815 0.21056668 -0.09929673
v 0.11352681 0.13591739 -0.10976922
v 0.10483817 0.09722872 -0.11773050
v 0.10368587 0.09078061 -0.11871744
v 0.10119585 0.07838040 -0.12015398
v 0.14196353 0.24007920 -0.09364927
v 0.11004341 0.07838040 -0.12183177
v 0.13563249 0.07834939 -0.06674979
v 0.13727486 0.07834939 -0.00980360
v 0.13694374 0.12708223 -0.00980360
v 0.20390977 0.36355432 -0.00996808
v 0.21037326 0.38286767 -0.00980360
v 0.20779053 0.38286767 -0.01227094
v 0.20540645 0.38286767 -0.01832414
v 0.23119421 0.38286767 -0.00980360
v 0.22939290 0.38286767 -0.01575811
v 0.22508833 0.38286767 -0.02775486
v 0.18829408 0.39309783 -0.08255173
v 0.14241387 0.23862217 -0.09912128
v 0.12402998 0.17113399 -0.10793790
v 0.11437448 0.12463319 -0.11746732
v 0.11354006 0.11902210 -0.11807045
v 0.11004341 0.09078061 -0.12084483
v 0.11004341 0.08135644 -0.12174404
v 0.11947375 0.10962893 -0.11882710
v 0.12437435 0.10962893 -0.11736863
v 0.11793735 0.09078061 -0.11930960
v 0.11704994 0.08135644 -0.11912318
v 0.11669233 0.07838040 -0.11890386
v 0.11975190 0.07838040 -0.11247781
v 0.13430801 0.07838040 -0.08027081
v 0.13638745 0.07838040 -0.07462334
v 0.14523501 0.07834939 -0.03561745
v 0.13987084 0.07834939 -0.01366361
v 0.16289043 0.13061629 -0.01194196
v 0.16369836 0.13582439 -0.00980360
v 0.20837329 0.37598553 -0.00980360
v 0.17217508 0.15829977 -0.00980360
v 0.17187045 0.15891979 -0.01451895
v 0.19968465 0.29259410 -0.05156194
v 0.21911488 0.36746041 -0.04237248
v 0.22175060 0.38286767 -0.03561745
v 0.21911488 0.37046747 -0.04237248
v 0.18829408 0.37703956 -0.09022789
v 0.17998954 0.36088829 -0.08977829
v 0.11947375 0.11902210 -0.11819107
v 0.17867831 0.35437816 -0.09101744
v 0.18745965 0.37319551 -0.09074329
v 0.17059894 0.30375429 -0.09867168
v 0.12421542 0.12494320 -0.11721511
v 0.12433462 0.11902210 -0.11730283
v 0.12428164 0.10438984 -0.11730283
v 0.17183071 0.30375429 -0.09867168
v 0.17183071 0.29789520 -0.09869361
v 0.12061281 0.08135644 -0.11247781
v 0.12557964 0.10082478 -0.11263133
v 0.13359278 0.12367217 -0.10780632
v 0.14300988 0.09539968 -0.07016020
v 0.13719538 0.08135644 -0.07482073
v 0.14787075 0.08138744 -0.02775486
v 0.14678466 0.07834939 -0.02780969
v 0.14449331 0.07834939 -0.02132881
v 0.15261240 0.09477968 -0.02263376
v 0.15261240 0.09477968 -0.02380712
v 0.18135378 0.30025124 -0.08999760
v 0.18829408 0.35437816 -0.09160960
v 0.18217496 0.30728834 -0.09099551
v 0.18829408 0.33782390 -0.09035948
v 0.18829408 0.34495401 -0.09113807
v 0.18829408 0.37319551 -0.09074329
v 0.17128767 0.28292192 -0.09840849
v 0.17079761 0.27665981 -0.09813435
v 0.12334125 0.09809674 -0.11585532
v 0.18535372 0.35437816 -0.09250881
v 0.14585753 0.07834939 -0.02503530
f 38 23 35
f 22 21 23
f 9 10 1
f 1 8 9
f 20 21 10
f 10 9 20
f 41 24 23
f 38 63 64
f 88 64 63
f 38 61 62
f 62 63 38
f 62 81 63
f 18 8 17
f 18 9 8
f 36 20 35
f 23 21 36
f 36 35 23
f 23 24 29
f 11 22 23
f 23 12 11
f 11 12 1
f 21 22 11
f 1 10 11
f 10 21 11
f 1 12 2
f 68 41 67
f 92 64 91
f 89 64 92
f 92 94 89
f 38 64 39
f 39 23 38
f 67 41 65
f 75 91 90
f 90 88 75
f 91 64 90
f 64 88 90
f 75 88 80
f 80 88 63
f 63 81 80
f 69 45 44
f 83 81 87
f 81 62 87
f 87 62 61
f 30 16 28
f 28 16 13
f 44 45 28
f 1 2 3
f 19 20 9
f 9 18 19
f 25 13 24
f 25 26 13
f 21 20 37
f 37 36 21
f 20 36 37
f 15 29 24
f 24 13 15
f 15 12 23
f 23 29 15
f 13 2 15
f 15 2 12
f 70 67 44
f 44 68 70
f 70 68 67
f 44 26 43
f 43 68 44
f 26 25 43
f 43 25 24
f 95 91 75
f 75 94 95
f 95 92 91
f 94 92 95
f 77 76 89
f 89 94 77
f 77 94 75
f 66 64 89
f 89 93 66
f 66 93 67
f 67 65 66
f 67 93 71
f 44 67 71
f 89 76 97
f 97 93 89
f 76 93 97
f 40 65 41
f 40 41 23
f 23 39 40
f 40 39 64
f 64 66 40
f 40 66 65
f 30 51 52
f 52 78 53
f 52 51 75
f 75 78 52
f 30 28 47
f 73 69 76
f 72 69 44
f 76 69 72
f 44 71 72
f 27 26 44
f 44 28 27
f 13 26 27
f 27 28 13
f 7 8 1
f 1 6 7
f 1 3 4
f 4 3 16
f 13 16 14
f 16 3 14
f 14 2 13
f 14 3 2
f 35 20 34
f 42 43 24
f 68 43 42
f 24 41 42
f 41 68 42
f 75 51 50
f 50 51 30
f 96 78 75
f 78 96 79
f 75 80 79
f 79 96 75
f 31 52 53
f 31 16 30
f 30 52 31
f 81 55 82
f 45 69 46
f 69 47 46
f 46 28 45
f 46 47 28
f 30 47 48
f 48 47 69
f 69 73 48
f 49 77 75
f 76 77 49
f 30 48 49
f 75 50 49
f 49 50 30
f 59 58 61
f 32 58 59
f 86 84 83
f 83 87 86
f 58 85 86
f 86 87 61
f 61 58 86
f 57 58 32
f 57 85 58
f 5 6 1
f 1 4 5
f 20 19 33
f 33 34 20
f 56 31 55
f 83 84 56
f 56 81 83
f 56 55 81
f 54 82 55
f 54 31 53
f 55 31 54
f 53 78 54
f 81 82 54
f 78 79 54
f 54 80 81
f 54 79 80
f 74 73 76
f 76 49 74
f 74 48 73
f 74 49 48
f 84 86 98
f 98 86 85
f 35 34 60
f 34 33 60
f 72 71 93
f 72 93 76
f 98 32 17
f 17 8 98
f 98 4 16
f 98 56 84
f 8 7 98
f 6 5 98
f 98 7 6
f 98 57 32
f 16 31 98
f 85 57 98
f 98 5 4
f 31 56 98
f 17 32 60
f 38 35 60
f 60 61 38
f 60 59 61
f 60 18 17
f 60 19 18
f 32 59 60
f 60 33 19

