# https://github.com/mikedh/trimesh
v 0.15032718 0.07832533 0.05695070
v 0.14953589 0.07832533 0.06258963
v 0.14866253 0.07191223 0.05699946
v 0.14301207 0.04830192 0.00527418
v 0.14301207 0.04830192 0.00512792
v 0.14871527 0.07191223 0.00990556
v 0.15000480 0.07832533 0.01018182
v 0.14746679 0.07191223 0.06258963
v 0.12910863 0.07832533 0.06258963
v 0.14385612 0.05552509 0.05397687
v 0.14030406 0.04384650 0.00134156
v 0.13961827 0.04384650 0.04757418
v 0.13980583 0.04384650 -0.08423347
v 0.13941311 0.04384650 -0.10227150
v 0.14677512 0.07832533 -0.02777930
v 0.14439537 0.06443929 0.06258963
v 0.12740294 0.07832533 0.05699946
v 0.12898555 0.07831182 0.06258963
v 0.13626550 0.04384650 0.05509815
v 0.13926071 0.04384650 -0.10340904
v 0.14522184 0.07832533 -0.03559578
v 0.14254900 0.06172891 0.06258963
v 0.12392122 0.06837153 0.06258963
v 0.09588578 0.07832533 -0.09820888
v 0.12997027 0.04384650 0.06258963
v 0.13914934 0.04384650 -0.10342529
v 0.13550936 0.05030010 -0.10342529
v 0.13430190 0.07832533 -0.08026835
v 0.13637101 0.07832533 -0.07461318
v 0.12376297 0.06802049 0.06258963
v 0.09589163 0.07832533 -0.10306777
v 0.09408044 0.07153757 -0.10342529
v 0.09580957 0.07795742 -0.09777012
v 0.11475387 0.04384650 0.06258963
v 0.09046391 0.04384650 -0.10342529
v 0.11804217 0.07832533 -0.10342529
v 0.09593853 0.07832533 -0.10342529
v 0.09047564 0.05598413 -0.10342529
v 0.09044633 0.05598075 -0.10340904
v 0.09044633 0.05586262 -0.10303528
v 0.09044633 0.04384650 -0.06910427
v 0.09044633 0.04384650 -0.10311653
f 13 5 11
f 4 12 11
f 11 5 4
f 4 5 1
f 38 35 39
f 39 35 42
f 33 41 34
f 34 30 33
f 33 30 24
f 14 15 7
f 5 13 14
f 36 28 27
f 18 9 17
f 3 4 1
f 40 33 39
f 41 33 40
f 39 33 32
f 32 33 24
f 32 38 39
f 5 14 6
f 6 14 7
f 6 7 1
f 1 5 6
f 26 27 20
f 20 27 28
f 28 29 20
f 20 29 21
f 21 15 20
f 15 14 20
f 23 18 17
f 17 24 23
f 24 30 23
f 25 19 22
f 22 19 16
f 10 19 12
f 16 19 10
f 12 4 10
f 4 3 10
f 2 3 1
f 37 32 31
f 31 32 24
f 16 10 8
f 8 10 3
f 3 2 8
f 40 42 41
f 39 42 40
f 26 35 32
f 32 37 36
f 35 38 32
f 32 27 26
f 36 27 32
f 11 12 20
f 20 35 26
f 20 13 11
f 20 25 34
f 20 42 35
f 12 19 20
f 34 41 20
f 41 42 20
f 20 14 13
f 20 19 25
f 21 29 31
f 31 28 36
f 1 7 31
f 17 9 31
f 31 24 17
f 36 37 31
f 31 15 21
f 31 2 1
f 7 15 31
f 31 29 28
f 9 2 31
f 34 25 8
f 8 30 34
f 25 22 8
f 8 23 30
f 9 18 8
f 18 23 8
f 8 22 16
f 8 2 9

