# https://github.com/mikedh/trimesh
v 0.21343639 0.34495257 0.01614659
v 0.21361986 0.34495257 0.01614659
v 0.21308427 0.34495257 0.01624006
v 0.21309915 0.38288546 -0.03554685
v 0.22155966 0.38288546 -0.03560027
v 0.22047358 0.34495257 0.01826987
v 0.22176298 0.38288546 -0.03560027
v 0.20715795 0.34495257 0.02116770
v 0.20640414 0.38288546 -0.02820213
v 0.20501553 0.40418679 -0.05207914
v 0.20804565 0.40243875 -0.05207914
v 0.21378847 0.40165210 -0.05207914
v 0.22060253 0.34495257 0.01860373
v 0.22510553 0.38288546 -0.02773475
v 0.22119267 0.40358747 -0.05207914
v 0.22536837 0.41090434 -0.05207914
v 0.22838362 0.39372342 -0.03351704
v 0.20563545 0.34495257 0.02875279
v 0.20126631 0.41090434 -0.05207914
v 0.22424264 0.34495257 0.02875279
v 0.22940028 0.38288546 -0.01572948
v 0.22729257 0.41723481 -0.05207914
v 0.23112610 0.38267319 -0.00978693
v 0.22757029 0.41636077 -0.05078380
v 0.22952426 0.41983191 -0.04721827
v 0.23285688 0.42031887 -0.03714934
v 0.23374458 0.41090434 -0.02773475
v 0.23683917 0.41724730 -0.02179221
v 0.23624405 0.41045485 -0.01852047
v 0.23698299 0.40703363 -0.01289842
v 0.23445377 0.39208774 -0.00890557
v 0.23139390 0.38267319 -0.00890557
v 0.20623056 0.34495257 0.03815402
v 0.20135064 0.41311439 -0.05207914
v 0.23753842 0.38660633 0.01315528
v 0.23747396 0.37742903 0.03214471
v 0.23805420 0.37641765 0.03815402
v 0.23874849 0.37473202 0.04758196
v 0.23902127 0.37252196 0.05663599
v 0.23751364 0.36796454 0.05953382
v 0.23795006 0.36727780 0.06641114
v 0.23836167 0.36634133 0.07582572
v 0.22935069 0.34521480 0.08434560
v 0.22905313 0.34495257 0.08434560
v 0.22841337 0.42231668 -0.05207914
v 0.23180551 0.42973342 -0.04656393
v 0.23474636 0.42973342 -0.03714934
v 0.23714666 0.43449063 -0.03240866
v 0.23582254 0.42035633 -0.02738754
v 0.24024621 0.42973342 -0.01832016
v 0.23831208 0.42035633 -0.01852047
v 0.23762769 0.41328920 -0.01551581
v 0.23744422 0.42351532 -0.02400897
v 0.23734501 0.40541044 -0.00980029
v 0.23699787 0.39746927 -0.00352390
v 0.24073221 0.42031887 -0.00890557
v 0.24290932 0.42031887 0.00050902
v 0.23771202 0.39500948 0.00275250
v 0.23841128 0.39196289 0.00997702
v 0.21131381 0.34495257 0.08434560
v 0.21147747 0.37324617 0.07582572
v 0.20164323 0.42075590 -0.05207914
v 0.24021150 0.39208774 0.01933820
v 0.24038010 0.38267319 0.03815402
v 0.24165463 0.38267319 0.04758196
v 0.24036523 0.37324617 0.06641114
v 0.24099506 0.37324617 0.07582572
v 0.23878817 0.36609162 0.08434560
v 0.23853030 0.36541737 0.08434560
v 0.23106660 0.43522732 -0.05207914
v 0.23368509 0.43914798 -0.04656393
v 0.23635813 0.43823648 -0.03740306
v 0.23776161 0.44077117 -0.03443847
v 0.23806908 0.42973342 -0.02609220
v 0.23895184 0.43823648 -0.02865617
v 0.24193731 0.43914798 -0.01832016
v 0.24241341 0.42973342 -0.00980029
v 0.24050905 0.42031887 -0.00980029
v 0.23771202 0.40373730 -0.00660868
v 0.23856005 0.40095290 -0.00002514
v 0.24263657 0.42972094 -0.00890557
v 0.24513107 0.43034524 0.00119008
v 0.24667341 0.43390379 0.00476895
v 0.24603862 0.42762328 0.00788044
v 0.24518563 0.42098066 0.01057796
v 0.24085620 0.41089185 0.00050902
v 0.24075205 0.40148978 0.00993696
v 0.21328263 0.37324617 0.08434560
v 0.20858124 0.44509137 -0.05207914
v 0.20799110 0.44309359 -0.05207914
v 0.20425181 0.43008304 -0.05207914
v 0.24249275 0.40148978 0.01933820
v 0.24404005 0.40148978 0.02875279
v 0.24168438 0.39208774 0.02875279
v 0.24303827 0.39208774 0.03815402
v 0.24421859 0.39208774 0.04758196
v 0.24639073 0.39748173 0.05448599
v 0.24257211 0.38267319 0.05699655
v 0.24325646 0.38267319 0.06641114
v 0.24374249 0.38267319 0.07582572
v 0.24128268 0.37324617 0.08434560
v 0.23184519 0.43914798 -0.05207914
v 0.23564400 0.44877478 -0.04602976
v 0.23679951 0.44576562 -0.04071486
v 0.23287175 0.44464188 -0.05207914
v 0.23361566 0.44864993 -0.05207914
v 0.23737479 0.45204614 -0.04253101
v 0.24257211 0.43061995 -0.00980029
v 0.24422850 0.43914798 -0.00890557
v 0.24284486 0.41089185 0.00993696
v 0.24666845 0.42456417 0.01415683
v 0.24594441 0.43914798 -0.00065278
v 0.24672797 0.43914798 0.00404784
v 0.24977296 0.42972094 0.02875279
v 0.24846866 0.42972094 0.01933820
v 0.24708505 0.42098066 0.02021956
v 0.24599400 0.41828365 0.01765559
v 0.24658911 0.41552420 0.02394534
v 0.21842539 0.38709329 0.08434560
v 0.21750794 0.47117488 -0.05207914
v 0.24586505 0.40920622 0.02875279
v 0.24634611 0.40717098 0.03500247
v 0.24680236 0.40527310 0.04127886
v 0.24551293 0.40187686 0.03815402
v 0.24907867 0.41089185 0.04758196
v 0.24722884 0.40366237 0.04758196
v 0.24602374 0.39895512 0.04758196
v 0.25013995 0.41089185 0.05699655
v 0.24755121 0.40096539 0.05737046
v 0.24664367 0.39652031 0.06076239
v 0.24537904 0.39286187 0.05737046
v 0.24686186 0.39575867 0.06641114
v 0.24900428 0.40148978 0.07582572
v 0.24714454 0.39474729 0.07582572
v 0.24942085 0.40148978 0.08434560
v 0.24720406 0.39369844 0.08434560
v 0.24597912 0.38944069 0.08434560
v 0.23443890 0.45435607 -0.05207914
v 0.23469678 0.45828922 -0.05207914
v 0.23737479 0.45615409 -0.04253101
v 0.24059336 0.44856251 -0.02773475
v 0.24667838 0.44401755 0.00411461
v 0.24991679 0.42031887 0.03815402
v 0.25030856 0.42972094 0.03815402
v 0.25192529 0.42031887 0.05699655
v 0.25112189 0.42031887 0.04758196
v 0.24843891 0.42031887 0.02875279
v 0.22033472 0.39200033 0.08434560
v 0.21802866 0.47244849 -0.05207914
v 0.24762561 0.41054224 0.03815402
v 0.25091854 0.41089185 0.06641114
v 0.25146903 0.41089185 0.07582572
v 0.24965889 0.40240128 0.08434560
v 0.23256926 0.46511913 -0.05207914
v 0.23629367 0.45876368 -0.04602976
v 0.23804924 0.45726535 -0.03714934
v 0.24679243 0.44415489 0.00993696
v 0.23678464 0.46197263 -0.03714934
v 0.25023416 0.42972094 0.04758196
v 0.24830005 0.43853614 0.02875279
v 0.25184593 0.42031887 0.06641114
v 0.25157318 0.41089185 0.08434560
v 0.22424264 0.40148978 0.08434560
v 0.22700989 0.40772037 0.08434560
v 0.22722314 0.40816987 0.08434560
v 0.21823695 0.47221124 -0.05099746
v 0.21963546 0.47249841 -0.05207914
v 0.23114594 0.46789104 -0.05207914
v 0.24675772 0.44409248 0.01591957
v 0.23198902 0.46710442 -0.04656393
v 0.22724795 0.47213634 -0.05207914
v 0.23207829 0.46621790 -0.03714934
v 0.23940810 0.45534247 -0.00890557
v 0.24810664 0.43737493 0.03815402
v 0.24919769 0.43005806 0.05659593
v 0.24903403 0.42748594 0.06641114
v 0.25070532 0.42031887 0.07582572
v 0.25150375 0.41180335 0.08434560
v 0.22940028 0.41241516 0.08434560
v 0.22745127 0.46298401 -0.02251332
v 0.22085050 0.47221124 -0.05099746
v 0.23425539 0.42091822 0.08434560
v 0.23528195 0.42262883 0.08434560
v 0.23668047 0.42547567 0.08242262
v 0.23673999 0.44419236 0.03413446
v 0.22157453 0.47249841 -0.05207914
v 0.24566669 0.44324342 0.02875279
v 0.22650405 0.47231115 -0.05207914
v 0.22712397 0.47208638 -0.05141144
v 0.23861957 0.45466825 -0.00124036
v 0.24701562 0.43516488 0.05317730
v 0.24766526 0.42602504 0.07582572
v 0.24897947 0.42080585 0.08434560
v 0.24906377 0.42064353 0.08434560
v 0.22845802 0.46298401 -0.02251332
v 0.24186292 0.42482636 0.08434560
v 0.23960148 0.44419236 0.03413446
v 0.24677756 0.42518847 0.08100709
v 0.24886045 0.42096817 0.08434560
v 0.24405492 0.42448926 0.08434560
f 19 33 34
f 33 62 34
f 161 162 145
f 159 161 145
f 18 33 19
f 19 8 18
f 33 60 61
f 61 62 33
f 7 12 15
f 44 20 43
f 177 161 176
f 88 61 60
f 89 61 88
f 62 61 91
f 7 6 2
f 22 17 16
f 7 15 16
f 16 17 7
f 7 17 14
f 20 13 14
f 14 13 6
f 14 6 7
f 158 156 155
f 196 184 183
f 185 184 196
f 196 197 185
f 190 197 187
f 89 88 120
f 120 148 149
f 90 61 89
f 90 91 61
f 3 4 1
f 8 4 3
f 9 4 8
f 10 4 9
f 19 10 9
f 9 8 19
f 1 4 5
f 5 12 7
f 5 4 12
f 12 4 11
f 11 4 10
f 42 69 43
f 43 20 42
f 20 41 42
f 140 139 155
f 155 156 140
f 31 32 17
f 21 14 17
f 20 14 21
f 155 139 154
f 154 158 155
f 168 158 154
f 101 100 137
f 135 100 134
f 145 162 152
f 152 151 145
f 94 63 93
f 162 161 178
f 161 177 178
f 172 158 171
f 170 168 171
f 171 158 170
f 170 158 168
f 142 140 156
f 156 158 142
f 169 158 173
f 173 187 169
f 190 187 173
f 173 172 190
f 158 172 173
f 176 161 175
f 161 159 175
f 174 160 169
f 169 187 174
f 159 160 174
f 174 175 159
f 164 149 163
f 149 148 163
f 119 120 88
f 148 120 119
f 67 100 101
f 36 37 20
f 24 17 22
f 17 26 27
f 27 28 17
f 49 27 26
f 28 27 49
f 139 140 107
f 30 31 17
f 17 32 23
f 23 21 17
f 23 32 20
f 20 21 23
f 136 100 135
f 136 137 100
f 153 152 162
f 135 152 153
f 135 134 133
f 133 152 135
f 151 152 133
f 132 151 133
f 130 151 132
f 132 98 130
f 125 146 128
f 145 151 128
f 128 146 145
f 65 97 98
f 118 116 147
f 147 116 115
f 32 31 35
f 20 32 35
f 35 36 20
f 118 93 92
f 92 93 63
f 194 178 177
f 194 177 176
f 176 193 194
f 200 197 196
f 200 198 197
f 192 193 176
f 192 198 193
f 191 187 197
f 197 198 191
f 198 192 191
f 191 192 176
f 191 174 187
f 176 175 191
f 175 174 191
f 169 160 157
f 157 158 169
f 157 142 158
f 144 160 159
f 144 159 145
f 144 157 160
f 142 157 144
f 165 149 164
f 68 67 101
f 69 42 68
f 42 67 68
f 100 67 99
f 99 98 132
f 99 134 100
f 132 133 99
f 99 133 134
f 66 42 41
f 66 67 42
f 98 99 66
f 66 99 67
f 66 65 98
f 39 65 66
f 40 41 20
f 20 39 40
f 40 66 41
f 39 66 40
f 48 72 73
f 48 49 26
f 139 107 138
f 138 107 106
f 55 79 80
f 80 58 55
f 55 58 31
f 31 30 55
f 80 79 86
f 86 110 80
f 17 28 29
f 29 30 17
f 28 30 29
f 151 130 129
f 129 130 97
f 129 128 151
f 97 128 129
f 98 97 131
f 131 130 98
f 97 130 131
f 94 93 124
f 97 65 96
f 37 36 64
f 36 35 64
f 64 63 94
f 64 35 63
f 38 65 39
f 20 37 38
f 38 39 20
f 37 64 38
f 38 64 65
f 118 147 143
f 143 146 125
f 143 147 115
f 117 116 118
f 31 58 59
f 59 35 31
f 63 35 59
f 118 92 87
f 87 117 118
f 110 117 87
f 80 110 87
f 87 58 80
f 87 59 58
f 87 92 63
f 63 59 87
f 193 198 199
f 198 200 199
f 142 144 114
f 115 83 114
f 114 143 115
f 146 143 114
f 145 146 114
f 114 144 145
f 166 165 179
f 149 165 166
f 179 182 166
f 166 182 183
f 166 183 184
f 184 185 166
f 185 180 166
f 189 195 197
f 189 181 195
f 189 197 190
f 190 172 189
f 189 172 171
f 45 24 22
f 28 50 51
f 141 107 140
f 141 109 107
f 140 142 141
f 107 109 76
f 109 83 76
f 112 83 109
f 112 141 142
f 109 141 112
f 49 48 74
f 74 48 73
f 79 55 54
f 54 55 30
f 127 128 97
f 97 96 127
f 121 93 118
f 118 143 121
f 150 143 125
f 150 121 143
f 85 117 110
f 110 86 85
f 116 117 85
f 149 166 167
f 188 189 171
f 188 186 181
f 181 189 188
f 24 45 25
f 25 26 17
f 17 24 25
f 47 71 72
f 47 48 26
f 72 48 47
f 73 72 104
f 72 71 104
f 104 107 73
f 102 71 70
f 106 107 103
f 103 71 106
f 107 104 103
f 103 104 71
f 83 82 81
f 113 112 142
f 83 112 113
f 142 114 113
f 113 114 83
f 53 50 28
f 53 74 50
f 28 49 53
f 49 74 53
f 75 74 73
f 50 74 75
f 75 76 50
f 73 107 75
f 107 76 75
f 57 54 30
f 57 86 79
f 79 54 57
f 84 85 57
f 57 85 86
f 57 83 84
f 57 82 83
f 125 128 126
f 128 127 126
f 93 121 122
f 121 150 122
f 116 85 111
f 111 85 84
f 84 83 111
f 115 116 111
f 111 83 115
f 26 25 46
f 46 47 26
f 71 47 46
f 70 71 46
f 46 45 70
f 46 25 45
f 106 71 105
f 71 102 105
f 108 76 83
f 83 81 108
f 77 51 50
f 77 108 81
f 50 76 77
f 76 108 77
f 52 30 28
f 28 51 52
f 56 57 30
f 30 52 56
f 56 81 82
f 82 57 56
f 95 126 127
f 94 124 95
f 125 126 95
f 95 127 96
f 95 96 65
f 95 64 94
f 65 64 95
f 78 52 51
f 78 56 52
f 51 77 78
f 78 77 81
f 81 56 78
f 125 95 123
f 123 95 124
f 123 150 125
f 123 122 150
f 123 124 93
f 93 122 123
f 33 18 3
f 3 13 20
f 3 60 33
f 3 44 60
f 3 18 8
f 1 2 3
f 20 44 3
f 3 2 6
f 6 13 3
f 5 2 1
f 7 2 5
f 180 185 197
f 197 195 180
f 101 137 199
f 162 178 199
f 199 44 43
f 199 136 135
f 43 69 199
f 60 44 199
f 199 200 196
f 199 88 60
f 183 182 199
f 199 194 193
f 196 183 199
f 164 163 199
f 199 119 88
f 199 153 162
f 199 165 164
f 199 163 148
f 148 119 199
f 137 136 199
f 135 153 199
f 178 194 199
f 199 68 101
f 179 165 199
f 199 182 179
f 69 68 199
f 166 180 195
f 195 181 166
f 167 166 181
f 181 186 167
f 19 34 105
f 105 45 22
f 62 91 105
f 12 11 105
f 105 154 139
f 105 34 62
f 105 10 19
f 105 15 12
f 105 90 89
f 22 16 105
f 105 120 149
f 105 16 15
f 171 168 105
f 89 120 105
f 91 90 105
f 105 11 10
f 139 138 105
f 168 154 105
f 149 167 105
f 105 188 171
f 105 138 106
f 70 45 105
f 105 167 186
f 186 188 105
f 105 102 70

