# https://github.com/mikedh/trimesh
v -0.20071256 0.01591998 -0.22163063
v -0.19814602 0.04382721 -0.21225632
v -0.19130190 0.04382721 -0.21273268
v -0.19733048 0.01591998 -0.22114978
v -0.21100272 0.01591998 -0.21653453
v -0.20299127 0.04382721 -0.21004082
v -0.18561715 0.04382721 -0.21190130
v -0.19171768 0.01591998 -0.21790516
v -0.21103470 0.01591998 -0.21646712
v -0.24472755 0.04382721 -0.17572077
v -0.21020317 0.04382721 -0.20544803
v -0.21009124 0.04382721 -0.20554240
v -0.16514077 0.04382721 -0.19714777
v -0.16305397 0.04382721 -0.19524235
v -0.18608088 0.01591998 -0.21205858
v -0.21560810 0.01591998 -0.20665690
v -0.21628772 0.01591998 -0.19954752
v -0.21640765 0.01591998 -0.19810048
v -0.21640765 0.01591998 -0.19779489
v -0.21581598 0.01591998 -0.19103604
v -0.21560011 0.01591998 -0.19079787
v -0.20917975 0.01591998 -0.18536920
v -0.20824428 0.01591998 -0.18460974
v -0.20071256 0.01591998 -0.18236727
v -0.19129392 0.03166714 -0.17572077
v -0.16305397 0.04382721 -0.17572077
v -0.16305397 0.04201590 -0.18782738
v -0.18359429 0.01591998 -0.20665690
v -0.19607520 0.01591998 -0.18256052
v -0.16305397 0.03998604 -0.17572077
v -0.16305397 0.04042589 -0.17841263
v -0.18317852 0.01591998 -0.19702193
v -0.19210946 0.01591998 -0.18489286
v -0.19015856 0.01591998 -0.18623204
v -0.18835159 0.01591998 -0.18811499
v -0.18552920 0.01591998 -0.19123378
v -0.18387413 0.01591998 -0.19480195
f 6 2 1
f 1 2 3
f 10 11 5
f 5 11 12
f 12 6 5
f 5 6 1
f 30 25 29
f 7 13 8
f 8 13 14
f 10 23 24
f 24 25 10
f 29 25 24
f 10 20 21
f 27 28 14
f 7 8 4
f 4 3 7
f 1 3 4
f 14 28 15
f 15 8 14
f 10 5 9
f 9 16 10
f 22 23 10
f 10 21 22
f 31 30 28
f 28 27 31
f 28 30 32
f 19 20 10
f 10 18 19
f 10 16 17
f 17 18 10
f 33 30 29
f 33 34 30
f 35 36 30
f 30 34 35
f 30 36 37
f 37 32 30
f 10 26 3
f 2 6 3
f 3 11 10
f 14 13 3
f 3 26 14
f 12 11 3
f 3 6 12
f 3 13 7
f 30 26 10
f 10 25 30
f 14 26 31
f 26 30 31
f 31 27 14
f 37 5 1
f 37 15 28
f 37 21 20
f 23 22 37
f 29 24 37
f 1 4 37
f 28 32 37
f 37 24 23
f 37 9 5
f 37 17 16
f 37 4 8
f 8 15 37
f 20 19 37
f 16 9 37
f 37 22 21
f 37 33 29
f 36 35 37
f 37 19 18
f 18 17 37
f 34 33 37
f 37 35 34

