# https://github.com/mikedh/trimesh
v -0.21685819 -0.05527230 0.18990882
v -0.22416409 -0.05527230 0.18880910
v -0.22939565 -0.06067110 0.18609451
v -0.21685819 -0.05757070 0.18895773
v -0.21685819 -0.05527230 0.14764433
v -0.23352507 -0.05527230 0.18619359
v -0.23616733 -0.05803360 0.18505424
v -0.23282239 -0.06431248 0.18387528
v -0.22654645 -0.06493148 0.18446972
v -0.21685819 -0.06061190 0.18754097
v -0.21685819 -0.05684942 0.15065616
v -0.22403895 -0.08276423 0.11721907
v -0.22497264 -0.05527230 0.11350383
v -0.26302301 -0.05527230 0.17565223
v -0.26302301 -0.05795556 0.17565223
v -0.25791658 -0.06062535 0.17694019
v -0.25525026 -0.06551819 0.17574140
v -0.24779035 -0.06605108 0.17677176
v -0.22939565 -0.06642786 0.18020959
v -0.22168066 -0.06493148 0.18446972
v -0.21685819 -0.06465966 0.18066531
v -0.21685819 -0.06105597 0.16032566
v -0.21685819 -0.06221593 0.16334739
v -0.21685819 -0.06424788 0.16999517
v -0.21685819 -0.06503106 0.17941700
v -0.22417853 -0.08276423 0.11892312
v -0.22802399 -0.08276423 0.10409191
v -0.22780260 -0.07874877 0.10409191
v -0.22815875 -0.05527230 0.10410182
v -0.26509253 -0.05527230 0.17011406
v -0.26371606 -0.06062535 0.17005462
v -0.26153103 -0.06423442 0.17322495
v -0.25541390 -0.08276423 0.12214298
v -0.24779035 -0.08276423 0.12625451
v -0.23838124 -0.08276423 0.12581859
v -0.22923682 -0.08276423 0.12159809
v -0.21997691 -0.06594073 0.17941700
v -0.23179726 -0.08276423 0.09764227
v -0.23178282 -0.07874877 0.09769181
v -0.23224486 -0.06933181 0.09810791
v -0.23295234 -0.05527230 0.09879151
v -0.26602142 -0.05527230 0.16092010
v -0.26257060 -0.08276423 0.10812417
v -0.26232995 -0.08276423 0.10957064
v -0.26141552 -0.08276423 0.11177006
v -0.25733423 -0.08276423 0.11993366
v -0.23810691 -0.08276423 0.09266881
v -0.24235665 -0.08276423 0.08946875
v -0.23838124 -0.05527230 0.09566081
v -0.26337435 -0.05527230 0.12806754
v -0.26263317 -0.08276423 0.10409191
v -0.24779035 -0.08276423 0.08870590
v -0.24251065 -0.08145893 0.08958764
v -0.24779035 -0.05527230 0.09444221
v -0.25777220 -0.05527230 0.10409191
v -0.26210856 -0.08271579 0.09893022
v -0.26211339 -0.08276423 0.09892031
v -0.25278608 -0.08276423 0.08897339
v -0.24779035 -0.08064615 0.08913191
v -0.25087538 -0.05527230 0.09580942
v -0.25375828 -0.08170923 0.08924089
v -0.25602995 -0.05527230 0.10069371
v -0.25423957 -0.05527230 0.09757292
v -0.25842192 -0.08276423 0.09392704
v -0.25398930 -0.08276423 0.08913191
f 13 5 12
f 12 5 11
f 28 13 12
f 39 28 38
f 41 48 49
f 8 16 17
f 7 16 8
f 20 36 26
f 12 25 26
f 33 34 17
f 35 36 20
f 20 19 35
f 35 19 34
f 17 16 32
f 46 33 32
f 32 33 17
f 22 23 12
f 12 11 22
f 12 23 24
f 24 25 12
f 27 28 12
f 38 28 27
f 13 28 29
f 28 39 29
f 47 39 38
f 48 39 47
f 40 48 41
f 40 39 48
f 41 29 40
f 40 29 39
f 53 48 52
f 53 49 48
f 54 49 53
f 2 6 7
f 20 26 37
f 37 26 25
f 17 34 18
f 34 19 18
f 9 19 20
f 20 10 9
f 9 18 19
f 9 8 17
f 17 18 9
f 21 10 20
f 20 37 21
f 21 37 25
f 59 53 52
f 54 53 59
f 52 58 59
f 1 2 3
f 8 9 3
f 7 8 3
f 3 2 7
f 56 55 62
f 62 63 56
f 56 63 57
f 50 55 56
f 57 50 56
f 14 30 15
f 15 32 16
f 15 16 7
f 15 6 14
f 7 6 15
f 51 43 42
f 42 50 51
f 51 50 57
f 31 30 42
f 42 43 31
f 31 43 32
f 32 15 31
f 31 15 30
f 46 32 45
f 57 63 64
f 64 63 65
f 1 3 4
f 4 9 10
f 4 3 9
f 32 43 44
f 44 45 32
f 61 60 54
f 61 58 65
f 63 60 61
f 65 63 61
f 54 59 61
f 61 59 58
f 60 29 41
f 1 5 60
f 62 55 60
f 60 50 42
f 41 49 60
f 42 30 60
f 5 13 60
f 60 49 54
f 14 6 60
f 60 2 1
f 13 29 60
f 6 2 60
f 60 55 50
f 60 30 14
f 60 63 62
f 4 5 1
f 4 11 5
f 23 22 4
f 4 21 25
f 4 22 11
f 4 24 23
f 25 24 4
f 10 21 4
f 52 48 44
f 44 51 57
f 12 26 44
f 44 27 12
f 36 35 44
f 44 33 46
f 44 47 38
f 44 26 36
f 34 33 44
f 44 35 34
f 46 45 44
f 38 27 44
f 48 47 44
f 44 58 52
f 65 58 44
f 43 51 44
f 57 64 44
f 44 64 65

