# https://github.com/mikedh/trimesh
v 0.09044633 -0.04251970 0.06258963
v 0.09044633 0.00668622 0.06258963
v 0.06810047 -0.04205686 0.06258963
v 0.09044633 -0.04024406 0.04757418
v 0.09044633 0.05596929 -0.10340904
v 0.02295285 0.00527841 0.06258963
v 0.05347854 -0.04141081 0.06258963
v 0.07219038 -0.01225174 -0.10342529
v 0.09044633 -0.03845054 0.03868517
v 0.09044633 0.03291395 -0.10342529
v 0.08210131 0.05494717 -0.10342529
v 0.02295285 0.05365507 -0.10342529
v 0.02295285 -0.03873982 0.06258963
v 0.04991060 -0.04116974 0.06258963
v 0.02295285 -0.01640768 -0.04828741
v 0.02295285 -0.01536629 -0.05261003
v 0.02798100 0.00033178 -0.10342529
v 0.07234895 -0.01218425 -0.10342529
v 0.04792841 -0.03690774 0.04006646
v 0.08147362 -0.00829830 -0.10342529
v 0.08815358 -0.00280205 -0.10342529
v 0.09044633 0.00005215 -0.10342529
v 0.02295285 0.00558697 -0.10342529
v 0.02295285 0.00301241 -0.10308403
v 0.02358055 0.00270385 -0.10342529
v 0.02298589 0.00311848 -0.10342529
f 6 5 12
f 2 5 6
f 11 12 5
f 3 7 8
f 19 13 8
f 10 11 5
f 13 19 14
f 8 7 14
f 14 19 8
f 26 24 23
f 25 24 26
f 22 9 21
f 21 9 20
f 18 9 8
f 20 9 18
f 1 3 4
f 4 3 8
f 8 9 4
f 24 25 16
f 16 25 17
f 16 17 8
f 8 13 15
f 15 16 8
f 1 2 14
f 14 2 6
f 6 13 14
f 14 3 1
f 7 3 14
f 22 21 18
f 12 11 18
f 18 10 22
f 18 25 26
f 8 17 18
f 18 23 12
f 11 10 18
f 26 23 18
f 17 25 18
f 18 21 20
f 4 2 1
f 5 2 4
f 4 10 5
f 4 9 22
f 22 10 4
f 15 13 6
f 6 12 15
f 12 23 15
f 15 23 24
f 24 16 15

