# https://github.com/mikedh/trimesh
v 0.21361237 0.34495255 0.04377336
v 0.20774590 0.34495255 0.04362371
v 0.20769943 0.33557408 0.04336775
v 0.21284374 0.33642219 0.04331262
v 0.21839205 0.34012653 0.04295033
v 0.21850644 0.34495255 0.04302515
v 0.20622655 0.34495255 0.03816967
v 0.19892655 0.32285789 0.03463734
v 0.19763957 0.31674600 0.03602743
v 0.19633472 0.30732923 0.03662600
v 0.20825354 0.33041975 0.04302515
v 0.20919016 0.33041975 0.04302515
v 0.21872093 0.32979598 0.03418054
v 0.21952172 0.33642219 0.03765774
v 0.22178108 0.34495255 0.03816574
v 0.20221191 0.29791246 0.03542493
v 0.20057460 0.29184438 0.03410572
v 0.21006602 0.30967660 0.03473579
v 0.20563668 0.34495255 0.02875406
v 0.20221191 0.33557408 0.02875406
v 0.20004193 0.32931994 0.02875406
v 0.19841175 0.32461429 0.02875406
v 0.19586283 0.31674600 0.02875406
v 0.19354270 0.30732923 0.02875406
v 0.18981047 0.29391266 0.02488307
v 0.18932787 0.28905381 0.02580849
v 0.18945299 0.28905381 0.02606445
v 0.19668506 0.29791246 0.03542493
v 0.19805426 0.29184438 0.03410572
v 0.21605403 0.31741355 0.02813581
v 0.21846353 0.32099750 0.02458379
v 0.22423705 0.34495255 0.02875406
v 0.21164613 0.30685319 0.02922662
v 0.21006961 0.29992057 0.02639918
v 0.19563403 0.28905381 0.03092780
v 0.20256225 0.28905381 0.02963222
v 0.20831430 0.30339510 0.03267625
v 0.20715245 0.34495255 0.02116566
v 0.19870132 0.32383730 0.01933846
v 0.18932429 0.29624908 0.01247857
v 0.19077570 0.30072492 0.01933846
v 0.18931355 0.29601927 0.01933846
v 0.18771556 0.28905381 0.01933846
v 0.18781923 0.28905381 0.01991340
v 0.19494765 0.28905381 0.03066396
v 0.19529442 0.28905381 0.03092780
v 0.21846353 0.32099750 0.02366625
v 0.20868611 0.29364457 0.02292198
v 0.20754570 0.28905381 0.01976375
v 0.20921876 0.29218361 0.01664491
v 0.21994357 0.33591878 0.01916913
v 0.21861726 0.33928934 0.01427821
v 0.22059778 0.34495255 0.01860600
v 0.21909271 0.32615731 0.02237854
v 0.20718464 0.29723397 0.02922662
v 0.20309133 0.28905381 0.02895096
v 0.19775039 0.31707432 0.01039540
v 0.21307970 0.34495255 0.01623536
v 0.20981578 0.33979275 0.01483346
v 0.19857262 0.31416338 0.00400019
v 0.18826968 0.28905381 0.00965113
v 0.20921876 0.29218361 0.01411282
v 0.20337376 0.28905381 0.02841540
v 0.20760649 0.28905381 0.01940146
v 0.20920088 0.31108280 0.00483897
v 0.21861726 0.34215106 0.01427821
v 0.22046909 0.34495255 0.01827521
v 0.20955123 0.31674600 0.00450425
v 0.21343004 0.34495255 0.01614479
v 0.20723467 0.32206448 0.00464208
v 0.19797562 0.30732923 0.00354339
v 0.19236655 0.29224928 0.00620150
v 0.18847702 0.28905381 0.00937941
v 0.20413880 0.31707432 0.00391749
v 0.20551514 0.28905381 0.01079707
v 0.20525774 0.28905381 0.01049385
v 0.20015631 0.28905381 0.00474446
v 0.20440692 0.30770132 0.00365365
v 0.21609335 0.34215106 0.01427821
v 0.21361237 0.34495255 0.01614479
v 0.20947616 0.32206448 0.00464208
v 0.19527654 0.28905381 0.00435067
v 0.19505490 0.28905381 0.00445699
f 1 5 6
f 1 2 3
f 3 2 10
f 71 72 60
f 42 40 43
f 10 2 9
f 15 6 5
f 83 72 71
f 71 82 83
f 57 60 40
f 40 60 61
f 43 40 61
f 51 52 32
f 41 23 40
f 40 42 41
f 41 42 23
f 19 20 7
f 5 17 18
f 5 18 13
f 32 15 13
f 63 48 56
f 71 60 74
f 65 51 62
f 52 51 65
f 39 57 40
f 39 20 19
f 40 20 39
f 60 57 38
f 38 59 60
f 38 39 19
f 57 39 38
f 72 83 73
f 73 60 72
f 73 61 60
f 32 52 53
f 52 67 53
f 66 67 52
f 32 47 54
f 54 51 32
f 54 47 62
f 62 51 54
f 36 17 35
f 28 45 46
f 27 45 28
f 10 27 28
f 23 7 22
f 40 23 22
f 23 9 8
f 8 7 23
f 2 7 8
f 8 9 2
f 9 25 26
f 26 27 10
f 10 9 26
f 24 42 43
f 43 25 24
f 23 42 24
f 24 9 23
f 24 25 9
f 56 48 55
f 14 15 5
f 5 13 14
f 14 13 15
f 33 13 18
f 13 30 31
f 31 47 32
f 32 13 31
f 48 63 49
f 50 31 49
f 49 31 48
f 77 65 76
f 59 38 58
f 60 59 58
f 67 66 80
f 70 58 69
f 70 74 60
f 60 58 70
f 16 17 5
f 5 12 16
f 16 12 17
f 4 5 1
f 4 12 5
f 1 3 4
f 3 12 4
f 29 28 46
f 11 3 10
f 10 28 11
f 11 12 3
f 28 29 11
f 21 7 20
f 21 22 7
f 21 20 40
f 40 22 21
f 44 25 43
f 44 26 25
f 56 55 37
f 37 36 56
f 37 18 17
f 17 36 37
f 34 30 13
f 13 33 34
f 48 31 34
f 34 31 30
f 34 55 48
f 34 37 55
f 34 33 18
f 18 37 34
f 62 50 64
f 50 49 64
f 78 77 82
f 78 82 71
f 65 77 78
f 71 74 78
f 79 70 69
f 74 70 81
f 81 78 74
f 62 64 75
f 75 65 62
f 76 65 75
f 52 65 68
f 68 81 66
f 68 66 52
f 65 78 68
f 78 81 68
f 31 50 62
f 62 47 31
f 80 15 32
f 80 2 1
f 19 7 80
f 80 38 19
f 1 6 80
f 6 15 80
f 69 58 80
f 80 7 2
f 32 53 80
f 80 53 67
f 80 58 38
f 46 35 29
f 35 17 29
f 11 29 17
f 17 12 11
f 69 80 79
f 79 80 66
f 81 79 66
f 70 79 81
f 56 36 75
f 46 45 75
f 75 73 83
f 43 61 75
f 75 35 46
f 75 44 43
f 75 83 82
f 75 63 56
f 75 45 27
f 82 77 75
f 61 73 75
f 75 36 35
f 27 26 75
f 75 49 63
f 75 77 76
f 26 44 75
f 75 64 49

