# https://github.com/mikedh/trimesh
v 0.17658856 0.25204927 0.15803226
v 0.17520481 0.25204927 0.15864853
v 0.17493894 0.25234719 0.15890008
v 0.17493894 0.25951936 0.16272354
v 0.17657043 0.26029175 0.16243426
v 0.20546614 0.31752580 0.18612963
v 0.18250427 0.25204927 0.16027099
v 0.17493894 0.25206029 0.15878688
v 0.17493894 0.25204927 0.15881204
v 0.17008069 0.25719116 0.16364166
v 0.18900006 0.30389864 0.18333750
v 0.19408793 0.31752580 0.19079575
v 0.18789427 0.34484633 0.22264113
v 0.18789427 0.34612627 0.22430131
v 0.20900107 0.31752580 0.18880857
v 0.21158729 0.31752580 0.19264460
v 0.21178067 0.29791815 0.19933564
v 0.18689723 0.25204927 0.17006860
v 0.16916825 0.25206029 0.16243426
v 0.15940342 0.25206029 0.18201691
v 0.17493894 0.25204927 0.19009143
v 0.15200727 0.25206029 0.21913210
v 0.15104046 0.25663946 0.18293503
v 0.18932032 0.31457970 0.19231759
v 0.19381601 0.31752580 0.19098441
v 0.18789427 0.34653454 0.22504336
v 0.18789427 0.35188610 0.23593518
v 0.18789427 0.35360743 0.23967059
v 0.18789427 0.35826383 0.24985810
v 0.18789427 0.36048168 0.25485123
v 0.21187129 0.31752580 0.19682022
v 0.21277165 0.29791815 0.20768688
v 0.18789427 0.36434363 0.26459854
v 0.18789427 0.36477396 0.26571790
v 0.21069905 0.29104387 0.20123480
v 0.18804534 0.25204927 0.17943858
v 0.15104046 0.25298717 0.18293503
v 0.17691487 0.25204927 0.19100957
v 0.16020104 0.25206029 0.23622445
v 0.15853328 0.25206029 0.23543211
v 0.15449682 0.25206029 0.22895486
v 0.15387444 0.25206029 0.22735756
v 0.15211000 0.25206029 0.22267886
v 0.15200727 0.25206029 0.21920757
v 0.15104046 0.25663946 0.18606674
v 0.17493894 0.34254018 0.26571790
v 0.18042562 0.34069748 0.23959513
v 0.18335024 0.34427254 0.23623703
v 0.18726583 0.35503083 0.24506621
v 0.18209941 0.35540598 0.26571790
v 0.18745316 0.36410088 0.26571790
v 0.20029368 0.31752580 0.25407146
v 0.21059028 0.29119836 0.20768688
v 0.19953836 0.31232873 0.25954251
v 0.19953836 0.31157840 0.25954251
v 0.18789427 0.31752580 0.28652052
v 0.19164672 0.31752580 0.28096140
v 0.19193072 0.31752580 0.28011874
v 0.19994926 0.31752580 0.25526629
v 0.18789427 0.25204927 0.17974043
v 0.17255211 0.25206029 0.23393540
v 0.15104046 0.25298717 0.18606674
v 0.17715053 0.25204927 0.19111019
v 0.16653368 0.25206029 0.23808588
v 0.16108326 0.26188068 0.24162007
v 0.16072070 0.26967078 0.24232438
v 0.15237587 0.25563535 0.22191165
v 0.17493894 0.30174699 0.26571790
v 0.17617767 0.34491253 0.26571790
v 0.17980323 0.35141163 0.26571790
v 0.18359194 0.35345294 0.25565617
v 0.20936362 0.29269900 0.21264228
v 0.19132043 0.31055223 0.27947730
v 0.18789427 0.31003362 0.28126326
v 0.18333211 0.25204927 0.18853186
v 0.18289704 0.25204927 0.18900980
f 31 52 32
f 34 52 31
f 45 46 23
f 34 56 57
f 56 73 57
f 53 73 61
f 61 36 53
f 74 73 56
f 51 56 34
f 51 50 56
f 69 46 56
f 46 45 67
f 59 52 34
f 7 1 6
f 73 53 72
f 61 73 64
f 73 74 64
f 64 74 56
f 12 13 6
f 6 11 12
f 23 11 10
f 6 1 5
f 5 11 6
f 34 31 16
f 16 31 32
f 56 50 70
f 70 69 56
f 56 46 68
f 68 66 56
f 46 66 68
f 56 66 65
f 65 66 41
f 61 64 76
f 76 64 63
f 34 57 58
f 46 67 43
f 43 67 45
f 43 66 46
f 23 13 24
f 24 11 23
f 19 20 37
f 19 37 23
f 23 10 19
f 4 10 11
f 11 5 4
f 4 5 1
f 6 13 14
f 14 13 23
f 23 26 14
f 15 7 6
f 15 16 7
f 6 14 15
f 15 14 26
f 15 26 27
f 16 15 30
f 50 51 30
f 17 16 32
f 7 16 17
f 69 70 47
f 23 46 47
f 46 69 47
f 61 76 75
f 41 21 40
f 40 65 41
f 56 65 40
f 55 57 73
f 73 72 55
f 55 53 32
f 55 72 53
f 41 66 42
f 66 43 42
f 42 21 41
f 42 43 21
f 25 12 11
f 11 24 25
f 13 12 25
f 25 24 13
f 8 19 10
f 34 16 33
f 16 30 33
f 33 51 34
f 33 30 51
f 7 17 18
f 29 30 15
f 50 30 29
f 29 49 50
f 48 70 50
f 48 47 70
f 48 49 27
f 27 26 48
f 48 26 23
f 23 47 48
f 60 36 61
f 61 75 60
f 39 40 21
f 63 64 39
f 39 64 56
f 56 40 39
f 54 59 34
f 34 58 54
f 52 59 54
f 54 58 57
f 57 55 54
f 32 52 54
f 54 55 32
f 37 20 22
f 3 8 10
f 3 4 1
f 10 4 3
f 19 8 9
f 20 19 9
f 9 22 20
f 36 18 35
f 35 53 36
f 35 18 17
f 32 53 35
f 35 17 32
f 27 49 28
f 49 29 28
f 28 15 27
f 28 29 15
f 50 49 71
f 71 48 50
f 49 48 71
f 63 39 38
f 38 39 21
f 45 62 44
f 44 43 45
f 21 43 44
f 2 3 1
f 8 3 2
f 2 9 8
f 23 37 62
f 62 45 23
f 44 62 37
f 37 22 44
f 44 9 21
f 22 9 44
f 36 60 2
f 2 18 36
f 1 7 2
f 2 76 63
f 63 38 2
f 2 75 76
f 7 18 2
f 2 60 75
f 21 9 2
f 2 38 21

