# https://github.com/mikedh/trimesh
v 0.13830362 0.25204927 0.26602281
v 0.14831992 0.25204927 0.26643459
v 0.13334887 0.25204927 0.27360887
v 0.16167855 0.30241052 0.20286395
v 0.16845397 0.27803801 0.21963558
v 0.17327524 0.27803801 0.21966725
v 0.15247380 0.25204927 0.26892104
v 0.13377066 0.25204927 0.28301618
v 0.14286862 0.33124527 0.34444878
v 0.14286862 0.33124527 0.34318180
v 0.14242547 0.32353882 0.33196905
v 0.14203036 0.28517056 0.27690301
v 0.16167855 0.30280872 0.20286395
v 0.16211102 0.30241052 0.20286395
v 0.17493038 0.28410479 0.21995231
v 0.17493038 0.27803801 0.22310392
v 0.15516474 0.25204927 0.27300705
v 0.15440658 0.25204927 0.27180340
v 0.13405364 0.25204927 0.28391890
v 0.14310888 0.32274241 0.34373611
v 0.14286862 0.32903170 0.34444878
v 0.15065314 0.33556695 0.35664347
v 0.15132588 0.34330853 0.35564570
v 0.15011922 0.34487793 0.34889905
v 0.15245244 0.34959783 0.34889905
v 0.14443833 0.33486424 0.33982431
v 0.14333313 0.32980468 0.33691026
v 0.18789391 0.36475305 0.26575360
v 0.16211102 0.30280872 0.20286395
v 0.14709725 0.33556695 0.33006859
v 0.15049297 0.34219590 0.33006859
v 0.17493038 0.29818251 0.21885955
v 0.18787255 0.30520966 0.26575360
v 0.17493038 0.27803801 0.24820595
v 0.16208967 0.25515291 0.28699131
v 0.15828816 0.25204927 0.28385553
v 0.13814878 0.25204927 0.29022212
v 0.14369085 0.31673419 0.34246913
v 0.15133655 0.31970903 0.35448960
v 0.15066382 0.32615057 0.35577241
v 0.14542608 0.32599833 0.34812301
v 0.15394741 0.34585002 0.35859144
v 0.15449201 0.33556695 0.36134713
v 0.15845901 0.35459882 0.35821134
v 0.15606707 0.35438801 0.34889905
v 0.14925427 0.34421035 0.33949174
v 0.16098446 0.35974036 0.35501222
v 0.18789391 0.36790356 0.27386225
v 0.18789391 0.32357395 0.26575360
v 0.17943665 0.36942612 0.30439643
v 0.18789391 0.30747005 0.27310207
v 0.18789391 0.30802052 0.27611114
v 0.17135848 0.27414965 0.29780814
v 0.16208967 0.25515291 0.28821078
v 0.15828816 0.25204927 0.28404558
v 0.14014564 0.25204927 0.29090311
v 0.15007651 0.30964848 0.34649180
v 0.14854950 0.31662878 0.34934248
v 0.15711889 0.31463777 0.35143301
v 0.16039180 0.33020290 0.36356431
v 0.15900361 0.34498333 0.36464127
v 0.16014086 0.35160058 0.36418198
v 0.15919582 0.33556695 0.36416613
v 0.16072284 0.36005657 0.34889905
v 0.16118734 0.35974036 0.34234245
v 0.17268259 0.36666209 0.32066127
v 0.17826737 0.37033964 0.31125396
v 0.16457238 0.35160058 0.36418198
v 0.16653186 0.35969352 0.35479049
v 0.18231981 0.36982431 0.32842152
v 0.17826737 0.36982431 0.32842152
v 0.17739708 0.37064415 0.32066127
v 0.18789391 0.37076126 0.28301618
v 0.18789391 0.31007010 0.28130574
v 0.17266124 0.28141104 0.30867249
v 0.16297597 0.26383145 0.29818824
v 0.15477499 0.25204927 0.28806825
v 0.14740158 0.25204927 0.29110901
v 0.15711889 0.30966018 0.34672935
v 0.16245807 0.33020290 0.36356431
v 0.16523444 0.34498333 0.36464127
v 0.16364870 0.33556695 0.36416613
v 0.18789391 0.37169822 0.29137822
v 0.18789391 0.37120632 0.28564514
v 0.16994893 0.34498333 0.36152132
v 0.17266124 0.35438801 0.35588326
v 0.17142254 0.35926016 0.35379275
v 0.18187666 0.36214130 0.33746457
v 0.18419920 0.36470621 0.33095545
v 0.18789391 0.36460080 0.32357533
v 0.18789391 0.36588911 0.32126307
v 0.18789391 0.36947295 0.31366121
v 0.18789391 0.37030450 0.31104806
v 0.18405504 0.37064415 0.32066127
v 0.18789391 0.34599056 0.31972687
v 0.18789391 0.35199877 0.32509569
v 0.18169513 0.34689238 0.33762293
v 0.17663892 0.34498333 0.34889905
v 0.17190307 0.33886971 0.35504391
v 0.16238332 0.32037660 0.35422036
v 0.14870967 0.25204927 0.29088728
v 0.15065314 0.25204927 0.28998456
v 0.16234594 0.31125301 0.34527233
v 0.18789391 0.37060902 0.30951186
v 0.17301896 0.34498333 0.35681766
v 0.17703403 0.35438801 0.34889905
v 0.18031762 0.35438801 0.34364108
v 0.18789391 0.36044306 0.32493733
v 0.18789391 0.35438801 0.32658437
f 3 11 12
f 13 12 11
f 13 31 28
f 13 4 3
f 3 12 13
f 15 33 16
f 32 33 15
f 17 16 36
f 75 54 53
f 16 33 34
f 33 53 34
f 34 53 54
f 3 4 1
f 4 5 1
f 26 13 27
f 27 13 11
f 30 13 26
f 31 13 30
f 26 46 30
f 30 46 31
f 28 31 50
f 31 46 50
f 50 46 67
f 75 99 80
f 25 46 26
f 37 38 19
f 103 79 76
f 76 54 75
f 6 15 16
f 6 16 17
f 6 2 1
f 6 1 5
f 32 15 14
f 15 6 14
f 14 5 4
f 14 6 5
f 75 74 95
f 49 32 28
f 49 33 32
f 35 36 16
f 54 76 77
f 52 53 33
f 52 74 75
f 75 53 52
f 83 84 67
f 28 50 48
f 67 46 66
f 66 65 67
f 46 65 66
f 57 39 58
f 39 38 58
f 58 37 57
f 38 37 58
f 41 22 21
f 75 80 100
f 100 76 75
f 103 76 100
f 100 79 103
f 100 80 79
f 57 79 59
f 79 80 59
f 59 39 57
f 88 90 89
f 107 90 88
f 64 65 45
f 45 65 46
f 46 25 45
f 61 62 42
f 23 22 42
f 21 22 9
f 9 22 23
f 9 25 26
f 3 8 9
f 9 8 21
f 57 37 56
f 56 79 57
f 78 79 56
f 2 6 7
f 28 32 29
f 32 14 29
f 29 13 28
f 96 97 75
f 75 95 96
f 109 97 96
f 54 77 55
f 101 79 78
f 101 76 79
f 33 49 51
f 51 52 33
f 89 90 70
f 87 88 70
f 70 88 89
f 70 69 87
f 108 107 109
f 108 90 107
f 73 48 50
f 73 50 67
f 67 84 73
f 20 38 39
f 20 41 21
f 21 8 20
f 20 8 19
f 19 38 20
f 22 41 40
f 40 20 39
f 41 20 40
f 39 59 60
f 60 59 80
f 86 88 87
f 98 105 99
f 98 99 75
f 75 97 98
f 98 97 109
f 109 107 98
f 107 105 98
f 47 45 25
f 64 45 47
f 69 70 47
f 47 70 71
f 23 25 24
f 24 9 23
f 25 9 24
f 26 27 10
f 10 9 26
f 10 27 11
f 10 11 3
f 3 9 10
f 18 6 17
f 18 7 6
f 102 77 76
f 76 101 102
f 104 83 94
f 22 40 43
f 43 63 61
f 43 60 63
f 61 42 43
f 43 42 22
f 43 40 39
f 39 60 43
f 106 105 107
f 106 86 105
f 107 88 106
f 88 86 106
f 85 80 99
f 99 105 85
f 105 86 85
f 68 86 87
f 68 85 86
f 81 85 68
f 87 69 68
f 69 47 68
f 68 47 62
f 44 47 25
f 44 25 23
f 23 42 44
f 44 42 62
f 62 47 44
f 91 70 90
f 91 92 70
f 104 94 93
f 70 92 93
f 93 94 70
f 72 83 67
f 72 94 83
f 72 65 64
f 67 65 72
f 64 47 72
f 72 47 71
f 80 85 82
f 82 85 81
f 35 34 54
f 16 34 35
f 29 14 4
f 4 13 29
f 55 35 54
f 36 35 55
f 78 56 102
f 17 36 102
f 102 8 3
f 36 55 102
f 3 1 102
f 1 2 102
f 19 8 102
f 102 37 19
f 102 101 78
f 102 56 37
f 2 7 102
f 102 55 77
f 102 18 17
f 7 18 102
f 61 81 68
f 68 62 61
f 74 52 93
f 28 48 93
f 93 83 104
f 93 51 49
f 93 95 74
f 93 49 28
f 109 96 93
f 93 73 84
f 84 83 93
f 93 108 109
f 93 96 95
f 52 51 93
f 90 108 93
f 48 73 93
f 93 91 90
f 92 91 93
f 70 94 72
f 71 70 72
f 63 60 82
f 82 60 80
f 82 81 61
f 61 63 82

