# https://github.com/mikedh/trimesh
v -0.16304597 0.06904179 -0.13148681
v -0.25719378 0.08011371 -0.15959656
v -0.26646809 0.07133110 -0.13148681
v -0.16305739 0.04383165 -0.13147472
v -0.16304597 0.04383165 -0.13148681
v -0.16304597 0.09724884 -0.22547202
v -0.24122647 0.09568794 -0.21081289
v -0.25719378 0.08303431 -0.16901080
v -0.26660514 0.07132416 -0.13148681
v -0.27799242 0.04383165 -0.13147472
v -0.16305739 0.02797993 -0.13147472
v -0.16304597 0.04383165 -0.19522321
v -0.16304597 0.09860161 -0.23488624
v -0.17246875 0.09884442 -0.23488624
v -0.18189153 0.09763732 -0.22547202
v -0.22895972 0.09675628 -0.21719378
v -0.24399048 0.09568794 -0.21081289
v -0.26232207 0.08631566 -0.18196594
v -0.27359513 0.06936090 -0.13148681
v -0.27370934 0.06931234 -0.13148681
v -0.27833507 0.06168825 -0.13148681
v -0.27971708 0.05329412 -0.13148681
v -0.27972850 0.05308601 -0.13148681
v -0.27825512 0.04433114 -0.13148681
v -0.27800387 0.04383165 -0.13148681
v -0.27380072 0.03637405 -0.13147472
v -0.17224031 0.02816029 -0.13147472
v -0.19131431 0.03167057 -0.17571799
v -0.16304597 0.04432420 -0.19722932
v -0.16304597 0.09699216 -0.24129130
v -0.18189153 0.09875423 -0.23488624
v -0.21013701 0.09802582 -0.22547202
v -0.20072567 0.09794257 -0.22547202
v -0.17246875 0.09717252 -0.24136382
v -0.21954837 0.09792176 -0.22547202
v -0.23837108 0.09622212 -0.22268038
v -0.24379632 0.09563939 -0.21605779
v -0.26232207 0.08631566 -0.18415333
v -0.27383498 0.07021419 -0.14075601
v -0.27320681 0.07074836 -0.15017025
v -0.27710154 0.06250686 -0.14075601
v -0.27545686 0.06250686 -0.15017025
v -0.27199613 0.06250686 -0.16682341
v -0.27197328 0.05570136 -0.16670255
v -0.27762695 0.05308601 -0.14075601
v -0.27544543 0.05308601 -0.15017025
v -0.27216745 0.04675225 -0.15704662
v -0.27621067 0.04383165 -0.13848403
v -0.27169916 0.03867030 -0.14633929
v -0.27252150 0.03783089 -0.14074393
v -0.26670794 0.03318290 -0.13147472
v -0.21013701 0.02947144 -0.13147472
v -0.24803370 0.03189950 -0.13147472
v -0.25720520 0.03248917 -0.13147472
v -0.26661656 0.03314821 -0.13147472
v -0.26328147 0.03834425 -0.15600731
v -0.20300997 0.04383165 -0.21002736
v -0.19815581 0.04383165 -0.21223892
v -0.19131431 0.04383165 -0.21272232
v -0.17468453 0.05651997 -0.25079014
v -0.16304597 0.05901045 -0.24466304
v -0.16304597 0.09033929 -0.24606490
v -0.19131431 0.09849755 -0.23488624
v -0.18189153 0.09700604 -0.24117046
v -0.17634065 0.08624629 -0.24918283
v -0.17790540 0.08624629 -0.24918283
v -0.21954837 0.09696440 -0.23238465
v -0.22949654 0.09701297 -0.22605210
v -0.24311103 0.09546596 -0.22079511
v -0.22674395 0.09631231 -0.23129700
v -0.23300295 0.09503584 -0.22956884
v -0.25468105 0.08880615 -0.20664356
v -0.26369266 0.08148036 -0.18751297
v -0.27217885 0.06965227 -0.15959656
v -0.27156210 0.06796651 -0.16526444
v -0.26814706 0.07190689 -0.17842503
v -0.26598839 0.07190689 -0.18783927
v -0.27076258 0.06250686 -0.17153656
v -0.26879809 0.06250686 -0.17842503
v -0.26606833 0.06250686 -0.18783927
v -0.26335000 0.06250686 -0.19588789
v -0.26275608 0.05656853 -0.19436517
v -0.26227638 0.04815359 -0.18360950
v -0.27298980 0.04383165 -0.15023067
v -0.27553681 0.04366516 -0.14074393
v -0.26649094 0.03749790 -0.14975936
v -0.26661656 0.03536121 -0.14074393
v -0.27304691 0.04363047 -0.14975936
v -0.21010274 0.04383165 -0.20553174
v -0.21511681 0.05765768 -0.23986529
v -0.17881913 0.05651997 -0.25079014
v -0.17190910 0.06187556 -0.25254247
v -0.16304597 0.06392900 -0.25186570
v -0.16304597 0.08986062 -0.24639119
v -0.19131431 0.09672160 -0.24090459
v -0.19913806 0.09628455 -0.24043326
v -0.20166223 0.09744308 -0.23582888
v -0.16304597 0.08191047 -0.25100766
v -0.17291419 0.08191047 -0.25138230
v -0.18138897 0.08195903 -0.25158775
v -0.23883936 0.09143539 -0.22751438
v -0.24457298 0.09074166 -0.22260787
v -0.25331046 0.08785574 -0.21275858
v -0.20540849 0.09544514 -0.23958732
v -0.22949654 0.09143539 -0.23348439
v -0.23602966 0.08876452 -0.23181666
v -0.26268755 0.07844183 -0.19432892
v -0.26329290 0.07190689 -0.19586371
v -0.26131698 0.07190689 -0.20057687
v -0.25864433 0.07190689 -0.20664356
v -0.26112280 0.06250686 -0.20060105
v -0.25765065 0.06250686 -0.20664356
v -0.25373305 0.06250686 -0.21320572
v -0.25263659 0.05766462 -0.21155007
v -0.24778244 0.05693620 -0.21372538
v -0.22617287 0.06628074 -0.24030033
v -0.20657348 0.06564945 -0.24971458
v -0.23837108 0.06541358 -0.23215504
v -0.20072567 0.06498347 -0.25046384
v -0.18193722 0.06235423 -0.25233702
v -0.18189153 0.07190689 -0.25493530
v -0.17246875 0.07190689 -0.25493530
v -0.16304597 0.07190689 -0.25428272
v -0.19131431 0.07987091 -0.25147898
v -0.20166223 0.09167819 -0.24257232
v -0.24228867 0.08349911 -0.22946008
v -0.25119748 0.08132774 -0.21872857
v -0.25403002 0.08132774 -0.21401542
v -0.25750217 0.08132774 -0.20664356
v -0.21013701 0.08945825 -0.24156927
v -0.21698995 0.08746725 -0.24045746
v -0.22324895 0.08482414 -0.23921269
v -0.22929094 0.08154280 -0.23827005
v -0.23883936 0.08074501 -0.23294056
v -0.25453257 0.07190689 -0.21466800
v -0.25159723 0.07190689 -0.21938116
v -0.24320240 0.06702997 -0.23033020
v -0.23200928 0.07190689 -0.23886222
v -0.20657348 0.06902098 -0.24971458
v -0.19131431 0.07190689 -0.25367845
v -0.19803017 0.07833083 -0.25024632
v -0.24589788 0.08074501 -0.22599167
v -0.24322523 0.07721393 -0.23034228
v -0.22637845 0.07854589 -0.24017949
v -0.24711999 0.07190689 -0.22547202
v -0.24328234 0.07190689 -0.23040272
v -0.23837108 0.07190689 -0.23437869
v -0.20098835 0.07205951 -0.25091100
f 24 10 23
f 3 9 10
f 10 4 3
f 3 4 1
f 1 2 3
f 10 20 21
f 21 20 39
f 10 9 19
f 19 20 10
f 28 29 11
f 12 5 11
f 11 29 12
f 122 92 121
f 123 92 122
f 7 2 1
f 6 7 1
f 15 7 6
f 23 10 22
f 10 21 22
f 20 19 18
f 18 19 9
f 39 20 18
f 56 28 55
f 27 28 11
f 52 28 27
f 55 28 54
f 90 91 58
f 59 28 58
f 58 91 59
f 29 28 60
f 60 61 29
f 28 59 60
f 60 59 91
f 60 91 92
f 121 92 120
f 92 91 120
f 45 24 23
f 45 46 24
f 123 122 98
f 98 122 99
f 8 18 9
f 9 3 8
f 8 3 2
f 17 18 8
f 8 7 17
f 2 7 8
f 39 18 38
f 38 18 17
f 82 112 113
f 81 82 44
f 46 45 44
f 24 46 44
f 44 45 23
f 53 28 52
f 53 54 28
f 114 113 137
f 83 82 114
f 82 113 114
f 91 90 117
f 117 138 139
f 89 56 83
f 83 90 89
f 61 60 93
f 93 92 123
f 93 60 92
f 147 138 137
f 94 98 65
f 65 98 99
f 34 30 62
f 62 65 34
f 94 65 62
f 40 21 39
f 39 38 40
f 37 69 72
f 72 38 37
f 37 38 17
f 83 56 86
f 86 49 83
f 111 82 81
f 111 112 82
f 81 110 111
f 24 44 47
f 47 44 82
f 47 82 83
f 83 49 47
f 118 114 137
f 90 114 118
f 115 90 83
f 83 114 115
f 115 114 90
f 119 120 91
f 91 117 119
f 137 138 116
f 138 117 116
f 116 118 137
f 116 117 90
f 90 118 116
f 57 90 58
f 57 89 90
f 58 28 57
f 28 56 57
f 56 89 57
f 139 138 144
f 138 133 144
f 144 148 139
f 70 104 105
f 105 133 106
f 106 71 105
f 105 71 70
f 101 71 106
f 69 71 101
f 72 69 103
f 137 113 136
f 146 147 137
f 36 68 70
f 70 71 36
f 36 71 69
f 69 37 36
f 36 37 17
f 17 35 36
f 35 68 36
f 35 32 31
f 31 63 35
f 64 31 34
f 63 31 64
f 96 104 70
f 21 40 41
f 41 22 21
f 49 26 50
f 51 26 49
f 127 103 126
f 126 101 106
f 73 103 107
f 73 38 72
f 72 103 73
f 73 40 38
f 128 103 127
f 137 136 145
f 145 146 137
f 16 33 32
f 17 7 16
f 16 7 15
f 15 33 16
f 16 35 17
f 16 32 35
f 14 31 32
f 32 33 14
f 34 31 14
f 14 33 15
f 13 30 14
f 14 30 34
f 14 6 13
f 15 6 14
f 67 96 70
f 35 63 67
f 70 68 67
f 67 68 35
f 63 64 95
f 95 96 63
f 81 44 80
f 80 108 81
f 74 41 40
f 40 73 74
f 74 76 75
f 74 73 76
f 42 74 75
f 41 74 42
f 22 41 42
f 23 22 42
f 75 76 43
f 43 42 75
f 43 78 44
f 43 44 23
f 23 42 43
f 109 110 81
f 81 108 109
f 25 26 10
f 25 50 26
f 49 50 25
f 10 24 25
f 24 49 25
f 55 51 87
f 87 56 55
f 87 86 56
f 49 86 87
f 87 51 49
f 85 88 49
f 84 47 49
f 49 88 84
f 84 85 47
f 88 85 84
f 102 103 69
f 102 126 103
f 69 101 102
f 101 126 102
f 146 145 143
f 147 146 143
f 143 136 127
f 143 145 136
f 138 147 143
f 106 133 134
f 134 126 106
f 134 133 138
f 138 143 134
f 134 143 126
f 127 136 135
f 135 128 127
f 110 128 135
f 135 111 110
f 112 111 135
f 135 113 112
f 135 136 113
f 129 108 107
f 107 103 129
f 103 128 129
f 129 109 108
f 129 128 110
f 110 109 129
f 63 96 97
f 97 67 63
f 96 67 97
f 100 124 96
f 100 65 99
f 121 124 100
f 100 122 121
f 99 122 100
f 140 124 121
f 140 119 117
f 140 117 139
f 139 148 140
f 121 120 140
f 120 119 140
f 104 96 125
f 96 124 125
f 125 130 104
f 125 124 130
f 130 124 141
f 141 144 133
f 148 144 141
f 141 140 148
f 124 140 141
f 44 78 79
f 79 80 44
f 48 49 24
f 48 85 49
f 24 47 48
f 47 85 48
f 127 126 142
f 142 143 127
f 126 143 142
f 96 95 66
f 66 100 96
f 65 100 66
f 66 95 64
f 34 65 66
f 66 64 34
f 131 141 133
f 130 141 131
f 131 105 104
f 104 130 131
f 108 80 77
f 80 79 77
f 77 79 78
f 78 43 77
f 77 43 76
f 107 108 77
f 77 73 107
f 76 73 77
f 133 105 132
f 132 131 133
f 105 131 132
f 5 4 11
f 1 4 5
f 1 5 62
f 5 12 62
f 62 6 1
f 62 30 13
f 62 12 29
f 29 61 62
f 123 98 62
f 13 6 62
f 62 98 94
f 62 93 123
f 61 93 62
f 11 4 51
f 51 4 10
f 51 53 52
f 51 27 11
f 52 27 51
f 55 54 51
f 54 53 51
f 10 26 51

