# https://github.com/mikedh/trimesh
v -0.21685339 -0.03166217 0.19389755
v -0.21685339 -0.03922340 0.19328898
v -0.21685339 -0.02704958 0.19372220
v -0.26290628 -0.03166217 0.18503733
v -0.26267697 -0.03667241 0.18475884
v -0.21685339 -0.04746368 0.19228848
v -0.21685339 -0.02614418 0.19318585
v -0.26248436 -0.02660300 0.18470726
v -0.28757911 -0.02225345 0.16373775
v -0.29330249 -0.02225345 0.15903432
v -0.29332081 -0.03166217 0.15946753
v -0.26302552 -0.05526961 0.17565108
v -0.23352819 -0.05526961 0.18619256
v -0.22416351 -0.05526961 0.18880216
v -0.21685339 -0.05049796 0.19186558
v -0.29252285 -0.04108313 0.15873519
v -0.29122043 -0.04717004 0.15735304
v -0.21685339 -0.02347083 0.18937977
v -0.21954080 -0.02370330 0.18959638
v -0.22896050 -0.02344025 0.18745094
v -0.24754309 -0.01979422 0.17879702
v -0.25721044 -0.02178852 0.17941590
v -0.27604066 -0.01644182 0.16674960
v -0.28156225 -0.01703522 0.16573879
v -0.29222016 -0.01580561 0.15762123
v -0.30055756 -0.01601360 0.14820402
v -0.29800774 -0.02225345 0.15348508
v -0.29831958 -0.03252474 0.15103022
v -0.26508924 -0.05526961 0.17011217
v -0.21685339 -0.05526961 0.18990582
v -0.29954865 -0.03623195 0.14635771
v -0.29157813 -0.04739639 0.15116430
v -0.31054593 -0.02887871 0.12082916
v -0.21685339 -0.01880318 0.18085993
v -0.21954997 -0.01846672 0.18162322
v -0.24424114 -0.01743286 0.17523850
v -0.25721044 -0.01797120 0.17377383
v -0.26662097 -0.01606254 0.16835868
v -0.28545120 -0.01059349 0.15116430
v -0.28500177 -0.01512045 0.16069496
v -0.29986049 -0.00794461 0.13754907
v -0.30080522 -0.02225345 0.14878163
v -0.30164906 -0.01286309 0.14111791
v -0.30482259 -0.01283862 0.13234021
v -0.30670284 -0.02225345 0.13234021
v -0.30378615 -0.02225345 0.14174711
v -0.30023654 -0.02995539 0.14780176
v -0.26601561 -0.05526961 0.16092188
v -0.21685339 -0.05526961 0.14764704
v -0.29170655 -0.04714557 0.14174711
v -0.30137387 -0.03799379 0.13234021
v -0.31020659 -0.02225345 0.12043722
v -0.31054593 -0.02887871 0.11531087
v -0.21685339 -0.01784273 0.17870420
v -0.21685339 -0.01698628 0.17633184
v -0.21954997 -0.01677217 0.17690946
v -0.22631894 -0.01685170 0.17662066
v -0.28545120 -0.00853190 0.14510966
v -0.29487090 -0.00744298 0.13907564
v -0.29487090 -0.00957187 0.14377907
v -0.29487090 -0.00542420 0.13234021
v -0.30144725 0.00220432 0.10193288
v -0.30115374 -0.00698417 0.13234021
v -0.30842720 -0.01075866 0.11350582
v -0.30750082 -0.01358495 0.12219069
v -0.26338323 -0.05526961 0.12807000
v -0.22497066 -0.05526961 0.11350582
v -0.21685339 -0.04159700 0.10409894
v -0.29139468 -0.04683358 0.13586780
v -0.30156650 -0.03766956 0.12292302
v -0.31001396 -0.02205157 0.11271160
v -0.30891331 -0.00981045 0.10408862
v -0.30082357 -0.03705781 0.11608446
v -0.30883992 -0.01283250 0.09463017
v -0.30851891 -0.01283250 0.08852394
v -0.30708806 -0.02154994 0.09463017
v -0.30484091 -0.02244921 0.08852394
v -0.30062177 -0.02755733 0.08852394
v -0.30197008 -0.02864012 0.09467142
v -0.21685339 0.00620517 0.08852394
v -0.28545120 -0.00714934 0.14041652
v -0.22896050 0.00661504 0.08852394
v -0.23838020 0.00687809 0.08852394
v -0.29487090 0.00722679 0.08852394
v -0.29759499 0.00647434 0.08852394
v -0.30271300 0.00323206 0.09467142
v -0.30274971 -0.00566890 0.12292302
v -0.30728987 -0.00342378 0.09467142
v -0.25777910 -0.05526961 0.10408862
v -0.22816253 -0.05526961 0.10409894
v -0.21685339 -0.03601171 0.09085503
v -0.25603640 -0.05526961 0.10069513
v -0.30753750 -0.00342378 0.08852394
v -0.25424786 -0.05526961 0.09756981
v -0.30023654 -0.02769803 0.08852394
v -0.24779991 -0.05526961 0.09443419
v -0.25088171 -0.05526961 0.09580603
v -0.21685339 -0.03474539 0.08852394
v -0.30303402 0.00424145 0.08852394
v -0.23295035 -0.05526961 0.09878694
v -0.21685339 -0.03514303 0.08924596
v -0.29488007 -0.02928858 0.08852394
v -0.25751312 -0.03316708 0.08852394
v -0.25258771 -0.03339954 0.08852394
v -0.23838020 -0.05526961 0.09565131
f 33 52 53
f 79 53 78
f 105 98 100
f 105 96 98
f 103 96 102
f 81 56 84
f 81 58 56
f 41 26 25
f 84 56 83
f 45 52 33
f 66 50 69
f 12 13 5
f 12 5 17
f 17 5 16
f 68 49 67
f 3 7 8
f 55 80 56
f 8 21 22
f 25 8 24
f 8 7 20
f 20 21 8
f 30 15 14
f 14 5 13
f 15 5 14
f 71 53 52
f 73 53 79
f 79 78 73
f 73 78 94
f 77 78 53
f 94 78 97
f 97 78 96
f 102 96 95
f 96 78 95
f 98 96 104
f 96 103 104
f 61 81 84
f 58 81 61
f 26 41 43
f 56 80 82
f 82 83 56
f 50 66 48
f 89 66 69
f 16 5 11
f 26 45 46
f 46 45 33
f 1 5 2
f 32 17 33
f 50 48 32
f 90 91 68
f 68 67 90
f 90 101 91
f 98 101 90
f 100 98 90
f 58 61 59
f 59 61 41
f 58 59 39
f 39 59 41
f 35 55 56
f 8 22 23
f 23 24 8
f 38 39 23
f 7 18 19
f 19 20 7
f 18 35 19
f 21 20 19
f 19 35 21
f 53 73 70
f 69 50 70
f 70 73 69
f 75 77 76
f 76 53 75
f 76 77 53
f 62 61 84
f 41 61 62
f 12 17 29
f 17 32 29
f 29 32 48
f 92 73 94
f 69 73 92
f 92 89 69
f 4 11 5
f 4 5 1
f 1 3 4
f 4 3 8
f 9 8 25
f 9 4 8
f 42 27 26
f 26 46 42
f 33 17 31
f 31 17 16
f 6 5 15
f 6 2 5
f 60 39 41
f 25 24 40
f 39 60 40
f 24 23 40
f 40 23 39
f 40 41 25
f 40 60 41
f 21 35 36
f 57 39 38
f 38 36 57
f 57 36 35
f 57 35 56
f 56 58 57
f 58 39 57
f 34 35 18
f 51 32 33
f 33 53 51
f 53 70 51
f 50 32 51
f 51 70 50
f 85 62 84
f 93 88 99
f 27 11 10
f 10 9 25
f 11 4 10
f 4 9 10
f 25 26 10
f 26 27 10
f 47 42 46
f 47 46 33
f 33 31 47
f 21 36 37
f 37 36 38
f 38 23 37
f 37 22 21
f 37 23 22
f 55 35 54
f 35 34 54
f 86 85 99
f 62 85 86
f 99 88 86
f 88 64 86
f 72 71 52
f 52 64 72
f 88 93 72
f 72 64 88
f 26 43 44
f 44 45 26
f 52 45 44
f 42 47 28
f 16 11 28
f 28 31 16
f 28 47 31
f 28 11 27
f 27 42 28
f 87 86 64
f 74 93 75
f 74 72 93
f 75 53 74
f 53 71 74
f 71 72 74
f 65 64 52
f 52 44 65
f 65 44 64
f 64 44 63
f 63 87 64
f 63 43 41
f 63 44 43
f 41 62 63
f 62 86 63
f 86 87 63
f 92 105 100
f 92 13 12
f 94 97 92
f 30 14 92
f 92 49 30
f 12 29 92
f 96 105 92
f 100 90 92
f 92 67 49
f 92 14 13
f 92 97 96
f 92 48 66
f 66 89 92
f 92 90 67
f 92 29 48
f 102 95 93
f 98 104 93
f 84 83 93
f 93 80 98
f 93 77 75
f 93 103 102
f 93 82 80
f 78 77 93
f 93 95 78
f 93 104 103
f 93 85 84
f 83 82 93
f 99 85 93
f 54 101 98
f 68 91 54
f 98 80 54
f 54 18 7
f 30 49 54
f 54 49 68
f 54 3 1
f 54 15 30
f 91 101 54
f 7 3 54
f 80 55 54
f 54 6 15
f 1 2 54
f 2 6 54
f 54 34 18

