# https://github.com/mikedh/trimesh
v 0.23245675 0.40387481 0.15633066
v 0.22911515 0.40209918 0.15633066
v 0.23672102 0.40269104 0.15633066
v 0.23827335 0.40685111 0.14949508
v 0.23562377 0.40685111 0.14949508
v 0.23626592 0.41623665 0.12070564
v 0.22579227 0.39956255 0.15633066
v 0.24058005 0.40135511 0.15633066
v 0.24701385 0.40681729 0.12936914
v 0.24674579 0.41583077 0.10928127
v 0.23855390 0.41623665 0.12070564
v 0.24185809 0.42481042 0.08435709
v 0.23528089 0.42261202 0.08435709
v 0.23549908 0.41720057 0.11350829
v 0.22086717 0.39185120 0.15633066
v 0.24199524 0.39721193 0.15633066
v 0.24601636 0.40450051 0.13565254
v 0.24685799 0.39822659 0.13945114
v 0.24776197 0.40806870 0.12291436
v 0.24753754 0.41671013 0.10409270
v 0.24405257 0.42447220 0.08435709
v 0.19164074 0.34145688 0.05925203
v 0.18889142 0.34145688 0.05925203
v 0.23425222 0.42090402 0.08435709
v 0.21820512 0.38755583 0.15633066
v 0.21927743 0.38929765 0.15633066
v 0.24360992 0.39205412 0.15633066
v 0.24685799 0.39577452 0.13945114
v 0.24854749 0.40147348 0.12291436
v 0.25096016 0.41089281 0.09467711
v 0.24968838 0.41089281 0.10409270
v 0.24875322 0.41813065 0.09467711
v 0.24885296 0.42095476 0.08435709
v 0.24897142 0.42078565 0.08435709
v 0.24905869 0.42063346 0.08435709
v 0.21029379 0.29522263 0.06008030
v 0.20356075 0.28906708 0.05907114
v 0.18889142 0.33841292 0.05925203
v 0.18789394 0.25206616 0.10581588
v 0.18789394 0.26026793 0.10734865
v 0.18789394 0.26102892 0.10753906
v 0.18789394 0.27379658 0.11510770
v 0.18789394 0.27910661 0.11961082
v 0.18789394 0.28186309 0.12291436
v 0.18789394 0.28223512 0.12604655
v 0.18889142 0.34145688 0.06273647
v 0.22939570 0.41239788 0.08435709
v 0.21588596 0.38300683 0.15633066
v 0.24268099 0.38689631 0.15633066
v 0.24713231 0.39489515 0.13232996
v 0.24938288 0.40147348 0.11350829
v 0.24165236 0.38263480 0.15633066
v 0.24210746 0.38263480 0.15116113
v 0.23263754 0.34497435 0.13232996
v 0.25157736 0.41089281 0.08526152
v 0.25149631 0.41178910 0.08435709
v 0.21010051 0.28906708 0.06021358
v 0.25157113 0.41089281 0.08435709
v 0.19333025 0.25206616 0.10618717
v 0.20340488 0.28906708 0.05909018
v 0.19593619 0.28906708 0.06557351
v 0.19584890 0.28906708 0.06574488
v 0.18789394 0.25206616 0.13033069
v 0.18923430 0.28656427 0.13040685
v 0.18789394 0.27805813 0.13092095
v 0.20307446 0.34495743 0.15633066
v 0.20479512 0.35439368 0.15633066
v 0.20742601 0.36394830 0.15633066
v 0.20806813 0.36585922 0.15633066
v 0.20889729 0.36831130 0.15633066
v 0.20894093 0.36842967 0.15633066
v 0.21097334 0.37286033 0.15633066
v 0.23597291 0.35439368 0.12291436
v 0.24735050 0.39420182 0.12291436
v 0.24964471 0.40147348 0.10409270
v 0.23734445 0.36957962 0.15633066
v 0.23297419 0.34497435 0.12291436
v 0.23673348 0.36778707 0.15633066
v 0.23212010 0.35439368 0.15633066
v 0.20047475 0.25206616 0.12241931
v 0.24967589 0.40147348 0.09467711
v 0.21255062 0.28906708 0.06589721
v 0.20026902 0.25206616 0.11630726
v 0.19804338 0.25206616 0.11159471
v 0.24965720 0.40236974 0.08435709
v 0.18789394 0.26092745 0.13155880
v 0.18800615 0.25206616 0.13035924
v 0.19929023 0.30222373 0.15605457
v 0.18789394 0.27164892 0.13195866
v 0.19949598 0.32148519 0.15587369
v 0.20000719 0.32197560 0.15633066
v 0.24130945 0.37321544 0.08526152
v 0.24140922 0.37321544 0.09467711
v 0.24609118 0.38895945 0.09467711
v 0.24610987 0.38889179 0.10409270
v 0.24749390 0.39359301 0.10409270
v 0.24747519 0.39376212 0.11350829
v 0.21373512 0.28906708 0.07584594
v 0.23059269 0.35033509 0.15633066
v 0.20017551 0.25206616 0.12392351
v 0.24946393 0.40147348 0.08526152
v 0.24746273 0.39367757 0.09467711
v 0.21273763 0.28906708 0.06640179
v 0.24941406 0.40147348 0.08435709
v 0.18789394 0.27009314 0.13216810
v 0.19489505 0.25206616 0.13013076
v 0.20006328 0.30222373 0.15605457
v 0.20997583 0.31945587 0.15633066
v 0.20415300 0.31998012 0.15633066
v 0.20198347 0.32084257 0.15633066
v 0.19929023 0.30305236 0.15605457
v 0.24127830 0.37321544 0.08435709
v 0.24401516 0.38263480 0.08435709
v 0.24599142 0.38934839 0.08526152
v 0.22912138 0.34681762 0.15633066
v 0.19990745 0.25453515 0.12815054
v 0.19920919 0.25206616 0.12697001
v 0.24734427 0.39404960 0.08526152
v 0.24720089 0.39366067 0.08435709
v 0.19624789 0.25206616 0.12935010
v 0.20083012 0.27244373 0.13855624
v 0.21804926 0.32512101 0.15633066
v 0.21126635 0.31957424 0.15633066
v 0.21963903 0.32769145 0.15633066
f 12 22 23
f 23 22 37
f 37 22 36
f 12 11 21
f 21 11 10
f 10 20 21
f 21 20 33
f 21 22 12
f 21 33 22
f 12 23 13
f 98 103 112
f 62 61 39
f 38 23 37
f 61 62 38
f 39 23 38
f 38 62 39
f 33 20 32
f 35 36 22
f 35 32 30
f 37 36 57
f 7 13 15
f 10 11 4
f 30 32 31
f 27 18 16
f 10 4 9
f 9 4 8
f 9 20 10
f 98 112 92
f 85 103 82
f 82 57 85
f 79 80 54
f 100 80 79
f 83 103 98
f 98 80 83
f 82 103 83
f 83 57 82
f 46 23 45
f 45 64 46
f 41 42 23
f 45 23 44
f 60 38 37
f 61 38 60
f 60 37 39
f 39 61 60
f 22 33 34
f 34 35 22
f 33 32 34
f 32 35 34
f 58 57 36
f 58 85 57
f 6 11 12
f 12 13 6
f 24 13 23
f 23 46 24
f 24 46 47
f 3 4 1
f 8 4 3
f 8 16 17
f 17 16 18
f 17 9 8
f 18 9 17
f 19 32 20
f 20 9 19
f 19 31 32
f 30 31 19
f 19 9 18
f 19 29 30
f 18 29 19
f 73 92 93
f 76 54 52
f 73 54 77
f 98 92 77
f 77 92 73
f 77 80 98
f 77 54 80
f 55 30 51
f 30 29 51
f 28 49 52
f 27 49 28
f 28 18 27
f 28 29 18
f 28 51 29
f 99 100 79
f 116 99 115
f 100 99 116
f 39 37 59
f 37 57 59
f 66 46 64
f 122 107 121
f 121 116 122
f 121 107 106
f 72 46 71
f 47 46 25
f 25 24 47
f 13 24 25
f 40 23 39
f 40 41 23
f 23 42 43
f 43 44 23
f 36 35 56
f 56 58 36
f 55 58 56
f 56 30 55
f 56 35 30
f 1 6 2
f 2 6 7
f 1 4 5
f 5 6 1
f 13 7 14
f 14 6 13
f 7 6 14
f 94 92 102
f 94 93 92
f 73 93 94
f 94 95 73
f 113 112 103
f 103 119 113
f 113 92 112
f 103 85 104
f 104 119 103
f 79 54 78
f 54 76 78
f 96 94 102
f 95 94 96
f 73 95 96
f 52 54 53
f 53 28 52
f 54 28 53
f 50 54 73
f 50 28 54
f 73 74 50
f 74 51 50
f 51 28 50
f 57 83 84
f 84 59 57
f 91 66 90
f 68 46 67
f 46 66 67
f 107 122 123
f 124 116 115
f 124 122 116
f 65 64 45
f 89 90 65
f 65 66 64
f 65 90 66
f 86 63 88
f 87 106 107
f 87 107 88
f 88 63 87
f 120 116 121
f 121 106 120
f 69 46 68
f 48 46 72
f 48 25 46
f 15 13 26
f 13 25 26
f 102 92 114
f 92 113 114
f 114 113 119
f 119 104 101
f 101 104 85
f 75 51 74
f 55 51 75
f 88 91 111
f 91 90 111
f 100 116 117
f 116 120 117
f 70 71 46
f 46 69 70
f 118 114 119
f 119 101 118
f 102 114 118
f 118 101 102
f 97 75 74
f 96 75 97
f 97 74 73
f 73 96 97
f 81 96 102
f 81 75 96
f 102 101 81
f 81 101 85
f 85 58 81
f 81 58 55
f 55 75 81
f 105 90 89
f 105 111 90
f 88 111 105
f 105 86 88
f 110 91 88
f 88 109 110
f 108 109 88
f 88 107 108
f 107 123 108
f 11 6 5
f 5 4 11
f 80 100 117
f 117 63 39
f 117 83 80
f 39 59 117
f 117 87 63
f 117 84 83
f 59 84 117
f 106 87 117
f 117 120 106
f 105 43 42
f 39 63 105
f 45 44 105
f 42 41 105
f 105 40 39
f 105 65 45
f 41 40 105
f 44 43 105
f 89 65 105
f 63 86 105
f 1 2 108
f 15 26 108
f 108 49 27
f 108 3 1
f 108 99 79
f 108 48 72
f 27 16 108
f 108 124 115
f 108 7 15
f 108 16 8
f 52 49 108
f 79 78 108
f 8 3 108
f 108 76 52
f 115 99 108
f 108 66 91
f 68 67 108
f 72 71 108
f 108 69 68
f 108 2 7
f 108 78 76
f 108 67 66
f 108 123 122
f 122 124 108
f 71 70 108
f 25 48 108
f 108 26 25
f 91 110 108
f 108 70 69
f 108 110 109

