# https://github.com/mikedh/trimesh
v 0.14952966 0.07832533 0.06258963
v 0.12863244 0.00699353 0.06258963
v 0.12911147 0.07832533 0.06258963
v 0.14929870 0.07832533 0.06652202
v 0.09311661 0.00699353 0.06258963
v 0.13968411 0.07832533 0.10429513
v 0.12476608 0.00699353 0.07597915
v 0.12898316 0.07831136 0.06258963
v 0.12899171 0.07832533 0.06261732
v 0.06560722 0.00699353 0.12559097
v 0.06658236 0.01276795 0.12671252
v 0.12391924 0.06836848 0.06258963
v 0.12543329 0.07832533 0.14993302
v 0.12515100 0.07489001 0.14846530
v 0.10626396 0.07391946 0.19555707
v 0.09642697 0.03786255 0.17564587
v 0.08768487 0.00791521 0.15893321
v 0.08736837 0.00699353 0.15750702
v 0.10509208 0.07687998 0.11804465
v 0.08156027 0.07832533 0.17878902
v 0.07728331 0.05658924 0.15682855
v 0.06315225 0.00699353 0.13236188
v 0.06619744 0.01570752 0.13248649
v 0.06734366 0.02085352 0.13569887
v 0.10693972 0.07832533 0.19738479
v 0.10338985 0.07832533 0.20209258
v 0.09664081 0.04719098 0.18490915
v 0.08633335 0.01076401 0.16521950
v 0.08415210 0.00699353 0.16287945
v 0.08609384 0.00699353 0.15994399
v 0.07703525 0.06730018 0.17462123
v 0.08034561 0.07832533 0.18590609
v 0.06303249 0.00699353 0.13333113
v 0.10243182 0.07832533 0.20248029
v 0.09877929 0.06431173 0.19547399
v 0.08005478 0.00894860 0.16589798
v 0.08171424 0.00699353 0.16372408
v 0.09120908 0.04528480 0.18590609
v 0.06758317 0.02971414 0.15567929
v 0.06747198 0.03018195 0.16058094
v 0.07703525 0.06730018 0.17529971
v 0.08103848 0.07832533 0.18882769
v 0.06748908 0.03022385 0.16555181
v 0.06215144 0.00699353 0.14274671
v 0.09825751 0.07832533 0.20403108
v 0.09670925 0.07613287 0.20315876
v 0.07511061 0.00894860 0.16589798
v 0.07499941 0.00699353 0.16477641
v 0.06405041 0.01542124 0.15116536
v 0.08327960 0.07832533 0.19385395
v 0.06265612 0.00699353 0.15116536
v 0.06283575 0.00699353 0.15207921
v 0.06748908 0.02790570 0.16555181
v 0.09758174 0.07832533 0.20403108
v 0.09548603 0.07613287 0.20315876
v 0.07321164 0.00699353 0.16477641
v 0.08463968 0.07832533 0.19579245
v 0.06559866 0.00699353 0.15959785
v 0.06591516 0.00699353 0.16009631
v 0.09482738 0.07832533 0.20376801
v 0.07228782 0.00699353 0.16452718
v 0.08513580 0.07190854 0.19493398
v 0.08791582 0.07832533 0.19900483
v 0.07174037 0.00699353 0.16419486
v 0.07656478 0.02853412 0.17514739
v 0.08608528 0.06501695 0.19385395
v 0.09322781 0.07832533 0.20289569
f 10 11 5
f 9 8 20
f 5 11 12
f 11 8 12
f 20 8 19
f 6 13 14
f 14 15 7
f 2 6 7
f 7 6 14
f 14 13 25
f 25 15 14
f 49 40 44
f 11 10 22
f 8 9 3
f 4 2 1
f 4 6 2
f 15 25 26
f 20 19 21
f 21 31 20
f 21 8 11
f 21 19 8
f 20 31 32
f 44 40 39
f 40 31 39
f 11 22 23
f 7 17 18
f 29 17 28
f 45 35 34
f 35 26 34
f 51 49 44
f 58 59 53
f 53 52 58
f 41 31 40
f 41 32 31
f 29 28 37
f 37 28 36
f 64 65 59
f 66 62 59
f 59 65 66
f 66 63 62
f 67 63 66
f 66 65 67
f 67 65 60
f 38 28 35
f 36 28 38
f 47 55 56
f 44 39 33
f 31 22 33
f 33 39 31
f 31 21 24
f 24 22 31
f 24 23 22
f 24 21 11
f 11 23 24
f 30 17 29
f 30 18 17
f 16 28 17
f 16 7 15
f 16 17 7
f 15 26 27
f 27 16 15
f 28 16 27
f 27 26 35
f 35 28 27
f 50 42 43
f 53 50 43
f 43 42 32
f 40 49 43
f 43 41 40
f 32 41 43
f 49 51 43
f 43 51 52
f 43 52 53
f 48 37 36
f 62 63 57
f 59 62 57
f 57 50 53
f 53 59 57
f 56 55 61
f 55 60 61
f 65 64 61
f 61 60 65
f 54 60 55
f 36 38 46
f 46 35 45
f 46 38 35
f 2 5 3
f 1 2 3
f 5 12 3
f 3 12 8
f 48 47 56
f 36 47 48
f 61 5 2
f 61 64 59
f 59 58 61
f 2 7 61
f 61 10 5
f 44 33 61
f 29 37 61
f 61 22 10
f 61 51 44
f 7 18 61
f 52 51 61
f 61 58 52
f 61 30 29
f 61 48 56
f 61 33 22
f 18 30 61
f 37 48 61
f 50 57 54
f 54 4 1
f 1 3 54
f 20 32 54
f 54 9 20
f 13 6 54
f 54 25 13
f 54 42 50
f 54 3 9
f 6 4 54
f 54 26 25
f 45 34 54
f 54 34 26
f 32 42 54
f 54 63 67
f 67 60 54
f 54 57 63
f 46 47 36
f 55 47 46
f 45 54 46
f 46 54 55

