# https://github.com/mikedh/trimesh
v 0.20547930 0.31754385 0.18611417
v 0.20900837 0.31754385 0.18879751
v 0.19409569 0.31754385 0.19078085
v 0.20996839 0.31943732 0.15633067
v 0.21159927 0.31754385 0.19263087
v 0.19381751 0.31754385 0.19098086
v 0.20414840 0.31996140 0.15633067
v 0.21126655 0.31955566 0.15633067
v 0.21188291 0.31754385 0.19681423
v 0.21804109 0.32510930 0.15633067
v 0.18818299 0.31754385 0.19749756
v 0.20197749 0.32082362 0.15633067
v 0.22027200 0.32868492 0.17943080
v 0.21938836 0.32918364 0.18884752
v 0.20030295 0.31754385 0.25409787
v 0.21962836 0.32767057 0.15633067
v 0.18809025 0.31754385 0.19779756
v 0.19999750 0.32196477 0.15633067
v 0.22913014 0.34684200 0.15633067
v 0.22325562 0.33558258 0.17943080
v 0.22164652 0.33558258 0.18884752
v 0.22813195 0.36745890 0.21449765
v 0.22754831 0.36920021 0.22078101
v 0.22428653 0.36382409 0.22651438
v 0.22032652 0.35377348 0.22693105
v 0.21931745 0.35663904 0.23593111
v 0.22200107 0.36382409 0.23593111
v 0.21858653 0.35845642 0.24159779
v 0.21965017 0.36384101 0.24498115
v 0.21773562 0.36072185 0.24788117
v 0.21887017 0.36699397 0.25179784
v 0.19995386 0.31754385 0.25528119
v 0.18805753 0.31754385 0.19794756
v 0.19859568 0.34182092 0.16396404
v 0.20307385 0.34498232 0.15633067
v 0.23059741 0.35034999 0.15633067
v 0.23212468 0.35441591 0.15633067
v 0.23170468 0.35441591 0.16059737
v 0.23492286 0.36382409 0.16059737
v 0.23845195 0.37414524 0.16059737
v 0.23795556 0.37566678 0.17001409
v 0.23749192 0.37695164 0.17729745
v 0.23708284 0.37822805 0.18356416
v 0.23458466 0.37324075 0.18884752
v 0.23310103 0.37324075 0.19826422
v 0.23139924 0.37324075 0.20768094
v 0.22926105 0.37269977 0.21741433
v 0.22842650 0.37547236 0.22394771
v 0.21680835 0.36384101 0.25486453
v 0.22842650 0.37941146 0.22394771
v 0.20921020 0.36902270 0.27889801
v 0.20921020 0.36704471 0.27889801
v 0.21044839 0.36387483 0.27389798
v 0.21386837 0.36382409 0.26416459
v 0.20959748 0.35745899 0.27096462
v 0.19193570 0.31754385 0.28013134
v 0.18789935 0.31754385 0.19869757
v 0.20742110 0.36396780 0.15633067
v 0.20479203 0.35441591 0.15633067
v 0.18789935 0.34486398 0.22266437
v 0.18789935 0.34616576 0.22431437
v 0.23673921 0.36781393 0.15633067
v 0.23735012 0.36959750 0.15633067
v 0.24128285 0.38265741 0.16059737
v 0.24025194 0.38265741 0.17001409
v 0.23858283 0.38188820 0.18003080
v 0.23786831 0.38450862 0.18711417
v 0.21839562 0.37802518 0.25019783
v 0.23786831 0.38878585 0.18711417
v 0.22835559 0.38800819 0.21354765
v 0.18980844 0.36821122 0.31554820
v 0.18789935 0.36460179 0.32358159
v 0.19135207 0.36193062 0.31883154
v 0.18789935 0.35441591 0.32658160
v 0.18934480 0.35441591 0.32334824
v 0.20015022 0.35745899 0.29878144
v 0.20857201 0.36077256 0.27723132
v 0.19164661 0.31754385 0.28096466
v 0.18789935 0.31754385 0.28653138
v 0.20806473 0.36587820 0.15633067
v 0.18789935 0.34654613 0.22506438
v 0.20893748 0.36844791 0.15633067
v 0.20889384 0.36832957 0.15633067
v 0.24165920 0.38265741 0.15633067
v 0.24269012 0.38690928 0.15633067
v 0.24361736 0.39207408 0.15633067
v 0.24296828 0.39207408 0.16059737
v 0.24119010 0.39207408 0.17001409
v 0.21065019 0.37986794 0.26194791
v 0.23776467 0.39766151 0.17591412
v 0.22963197 0.38978331 0.20768094
v 0.18789935 0.36948763 0.31366486
v 0.18789935 0.36589509 0.32128156
v 0.20030839 0.37851545 0.28004800
v 0.18789935 0.36045979 0.32494825
v 0.18789935 0.35201525 0.32511492
v 0.19033207 0.34913277 0.31666487
v 0.18789935 0.34601360 0.31973156
v 0.18789935 0.33725629 0.30959816
v 0.18789935 0.35190535 0.23596442
v 0.21096655 0.37286883 0.15633067
v 0.18789935 0.35362132 0.23969778
v 0.18789935 0.35541336 0.24359782
v 0.18789935 0.35646998 0.24591448
v 0.18789935 0.35827892 0.24988117
v 0.18789935 0.36051898 0.25486453
v 0.18789935 0.36395091 0.26358124
v 0.24200284 0.39723043 0.15633067
v 0.24014282 0.40033267 0.16059737
v 0.23889375 0.39866741 0.17001409
v 0.22801195 0.39696837 0.19464755
v 0.18789935 0.37031601 0.31104817
v 0.19814840 0.37851545 0.28004800
v 0.21587563 0.38302089 0.15633067
v 0.18789935 0.36790690 0.27384797
v 0.24058466 0.40137239 0.15633067
v 0.23672829 0.40269951 0.15633067
v 0.23244651 0.40299536 0.16059737
v 0.23246287 0.40389984 0.15633067
v 0.22713379 0.39696837 0.19464755
v 0.18789935 0.37061188 0.30949817
v 0.22911922 0.40211624 0.15633067
v 0.18789935 0.37169387 0.29138139
v 0.21819381 0.38757708 0.15633067
v 0.18789935 0.37077249 0.28299803
v 0.22579744 0.39958879 0.15633067
v 0.18789935 0.37122894 0.28564803
v 0.21926836 0.38930994 0.15633067
v 0.18824299 0.37124584 0.28299803
v 0.22086652 0.39187121 0.15633067
f 31 52 53
f 14 15 9
f 3 4 1
f 89 111 94
f 117 111 116
f 90 88 110
f 110 111 90
f 116 111 110
f 86 87 65
f 31 53 54
f 54 53 77
f 54 55 31
f 77 55 54
f 9 10 13
f 13 14 9
f 13 20 14
f 32 15 31
f 4 8 5
f 5 8 10
f 5 10 9
f 11 7 6
f 6 7 4
f 6 4 3
f 11 17 18
f 126 123 122
f 127 123 126
f 71 94 92
f 89 94 71
f 71 68 89
f 92 94 112
f 119 122 113
f 121 112 113
f 113 112 94
f 123 121 113
f 113 122 123
f 118 117 119
f 119 111 118
f 111 117 118
f 108 87 86
f 51 50 68
f 51 52 31
f 31 50 51
f 72 73 51
f 68 71 51
f 51 71 72
f 51 73 74
f 68 50 70
f 89 68 70
f 116 110 109
f 109 110 88
f 88 87 109
f 109 108 116
f 87 108 109
f 67 87 88
f 67 65 87
f 15 14 25
f 25 24 15
f 14 24 25
f 23 24 14
f 21 20 45
f 14 20 21
f 16 13 10
f 31 55 49
f 49 32 31
f 55 32 49
f 56 32 55
f 79 78 99
f 78 98 99
f 76 53 52
f 77 53 76
f 76 55 77
f 78 56 76
f 76 56 55
f 2 1 4
f 4 5 2
f 12 7 11
f 11 18 12
f 125 126 130
f 34 60 61
f 61 58 34
f 35 18 34
f 34 18 17
f 17 33 34
f 57 60 34
f 34 33 57
f 74 73 95
f 95 73 72
f 125 127 129
f 129 126 125
f 129 127 126
f 93 71 92
f 72 71 93
f 120 111 119
f 119 113 120
f 91 111 89
f 89 70 91
f 90 111 91
f 91 70 90
f 86 65 85
f 69 67 88
f 69 88 90
f 90 70 69
f 69 70 50
f 43 42 65
f 20 42 43
f 31 15 30
f 27 28 15
f 27 23 31
f 24 23 27
f 46 21 45
f 46 47 23
f 67 47 46
f 45 43 46
f 46 43 67
f 22 23 14
f 14 21 22
f 22 46 23
f 21 46 22
f 13 16 19
f 36 20 19
f 20 13 19
f 128 124 125
f 125 130 128
f 115 124 114
f 125 124 115
f 35 34 59
f 59 34 58
f 84 85 64
f 64 85 65
f 64 63 84
f 37 20 36
f 65 42 41
f 41 42 20
f 41 64 65
f 65 67 66
f 66 43 65
f 67 43 66
f 45 20 44
f 44 43 45
f 20 43 44
f 15 28 29
f 29 30 15
f 28 27 29
f 31 30 29
f 29 27 31
f 15 24 26
f 26 27 15
f 24 27 26
f 31 23 48
f 23 47 48
f 48 50 31
f 48 47 67
f 74 96 75
f 75 96 76
f 75 76 52
f 75 51 74
f 52 51 75
f 97 96 98
f 76 96 97
f 97 98 78
f 78 76 97
f 61 82 83
f 101 115 114
f 107 82 106
f 107 101 82
f 115 101 107
f 20 37 38
f 40 41 20
f 63 64 40
f 64 41 40
f 81 82 61
f 81 100 82
f 106 82 105
f 80 58 61
f 61 83 80
f 63 38 62
f 62 38 37
f 20 38 39
f 39 40 20
f 39 38 63
f 63 40 39
f 82 100 102
f 102 103 82
f 104 105 82
f 82 103 104
f 9 15 33
f 33 79 57
f 1 2 33
f 33 78 79
f 33 5 9
f 15 32 33
f 33 17 11
f 3 1 33
f 33 6 3
f 33 56 78
f 11 6 33
f 32 56 33
f 33 2 5
f 120 113 94
f 120 94 111
f 67 69 48
f 48 69 50
f 10 8 62
f 119 117 62
f 62 122 119
f 62 108 86
f 114 124 62
f 62 101 114
f 62 130 126
f 62 8 4
f 4 7 62
f 62 18 35
f 62 117 116
f 62 16 10
f 7 12 62
f 124 128 62
f 126 122 62
f 116 108 62
f 86 85 62
f 35 59 62
f 62 12 18
f 36 19 62
f 62 85 84
f 84 63 62
f 62 19 16
f 62 128 130
f 62 37 36
f 62 59 58
f 58 80 62
f 62 83 82
f 82 101 62
f 62 80 83
f 57 79 104
f 104 127 125
f 104 93 92
f 104 96 74
f 79 99 104
f 74 95 104
f 104 60 57
f 104 121 123
f 92 112 104
f 61 60 104
f 123 127 104
f 104 112 121
f 104 99 98
f 125 115 104
f 104 95 72
f 72 93 104
f 98 96 104
f 104 107 106
f 104 81 61
f 115 107 104
f 100 81 104
f 106 105 104
f 104 102 100
f 103 102 104

