# https://github.com/mikedh/trimesh
v 0.02294626 0.05308074 -0.19994759
v 0.02294626 0.04766791 -0.19976807
v 0.02294626 0.05622294 -0.19943738
v 0.02528890 0.05308074 -0.19877601
v 0.03383197 0.04366181 -0.19459993
v 0.02528890 0.04366181 -0.19846423
v 0.02294626 0.04366181 -0.19939014
v 0.02294626 0.06249203 -0.19839808
v 0.02528890 0.06249203 -0.19721707
v 0.03356391 0.05308074 -0.19449600
v 0.03234014 0.03758384 -0.19379684
v 0.03827251 0.05308074 -0.19187886
v 0.03854057 0.04366181 -0.19196390
v 0.02294626 0.03921227 -0.19719817
v 0.02294626 0.06465564 -0.19766113
v 0.03065017 0.06792780 -0.19294650
v 0.03196718 0.06249203 -0.19368346
v 0.02528890 0.03683460 -0.19511013
v 0.05017221 0.03790494 -0.18385738
v 0.12458900 0.01964810 -0.13653160
v 0.11944918 0.01847838 -0.13809999
v 0.08627921 0.00022919 -0.13755200
v 0.08159393 0.00022919 -0.13944164
v 0.03667578 0.06249203 -0.19077342
v 0.04939132 0.05956391 -0.18351726
v 0.04412329 0.05308074 -0.18823187
v 0.05081323 0.04366181 -0.18443372
v 0.04412329 0.04366181 -0.18858146
v 0.11944918 0.02483158 -0.14079272
v 0.02294626 0.03686519 -0.19569592
v 0.02294626 0.07144461 -0.19515737
v 0.02474112 0.07140639 -0.19422200
v 0.02294626 0.07425041 -0.19357953
v 0.04201374 0.06912810 -0.18456599
v 0.04828410 0.06584065 -0.18266692
v 0.07815572 0.00022919 -0.14043369
v 0.12505521 0.02483158 -0.13703235
v 0.12859831 0.02483158 -0.13133512
v 0.13457729 0.01780560 -0.11892970
v 0.13237450 0.01152886 -0.11647318
v 0.12268925 0.01115424 -0.12537333
v 0.08785263 0.00022919 -0.13670166
v 0.04474100 0.06262201 -0.18571866
v 0.05023048 0.05308074 -0.18417863
v 0.12341185 0.04366181 -0.13545451
v 0.12038158 0.03517559 -0.13954555
v 0.12491535 0.03264501 -0.13687174
v 0.02294626 0.02900588 -0.18528405
v 0.02294626 0.07623818 -0.19208672
v 0.05841225 0.06737734 -0.17385180
v 0.11690840 0.05074130 -0.13725911
v 0.06904156 0.00022919 -0.13973452
v 0.13254934 0.03425051 -0.12456080
v 0.13240947 0.02483158 -0.12453245
v 0.13500853 0.02483158 -0.11982727
v 0.13844673 0.02483158 -0.11249551
v 0.14104579 0.01591722 -0.10343473
v 0.14090593 0.01517564 -0.10343473
v 0.13637216 0.01496921 -0.11299626
v 0.13493861 0.00950287 -0.11019961
v 0.09308571 0.00022919 -0.13136346
v 0.12617408 0.05087891 -0.12899197
v 0.12754936 0.04366181 -0.13074933
v 0.12414612 0.03892176 -0.13603085
v 0.13225796 0.04366181 -0.12354984
v 0.02294626 0.02753799 -0.18226065
v 0.02294626 0.07740025 -0.19008371
v 0.11667531 0.07831769 -0.11892025
v 0.06528867 0.00022919 -0.13791103
v 0.13476377 0.03425051 -0.11985562
v 0.13794558 0.03425051 -0.11249551
v 0.14172178 0.02483158 -0.10423782
v 0.14197818 0.02374595 -0.10343473
v 0.13665188 0.00816495 -0.10343473
v 0.12886638 0.00506098 -0.10343473
v 0.09602274 0.00022919 -0.12655435
v 0.13371483 0.04862357 -0.11762586
v 0.13419268 0.04366181 -0.11884467
v 0.02838912 0.00068026 -0.10844225
v 0.02298122 0.00311144 -0.10343473
v 0.02294626 0.00314967 -0.10347252
v 0.02294626 0.07831004 -0.18725872
v 0.11003199 0.07831769 -0.12183972
v 0.11974055 0.07831769 -0.11249551
v 0.06137260 0.00022919 -0.13133512
v 0.02798119 0.00033622 -0.10343473
v 0.14145370 0.03425051 -0.10355755
v 0.14150033 0.03425051 -0.10343473
v 0.14200150 0.02483158 -0.10343473
v 0.09057989 0.00022919 -0.10343473
v 0.09770106 0.00022919 -0.11529216
v 0.09782926 0.00022919 -0.12168856
v 0.13460061 0.04971683 -0.11249551
v 0.13940245 0.04359300 -0.10343473
v 0.13964720 0.04283612 -0.10343473
v 0.13657030 0.04366181 -0.11249551
v 0.02358728 0.00269860 -0.10343473
v 0.02294626 0.00558850 -0.10343473
v 0.02294626 0.07818771 -0.17840581
v 0.09592950 0.07831769 -0.10343473
v 0.09648895 0.07831769 -0.11015236
v 0.09681528 0.07831769 -0.11362928
v 0.10117424 0.07831769 -0.12016741
v 0.11935594 0.07831769 -0.11014292
v 0.13549804 0.05029023 -0.10343473
v 0.05967098 0.00022919 -0.12191531
v 0.05813253 0.00022919 -0.11211758
v 0.05700199 0.00022919 -0.10343473
v 0.02294626 0.05365414 -0.10343473
v 0.02294626 0.07677334 -0.17325656
v 0.11802728 0.07831769 -0.10343473
f 68 77 62
f 11 19 20
f 98 81 80
f 68 82 83
f 82 103 83
f 109 100 110
f 102 103 82
f 65 62 77
f 65 53 47
f 84 77 68
f 22 11 21
f 21 20 22
f 11 20 21
f 47 53 37
f 29 20 19
f 29 37 20
f 47 37 29
f 74 75 60
f 67 82 68
f 68 49 67
f 50 49 68
f 80 81 66
f 99 100 82
f 99 110 100
f 82 100 101
f 101 102 82
f 53 65 70
f 70 65 71
f 63 45 62
f 62 65 63
f 63 65 47
f 94 84 105
f 93 94 77
f 77 84 93
f 93 84 94
f 43 24 35
f 42 41 60
f 22 20 42
f 20 41 42
f 60 41 40
f 40 41 20
f 20 37 38
f 53 54 38
f 38 37 53
f 13 29 19
f 13 19 11
f 11 5 13
f 28 29 13
f 13 12 28
f 5 12 13
f 27 29 28
f 28 12 27
f 27 12 26
f 27 26 47
f 47 29 27
f 34 50 35
f 49 50 34
f 62 45 51
f 68 62 51
f 51 50 68
f 51 45 35
f 35 50 51
f 30 36 48
f 11 14 7
f 80 66 79
f 79 66 69
f 23 11 22
f 48 36 52
f 52 66 48
f 69 66 52
f 47 46 64
f 64 46 45
f 64 63 47
f 45 63 64
f 25 43 35
f 35 45 25
f 45 46 25
f 26 12 25
f 24 43 25
f 25 12 24
f 71 87 72
f 72 88 89
f 72 87 88
f 55 54 53
f 53 70 55
f 111 105 104
f 104 105 84
f 16 34 35
f 10 12 5
f 60 75 61
f 61 42 60
f 58 74 60
f 18 30 14
f 18 14 11
f 36 30 18
f 18 23 36
f 11 23 18
f 1 5 2
f 69 85 86
f 86 79 69
f 86 85 106
f 71 65 78
f 78 87 71
f 78 65 77
f 77 96 78
f 88 87 78
f 78 96 88
f 88 96 95
f 77 94 95
f 95 96 77
f 26 25 44
f 44 25 46
f 47 26 44
f 44 46 47
f 73 72 89
f 56 70 71
f 56 55 70
f 71 72 56
f 72 73 56
f 56 73 57
f 35 24 17
f 17 16 35
f 24 12 17
f 12 10 17
f 4 5 1
f 4 10 5
f 75 90 91
f 60 40 39
f 39 40 20
f 54 55 39
f 57 58 39
f 20 38 39
f 39 38 54
f 39 56 57
f 55 56 39
f 7 2 6
f 6 2 5
f 6 5 11
f 11 7 6
f 80 79 97
f 79 86 97
f 49 34 33
f 34 16 33
f 15 16 8
f 15 31 16
f 8 16 9
f 16 17 9
f 9 17 10
f 10 4 9
f 3 4 1
f 8 9 3
f 3 9 4
f 75 91 92
f 59 58 60
f 60 39 59
f 59 39 58
f 107 108 86
f 107 86 106
f 31 33 32
f 16 31 32
f 32 33 16
f 76 61 75
f 75 92 76
f 104 100 111
f 103 102 104
f 68 83 104
f 104 83 103
f 104 84 68
f 104 101 100
f 102 101 104
f 109 98 97
f 74 58 97
f 97 100 109
f 111 100 97
f 89 88 97
f 97 105 111
f 97 98 80
f 75 74 97
f 97 108 90
f 94 105 97
f 97 90 75
f 97 95 94
f 97 58 57
f 97 73 89
f 88 95 97
f 57 73 97
f 86 108 97
f 82 67 3
f 3 98 109
f 3 99 82
f 109 110 3
f 81 98 3
f 3 30 48
f 3 66 81
f 3 67 49
f 3 15 8
f 48 66 3
f 110 99 3
f 1 2 3
f 14 30 3
f 3 7 14
f 3 2 7
f 49 33 3
f 3 33 31
f 31 15 3
f 22 42 76
f 76 85 69
f 76 23 22
f 106 85 76
f 76 91 90
f 69 52 76
f 36 23 76
f 76 52 36
f 42 61 76
f 76 107 106
f 90 108 76
f 76 92 91
f 108 107 76

