# https://github.com/mikedh/trimesh
v -0.21685338 -0.03475253 0.08852395
v -0.21685338 -0.03515136 0.08925289
v -0.21685338 0.00619673 0.08852395
v -0.21058609 -0.03535944 0.08852395
v 0.02294624 -0.07840688 0.12307351
v -0.21685338 -0.03601838 0.09084962
v -0.21685338 0.00528636 0.09198353
v -0.21337939 0.00617071 0.08852395
v -0.20690086 -0.03564556 0.08852395
v 0.02294624 -0.07825082 0.12285366
v 0.02294624 -0.08236916 0.13125386
v -0.21685338 -0.04159330 0.10409786
v -0.21685338 -0.01698733 0.17633258
v -0.20396674 0.00601465 0.08852395
v 0.00135114 -0.04736764 0.08852395
v 0.02294624 -0.07029159 0.11224350
v 0.02294624 -0.07082047 0.11286831
v 0.02294624 -0.07462668 0.11787835
v 0.02294624 -0.08234314 0.13231834
v -0.17244257 -0.07601391 0.17941034
v -0.17244257 -0.07551104 0.17216720
v -0.21685338 -0.06221099 0.16335046
v -0.17981307 -0.07481742 0.17326639
v -0.21685338 -0.01784568 0.17870453
v -0.12986264 -0.02692336 0.20299105
v -0.06887992 -0.02562283 0.19638428
v 0.01585742 -0.01464639 0.15116672
v -0.20070400 0.00595396 0.08852395
v 0.00926152 -0.04727227 0.08852395
v 0.02294624 -0.06595650 0.10767315
v 0.02294624 -0.08197899 0.14234998
v -0.17244257 -0.07453131 0.18554271
v -0.18004779 -0.07447062 0.18518402
v -0.18131533 -0.07494748 0.17941034
v -0.09230592 -0.07407179 0.18425839
v -0.21685338 -0.06423981 0.16999194
v -0.18603340 -0.07390706 0.17941034
v -0.21685338 -0.01879940 0.18085665
v -0.19129134 -0.02480783 0.19577104
v -0.13019126 -0.02692336 0.20299105
v -0.07831605 -0.03336530 0.20471504
v -0.06887992 -0.03351269 0.20439108
v -0.06887992 -0.02880479 0.20109348
v -0.04247285 -0.02621240 0.19455614
v 0.02294624 -0.01494117 0.15116672
v 0.02294624 -0.01298171 0.14409713
v -0.15688000 0.00496556 0.08852395
v 0.02294624 -0.04708152 0.08852395
v 0.02294624 -0.07976810 0.15116672
v -0.17244257 -0.07276259 0.19025190
v -0.18265330 -0.07220771 0.18852791
v -0.21685338 -0.06465597 0.18067152
v -0.21685338 -0.06502880 0.17941034
v -0.08859720 -0.07248515 0.18797252
v -0.21685338 -0.02347263 0.18937255
v -0.20070400 -0.02503326 0.19514623
v -0.15361726 -0.02858803 0.20230838
v -0.15361726 -0.03329594 0.20341916
v -0.12617739 -0.03132781 0.20404396
v -0.09711788 -0.04108176 0.20671675
v -0.10653053 -0.03246360 0.20447207
v -0.07831605 -0.04108176 0.20634650
v -0.06887992 -0.04108176 0.20523573
v -0.06150942 -0.03457912 0.20359271
v -0.03122931 -0.03234222 0.19671982
v -0.03986736 -0.03078159 0.19741406
v 0.00860428 -0.02712277 0.18393441
v 0.02294624 -0.02536272 0.17740863
v 0.02294624 -0.02265763 0.17207463
v 0.02294624 -0.01548739 0.15264774
v 0.02294624 -0.00197925 0.08852395
v -0.11594318 0.00369105 0.08852395
v -0.12857163 0.00409854 0.08852395
v -0.15361726 0.00487886 0.08852395
v 0.02294624 -0.07603992 0.15937021
v -0.08772870 -0.06806335 0.19778431
v -0.15361726 -0.06868761 0.19824713
v -0.15361726 -0.06566172 0.20381255
v -0.16387494 -0.06799399 0.19916120
v -0.17244257 -0.06805469 0.19732149
v -0.18185522 -0.06706629 0.19572476
v -0.18882668 -0.06582645 0.19452143
v -0.21685338 -0.06060701 0.18753283
v -0.21685338 -0.02615171 0.19319082
v -0.21638392 -0.02657655 0.19381562
v -0.15929771 -0.03469184 0.20323402
v -0.19129134 -0.03167461 0.19855954
v -0.14420461 -0.05049757 0.20628864
v -0.14420461 -0.04108176 0.20501588
v -0.09711788 -0.05049757 0.20640435
v -0.08772870 -0.05049757 0.20612666
v -0.07831605 -0.05049757 0.20490018
v -0.06132163 -0.04665669 0.20321088
v -0.04064197 -0.04108176 0.20087363
v -0.00749817 -0.03625247 0.19359579
v -0.01238054 -0.03520338 0.19427844
v -0.02181666 -0.03354738 0.19553963
v 0.01658508 -0.03082494 0.18318232
v 0.02294624 -0.03144052 0.18131947
v 0.02294624 -0.02679330 0.17872767
v 0.02294624 -0.07284929 0.16407941
v -0.04723786 -0.06433518 0.19324867
v -0.08772870 -0.06334678 0.20249351
v -0.15361726 -0.05991339 0.20569854
v -0.16131639 -0.06539294 0.20356958
v -0.08772870 -0.05863888 0.20406710
v -0.16758366 -0.06448257 0.20292162
v -0.21685338 -0.05756377 0.18895601
v -0.21685338 -0.02705341 0.19372307
v -0.21685338 -0.03167461 0.19389661
v -0.20070400 -0.03167461 0.19705538
v -0.16302992 -0.05239634 0.20428693
v -0.16979012 -0.05367086 0.20356958
v -0.07341020 -0.05528351 0.20300261
v -0.05005462 -0.05049757 0.20030668
v -0.04064197 -0.05049757 0.19860583
v -0.03122931 -0.04108176 0.19901078
v -0.00749817 -0.03660795 0.19359579
v 0.01393264 -0.03339998 0.18524187
v 0.02294624 -0.03495194 0.18155088
v 0.02294624 -0.06796799 0.16832579
v 0.01174965 -0.06489007 0.17496726
v 0.00644476 -0.06572241 0.17593918
v -0.01719250 -0.06458661 0.18408482
v -0.02348324 -0.06534959 0.18520716
v -0.04064197 -0.06327742 0.19226517
v -0.02564275 -0.05570835 0.19378092
v -0.03122931 -0.05680946 0.19439415
v -0.04064197 -0.05856951 0.19536607
v -0.16387494 -0.06077174 0.20439108
v -0.16979012 -0.05820536 0.20356958
v -0.21685338 -0.05049757 0.19186022
v -0.21685338 -0.03921767 0.19329496
v -0.21575015 -0.03823794 0.19378092
v -0.03122931 -0.05049757 0.19669668
v -0.02221570 -0.05004672 0.19452143
v -0.02181666 -0.04108176 0.19656940
v -0.01289694 -0.04027543 0.19426688
v -0.01639441 -0.04660467 0.19376934
v -0.00381291 -0.04027543 0.19155938
v 0.00644476 -0.04108176 0.18803037
v 0.01383874 -0.04108176 0.18521873
v 0.02294624 -0.04108176 0.18145832
v 0.01855681 -0.04108176 0.18327489
v 0.02294624 -0.06118791 0.17309284
v 0.01527059 -0.05999142 0.17710781
v 0.00630393 -0.05946254 0.18097236
v -0.00296789 -0.06205493 0.18205998
v -0.01238054 -0.06378029 0.18335588
v -0.03122931 -0.06151737 0.19093457
v -0.01937547 -0.05288187 0.19282056
v -0.00296789 -0.05734702 0.18554271
v 0.00308814 -0.05602048 0.18455922
v -0.21685338 -0.04746301 0.19228832
v -0.00296789 -0.05049757 0.18845848
v 0.00630393 -0.05025481 0.18549642
v 0.01196091 -0.04696014 0.18446665
v 0.02294624 -0.04325797 0.18084509
v 0.02294624 -0.05713893 0.17584662
v 0.02294624 -0.05698287 0.17595075
v 0.00935541 -0.05323735 0.18350630
v 0.01541143 -0.05025481 0.18201371
v 0.02294624 -0.05079236 0.17856569
f 46 71 72
f 11 6 5
f 21 11 20
f 35 20 31
f 4 5 1
f 16 9 15
f 1 5 2
f 5 6 2
f 26 27 13
f 12 11 21
f 6 11 12
f 31 20 19
f 19 20 11
f 49 35 31
f 33 20 32
f 20 35 32
f 32 50 33
f 35 50 32
f 9 18 10
f 10 4 9
f 5 4 10
f 17 9 16
f 17 18 9
f 16 15 30
f 74 47 46
f 28 27 46
f 46 47 28
f 60 61 40
f 23 12 21
f 23 37 36
f 21 20 23
f 77 50 76
f 76 101 102
f 75 101 76
f 76 49 75
f 54 49 76
f 35 49 54
f 76 50 54
f 54 50 35
f 46 27 45
f 45 27 26
f 41 40 61
f 41 61 60
f 60 62 41
f 48 30 29
f 29 30 15
f 46 72 73
f 73 74 46
f 51 52 33
f 33 50 51
f 50 80 51
f 34 20 33
f 33 37 34
f 34 23 20
f 37 23 34
f 36 37 53
f 33 52 53
f 53 37 33
f 26 13 25
f 40 41 25
f 22 23 36
f 12 23 22
f 107 132 108
f 107 80 105
f 105 80 79
f 79 80 50
f 76 102 103
f 78 103 106
f 76 103 78
f 78 77 76
f 105 79 78
f 50 77 78
f 78 79 50
f 90 62 60
f 100 68 67
f 44 45 26
f 44 68 69
f 44 67 68
f 91 63 62
f 62 90 91
f 42 41 62
f 42 63 64
f 62 63 42
f 42 25 41
f 7 8 3
f 13 8 7
f 14 8 13
f 14 13 27
f 27 28 14
f 83 51 82
f 52 51 83
f 83 107 108
f 82 107 83
f 132 107 131
f 81 107 82
f 80 107 81
f 82 51 81
f 81 51 80
f 161 160 163
f 153 160 161
f 152 153 127
f 129 103 102
f 106 103 114
f 114 115 93
f 114 103 127
f 100 67 99
f 153 161 155
f 155 161 156
f 116 114 127
f 115 114 116
f 118 117 137
f 70 44 69
f 45 44 70
f 93 63 92
f 63 91 92
f 92 114 93
f 92 91 106
f 106 114 92
f 26 25 43
f 25 42 43
f 43 44 26
f 56 38 55
f 39 38 56
f 85 57 56
f 40 39 56
f 56 57 40
f 24 25 13
f 40 25 24
f 24 39 40
f 24 38 39
f 110 85 109
f 60 40 59
f 134 131 110
f 110 131 113
f 146 160 153
f 123 124 101
f 149 124 123
f 125 102 101
f 101 124 125
f 125 124 102
f 102 124 126
f 126 124 149
f 127 102 126
f 126 150 127
f 128 102 127
f 128 129 102
f 127 103 128
f 103 129 128
f 120 99 119
f 118 142 119
f 119 142 120
f 141 142 118
f 141 155 156
f 127 153 151
f 153 155 151
f 94 116 117
f 94 63 93
f 93 115 94
f 115 116 94
f 64 63 94
f 135 116 127
f 117 116 135
f 67 97 96
f 96 97 64
f 67 44 65
f 65 97 67
f 65 42 64
f 64 97 65
f 84 109 85
f 84 56 55
f 85 56 84
f 58 57 86
f 40 57 58
f 58 59 40
f 58 89 60
f 60 59 58
f 133 134 110
f 111 85 110
f 110 113 111
f 86 113 112
f 145 146 121
f 121 146 122
f 101 121 122
f 122 123 101
f 148 126 149
f 150 126 148
f 148 152 127
f 127 150 148
f 149 123 148
f 123 122 148
f 118 119 95
f 67 96 95
f 95 117 118
f 95 94 117
f 64 94 95
f 95 96 64
f 98 99 67
f 98 119 99
f 67 95 98
f 98 95 119
f 144 143 120
f 120 142 144
f 143 144 157
f 157 144 142
f 142 141 157
f 156 161 157
f 157 141 156
f 140 141 118
f 155 141 140
f 66 65 44
f 42 65 66
f 44 43 66
f 66 43 42
f 134 133 154
f 132 131 154
f 131 134 154
f 87 113 86
f 87 111 113
f 85 111 87
f 86 57 87
f 87 57 85
f 104 112 113
f 105 78 104
f 104 78 106
f 106 91 104
f 104 91 90
f 160 146 159
f 146 145 159
f 147 148 122
f 147 146 153
f 147 122 146
f 153 152 147
f 152 148 147
f 143 157 158
f 118 137 138
f 139 151 155
f 155 140 139
f 139 138 137
f 139 140 118
f 118 138 139
f 130 107 105
f 105 104 130
f 130 131 107
f 130 113 131
f 130 104 113
f 88 90 60
f 88 104 90
f 60 89 88
f 88 58 86
f 89 58 88
f 86 112 88
f 112 104 88
f 163 158 162
f 162 158 157
f 162 161 163
f 162 157 161
f 136 139 137
f 136 137 117
f 117 135 136
f 136 135 127
f 127 151 136
f 151 139 136
f 14 71 48
f 1 3 14
f 14 73 72
f 14 4 1
f 14 72 71
f 9 4 14
f 14 15 9
f 48 29 14
f 47 74 14
f 14 28 47
f 14 29 15
f 74 73 14
f 3 8 14
f 154 3 1
f 154 7 3
f 1 2 154
f 6 12 154
f 154 2 6
f 154 22 36
f 154 83 108
f 36 53 154
f 154 24 13
f 108 132 154
f 154 84 55
f 154 53 52
f 12 22 154
f 13 7 154
f 52 83 154
f 55 38 154
f 38 24 154
f 110 109 154
f 109 84 154
f 154 133 110
f 158 49 31
f 158 71 46
f 158 68 100
f 158 17 16
f 48 71 158
f 158 11 5
f 101 75 158
f 31 19 158
f 163 160 158
f 5 10 158
f 158 19 11
f 158 30 48
f 46 45 158
f 158 10 18
f 18 17 158
f 16 30 158
f 158 75 49
f 100 99 158
f 69 68 158
f 158 70 69
f 158 121 101
f 160 159 158
f 158 99 120
f 45 70 158
f 120 143 158
f 158 145 121
f 158 159 145

