# https://github.com/mikedh/trimesh
v -0.26715117 -0.29227332 0.05405482
v -0.26715117 -0.29533782 0.05435045
v -0.26715117 -0.28603069 0.05460913
v -0.09577007 -0.28230785 0.05751793
v -0.08891871 -0.28570861 0.05751793
v -0.08869248 -0.28636224 0.05751793
v -0.08710892 -0.29533782 0.05751793
v -0.08727050 -0.29597251 0.05751793
v -0.09056692 -0.30189779 0.05751793
v -0.09796768 -0.30622692 0.05751793
v -0.26715117 -0.30518489 0.05554353
v -0.26715117 -0.28603069 0.08598827
v -0.09712742 -0.28223680 0.05751793
v 0.06300709 -0.28594069 0.08325896
v 0.06300709 -0.29611933 0.07889840
v 0.06300709 -0.30475387 0.07733577
v 0.06300709 -0.30482018 0.07733577
v 0.06300709 -0.31383837 0.07847607
v 0.06300709 -0.31997683 0.08111035
v 0.06300709 -0.32543320 0.08422504
v 0.06300709 -0.32707202 0.08548147
v -0.21318050 -0.33062435 0.06992388
v -0.26715117 -0.31415571 0.05771325
v -0.26715117 -0.31230378 0.05703753
v -0.26715117 -0.29494943 0.08455235
v -0.08772295 -0.30360290 0.10036861
v -0.08733514 -0.29575462 0.10056394
v -0.08394177 -0.29022719 0.10003075
v 0.06300709 -0.28594069 0.10771716
v 0.06300709 -0.32850242 0.08950945
v -0.21318050 -0.33062435 0.07251593
v -0.21715558 -0.33062435 0.06992388
v 0.06300709 -0.32863505 0.09464604
v -0.26715117 -0.32321656 0.06445470
v -0.26715117 -0.30466387 0.08235623
v -0.08772295 -0.30829674 0.09906995
v -0.07828617 -0.30421393 0.10081734
v 0.06300709 -0.30274562 0.10785970
v 0.06300709 -0.29150601 0.10797584
v -0.21715558 -0.33062435 0.07251593
v -0.26715117 -0.32531480 0.06680919
v 0.06300709 -0.32333970 0.09854203
v -0.04063598 -0.31137070 0.10050059
v -0.26715117 -0.31439728 0.07823851
v -0.06607005 -0.30987870 0.09968233
v -0.26715117 -0.32300813 0.07379876
v 0.06300709 -0.31394257 0.10475557
v 0.06300709 -0.30475387 0.10740041
v -0.26715117 -0.32305550 0.07375124
f 23 10 22
f 3 4 1
f 22 10 21
f 13 29 14
f 14 4 13
f 12 29 13
f 13 3 12
f 4 3 13
f 39 29 27
f 1 10 2
f 10 11 2
f 10 23 24
f 24 11 10
f 15 4 14
f 49 41 40
f 43 33 42
f 42 47 43
f 43 40 33
f 10 18 19
f 30 33 22
f 22 21 30
f 39 27 38
f 28 29 12
f 12 27 28
f 28 27 29
f 36 35 44
f 5 15 16
f 4 15 5
f 1 4 5
f 17 7 16
f 9 10 1
f 9 17 18
f 9 18 10
f 22 33 31
f 33 40 31
f 36 40 45
f 40 43 45
f 20 21 10
f 10 19 20
f 36 45 37
f 37 45 43
f 37 43 47
f 32 34 23
f 32 23 22
f 41 34 32
f 32 40 41
f 36 44 46
f 46 40 36
f 49 40 46
f 16 7 6
f 6 5 16
f 6 7 1
f 1 5 6
f 1 7 8
f 8 9 1
f 7 17 8
f 17 9 8
f 26 38 27
f 26 37 38
f 26 27 12
f 12 25 26
f 36 37 26
f 26 25 35
f 26 35 36
f 48 37 47
f 38 37 48
f 32 31 40
f 22 31 32
f 23 34 46
f 46 3 1
f 12 3 46
f 1 2 46
f 46 24 23
f 46 2 11
f 11 24 46
f 46 41 49
f 46 25 12
f 46 34 41
f 35 25 46
f 46 44 35
f 48 15 14
f 14 29 48
f 33 30 48
f 48 29 39
f 39 38 48
f 42 33 48
f 48 19 18
f 48 47 42
f 16 15 48
f 18 17 48
f 48 30 21
f 21 20 48
f 48 17 16
f 48 20 19

