# https://github.com/mikedh/trimesh
v -0.19436744 -0.20094094 -0.30147623
v -0.18185725 -0.20789503 -0.29809060
v -0.19436744 -0.20535229 -0.29943978
v -0.19436744 -0.19853845 -0.30138289
v -0.11988282 -0.20357417 -0.29648688
v -0.11988282 -0.20668700 -0.29648688
v -0.19436744 -0.20744711 -0.29809907
v -0.12535963 -0.21155532 -0.29384797
v -0.12535963 -0.21697109 -0.28913864
v -0.19436744 -0.19143505 -0.29972827
v -0.12881867 -0.19635314 -0.29620687
v -0.12253475 -0.19729875 -0.29586747
v -0.07102391 -0.20542467 -0.28696639
v -0.08212165 -0.21569066 -0.28691548
v -0.08771376 -0.21655937 -0.28763674
v -0.07102391 -0.20691322 -0.28696639
v -0.13478551 -0.21652770 -0.28856163
v -0.18185725 -0.21068209 -0.29140420
v -0.19436744 -0.20791765 -0.29267699
v -0.05580414 -0.22711491 -0.27780230
v -0.11596258 -0.21696203 -0.28885015
v -0.05001025 -0.23011010 -0.27255839
v -0.19436744 -0.18893302 -0.29831123
v -0.19436744 -0.18679296 -0.29639354
v -0.12556141 -0.19349820 -0.29220182
v -0.01622698 -0.19608620 -0.26834969
v 0.01259834 -0.20544278 -0.26814606
v -0.04522525 -0.22481649 -0.27736106
v -0.05001025 -0.22660365 -0.27774289
v 0.01239656 -0.21057350 -0.26810363
v 0.01138768 -0.21536490 -0.26790844
v -0.15112947 -0.21575853 -0.28027999
v -0.05943613 -0.23125932 -0.22890162
v -0.17243137 -0.21206204 -0.28198555
v -0.19436744 -0.20790408 -0.29071690
v -0.05943613 -0.23002866 -0.26314821
v 0.10011201 -0.22509249 -0.24024645
v 0.10011201 -0.22601095 -0.23484131
v -0.05001025 -0.23058066 -0.26314821
v -0.19436744 -0.18676581 -0.29633416
v -0.14057940 -0.18713229 -0.28630454
v -0.06231866 -0.18678843 -0.26844303
v -0.05926318 -0.19018178 -0.27196443
v 0.00645855 -0.19507271 -0.26006805
v 0.07036428 -0.20499937 -0.24997057
v 0.04148131 -0.20498127 -0.25912619
v 0.08789007 -0.21450073 -0.24941054
v 0.05122427 -0.21352345 -0.25879526
v 0.05122427 -0.21592593 -0.25879526
v 0.01712391 -0.21057350 -0.26702599
v 0.08175028 -0.21828318 -0.25026757
v 0.08175028 -0.22298862 -0.24751833
v 0.10011201 -0.22549063 -0.22549902
v 0.10011201 -0.21974910 -0.21804046
v 0.10011201 -0.21952288 -0.21776893
v 0.10011201 -0.21161412 -0.21486696
v 0.10011201 -0.21108930 -0.21479060
v -0.06058914 -0.23056708 -0.22890162
v -0.18773762 -0.20634765 -0.27686891
v -0.18185725 -0.21000342 -0.28198555
v -0.18961126 -0.20741996 -0.28198555
v -0.19436744 -0.20458764 -0.28207038
v 0.10011201 -0.22479387 -0.24050948
v -0.19436744 -0.18504200 -0.29147209
v -0.06231866 -0.18678843 -0.26639807
v 0.03467853 -0.19495507 -0.24432785
v 0.04087598 -0.19613144 -0.24963965
v 0.07664820 -0.20610333 -0.24888446
v 0.09809423 -0.20536585 -0.24027190
v 0.10011201 -0.20563733 -0.23986461
v 0.10011201 -0.20994008 -0.24301263
v 0.10011201 -0.21952288 -0.24369146
v 0.08789007 -0.21642816 -0.24941054
v 0.10011201 -0.21997985 -0.24368298
v -0.06822785 -0.21057350 -0.22890162
v -0.06811255 -0.21999342 -0.22890162
v -0.06528767 -0.22765334 -0.22890162
v 0.10011201 -0.20186393 -0.21677614
v -0.05943613 -0.20125765 -0.22890162
v -0.06347167 -0.20290455 -0.22890162
v -0.06551827 -0.20429355 -0.22890162
v -0.06658481 -0.20653769 -0.22890162
v -0.19436744 -0.19954740 -0.27641919
v -0.19436744 -0.20142504 -0.27831142
v -0.19436744 -0.20455145 -0.28198555
v -0.19436744 -0.18565732 -0.28592271
v -0.06531649 -0.18678843 -0.26639807
v -0.02181909 -0.19033109 -0.25374654
v 0.04211547 -0.19580114 -0.24432785
v 0.10011201 -0.20159698 -0.21686948
v 0.10011201 -0.20174177 -0.22545659
v 0.10011201 -0.20383206 -0.23544377
v 0.10011201 -0.20441572 -0.23694567
v 0.10011201 -0.20847416 -0.24195197
v -0.19436744 -0.19507723 -0.27642769
v -0.05603474 -0.20101333 -0.22890162
v -0.17243137 -0.18718658 -0.27765805
v -0.16724282 -0.18706442 -0.27731862
v -0.13478551 -0.18646720 -0.27543489
v -0.02167496 -0.19404566 -0.24353023
v -0.03121614 -0.19044871 -0.25374654
f 38 53 33
f 38 22 37
f 36 18 22
f 59 77 83
f 56 57 33
f 33 55 56
f 33 53 54
f 54 55 33
f 39 38 33
f 22 38 39
f 33 36 39
f 39 36 22
f 33 57 58
f 57 77 58
f 58 59 33
f 77 59 58
f 57 75 76
f 76 77 57
f 76 75 83
f 83 77 76
f 57 79 80
f 80 81 57
f 82 75 57
f 57 81 82
f 33 18 32
f 32 36 33
f 18 36 32
f 1 2 3
f 2 7 3
f 22 18 17
f 18 7 17
f 33 59 60
f 37 22 29
f 44 42 67
f 78 79 57
f 78 90 79
f 95 80 79
f 81 80 95
f 95 82 81
f 83 75 95
f 75 82 95
f 34 18 33
f 33 60 34
f 18 34 35
f 35 34 60
f 84 59 83
f 20 29 22
f 6 2 1
f 71 72 47
f 47 68 71
f 16 31 28
f 27 16 13
f 13 12 27
f 25 42 43
f 70 68 45
f 44 67 45
f 88 90 66
f 66 67 42
f 90 91 66
f 97 98 86
f 86 95 97
f 97 95 79
f 19 7 18
f 18 35 19
f 61 60 59
f 61 35 60
f 62 35 61
f 59 84 85
f 85 61 59
f 62 61 85
f 28 29 14
f 14 16 28
f 6 16 14
f 5 12 13
f 5 4 12
f 1 4 5
f 5 6 1
f 20 21 8
f 2 6 8
f 94 68 70
f 94 71 68
f 48 27 47
f 46 68 47
f 47 27 46
f 46 45 68
f 26 27 12
f 26 46 27
f 26 42 44
f 26 43 42
f 26 12 25
f 25 43 26
f 44 45 26
f 45 46 26
f 52 51 74
f 37 29 52
f 29 51 52
f 67 91 92
f 69 67 70
f 70 45 69
f 69 45 67
f 89 91 67
f 67 66 89
f 89 66 91
f 96 87 98
f 96 97 79
f 98 97 96
f 100 87 96
f 79 90 96
f 96 90 100
f 88 87 101
f 101 87 100
f 101 90 88
f 100 90 101
f 65 87 88
f 88 66 65
f 65 66 42
f 86 98 99
f 99 87 86
f 98 87 99
f 11 4 10
f 12 4 11
f 25 12 11
f 11 24 25
f 41 42 25
f 25 24 41
f 64 65 42
f 42 41 64
f 86 87 64
f 87 65 64
f 9 21 20
f 22 17 9
f 9 20 22
f 9 7 2
f 9 17 7
f 2 8 9
f 9 8 21
f 15 8 6
f 15 14 29
f 6 14 15
f 29 20 15
f 20 8 15
f 28 31 49
f 49 29 28
f 49 51 29
f 27 48 49
f 49 50 27
f 37 52 63
f 63 52 74
f 70 67 93
f 67 92 93
f 23 11 10
f 24 11 23
f 40 41 24
f 40 64 41
f 16 27 30
f 27 50 30
f 31 16 30
f 30 49 31
f 50 49 30
f 51 49 73
f 74 51 73
f 72 74 73
f 47 72 73
f 5 16 6
f 13 16 5
f 93 54 53
f 93 94 70
f 93 38 37
f 57 56 93
f 53 38 93
f 37 63 93
f 93 56 55
f 55 54 93
f 93 78 57
f 90 78 93
f 72 71 93
f 93 74 72
f 93 91 90
f 71 94 93
f 93 92 91
f 93 63 74
f 1 3 40
f 62 85 40
f 40 84 83
f 40 3 7
f 83 95 40
f 40 4 1
f 40 95 86
f 40 35 62
f 7 19 40
f 10 4 40
f 86 64 40
f 40 19 35
f 40 85 84
f 40 23 10
f 24 23 40
f 73 49 48
f 73 48 47

