# https://github.com/mikedh/trimesh
v 0.11003749 -0.04600046 0.06258963
v 0.11945192 -0.04450541 0.06258963
v 0.10062306 -0.04511222 0.06258963
v 0.10062306 -0.04039842 0.03816515
v 0.11003749 -0.04041601 0.03816515
v 0.11945192 -0.04206936 0.04757418
v 0.12841531 -0.04141857 0.06258963
v 0.12886635 -0.03953657 0.04757418
v 0.10011486 -0.04500669 0.06258963
v 0.09120227 -0.04051275 0.04757418
v 0.09416890 -0.03791840 0.03150246
v 0.10062306 -0.03835812 0.03029992
v 0.11038052 -0.03806791 0.02833361
v 0.11521479 -0.03662563 0.02357222
v 0.11736194 -0.03767216 0.02873987
v 0.13422151 -0.02717165 -0.00519113
v 0.14308963 -0.02702214 0.00498167
v 0.13500923 -0.03763698 0.05699946
v 0.13478689 -0.03760180 0.06258963
v 0.13469160 -0.03712691 0.04757418
v 0.14385829 -0.02774328 0.00990556
v 0.13399282 -0.03656407 0.04084648
v 0.09045267 -0.04252667 0.06258963
v 0.09045267 -0.04024013 0.04757418
v 0.09110063 -0.03870110 0.03868517
v 0.09045267 0.00004702 -0.10342529
v 0.12886635 0.00039880 -0.09167619
v 0.13445022 0.00096164 -0.08983989
v 0.13772811 -0.02514893 -0.00857123
v 0.14395994 -0.01809583 -0.02470796
v 0.14527491 -0.01908080 -0.01833777
v 0.14460789 -0.02868428 0.01933084
v 0.14445542 -0.02900968 0.02873987
v 0.13657195 -0.03503384 0.06258963
v 0.14395994 -0.02863152 0.03816515
v 0.14646282 -0.02040875 -0.00891249
v 0.14998211 -0.01429664 -0.01833777
v 0.15117004 -0.01483311 -0.00891249
v 0.09045267 0.00667800 0.06258963
v 0.09045267 -0.03845486 0.03868517
v 0.09045267 0.03291169 -0.10342529
v 0.12887271 0.00505103 -0.10342529
v 0.12886635 0.00202576 -0.09638883
v 0.13665453 0.00815546 -0.10342529
v 0.14329927 0.00100561 -0.08021960
v 0.14387735 -0.00857149 -0.05283754
v 0.14054863 -0.00763049 -0.05911023
v 0.14542100 -0.00946852 -0.04656485
v 0.15180530 -0.00707644 -0.03715582
v 0.15238972 -0.00808780 -0.03236194
v 0.14822882 -0.02224678 0.01933084
v 0.14756817 -0.02224678 0.02873987
v 0.13838877 -0.03132260 0.06258963
v 0.14333103 -0.02759378 0.04757418
v 0.14300706 -0.02699576 0.05235182
v 0.15271370 -0.00876497 -0.02608925
v 0.15301862 -0.00959164 -0.01833777
v 0.15309486 -0.01012810 -0.00891249
v 0.15158295 -0.01454289 0.00049654
v 0.11475741 0.04384313 0.06258963
v 0.09045267 0.04384313 -0.06910427
v 0.09045267 0.04384313 -0.10311653
v 0.09045902 0.04384313 -0.10342529
v 0.14091072 0.01516459 -0.10342529
v 0.14270849 0.01189308 -0.09747761
v 0.14782861 0.00599203 -0.07482444
v 0.15262476 0.00073298 -0.05238253
v 0.14444273 -0.00018163 -0.07482444
v 0.15012823 -0.00516806 -0.04656485
v 0.15299321 -0.00046306 -0.04656485
v 0.15338071 -0.00237144 -0.03715582
v 0.15358399 -0.00433259 -0.02862432
v 0.15106839 -0.01282798 0.01933084
v 0.15169094 -0.01244103 0.01036058
v 0.15002024 -0.01282798 0.02873987
v 0.14640565 -0.02224678 0.03816515
v 0.13984351 -0.02696058 0.06258963
v 0.14486834 -0.02224678 0.04757418
v 0.14673597 -0.01282798 0.04757418
v 0.14348349 -0.02224678 0.05404187
v 0.14117117 -0.02224678 0.06258963
v 0.15431453 -0.00341797 -0.01833777
v 0.15425101 -0.00341797 -0.00891249
v 0.15400961 -0.00341797 0.00049654
v 0.15286615 -0.00982909 0.00049654
v 0.12997168 0.04384313 0.06258963
v 0.13914473 0.04384313 -0.10342529
v 0.14104413 0.01590332 -0.10342529
v 0.14126011 0.01518218 -0.10267776
v 0.14332468 0.01817228 -0.09928141
v 0.14728865 0.01541084 -0.08423347
v 0.15092864 0.00671317 -0.06466789
v 0.15191963 0.00404847 -0.05865521
v 0.15284710 0.00671317 -0.05571388
v 0.15390162 0.00599203 -0.04656485
v 0.15245960 0.01032767 -0.06102778
v 0.15463851 0.00599203 -0.03715582
v 0.15215467 -0.00631133 0.01933084
v 0.15261207 -0.00904639 0.00750050
v 0.15327908 -0.00410394 0.01036058
v 0.15255489 0.00014376 0.02467725
v 0.14841940 -0.01282798 0.03816515
v 0.14329927 -0.00988186 0.06237837
v 0.14435378 -0.01294231 0.05740572
v 0.14193348 -0.01806944 0.06258963
v 0.15515941 0.00599203 -0.02773055
v 0.15534365 0.00599203 -0.01833777
v 0.15523565 0.00599203 -0.00891249
v 0.15482274 0.00599203 0.00049654
v 0.14312140 -0.00676864 0.06258963
v 0.13626067 0.04384313 0.05509815
v 0.13925907 0.04384313 -0.10340904
v 0.13940517 0.04358809 -0.10342529
v 0.14198430 0.02373034 -0.10342529
v 0.14339456 0.02482964 -0.09952517
v 0.14523044 0.02482964 -0.09365875
v 0.14996306 0.01541084 -0.07482444
v 0.15338071 0.01541084 -0.05599013
v 0.15444158 0.01541084 -0.04656485
v 0.15254219 0.01541084 -0.06153155
v 0.15175447 0.01541084 -0.06622793
v 0.15286615 -0.00160633 0.01933084
v 0.15255489 0.00179711 0.02467725
v 0.14329927 -0.00697091 0.06237837
v 0.14319128 -0.01006654 0.06258963
v 0.15514036 0.01541084 -0.02773055
v 0.15487356 0.01541084 -0.03715582
v 0.15519754 0.01541084 -0.01833777
v 0.15378728 0.00599203 0.00990556
v 0.15461310 0.01541084 -0.00891249
v 0.14319128 -0.00732269 0.06258963
v 0.13962116 0.04384313 0.04757418
v 0.13941788 0.04384313 -0.10227150
v 0.14439190 0.04096736 -0.08423347
v 0.14352796 0.03985927 -0.09365875
v 0.13964657 0.04284057 -0.10342529
v 0.14299434 0.03896224 -0.09837138
v 0.14200971 0.02482964 -0.10342529
v 0.14314046 0.03423965 -0.09884265
v 0.14458882 0.03423965 -0.09365875
v 0.14777144 0.02482964 -0.08423347
v 0.14988682 0.02482964 -0.07482444
v 0.15251042 0.02482964 -0.06130404
v 0.15241513 0.02955223 -0.06073527
v 0.15164647 0.02482964 -0.06601668
v 0.15244054 0.01076739 0.01474821
v 0.15332354 0.02552440 -0.04596359
v 0.15339342 0.02547163 -0.03785460
v 0.15362847 0.02336097 -0.02773055
v 0.15355859 0.02220891 -0.01833777
v 0.15294239 0.02099528 -0.00891249
v 0.14030088 0.04384313 0.00134156
v 0.15242783 0.02956982 -0.04146220
v 0.14486834 0.04090580 -0.07482444
v 0.13980538 0.04384313 -0.08423347
v 0.14150151 0.03423965 -0.10342529
v 0.14671058 0.03423965 -0.08423347
v 0.15242783 0.02956982 -0.04240473
f 60 61 39
f 152 132 154
f 14 13 26
f 41 62 63
f 152 154 155
f 153 154 132
f 132 150 153
f 134 154 144
f 124 123 132
f 132 123 146
f 128 108 107
f 109 108 128
f 26 13 12
f 12 11 26
f 23 24 10
f 137 156 136
f 133 155 154
f 133 134 112
f 154 134 133
f 144 154 158
f 154 153 158
f 144 137 135
f 135 134 144
f 112 134 135
f 23 10 9
f 107 108 83
f 111 124 132
f 151 150 132
f 129 123 109
f 129 146 123
f 119 97 95
f 126 128 107
f 149 153 150
f 150 128 149
f 138 115 114
f 157 137 144
f 116 141 117
f 144 119 143
f 117 141 142
f 142 121 117
f 142 157 144
f 141 157 142
f 117 121 96
f 16 14 26
f 26 27 16
f 64 65 44
f 114 115 90
f 115 116 90
f 90 116 117
f 117 96 92
f 25 40 26
f 26 11 25
f 11 10 25
f 24 40 25
f 25 10 24
f 113 87 112
f 137 136 113
f 112 135 113
f 113 135 137
f 55 80 81
f 13 5 4
f 4 12 13
f 11 12 4
f 4 10 11
f 51 38 59
f 59 38 58
f 51 73 52
f 52 33 51
f 76 55 52
f 76 52 75
f 75 52 73
f 58 83 84
f 84 108 109
f 84 83 108
f 51 33 32
f 32 38 51
f 32 21 38
f 38 21 37
f 110 111 86
f 124 111 110
f 110 131 124
f 109 128 130
f 132 146 130
f 130 151 132
f 130 128 150
f 150 151 130
f 130 129 109
f 146 129 130
f 38 37 50
f 107 83 82
f 82 72 97
f 82 83 58
f 127 119 144
f 144 126 127
f 147 126 144
f 137 157 140
f 140 157 141
f 140 116 137
f 141 116 140
f 137 116 139
f 139 116 115
f 139 156 137
f 139 138 156
f 115 138 139
f 145 143 121
f 121 142 145
f 144 143 145
f 145 142 144
f 94 95 67
f 67 96 94
f 94 96 95
f 119 95 118
f 95 96 118
f 118 143 119
f 26 42 43
f 43 27 26
f 114 90 88
f 65 64 89
f 89 90 65
f 64 88 89
f 89 88 90
f 91 90 117
f 65 90 91
f 117 92 91
f 91 92 65
f 65 92 66
f 93 96 67
f 93 92 96
f 67 66 93
f 93 66 92
f 14 16 15
f 1 4 5
f 77 55 81
f 53 55 77
f 85 59 58
f 58 84 85
f 33 52 35
f 35 19 33
f 109 123 101
f 78 55 76
f 76 75 78
f 21 32 22
f 81 80 104
f 70 50 67
f 67 95 70
f 70 95 97
f 57 82 58
f 72 82 57
f 58 38 57
f 49 69 67
f 67 50 49
f 107 82 106
f 106 82 97
f 106 126 107
f 106 127 126
f 106 97 119
f 119 127 106
f 148 149 128
f 128 126 148
f 126 147 148
f 153 149 148
f 148 158 153
f 144 158 148
f 148 147 144
f 120 96 121
f 120 118 96
f 121 143 120
f 143 118 120
f 28 42 44
f 28 43 42
f 27 43 28
f 28 16 27
f 31 49 50
f 30 49 31
f 31 21 17
f 17 30 31
f 4 1 3
f 3 9 10
f 10 4 3
f 6 1 5
f 14 15 6
f 13 14 6
f 6 5 13
f 6 15 16
f 6 16 17
f 34 55 53
f 19 35 34
f 18 32 33
f 33 19 18
f 18 19 7
f 74 85 73
f 59 85 74
f 74 73 51
f 51 59 74
f 73 85 99
f 99 85 84
f 54 52 55
f 54 35 52
f 55 34 54
f 54 34 35
f 98 75 73
f 98 101 75
f 81 104 105
f 79 104 80
f 80 55 79
f 55 78 79
f 72 50 71
f 50 70 71
f 97 72 71
f 71 70 97
f 56 50 72
f 72 57 56
f 38 50 56
f 56 57 38
f 48 30 46
f 48 49 30
f 45 28 44
f 46 28 45
f 44 65 45
f 65 66 45
f 45 66 67
f 46 30 47
f 47 28 46
f 36 37 21
f 21 31 36
f 36 50 37
f 36 31 50
f 1 6 2
f 20 22 32
f 32 18 20
f 20 18 7
f 101 98 122
f 109 101 122
f 100 99 84
f 100 122 98
f 73 99 100
f 100 98 73
f 100 84 109
f 109 122 100
f 125 105 103
f 103 105 104
f 104 79 103
f 103 79 101
f 102 78 75
f 102 79 78
f 75 101 102
f 101 79 102
f 46 45 68
f 68 48 46
f 67 69 68
f 68 45 67
f 69 49 68
f 49 48 68
f 16 28 29
f 28 47 29
f 29 47 30
f 17 16 29
f 29 30 17
f 7 2 8
f 8 20 7
f 22 20 8
f 8 2 6
f 8 6 17
f 17 21 8
f 21 22 8
f 23 39 40
f 40 24 23
f 40 41 26
f 40 39 61
f 61 62 40
f 62 41 40
f 111 62 61
f 111 61 60
f 60 86 111
f 112 87 111
f 111 132 152
f 63 62 111
f 111 87 63
f 111 133 112
f 152 155 111
f 155 133 111
f 63 87 88
f 26 41 88
f 88 138 114
f 88 42 26
f 88 41 63
f 87 113 88
f 88 136 156
f 156 138 88
f 44 42 88
f 88 64 44
f 88 113 136
f 2 39 23
f 2 86 60
f 60 39 2
f 23 9 2
f 9 3 2
f 2 77 81
f 2 34 53
f 2 110 86
f 2 125 131
f 131 110 2
f 81 105 2
f 7 19 2
f 53 77 2
f 2 3 1
f 19 34 2
f 2 105 125
f 131 125 103
f 124 131 103
f 123 124 103
f 103 101 123

