# https://github.com/mikedh/trimesh
v 0.20813621 0.28905381 0.08434560
v 0.21101836 0.28905381 0.08333185
v 0.20093530 0.28905381 0.08434560
v 0.17440558 0.15666781 0.08434560
v 0.20960814 0.28150421 0.08159927
v 0.21358319 0.28847624 0.07583014
v 0.21373302 0.28905381 0.07583014
v 0.17229906 0.14872631 0.08434560
v 0.19807961 0.28905381 0.08318439
v 0.16974305 0.21019565 0.08434560
v 0.20948474 0.27257260 0.07339715
v 0.21272823 0.28905381 0.06639311
v 0.20948474 0.27257260 0.06928688
v 0.21275467 0.28847624 0.06642075
v 0.17048342 0.14416767 0.08434560
v 0.16273602 0.12156015 0.08238262
v 0.16130818 0.11526883 0.07898196
v 0.16218076 0.11322672 0.07269675
v 0.18092783 0.16984865 0.04382347
v 0.19965729 0.23622731 0.06221832
v 0.19776231 0.28905381 0.08288949
v 0.15980983 0.18465905 0.08434560
v 0.20760738 0.28905381 0.01940145
v 0.19965729 0.23622731 0.06115850
v 0.18090139 0.18820695 -0.00480860
v 0.20030951 0.26188766 0.00992755
v 0.16337062 0.12636631 0.08434560
v 0.15975695 0.12003373 0.08434560
v 0.15602868 0.11380429 0.08434560
v 0.15490051 0.10959632 0.08300929
v 0.14518764 0.07832534 0.07313911
v 0.14845758 0.07832534 0.06831922
v 0.14931252 0.07832534 0.06651291
v 0.15298791 0.08434851 0.06350854
v 0.18092783 0.16984865 0.04210011
v 0.16233940 0.11194784 0.02642394
v 0.19470390 0.28905381 0.07625407
v 0.15965118 0.18422588 0.08434560
v 0.20550970 0.28905381 0.01080306
v 0.20204585 0.26964353 0.00992755
v 0.19976306 0.26333156 0.00488648
v 0.17219331 0.15829737 -0.00979438
v 0.17404420 0.16609449 -0.00979438
v 0.17654735 0.17550053 -0.00890966
v 0.17872437 0.18498909 -0.00832906
v 0.14770840 0.10796676 0.08434560
v 0.14770840 0.10188171 0.08219830
v 0.14316926 0.07832534 0.07322205
v 0.15033493 0.07832534 0.05696528
v 0.15294383 0.08342028 0.01760436
v 0.16233940 0.11194784 0.02298642
v 0.19461576 0.28905381 0.07583014
v 0.15236212 0.16384611 0.08434560
v 0.20007153 0.26964353 0.00461000
v 0.20028308 0.27907021 0.00451785
v 0.20525410 0.28905381 0.01049894
v 0.18967118 0.23197808 -0.00326034
v 0.15294383 0.08342028 0.01368762
v 0.15000882 0.07832534 0.01020403
v 0.16371437 0.13579299 -0.00979438
v 0.17610666 0.17550053 -0.00979438
v 0.17776366 0.18498909 -0.00979438
v 0.18267298 0.20373931 -0.00702041
v 0.14637750 0.10800801 0.08434560
v 0.14119496 0.10179920 0.08209692
v 0.13862132 0.07832534 0.07322205
v 0.18771450 0.28905381 0.01934616
v 0.15186854 0.16277349 0.08347931
v 0.15149837 0.16102017 0.08434560
v 0.18943322 0.24140474 -0.00404369
v 0.20015087 0.28905381 0.00474824
v 0.17912981 0.19431263 -0.00979438
v 0.18342215 0.21314536 -0.00742590
v 0.13726397 0.07832534 -0.00979438
v 0.17865386 0.19097101 -0.00979438
v 0.14391844 0.11347426 0.08434560
v 0.14087766 0.10959632 0.08244712
v 0.13249568 0.07832534 0.06947120
v 0.13436422 0.07832534 0.07064162
v 0.13662939 0.07832534 0.07204243
v 0.18826096 0.28905381 0.00965108
v 0.17120615 0.24619029 0.00511687
v 0.17120615 0.24619029 0.00527355
v 0.14376860 0.13956779 0.07583014
v 0.14281672 0.13416343 0.08086200
v 0.14733821 0.14651919 0.08434560
v 0.18412726 0.22257202 -0.00731532
v 0.18496459 0.23197808 -0.00660569
v 0.19526798 0.28905381 0.00435196
v 0.18472661 0.24140474 -0.00542606
v 0.17693516 0.22257202 -0.00979438
v 0.17594800 0.22389217 -0.00979438
v 0.17974678 0.20373931 -0.00979438
v 0.12734838 0.07832534 -0.00979438
v 0.14429744 0.12407668 0.08434560
v 0.14554019 0.13703063 0.08434560
v 0.14142412 0.11900237 0.08206928
v 0.13716703 0.10959632 0.07583014
v 0.13023934 0.07832534 0.06623644
v 0.18847249 0.28905381 0.00938382
v 0.18925693 0.28595973 0.00437039
v 0.18016984 0.26588934 0.00460079
v 0.17117971 0.23684612 -0.00427408
v 0.16124649 0.21073196 -0.00537998
v 0.13692905 0.12702639 -0.00979438
v 0.13347402 0.10534709 0.06239342
v 0.14065732 0.12842904 0.07583014
v 0.13866537 0.11900237 0.07583014
v 0.14205872 0.12842904 0.08157162
v 0.17925320 0.21289783 -0.00979438
v 0.17983491 0.24709789 -0.00454134
v 0.19504763 0.28905381 0.00446255
v 0.16701075 0.21252653 -0.00979438
v 0.17594800 0.23197808 -0.00770238
v 0.12369064 0.07832534 -0.00636608
v 0.12763043 0.08115128 -0.00979438
v 0.12741008 0.07832534 0.05700215
v 0.12900539 0.07832534 0.06259617
v 0.17639751 0.24055902 -0.00522332
v 0.16992814 0.23197808 -0.00528783
v 0.16113190 0.20161469 -0.00979438
v 0.15521781 0.18406087 -0.00979438
v 0.15215059 0.17473732 -0.00979438
v 0.13708770 0.12756269 -0.00979438
v 0.13471678 0.11900237 -0.00979438
v 0.12369064 0.07832534 -0.00322347
v 0.13478729 0.10893625 0.06588623
v 0.16582088 0.21087635 -0.00979438
v 0.16309740 0.20602893 -0.00979438
f 59 74 60
f 42 59 60
f 42 35 51
f 26 23 13
f 117 106 126
f 58 49 59
f 58 59 42
f 42 51 58
f 89 71 92
f 25 35 42
f 26 13 25
f 116 94 115
f 40 23 26
f 7 13 14
f 14 13 23
f 115 126 125
f 125 116 115
f 85 68 84
f 127 106 117
f 109 85 108
f 108 127 117
f 33 49 34
f 28 16 27
f 29 16 28
f 31 16 30
f 30 16 29
f 82 67 81
f 114 92 113
f 50 36 34
f 34 49 50
f 49 58 50
f 92 71 91
f 71 90 91
f 111 114 119
f 111 89 92
f 92 114 111
f 35 25 24
f 24 25 13
f 39 54 55
f 63 72 57
f 39 23 41
f 23 40 41
f 41 54 39
f 41 57 54
f 26 25 41
f 41 40 26
f 7 14 12
f 12 14 23
f 105 126 106
f 105 125 126
f 105 104 124
f 82 104 105
f 83 67 82
f 83 68 67
f 83 84 68
f 106 84 83
f 83 105 106
f 82 105 83
f 67 68 52
f 53 37 52
f 52 68 53
f 107 84 106
f 85 84 107
f 106 127 107
f 107 108 85
f 127 108 107
f 98 108 117
f 109 108 98
f 9 21 22
f 22 21 37
f 32 16 31
f 17 33 34
f 34 18 17
f 17 32 33
f 16 32 17
f 47 30 29
f 31 30 47
f 65 66 47
f 11 13 7
f 7 2 6
f 2 5 6
f 6 11 7
f 112 89 101
f 89 111 101
f 124 104 123
f 103 111 119
f 103 101 111
f 103 104 82
f 19 18 34
f 34 36 19
f 39 55 56
f 56 55 71
f 70 55 54
f 54 57 70
f 71 55 70
f 80 66 65
f 65 76 77
f 77 98 99
f 77 99 78
f 78 65 77
f 118 98 117
f 99 98 118
f 10 3 9
f 9 22 10
f 38 37 53
f 38 22 37
f 46 47 29
f 31 47 48
f 48 47 66
f 8 6 5
f 11 6 8
f 8 5 2
f 16 17 8
f 8 17 18
f 8 20 11
f 19 20 8
f 18 19 8
f 112 101 100
f 100 101 81
f 104 121 122
f 122 123 104
f 81 101 102
f 101 103 102
f 82 81 102
f 102 103 82
f 75 72 63
f 63 62 75
f 61 62 45
f 45 62 63
f 63 57 45
f 57 41 45
f 45 44 61
f 45 41 25
f 25 44 45
f 61 44 43
f 43 25 42
f 43 44 25
f 79 65 78
f 79 80 65
f 86 85 109
f 109 96 86
f 95 77 76
f 96 77 95
f 97 96 109
f 97 77 96
f 109 98 97
f 98 77 97
f 64 76 65
f 65 47 64
f 47 46 64
f 27 16 15
f 16 8 15
f 4 2 1
f 4 8 2
f 120 114 113
f 120 129 121
f 119 114 120
f 120 103 119
f 120 121 104
f 104 103 120
f 87 93 110
f 85 86 69
f 53 68 69
f 69 68 85
f 128 120 113
f 129 120 128
f 88 87 110
f 70 87 88
f 110 91 88
f 88 91 90
f 88 90 71
f 71 70 88
f 72 93 73
f 93 87 73
f 73 87 70
f 73 57 72
f 73 70 57
f 51 36 50
f 50 58 51
f 19 36 51
f 19 51 35
f 13 11 20
f 20 24 13
f 20 19 35
f 35 24 20
f 39 56 100
f 37 21 100
f 100 3 1
f 100 2 7
f 100 52 37
f 100 23 39
f 1 2 100
f 100 89 112
f 7 12 100
f 71 89 100
f 9 3 100
f 100 21 9
f 100 81 67
f 100 12 23
f 67 52 100
f 100 56 71
f 79 118 117
f 115 94 79
f 79 126 115
f 79 74 59
f 79 94 74
f 117 126 79
f 31 48 79
f 59 49 79
f 78 99 79
f 49 33 79
f 79 32 31
f 33 32 79
f 66 80 79
f 99 118 79
f 79 48 66
f 69 46 29
f 69 28 27
f 3 10 69
f 1 3 69
f 29 28 69
f 69 38 53
f 76 64 69
f 69 4 1
f 69 10 22
f 22 38 69
f 69 95 76
f 27 15 69
f 69 86 96
f 96 95 69
f 69 64 46
f 69 15 8
f 8 4 69
f 74 94 128
f 72 75 128
f 42 60 128
f 113 92 128
f 128 60 74
f 128 122 121
f 128 91 110
f 128 43 42
f 94 116 128
f 116 125 128
f 128 105 124
f 92 91 128
f 124 123 128
f 125 105 128
f 110 93 128
f 128 62 61
f 123 122 128
f 121 129 128
f 128 75 62
f 61 43 128
f 128 93 72

