# https://github.com/mikedh/trimesh
v -0.27971113 0.05307661 -0.13147472
v -0.28084675 0.04799891 -0.12701704
v -0.27971113 0.05328576 -0.13147472
v -0.27941911 0.05131045 -0.13147472
v -0.28081431 0.05307661 -0.12697396
v -0.27825105 0.04432716 -0.13147472
v -0.28136589 0.03811074 -0.11853235
v -0.28156057 0.04438525 -0.12176256
v -0.28363710 0.04365323 -0.11248110
v -0.29019123 0.03828503 -0.07985601
v -0.29019123 0.03923783 -0.07985601
v -0.28074943 0.05782897 -0.12669401
v -0.27834840 0.06167502 -0.13147472
v -0.27799149 0.04382752 -0.13147472
v -0.27380594 0.03635620 -0.13147472
v -0.28026272 0.03017465 -0.10683900
v -0.28178769 0.02859440 -0.10057240
v -0.28970453 0.01100253 -0.05091334
v -0.29129441 0.00958495 -0.04464674
v -0.29275446 0.01463942 -0.04729551
v -0.29593419 0.01540630 -0.03715266
v -0.29067794 0.02826905 -0.07238345
v -0.28989923 0.03201052 -0.07867159
v -0.29544749 0.02482969 -0.04656333
v -0.29681025 0.02482969 -0.03715266
v -0.29447413 0.03424146 -0.04656333
v -0.29051570 0.04033006 -0.07481688
v -0.28091163 0.05811946 -0.12189177
v -0.27847819 0.06158206 -0.13041952
v -0.28918541 0.04503594 -0.07481688
v -0.27370859 0.06930901 -0.13147472
v -0.26670025 0.03317247 -0.13147472
v -0.27218362 0.01826469 -0.10035706
v -0.28610303 0.00772584 -0.04729551
v -0.29966551 -0.00823931 0.02383365
v -0.29973039 0.00105626 0.00456008
v -0.30148247 0.00600616 0.00990069
v -0.29940595 0.01311727 -0.01176323
v -0.29960060 0.01939178 -0.01400284
v -0.29960060 0.02030972 -0.01400284
v -0.29463634 0.03424146 -0.03715266
v -0.29145664 0.04114342 -0.05597400
v -0.29106729 0.04131771 -0.06540621
v -0.30002239 0.02139033 0.00049002
v -0.30034686 0.02161110 0.00990069
v -0.28120366 0.05847967 -0.11248110
v -0.27370859 0.06928577 -0.13132397
v -0.27361126 0.06935549 -0.13147472
v -0.28110634 0.05824727 -0.10307043
v -0.28074943 0.05778249 -0.08894365
v -0.26660291 0.03313761 -0.13147472
v -0.25748554 -0.03316306 0.08852394
v -0.29174864 -0.02735333 0.07945783
v -0.29486349 -0.02928216 0.08852394
v -0.29801075 -0.02653997 0.08186971
v -0.29444169 -0.00968012 0.02015122
v -0.25719353 0.03248692 -0.13147472
v -0.24801128 0.03189433 -0.13147472
v -0.21011421 0.02946586 -0.13147472
v 0.00643119 0.01652177 -0.13147472
v 0.02291382 0.00314777 -0.10345805
v 0.01999366 -0.01788346 -0.05166706
v -0.30054156 -0.02749276 0.08815785
v -0.30060645 -0.02756248 0.08852394
v -0.30190427 -0.01983553 0.06640779
v -0.30316968 -0.02125311 0.07581846
v -0.30586273 -0.01282900 0.06640779
v -0.30245588 -0.00341723 0.02874357
v -0.30398085 -0.00341723 0.03815424
v -0.30547335 -0.00341723 0.04758644
v -0.30278032 0.00600616 0.01933290
v -0.30388350 0.00600616 0.02874357
v -0.30469464 0.00600616 0.03815424
v -0.30521379 0.00600616 0.04758644
v -0.30216386 0.01540630 0.01933290
v -0.29155396 0.04069026 -0.04656333
v -0.30037930 0.02128575 0.01933290
v -0.27276768 0.06819354 -0.12363608
v -0.26660291 0.07131918 -0.13147472
v -0.26660291 0.07128432 -0.13132397
v -0.29135929 0.04009767 -0.03715266
v -0.29080770 0.03948184 -0.03000314
v -0.30018465 0.01114196 0.07347117
v 0.00033132 -0.04638602 0.07885486
v -0.00135587 -0.04699022 0.08525066
v 0.00136959 -0.04737367 0.08852394
v -0.30021709 -0.02769030 0.08852394
v 0.02291382 0.01588270 -0.13147472
v 0.02291382 -0.01536204 -0.05261459
v 0.02122662 -0.01788346 -0.05166706
v -0.30482444 -0.02243829 0.08852394
v -0.30748502 -0.01282900 0.07581846
v -0.30654408 -0.00341723 0.05699711
v -0.30709567 -0.00341723 0.06640779
v -0.30754990 -0.00341723 0.07581846
v -0.30767970 -0.00341723 0.08525066
v -0.30498664 0.00600616 0.05699711
v -0.30751746 -0.00341723 0.08852394
v -0.30005486 0.02066992 0.02874357
v -0.26647311 0.07133080 -0.13147472
v -0.29486349 0.01036346 0.07904867
v -0.29966551 0.02019352 0.03378269
v -0.30154736 0.01293136 0.05699711
v -0.30320215 0.00478611 0.08525066
v -0.30300744 0.00425162 0.08852394
v -0.29758895 0.00648256 0.08852394
v -0.29486349 0.00723782 0.08852394
v 0.00308924 -0.04638602 0.07885486
v 0.00925401 -0.04726909 0.08852394
v 0.02291382 0.06237219 -0.13147472
v 0.02291382 -0.01640779 -0.04828611
v 0.02291382 -0.04707156 0.08852394
v -0.30849084 -0.01282900 0.08852394
v -0.30832861 -0.01282900 0.08525066
v -0.30200162 0.01388415 0.04758644
v -0.23837477 0.00688924 0.08852394
v -0.23837477 0.00784203 0.08525066
v -0.18487114 0.01079338 0.07138230
v -0.17244426 0.06925091 -0.13147472
v 0.02291382 0.00089359 0.07872564
v 0.01584057 0.06266267 -0.13147472
v -0.00567122 0.00164886 0.08143902
v 0.02291382 -0.00197642 0.08852394
v -0.15687013 0.00497202 0.08852394
v -0.16303489 0.06899528 -0.13132397
v -0.12539739 0.01011945 0.06877661
v -0.16287267 0.06903014 -0.13147472
v 0.02291382 -0.00169755 0.08757641
v -0.04064813 0.06489361 -0.13147472
v -0.12539739 0.00796985 0.07581846
v -0.11598802 0.00370550 0.08852394
v -0.15362551 0.00489069 0.08852394
v -0.15346329 0.06877451 -0.13147472
v -0.10654620 0.06741503 -0.13147472
v -0.12711704 0.06803086 -0.13147472
v -0.12860955 0.00411218 0.08852394
f 62 33 61
f 61 33 60
f 53 54 33
f 59 60 33
f 61 60 88
f 86 108 109
f 109 108 112
f 54 53 52
f 33 62 52
f 52 53 33
f 61 89 90
f 90 62 61
f 112 108 90
f 110 122 120
f 123 122 131
f 129 134 126
f 21 7 20
f 20 7 19
f 19 21 20
f 33 51 57
f 84 108 86
f 84 52 62
f 112 90 111
f 111 90 89
f 107 116 101
f 101 116 100
f 101 83 107
f 126 125 118
f 128 122 123
f 128 120 122
f 126 132 130
f 130 122 126
f 130 131 122
f 121 129 126
f 121 122 110
f 126 122 121
f 33 54 55
f 33 55 56
f 36 19 35
f 21 19 36
f 107 83 106
f 106 83 105
f 58 59 33
f 33 57 58
f 33 16 15
f 15 16 7
f 86 52 85
f 85 84 86
f 52 84 85
f 100 116 117
f 117 118 100
f 116 118 117
f 124 118 116
f 124 132 126
f 126 118 124
f 136 130 132
f 131 130 136
f 125 127 119
f 100 118 119
f 119 118 125
f 126 134 135
f 7 21 22
f 22 23 7
f 10 2 9
f 9 23 10
f 8 2 7
f 7 23 8
f 8 9 2
f 23 9 8
f 95 94 113
f 104 98 105
f 105 83 104
f 24 21 38
f 38 25 24
f 24 22 21
f 23 22 24
f 10 23 24
f 39 25 38
f 40 25 39
f 35 64 65
f 87 55 54
f 35 19 34
f 34 56 35
f 34 19 33
f 33 56 34
f 73 93 94
f 38 21 37
f 21 36 37
f 18 19 7
f 33 19 18
f 18 16 33
f 76 81 50
f 42 45 76
f 50 81 82
f 82 83 50
f 82 102 83
f 99 102 82
f 82 81 99
f 77 98 99
f 77 76 45
f 99 81 77
f 81 76 77
f 3 12 13
f 42 76 46
f 3 2 5
f 5 12 3
f 7 2 6
f 32 51 33
f 33 15 32
f 133 127 125
f 133 125 126
f 126 135 133
f 113 98 96
f 96 95 113
f 98 77 96
f 99 98 115
f 98 104 115
f 83 102 103
f 103 104 83
f 103 102 99
f 99 115 103
f 103 115 104
f 42 43 26
f 26 44 45
f 40 44 26
f 26 25 40
f 71 39 38
f 64 91 66
f 66 65 64
f 35 65 66
f 114 91 113
f 114 92 91
f 93 92 114
f 113 94 114
f 94 93 114
f 69 92 70
f 70 92 93
f 70 36 69
f 70 37 36
f 38 37 70
f 70 71 38
f 69 36 68
f 68 92 69
f 63 87 64
f 55 87 63
f 63 56 55
f 63 64 35
f 35 56 63
f 72 73 40
f 93 73 72
f 40 39 72
f 39 71 72
f 72 70 93
f 71 70 72
f 94 95 74
f 74 73 94
f 95 96 74
f 74 77 45
f 40 73 74
f 7 16 17
f 17 18 7
f 16 18 17
f 78 79 48
f 80 78 50
f 80 79 78
f 50 83 80
f 83 101 80
f 100 79 80
f 80 101 100
f 50 31 49
f 31 46 49
f 49 76 50
f 49 46 76
f 30 43 42
f 42 46 30
f 31 13 29
f 29 46 31
f 29 13 12
f 1 2 3
f 14 15 7
f 7 6 14
f 41 45 42
f 42 26 41
f 41 26 45
f 27 26 43
f 27 30 12
f 43 30 27
f 91 92 67
f 67 66 91
f 35 66 67
f 92 68 67
f 67 36 35
f 67 68 36
f 97 96 77
f 77 74 97
f 97 74 96
f 75 44 40
f 40 74 75
f 45 44 75
f 75 74 45
f 47 48 31
f 47 31 50
f 50 78 47
f 78 48 47
f 12 30 28
f 28 30 46
f 28 29 12
f 46 29 28
f 4 6 2
f 2 1 4
f 25 26 11
f 26 27 11
f 10 24 11
f 11 24 25
f 11 27 12
f 12 5 11
f 11 2 10
f 11 5 2
f 84 90 108
f 62 90 84
f 123 112 128
f 128 89 61
f 61 88 128
f 112 111 128
f 128 88 110
f 110 120 128
f 128 111 89
f 87 116 107
f 87 98 113
f 123 131 87
f 87 112 123
f 86 109 87
f 87 52 86
f 113 91 87
f 87 109 112
f 54 52 87
f 107 106 87
f 132 124 87
f 87 136 132
f 105 98 87
f 87 91 64
f 87 106 105
f 87 124 116
f 131 136 87
f 4 135 134
f 31 48 4
f 4 57 51
f 59 58 4
f 110 88 4
f 60 59 4
f 4 88 60
f 134 129 4
f 4 79 100
f 4 121 110
f 100 119 4
f 129 121 4
f 4 58 57
f 3 13 4
f 4 119 127
f 51 32 4
f 127 133 4
f 4 13 31
f 4 1 3
f 4 32 15
f 4 133 135
f 4 48 79
f 15 14 4
f 4 14 6

