# https://github.com/mikedh/trimesh
v 0.07991583 -0.06484786 0.13370908
v 0.07956450 -0.06484786 0.14174990
v 0.06672739 -0.09668006 0.11393197
v 0.06548383 -0.09668006 0.10409253
v 0.06513809 -0.09668006 0.10353330
v 0.06126799 -0.06484786 0.10675265
v 0.07727256 -0.06484786 0.14669229
v 0.06215465 -0.09668006 0.12144379
v 0.06063785 -0.09668006 0.09712483
v 0.05314303 -0.06484786 0.10141729
v 0.07698258 -0.06484786 0.14702480
v 0.07358649 -0.06484786 0.15041797
v 0.05183812 -0.09668006 0.13104896
v 0.05355011 -0.09668006 0.09332356
v 0.04913909 -0.06484786 0.09956578
v 0.06761963 -0.06484786 0.15577601
v 0.06711774 -0.06484786 0.15604807
v 0.04415369 -0.09668006 0.13497868
v 0.05262998 -0.09668006 0.09317243
v 0.04501248 -0.06484786 0.09781252
v 0.04875432 -0.06484786 0.09939953
v 0.06448563 -0.06484786 0.15700027
v 0.06294652 -0.06593531 0.15688692
v 0.04388045 -0.09668006 0.13501647
v 0.04137660 -0.07479074 0.15677355
v 0.02528838 -0.07260960 0.16389241
v 0.02295182 -0.07285576 0.16408133
v 0.04412023 -0.09668006 0.09354272
v 0.03598412 -0.06484786 0.09801657
v 0.02551702 -0.06484786 0.16965097
v 0.03301742 -0.06637777 0.16637116
v 0.03557703 -0.06944384 0.16318959
v 0.05353338 -0.06791080 0.15845124
v 0.03515880 -0.09667694 0.13215985
v 0.03515880 -0.09668006 0.13215230
v 0.02295182 -0.07604334 0.15937323
v 0.02528838 -0.06790145 0.16771633
v 0.02295182 -0.06797001 0.16832847
v 0.04343433 -0.09668006 0.09379211
v 0.03127197 -0.06484786 0.10023082
v 0.02409501 -0.06484786 0.17005149
v 0.02295182 -0.07977621 0.15116614
v 0.02932577 -0.09668006 0.12315171
v 0.02295182 -0.06484786 0.17036891
v 0.03709942 -0.09668006 0.09737421
v 0.03125524 -0.06933477 0.10028372
v 0.02779780 -0.06484786 0.10264912
v 0.02295182 -0.08198228 0.14233936
v 0.02918078 -0.09668006 0.12267561
v 0.02295182 -0.06484786 0.10738746
v 0.03664772 -0.09668006 0.09783520
v 0.02295182 -0.08234684 0.13230344
v 0.02894657 -0.09668006 0.11440806
v 0.03239285 -0.09668006 0.10325369
v 0.02295182 -0.06596024 0.10766707
v 0.02295182 -0.08236865 0.13126056
v 0.02940942 -0.09668006 0.10856638
v 0.03209729 -0.09668006 0.10369956
v 0.02954325 -0.09668006 0.10796180
v 0.02295182 -0.07030071 0.11223916
v 0.02295182 -0.07841144 0.12306858
v 0.02295182 -0.07463495 0.11787680
v 0.02295182 -0.07082107 0.11285885
f 1 3 4
f 4 5 1
f 2 3 1
f 2 7 3
f 16 13 12
f 45 50 47
f 49 42 48
f 19 29 20
f 10 9 14
f 19 20 14
f 6 9 10
f 5 9 6
f 1 5 6
f 27 18 26
f 26 18 25
f 8 12 13
f 3 7 8
f 25 18 23
f 23 22 31
f 24 18 27
f 36 24 27
f 28 29 19
f 53 49 48
f 42 49 43
f 10 14 15
f 31 22 30
f 11 8 7
f 12 8 11
f 22 23 17
f 17 23 18
f 17 18 13
f 17 13 16
f 32 23 31
f 32 26 25
f 35 24 34
f 24 36 34
f 34 36 42
f 34 43 35
f 42 43 34
f 47 40 46
f 46 45 47
f 39 40 29
f 29 28 39
f 39 46 40
f 45 46 39
f 50 45 51
f 51 54 50
f 21 14 20
f 21 15 14
f 27 26 38
f 25 23 33
f 33 32 25
f 23 32 33
f 55 58 59
f 54 58 55
f 50 54 55
f 52 53 48
f 52 56 53
f 53 56 57
f 57 56 61
f 61 62 57
f 60 55 57
f 57 55 59
f 44 38 41
f 31 30 37
f 37 32 31
f 30 41 37
f 37 41 38
f 26 32 37
f 37 38 26
f 60 57 63
f 63 57 62
f 19 14 57
f 3 8 57
f 57 4 3
f 57 51 45
f 57 24 35
f 5 4 57
f 57 9 5
f 13 18 57
f 57 28 19
f 45 39 57
f 57 14 9
f 57 8 13
f 18 24 57
f 35 43 57
f 59 58 57
f 49 53 57
f 57 43 49
f 57 39 28
f 57 58 54
f 54 51 57
f 41 11 7
f 41 40 47
f 16 12 41
f 41 2 1
f 1 6 41
f 47 50 41
f 7 2 41
f 41 21 20
f 41 50 44
f 41 20 29
f 41 6 10
f 10 15 41
f 29 40 41
f 41 17 16
f 41 30 22
f 12 11 41
f 22 17 41
f 15 21 41
f 44 50 63
f 63 62 61
f 48 42 63
f 63 36 27
f 42 36 63
f 27 38 63
f 50 55 63
f 61 56 63
f 63 38 44
f 63 55 60
f 63 52 48
f 56 52 63

