# https://github.com/mikedh/trimesh
v -0.20071361 0.01591725 -0.18239365
v -0.19607659 0.01591725 -0.18257918
v -0.20825071 0.01591725 -0.18462004
v -0.20071361 -0.00344715 -0.18521375
v -0.19211419 0.01591725 -0.18489834
v -0.19429312 -0.01286956 -0.18923984
v -0.20918897 0.01591725 -0.18538072
v -0.20956892 0.01484338 -0.18567758
v -0.21619102 0.00597525 -0.19100239
v -0.21012723 0.00597525 -0.18677224
v -0.21097243 -0.00413997 -0.18962945
v -0.20071361 -0.01286956 -0.18790399
v -0.19016787 0.01591725 -0.18625274
v -0.18553085 0.01591725 -0.19124360
v -0.18835339 0.01591725 -0.18812662
v -0.19531668 -0.01806573 -0.19081687
v -0.19437066 -0.19955080 -0.27644057
v -0.21560945 0.01591725 -0.19081687
v -0.21590412 0.01539765 -0.19096529
v -0.21830792 0.00597525 -0.19725487
v -0.22154918 -0.01286956 -0.20667998
v -0.21855606 -0.01286956 -0.19834953
v -0.21548538 -0.00143797 -0.19196717
v -0.21467119 -0.00774266 -0.19267220
v -0.21629957 -0.05672527 -0.21070606
v -0.21613674 -0.13231230 -0.23868452
v -0.21352357 -0.13231230 -0.23868452
v -0.18387921 0.01591725 -0.19480583
v -0.23280054 -0.27253973 -0.30488288
v -0.24117510 -0.33056368 -0.34154429
v -0.23489419 -0.32633746 -0.34467982
v -0.23269974 -0.32973230 -0.35095085
v -0.19437066 -0.20142142 -0.27831448
v -0.18317358 0.01591725 -0.19703225
v -0.21582658 0.01591725 -0.19103951
v -0.21640814 0.01591725 -0.19779293
v -0.21641590 0.01591725 -0.19810834
v -0.21833118 0.00597525 -0.20667998
v -0.23394042 -0.08263686 -0.24734894
v -0.23410326 -0.08821409 -0.24671810
v -0.23304093 -0.08821409 -0.24200558
v -0.22518591 -0.05818020 -0.21924061
v -0.25297702 -0.23554295 -0.30475300
v -0.24405192 -0.20810716 -0.28566161
v -0.23369229 -0.20589014 -0.27727549
v -0.21787368 -0.10418367 -0.22924086
v -0.23571614 -0.27253973 -0.30488288
v -0.25133312 -0.33797689 -0.34276881
v -0.25133312 -0.33797689 -0.34369648
v -0.23271526 -0.32966301 -0.35731463
v -0.23063712 -0.32353151 -0.35731463
v -0.19437066 -0.20789931 -0.29070811
v -0.19437066 -0.20457376 -0.28198804
v -0.18359230 0.01591725 -0.20667998
v -0.19437066 -0.20789931 -0.29269332
v -0.19437066 -0.20744898 -0.29809234
v -0.21629183 0.01591725 -0.19957405
v -0.21606696 0.01453161 -0.20667998
v -0.21537683 0.01286883 -0.21308089
v -0.23394042 -0.08263686 -0.25003916
v -0.23895740 -0.11644664 -0.26317493
v -0.24335404 -0.14807402 -0.27653335
v -0.23943815 -0.12586904 -0.26317493
v -0.24354789 -0.15410158 -0.27616230
v -0.25292274 -0.22937685 -0.30475300
v -0.25797849 -0.27648881 -0.32905788
v -0.26138259 -0.31414378 -0.34688765
v -0.26215801 -0.32862379 -0.35206404
v -0.26026597 -0.32353151 -0.34705463
v -0.25461315 -0.27648881 -0.32159946
v -0.25186041 -0.26969914 -0.31560671
v -0.24588966 -0.27648881 -0.31217435
v -0.24383480 -0.23554295 -0.29553200
v -0.24202031 -0.26706643 -0.30605175
v -0.24432331 -0.28268960 -0.31393690
v -0.25290723 -0.33797689 -0.34276881
v -0.23836808 -0.33153364 -0.35731463
v -0.25290723 -0.33797689 -0.34369648
v -0.24778170 -0.32862379 -0.37184192
v -0.24251659 -0.32855448 -0.37174915
v -0.23336661 -0.32865842 -0.36254669
v -0.23274627 -0.32353151 -0.36328883
v -0.22906301 -0.31414378 -0.35731463
v -0.19437066 -0.20537051 -0.29942819
v -0.18608140 0.01591725 -0.21207901
v -0.19437066 -0.20093645 -0.30145049
v -0.19437066 -0.19854620 -0.30137629
v -0.19437066 -0.19141013 -0.29972504
v -0.21561721 0.01591725 -0.20667998
v -0.23389390 -0.08277542 -0.25033601
v -0.21104222 0.01591725 -0.21647615
v -0.21100345 0.01591725 -0.21655037
v -0.21382599 0.00940472 -0.21937047
v -0.21553967 0.00310002 -0.22185662
v -0.23408000 -0.10123917 -0.26853687
v -0.23301767 -0.08582384 -0.25632877
v -0.23741430 -0.11644664 -0.27258149
v -0.23967078 -0.12586904 -0.27258149
v -0.24335404 -0.14807402 -0.27862989
v -0.25291498 -0.22213684 -0.31022624
v -0.25378346 -0.22937685 -0.31022624
v -0.25779239 -0.26706643 -0.32905788
v -0.26143686 -0.30551812 -0.34839048
v -0.26201068 -0.31414378 -0.35161876
v -0.26216575 -0.32353151 -0.35176719
v -0.26238288 -0.32890089 -0.35731463
v -0.25395405 -0.33295393 -0.34193392
v -0.25555917 -0.32353151 -0.34022702
v -0.25331821 -0.28587660 -0.32339911
v -0.25254278 -0.29076098 -0.32428968
v -0.25059647 -0.27648881 -0.31688688
v -0.26228982 -0.32872768 -0.36308475
v -0.25306231 -0.32845059 -0.37163782
v -0.25330270 -0.32353151 -0.37178627
v -0.24751029 -0.32318510 -0.37191612
v -0.24251659 -0.32606034 -0.37174915
v -0.23229652 -0.31414378 -0.36345581
v -0.19402948 -0.01286956 -0.23239493
v -0.19464982 0.01349238 -0.22200505
v -0.19171872 0.01591725 -0.21792332
v -0.23275403 -0.30641879 -0.36275077
v -0.23014860 -0.28587660 -0.35646119
v -0.22327838 -0.22937685 -0.33451257
v -0.22419337 -0.22463099 -0.33380756
v -0.21575678 -0.16002523 -0.30516118
v -0.21218985 -0.09933390 -0.27994716
v -0.20071361 0.01591725 -0.22165253
v -0.20755283 0.01259171 -0.22183807
v -0.21481853 -0.00815835 -0.23018708
v -0.22371260 -0.06521235 -0.25801712
v -0.23372330 -0.11163152 -0.27734969
v -0.24272594 -0.16005986 -0.29482696
v -0.25296151 -0.22282965 -0.31633029
v -0.26194864 -0.30919008 -0.35271340
v -0.26194864 -0.30919008 -0.35185996
v -0.26234411 -0.32308121 -0.35720333
v -0.26228982 -0.32585247 -0.36308475
v -0.25870738 -0.32308121 -0.36642433
v -0.25300803 -0.31816213 -0.37169350
v -0.25046464 -0.31816213 -0.37169350
v -0.24419150 -0.31975563 -0.37124821
v -0.23376983 -0.29529898 -0.36197153
v -0.19529341 -0.00659949 -0.23094776
v -0.19733277 0.01591725 -0.22117015
v -0.20511024 -0.03611378 -0.24918572
v -0.22370486 -0.17682618 -0.31523565
v -0.23744532 -0.28632690 -0.36072846
v -0.22580625 -0.17682618 -0.31523565
v -0.21955635 -0.10702424 -0.28326821
v -0.21955635 -0.09947247 -0.27959465
v -0.20591669 -0.03611378 -0.24918572
v -0.21012723 -0.02378152 -0.24135619
v -0.21575678 -0.02582535 -0.24033577
v -0.22445701 -0.08319112 -0.26805446
v -0.23499499 -0.14717335 -0.29757285
v -0.24330751 -0.17706868 -0.30592187
v -0.25274439 -0.23322200 -0.32482774
v -0.26176254 -0.31958242 -0.36026463
v -0.25947505 -0.30551812 -0.35644264
v -0.25414014 -0.28587660 -0.35455021
v -0.25450460 -0.30472137 -0.36395674
v -0.25584608 -0.31466341 -0.36701804
v -0.25309333 -0.29890166 -0.36254669
v -0.24457145 -0.25050796 -0.34416031
v -0.24404416 -0.28975640 -0.36236117
v -0.23996545 -0.28975640 -0.36236117
v -0.22895446 -0.19712592 -0.32408560
v -0.22702365 -0.15739250 -0.30618160
v -0.22967559 -0.15420550 -0.30395521
v -0.23329682 -0.15902063 -0.30540236
v -0.24413721 -0.21316477 -0.32551420
v -0.24204358 -0.18860419 -0.31393690
v -0.24367972 -0.19487424 -0.31568093
v -0.25299253 -0.28023006 -0.35317723
v -0.25228689 -0.24413396 -0.33330660
v -0.24447064 -0.23152461 -0.33505063
v -0.23580918 -0.20332668 -0.32527302
v -0.22967559 -0.16265795 -0.30809261
f 34 17 33
f 30 31 17
f 43 68 69
f 54 86 87
f 84 86 54
f 92 127 128
f 119 118 143
f 76 68 106
f 74 45 72
f 110 76 72
f 48 30 29
f 29 30 17
f 106 68 105
f 77 49 80
f 143 118 126
f 28 17 34
f 28 14 17
f 17 31 32
f 32 33 17
f 31 30 32
f 32 30 48
f 48 49 32
f 118 119 85
f 85 119 120
f 120 119 144
f 70 43 69
f 69 108 70
f 46 45 26
f 110 108 107
f 107 76 110
f 107 108 69
f 69 68 107
f 68 76 107
f 78 76 106
f 110 72 111
f 73 45 44
f 44 72 73
f 73 72 45
f 75 72 76
f 27 29 17
f 17 16 27
f 26 45 47
f 47 45 74
f 74 72 47
f 72 75 47
f 47 75 76
f 146 126 125
f 82 80 117
f 87 86 117
f 88 126 118
f 118 85 88
f 88 125 126
f 88 85 54
f 88 54 87
f 87 122 88
f 145 119 143
f 143 126 145
f 127 144 145
f 145 144 119
f 4 2 1
f 1 3 4
f 51 52 32
f 18 35 19
f 42 43 44
f 42 22 43
f 44 24 42
f 24 22 42
f 109 108 110
f 109 70 108
f 67 105 68
f 68 43 67
f 43 66 67
f 104 105 67
f 146 125 124
f 124 122 142
f 125 88 124
f 142 122 121
f 121 117 142
f 121 122 87
f 87 117 121
f 127 145 151
f 151 145 126
f 148 126 146
f 2 4 6
f 6 5 2
f 13 5 6
f 6 15 13
f 14 15 6
f 17 14 6
f 6 16 17
f 10 4 3
f 3 9 10
f 26 27 12
f 12 27 16
f 16 6 12
f 12 6 4
f 33 32 53
f 32 52 53
f 34 33 53
f 53 52 34
f 56 54 34
f 84 54 56
f 56 51 84
f 82 51 81
f 81 80 82
f 81 77 80
f 83 51 82
f 82 117 83
f 83 117 86
f 83 86 84
f 84 51 83
f 7 18 19
f 19 9 7
f 93 59 92
f 93 128 129
f 92 128 93
f 43 22 41
f 110 111 71
f 71 109 110
f 44 43 71
f 43 70 71
f 70 109 71
f 71 72 44
f 71 111 72
f 123 88 122
f 122 124 123
f 123 124 88
f 152 128 127
f 127 151 152
f 104 67 103
f 103 66 102
f 103 67 66
f 167 148 146
f 176 174 171
f 11 10 24
f 4 10 11
f 11 12 4
f 24 10 23
f 23 10 9
f 23 22 24
f 23 9 22
f 25 24 44
f 25 11 24
f 12 11 25
f 25 46 26
f 26 12 25
f 44 45 25
f 45 46 25
f 34 52 55
f 55 56 34
f 52 51 55
f 51 56 55
f 50 51 32
f 50 81 51
f 77 81 50
f 49 77 50
f 50 32 49
f 3 7 8
f 8 9 3
f 8 7 9
f 92 59 91
f 59 89 91
f 60 39 38
f 38 59 60
f 94 93 129
f 59 93 94
f 60 59 90
f 59 96 90
f 40 63 41
f 41 63 64
f 129 128 153
f 128 152 153
f 104 103 135
f 102 134 135
f 135 103 102
f 135 105 104
f 136 137 106
f 134 137 136
f 136 135 134
f 106 105 136
f 105 135 136
f 160 137 159
f 177 167 165
f 106 137 112
f 112 78 106
f 112 113 78
f 174 160 175
f 175 160 159
f 158 137 134
f 134 157 158
f 157 175 158
f 159 137 158
f 158 175 159
f 133 134 102
f 133 157 134
f 102 101 133
f 65 101 102
f 43 41 65
f 41 64 65
f 102 66 65
f 65 66 43
f 129 153 130
f 130 94 129
f 131 94 130
f 139 138 137
f 146 124 147
f 147 167 146
f 147 124 142
f 38 37 58
f 58 89 59
f 59 38 58
f 19 35 20
f 20 38 39
f 20 37 38
f 20 9 19
f 174 175 156
f 156 175 157
f 101 65 62
f 62 65 64
f 62 64 63
f 62 40 39
f 63 40 62
f 170 176 171
f 174 176 163
f 165 139 164
f 177 165 164
f 164 163 176
f 139 163 164
f 164 170 177
f 176 170 164
f 138 139 114
f 113 112 114
f 114 112 137
f 137 138 114
f 166 165 167
f 167 147 166
f 166 147 142
f 89 58 57
f 57 58 37
f 36 20 35
f 37 20 36
f 9 20 21
f 22 9 21
f 21 41 22
f 21 40 41
f 39 40 21
f 21 20 39
f 171 174 173
f 174 156 173
f 173 172 171
f 173 156 172
f 157 133 132
f 132 156 157
f 131 156 132
f 100 62 99
f 99 133 100
f 100 133 101
f 101 62 100
f 60 99 61
f 61 39 60
f 99 62 61
f 61 62 39
f 131 130 155
f 155 156 131
f 172 156 155
f 171 172 155
f 155 170 171
f 178 167 177
f 177 170 178
f 150 153 152
f 150 152 151
f 150 169 170
f 150 151 126
f 161 160 174
f 174 163 161
f 137 160 161
f 161 163 139
f 115 114 139
f 60 90 95
f 95 90 96
f 131 132 95
f 95 94 131
f 95 96 59
f 59 94 95
f 98 133 99
f 98 99 60
f 154 155 130
f 170 155 154
f 154 130 153
f 153 150 154
f 154 150 170
f 126 148 149
f 149 150 126
f 162 139 137
f 137 161 162
f 162 161 139
f 141 166 142
f 113 114 79
f 114 115 79
f 79 115 80
f 78 113 79
f 49 78 79
f 80 49 79
f 97 132 133
f 133 98 97
f 97 95 132
f 60 95 97
f 97 98 60
f 168 149 148
f 148 167 168
f 167 178 168
f 150 149 168
f 169 150 168
f 168 178 170
f 170 169 168
f 140 115 139
f 166 141 140
f 80 115 116
f 116 141 142
f 115 140 116
f 116 140 141
f 116 117 80
f 142 117 116
f 48 76 78
f 78 49 48
f 29 27 47
f 47 27 26
f 47 76 48
f 48 29 47
f 1 2 36
f 36 127 92
f 34 54 36
f 13 15 36
f 36 85 120
f 36 28 34
f 120 144 36
f 36 7 3
f 36 3 1
f 14 28 36
f 36 15 14
f 36 5 13
f 54 85 36
f 36 144 127
f 2 5 36
f 35 18 36
f 18 7 36
f 92 91 36
f 36 91 89
f 89 57 36
f 36 57 37
f 165 166 140
f 140 139 165

