# https://github.com/mikedh/trimesh
v 0.12874239 0.07832534 0.08659207
v 0.13424534 0.07832534 0.08914212
v 0.12136987 0.07832534 0.08728018
v 0.14391074 0.11346939 0.08434560
v 0.14638002 0.10800121 0.08434560
v 0.14770871 0.10796130 0.08434560
v 0.15602191 0.11382862 0.08434560
v 0.13739658 0.07832534 0.09468747
v 0.11894765 0.07832534 0.09165170
v 0.15232976 0.16386050 0.08434560
v 0.15147140 0.16102663 0.08434560
v 0.14734421 0.14651798 0.08434560
v 0.14553341 0.13705842 0.08434560
v 0.14431053 0.12408645 0.08434560
v 0.15973757 0.12005516 0.08434560
v 0.13970124 0.07832534 0.10430075
v 0.16066647 0.19207953 0.08776590
v 0.10420259 0.07832534 0.12399281
v 0.16044307 0.22874031 0.11640339
v 0.15979636 0.18463562 0.08434560
v 0.16333564 0.12638149 0.08434560
v 0.14329931 0.08544994 0.10776154
v 0.14329931 0.08544994 0.10929967
v 0.12545005 0.07832534 0.14993858
v 0.16973221 0.21018043 0.08434560
v 0.08156766 0.07832534 0.17881892
v 0.18788720 0.28180567 0.12292017
v 0.18788720 0.27907156 0.11962131
v 0.08483650 0.08886256 0.18151064
v 0.08570662 0.09766355 0.19098226
v 0.10533140 0.16140581 0.22176502
v 0.11405615 0.19086217 0.23884631
v 0.12522663 0.22444958 0.25473353
v 0.13336345 0.25202999 0.27355535
v 0.17048475 0.14420299 0.08434560
v 0.17061409 0.14392359 0.08527657
v 0.17191928 0.15024991 0.09096359
v 0.19018008 0.20814482 0.10901633
v 0.17183697 0.18844738 0.15667800
v 0.16263013 0.20710706 0.21391249
v 0.13490381 0.17739127 0.25240612
v 0.11487923 0.10468837 0.21257674
v 0.10695407 0.07832534 0.19739786
v 0.17445909 0.21043986 0.08434560
v 0.18788720 0.27374307 0.11510812
v 0.17904487 0.23877862 0.09725776
v 0.08034478 0.07832534 0.18592264
v 0.20024528 0.25201003 0.11630219
v 0.18788720 0.28220479 0.12605714
v 0.19802295 0.25201003 0.11160686
v 0.08112084 0.08133882 0.18883698
v 0.08570662 0.09766355 0.19498949
v 0.12413310 0.22736328 0.26861714
v 0.13225817 0.24957530 0.27355535
v 0.13378675 0.25202999 0.28298649
v 0.17228378 0.14871323 0.08434560
v 0.17234258 0.14865337 0.08527657
v 0.19018008 0.20814482 0.10790321
v 0.19968089 0.24556397 0.11887248
v 0.18804006 0.25202999 0.17942607
v 0.17176642 0.24418694 0.23212714
v 0.15827952 0.25202999 0.28401864
v 0.11502034 0.11396832 0.22200788
v 0.14315821 0.20810491 0.26914335
v 0.10686000 0.08397313 0.20435991
v 0.10339126 0.07832534 0.20209320
v 0.17848047 0.20373435 0.08434560
v 0.18346603 0.23877862 0.09725776
v 0.18788720 0.26101060 0.10753892
v 0.19330782 0.25201003 0.10618293
v 0.08105029 0.07832534 0.18883698
v 0.20013945 0.25081262 0.11644386
v 0.19013305 0.21720524 0.09928161
v 0.19817581 0.25081262 0.11172829
v 0.20045693 0.25201003 0.12243445
v 0.20016297 0.25201003 0.12393211
v 0.13406896 0.25202999 0.28389723
v 0.13814912 0.25202999 0.29019139
v 0.14013629 0.25202999 0.29089974
v 0.14739124 0.25202999 0.29110213
v 0.14869641 0.25202999 0.29087950
v 0.15476376 0.25202999 0.28806634
v 0.17254247 0.25202999 0.23392836
v 0.19006251 0.22740320 0.09938280
v 0.18975679 0.23364971 0.09968638
v 0.19347244 0.25081262 0.10602103
v 0.08441319 0.08133882 0.19620379
v 0.12396848 0.22255369 0.26926478
v 0.12413310 0.22736328 0.26894096
v 0.13274026 0.24865729 0.28298649
v 0.13351631 0.24642210 0.28776278
v 0.17440030 0.15669599 0.08434560
v 0.17469427 0.15669599 0.08527657
v 0.18975679 0.21093879 0.10160904
v 0.19968089 0.24556397 0.11743553
v 0.13505667 0.18732979 0.26084558
v 0.13144684 0.18104337 0.25868004
v 0.13405720 0.19858547 0.26912312
v 0.11634904 0.13101148 0.23216760
v 0.10580175 0.09498933 0.21267793
v 0.13763176 0.20445279 0.27064102
v 0.10243883 0.07832534 0.20247773
v 0.17849223 0.20167879 0.08434560
v 0.18172579 0.20373435 0.08810996
v 0.18170227 0.19431470 0.08790757
v 0.08329614 0.07832534 0.19383588
v 0.18065578 0.18014531 0.08997190
v 0.19012129 0.22255369 0.09930185
v 0.13351631 0.24594314 0.28776278
v 0.13827846 0.24514487 0.28826873
v 0.14395778 0.24494530 0.28839016
v 0.13827846 0.21315400 0.27531611
v 0.12374508 0.20740641 0.26934572
v 0.12367453 0.21315400 0.26956838
v 0.08463660 0.07832534 0.19579902
v 0.17601120 0.16607572 0.08434560
v 0.17650506 0.16607572 0.08527657
v 0.13288136 0.19858547 0.26912312
v 0.12517960 0.17982601 0.25965148
v 0.09826459 0.07832534 0.20403609
v 0.17833937 0.19431470 0.08434560
v 0.12379211 0.17982601 0.25965148
v 0.12940087 0.20405366 0.27078268
v 0.08791721 0.07832534 0.19899671
v 0.09392574 0.08133882 0.20460277
v 0.09758261 0.07832534 0.20403609
v 0.09483114 0.07832534 0.20377299
v 0.09323200 0.07832534 0.20290273
f 80 49 79
f 49 78 79
f 79 78 109
f 49 34 55
f 34 19 33
f 48 49 75
f 27 34 49
f 27 19 34
f 49 48 27
f 38 39 23
f 83 62 61
f 49 62 83
f 82 62 49
f 61 62 40
f 23 39 40
f 40 39 61
f 23 40 24
f 41 40 62
f 41 24 40
f 30 31 19
f 19 29 30
f 113 122 109
f 109 122 123
f 77 78 49
f 49 55 77
f 54 55 34
f 89 55 54
f 34 33 54
f 90 55 89
f 19 18 26
f 26 29 19
f 47 30 26
f 26 30 29
f 19 31 32
f 32 33 19
f 31 30 32
f 32 54 33
f 44 25 46
f 13 3 12
f 19 25 17
f 9 10 3
f 9 17 10
f 9 18 19
f 19 17 9
f 61 39 60
f 39 38 60
f 38 59 60
f 60 83 61
f 49 83 60
f 81 49 80
f 81 82 49
f 65 43 42
f 43 24 42
f 24 41 42
f 88 87 114
f 114 113 109
f 87 113 114
f 89 52 51
f 51 88 89
f 51 87 88
f 51 30 47
f 51 52 30
f 125 127 122
f 125 113 124
f 122 113 125
f 66 43 65
f 110 79 109
f 109 123 110
f 91 77 55
f 55 90 91
f 109 78 91
f 78 77 91
f 91 90 89
f 89 88 91
f 91 114 109
f 88 114 91
f 89 54 53
f 54 32 53
f 53 32 30
f 23 24 16
f 1 4 5
f 3 4 1
f 74 50 48
f 44 46 68
f 68 46 69
f 68 69 70
f 68 67 44
f 70 67 68
f 69 46 45
f 70 69 45
f 45 46 25
f 45 50 70
f 3 10 11
f 11 12 3
f 20 17 25
f 10 17 20
f 76 59 75
f 76 60 59
f 75 49 76
f 49 60 76
f 65 42 63
f 63 42 41
f 63 66 65
f 118 123 122
f 118 110 123
f 87 106 115
f 124 113 115
f 115 113 87
f 71 51 47
f 71 106 87
f 87 51 71
f 128 125 124
f 127 125 128
f 86 67 70
f 86 85 67
f 70 50 86
f 50 85 86
f 121 103 105
f 105 104 108
f 105 103 67
f 67 104 105
f 108 104 84
f 84 85 50
f 67 85 84
f 84 104 67
f 84 74 108
f 50 74 84
f 14 3 13
f 14 4 3
f 23 16 22
f 15 16 8
f 2 1 7
f 7 8 2
f 15 8 7
f 50 45 28
f 28 27 48
f 48 50 28
f 19 27 28
f 28 25 19
f 28 45 25
f 37 38 23
f 23 36 37
f 37 36 38
f 38 36 57
f 75 59 95
f 98 101 112
f 112 81 80
f 82 81 112
f 112 101 82
f 112 118 98
f 110 118 112
f 96 101 98
f 121 105 116
f 73 105 108
f 73 74 48
f 108 74 73
f 73 95 94
f 6 1 5
f 6 7 1
f 21 35 36
f 21 36 23
f 23 22 21
f 21 16 15
f 21 22 16
f 92 93 56
f 56 93 57
f 36 35 56
f 56 57 36
f 94 95 58
f 58 93 94
f 38 57 58
f 57 93 58
f 66 63 100
f 122 127 126
f 120 100 119
f 111 112 80
f 110 112 111
f 80 79 111
f 79 110 111
f 98 63 97
f 97 96 98
f 63 96 97
f 82 101 64
f 101 96 64
f 62 82 64
f 64 41 62
f 64 63 41
f 64 96 63
f 72 73 48
f 95 73 72
f 72 48 75
f 75 95 72
f 107 73 94
f 105 73 107
f 94 93 107
f 66 100 102
f 102 100 120
f 99 63 98
f 99 100 63
f 98 119 99
f 99 119 100
f 92 116 117
f 117 93 92
f 117 107 93
f 117 116 105
f 105 107 117
f 30 52 53
f 53 52 89
f 56 6 5
f 44 67 56
f 56 25 44
f 56 20 25
f 13 12 56
f 56 11 10
f 56 14 13
f 56 103 121
f 15 7 56
f 5 4 56
f 12 11 56
f 10 20 56
f 67 103 56
f 4 14 56
f 121 116 56
f 56 21 15
f 56 116 92
f 7 6 56
f 35 21 56
f 58 95 59
f 58 59 38
f 98 118 119
f 119 118 122
f 119 126 120
f 122 126 119
f 102 16 24
f 124 115 102
f 102 9 3
f 47 26 102
f 102 24 43
f 102 71 47
f 102 26 18
f 43 66 102
f 18 9 102
f 3 1 102
f 2 8 102
f 102 128 124
f 102 1 2
f 102 115 106
f 106 71 102
f 127 128 102
f 102 8 16
f 102 126 127
f 120 126 102

