# https://github.com/mikedh/trimesh
v -0.24779025 -0.08280125 0.12624986
v -0.23837922 -0.08280125 0.12580304
v -0.25542266 -0.08280125 0.12213724
v -0.26229280 -0.10150280 0.11861360
v -0.26229280 -0.10365071 0.11861360
v -0.26715956 -0.17371670 0.11288639
v -0.26663184 -0.17293902 0.11316057
v -0.26512686 -0.21060134 0.11010403
v -0.25946852 -0.21060134 0.11010403
v -0.22924183 -0.08280125 0.12158890
v -0.25733808 -0.08280125 0.11992353
v -0.26142304 -0.08280125 0.11175923
v -0.26233189 -0.08280125 0.10955568
v -0.26368051 -0.09805876 0.11353629
v -0.28096826 -0.16682860 0.09971587
v -0.28135916 -0.17293902 0.10033530
v -0.28166210 -0.18234534 0.10094458
v -0.27762602 -0.18234534 0.10564617
v -0.28273710 -0.22004469 0.10151323
v -0.27293519 -0.18234534 0.10980955
v -0.27604288 -0.22004469 0.10575786
v -0.28546366 -0.28585193 0.09443548
v -0.26405187 -0.21645251 0.10929166
v -0.26072919 -0.21645251 0.10929166
v -0.25223678 -0.19745471 0.10913935
v -0.22395485 -0.08428256 0.11875575
v -0.22885092 -0.08772661 0.12042111
v -0.22417962 -0.08280125 0.11890808
v -0.26257621 -0.08280125 0.10811373
v -0.27183086 -0.11909336 0.10048762
v -0.27937533 -0.15412636 0.09465888
v -0.28275666 -0.17293902 0.09465888
v -0.29032066 -0.21434165 0.09028224
v -0.29083860 -0.22004469 0.09097276
v -0.29120020 -0.22945103 0.09156172
v -0.28198461 -0.19178870 0.10103597
v -0.28262962 -0.21063837 0.10118829
v -0.29183541 -0.24830071 0.09172420
v -0.29214812 -0.26711335 0.09202883
v -0.29196246 -0.27651966 0.09185621
v -0.28546366 -0.27651966 0.09549155
v -0.30022029 -0.33129114 0.08108217
v -0.30742272 -0.38946961 0.07044014
v -0.31265108 -0.41768858 0.06430677
v -0.31167380 -0.42713193 0.06335223
v -0.30272209 -0.38946961 0.07232891
v -0.30428570 -0.41768858 0.06722113
v -0.28633343 -0.29596187 0.09244518
v -0.28377301 -0.30259074 0.09145003
v -0.29967306 -0.45072181 0.06174781
v -0.29953622 -0.45072181 0.06174781
v -0.26715956 -0.31436717 0.07822873
v -0.22395485 -0.08428256 0.11735442
v -0.22395485 -0.08294938 0.11875575
v -0.25806127 -0.28600005 0.07659383
v -0.25741627 -0.28600005 0.06576903
v -0.22404280 -0.08280125 0.11720210
v -0.26263485 -0.08280125 0.10407220
v -0.27183086 -0.11909336 0.09692336
v -0.27744035 -0.14472004 0.09465888
v -0.28675366 -0.19178870 0.08524556
v -0.29201131 -0.22004469 0.08524556
v -0.29956554 -0.26255832 0.07965037
v -0.29984896 -0.26881686 0.08108217
v -0.30017143 -0.27651966 0.08156959
v -0.30043532 -0.28585193 0.08179299
v -0.29204064 -0.25770702 0.09181559
v -0.30921112 -0.35502914 0.07147592
v -0.30921112 -0.35932495 0.07147592
v -0.30059166 -0.32355130 0.08146805
v -0.31735168 -0.41768858 0.06053941
v -0.31638422 -0.42713193 0.06034647
v -0.31471310 -0.43653827 0.05977781
v -0.30902542 -0.44127846 0.06173765
v -0.30594706 -0.44757402 0.06029569
v -0.31166403 -0.45227717 0.05402015
v -0.31005156 -0.46109101 0.04442405
v -0.30736410 -0.46109101 0.04442405
v -0.29771852 -0.45168467 0.05701576
v -0.28964635 -0.45127730 0.04463730
v -0.26715956 -0.32299578 0.07380132
v -0.22395485 -0.08294938 0.11735442
v -0.23323882 -0.13261033 0.09843639
v -0.23272089 -0.12587036 0.09752248
v -0.23209544 -0.11646404 0.09652733
v -0.22871411 -0.09761436 0.10407220
v -0.22803002 -0.08280125 0.10407220
v -0.28964635 -0.45127730 0.04078870
v -0.27051157 -0.35002972 0.05048635
v -0.27016953 -0.34236394 0.04977553
v -0.27329676 -0.34236394 0.04506379
v -0.23160681 -0.10702068 0.09642578
v -0.26211690 -0.08280125 0.09890350
v -0.27113702 -0.12183379 0.09064781
v -0.28129077 -0.16534730 0.08812947
v -0.29061384 -0.21371209 0.07942697
v -0.29345765 -0.22945103 0.07583224
v -0.29535356 -0.23885733 0.07583224
v -0.29899872 -0.25855877 0.07623842
v -0.30969973 -0.32514370 0.06481450
v -0.30897657 -0.32940247 0.07107989
v -0.31770351 -0.40828228 0.06059018
v -0.32075258 -0.43653827 0.05506608
v -0.31982415 -0.44398184 0.05381706
v -0.31348173 -0.44579646 0.05705638
v -0.31793804 -0.45027743 0.05129872
v -0.31005156 -0.46109101 0.04148937
v -0.31896418 -0.45120324 0.04502317
v -0.30736410 -0.46109101 0.04148937
v -0.29435674 -0.45309191 0.04770399
v -0.23180226 -0.08280125 0.09763418
v -0.29417105 -0.45346224 0.03786417
v -0.29683898 -0.45257347 0.03152770
v -0.29657513 -0.44598162 0.03083719
v -0.27801694 -0.35177024 0.04114411
v -0.27799738 -0.34236394 0.04134720
v -0.25243224 -0.17701262 0.07106973
v -0.23527153 -0.11646404 0.09180543
v -0.23556471 -0.10702068 0.09171404
v -0.25842285 -0.08280125 0.09391760
v -0.25987896 -0.08820804 0.09257719
v -0.26107122 -0.09420734 0.09076966
v -0.26257621 -0.10050291 0.08930740
v -0.28085099 -0.19623263 0.07104942
v -0.29036952 -0.22411830 0.07085649
v -0.29960464 -0.26226205 0.07103927
v -0.29960464 -0.26226205 0.07339513
v -0.30969973 -0.32514370 0.06000121
v -0.31854396 -0.38413688 0.05292345
v -0.31006133 -0.33269838 0.06734299
v -0.31891532 -0.38946961 0.05409123
v -0.31938440 -0.39887594 0.05538087
v -0.31985348 -0.40828228 0.05588859
v -0.31768395 -0.39887594 0.06008245
v -0.32068416 -0.42713193 0.05562457
v -0.32379185 -0.43653827 0.04760244
v -0.32072325 -0.44668525 0.04792739
v -0.31061836 -0.45190685 0.03152770
v -0.30428570 -0.45305487 0.03055286
v -0.31896418 -0.45120324 0.04182447
v -0.31689239 -0.44931457 0.03553877
v -0.31394105 -0.44631493 0.02835946
v -0.24172145 -0.08820804 0.08899261
v -0.23811537 -0.08280125 0.09265842
v -0.30733477 -0.44335230 0.02252056
v -0.30733477 -0.43953794 0.02252056
v -0.27871078 -0.33295760 0.04174323
v -0.27029658 -0.27651966 0.05144088
v -0.25402517 -0.17071704 0.07148607
v -0.24236645 -0.08280125 0.08946988
v -0.24105692 -0.09761436 0.08845441
v -0.27084384 -0.27003894 0.05193845
v -0.25399585 -0.08280125 0.08912462
v -0.26289870 -0.12853673 0.07997532
v -0.28239507 -0.23185814 0.06067142
v -0.28863977 -0.23885733 0.06313898
v -0.29117087 -0.22945103 0.06961763
v -0.29910623 -0.27348299 0.06275311
v -0.29989782 -0.27974151 0.06124008
v -0.31821168 -0.39495046 0.04348982
v -0.31854396 -0.38413688 0.05177598
v -0.32349867 -0.42713193 0.04760244
v -0.32027370 -0.41768858 0.05583783
v -0.32284389 -0.43653827 0.03817897
v -0.32051802 -0.44605568 0.03848360
v -0.31099949 -0.44335230 0.02252056
v -0.31948212 -0.44301899 0.03147693
v -0.31099949 -0.43953794 0.02252056
v -0.27604288 -0.27651966 0.04965367
v -0.28052851 -0.31840373 0.04280947
v -0.27974669 -0.32355130 0.04228143
v -0.26343620 -0.21711911 0.06195090
v -0.25718173 -0.17349451 0.07038937
v -0.25204133 -0.12035248 0.08036120
v -0.25053635 -0.12587036 0.07990424
v -0.24779025 -0.08280125 0.08869812
v -0.25279383 -0.08280125 0.08896214
v -0.25368313 -0.12035248 0.08036120
v -0.26283030 -0.16727301 0.07085649
v -0.27194814 -0.21463790 0.06150409
v -0.28574708 -0.27663076 0.05065897
v -0.29067246 -0.27992670 0.05195876
v -0.30021053 -0.30744204 0.05166428
v -0.29076041 -0.25104113 0.06115884
v -0.30133438 -0.31414496 0.05063867
v -0.31919870 -0.43009456 0.03273610
v -0.31980462 -0.43653827 0.03142615
v -0.31959939 -0.40828228 0.04108318
v -0.31891532 -0.38946961 0.05000908
v -0.30828270 -0.35895460 0.04365230
v -0.32103596 -0.40828228 0.04760244
v -0.32233572 -0.41768858 0.04760244
v -0.32113371 -0.42702086 0.03769154
v -0.29980007 -0.33714231 0.04273838
v -0.28280552 -0.26974267 0.05143072
v -0.26971999 -0.21463790 0.06150409
v -0.26029918 -0.16727301 0.07085649
f 25 24 51
f 159 185 160
f 54 57 28
f 54 28 26
f 9 2 1
f 24 25 9
f 9 25 26
f 26 27 9
f 26 28 10
f 10 27 26
f 2 9 10
f 10 9 27
f 8 9 1
f 107 139 109
f 108 137 140
f 182 156 155
f 166 167 187
f 187 168 166
f 166 142 167
f 145 139 166
f 183 185 159
f 183 156 182
f 182 168 194
f 168 185 194
f 194 183 182
f 185 183 194
f 190 160 185
f 190 185 168
f 124 94 123
f 124 155 156
f 94 124 125
f 159 160 128
f 117 91 116
f 56 80 88
f 55 80 56
f 26 55 56
f 56 53 26
f 7 8 1
f 21 8 7
f 22 8 21
f 22 23 8
f 88 109 112
f 78 80 110
f 51 80 81
f 81 80 55
f 79 80 51
f 110 80 79
f 51 78 79
f 79 78 110
f 57 54 82
f 107 140 141
f 141 140 167
f 141 142 107
f 167 142 141
f 167 140 165
f 165 137 136
f 165 140 137
f 154 124 123
f 155 124 154
f 107 142 138
f 142 166 138
f 138 139 107
f 138 166 139
f 159 156 184
f 184 183 159
f 156 183 184
f 187 160 186
f 160 190 186
f 186 168 187
f 186 190 168
f 188 160 187
f 187 193 188
f 157 156 159
f 157 124 156
f 157 125 124
f 97 125 126
f 95 94 97
f 94 125 97
f 153 121 120
f 153 154 123
f 120 121 93
f 123 94 93
f 100 99 127
f 127 99 126
f 118 91 117
f 113 91 88
f 113 114 91
f 88 112 113
f 113 139 145
f 145 114 113
f 113 109 139
f 113 112 109
f 91 114 115
f 115 116 91
f 115 114 145
f 88 91 89
f 89 56 88
f 20 19 21
f 23 22 49
f 1 3 4
f 4 5 1
f 4 3 11
f 4 14 15
f 4 20 5
f 19 20 4
f 63 99 100
f 100 101 63
f 130 101 100
f 131 101 130
f 100 129 130
f 130 129 131
f 136 137 104
f 104 103 136
f 52 55 26
f 52 81 55
f 26 25 52
f 52 25 51
f 51 81 52
f 57 82 87
f 87 82 53
f 164 165 136
f 167 165 164
f 187 167 164
f 164 193 187
f 164 188 193
f 117 116 148
f 155 154 180
f 146 115 145
f 116 115 146
f 126 125 158
f 125 157 158
f 158 157 159
f 158 128 126
f 159 128 158
f 122 153 123
f 121 153 122
f 123 93 122
f 122 93 121
f 31 32 15
f 15 30 31
f 29 30 13
f 14 4 13
f 15 14 13
f 13 30 15
f 59 94 95
f 59 93 94
f 161 128 160
f 117 150 143
f 119 118 117
f 119 143 111
f 91 56 90
f 90 89 91
f 56 89 90
f 5 20 6
f 1 5 6
f 6 7 1
f 21 7 6
f 6 20 21
f 23 49 50
f 66 101 68
f 68 39 66
f 69 39 68
f 132 101 131
f 136 103 135
f 111 87 92
f 92 119 111
f 118 119 92
f 92 56 91
f 91 118 92
f 171 146 170
f 182 155 181
f 155 180 181
f 181 168 182
f 176 150 174
f 154 153 179
f 179 180 154
f 99 63 62
f 32 31 62
f 62 31 61
f 98 97 126
f 98 61 97
f 98 62 61
f 126 99 98
f 99 62 98
f 95 97 96
f 96 61 95
f 97 61 96
f 12 4 11
f 12 13 4
f 60 31 30
f 30 59 60
f 60 59 95
f 95 61 60
f 61 31 60
f 93 59 58
f 58 30 29
f 58 59 30
f 160 188 189
f 189 161 160
f 129 161 162
f 131 129 162
f 162 164 136
f 162 132 131
f 136 135 162
f 111 143 144
f 144 143 150
f 117 143 151
f 151 119 117
f 143 119 151
f 48 49 22
f 48 50 49
f 77 50 76
f 19 4 18
f 4 17 18
f 19 18 37
f 16 4 15
f 16 17 4
f 38 39 19
f 19 37 38
f 101 66 65
f 21 19 40
f 19 39 40
f 133 134 101
f 101 132 133
f 132 162 133
f 134 135 102
f 103 71 102
f 102 135 103
f 102 69 68
f 71 69 102
f 68 101 102
f 101 134 102
f 86 87 53
f 86 92 87
f 116 146 147
f 146 171 147
f 147 148 116
f 147 171 148
f 169 146 168
f 170 146 169
f 169 171 170
f 149 150 117
f 192 162 161
f 164 162 192
f 188 164 192
f 103 104 73
f 104 74 73
f 47 48 22
f 50 48 47
f 47 74 50
f 77 76 106
f 106 108 77
f 106 137 108
f 106 104 137
f 105 74 104
f 104 106 105
f 105 106 76
f 36 18 17
f 36 37 18
f 67 66 39
f 39 38 67
f 67 38 66
f 33 62 63
f 15 32 33
f 32 62 33
f 17 16 35
f 35 36 17
f 66 38 35
f 35 65 66
f 35 38 37
f 37 36 35
f 41 42 22
f 41 40 42
f 41 22 21
f 21 40 41
f 42 40 70
f 70 69 71
f 39 69 70
f 70 40 39
f 163 135 134
f 134 133 163
f 163 162 135
f 163 133 162
f 53 56 83
f 83 84 53
f 56 84 83
f 56 92 85
f 85 84 56
f 92 86 85
f 53 84 85
f 85 86 53
f 195 181 180
f 180 169 195
f 168 181 195
f 195 169 168
f 117 148 152
f 152 149 117
f 148 171 152
f 171 169 152
f 178 177 176
f 176 174 178
f 153 177 178
f 178 179 153
f 175 174 150
f 150 149 175
f 175 149 174
f 161 189 191
f 191 192 161
f 191 189 188
f 188 192 191
f 44 70 71
f 42 70 44
f 75 76 50
f 75 105 76
f 50 74 75
f 74 105 75
f 34 35 16
f 34 16 15
f 15 33 34
f 65 35 34
f 34 33 63
f 196 169 180
f 196 197 169
f 169 197 173
f 173 197 174
f 174 149 173
f 72 71 103
f 72 44 71
f 103 73 72
f 22 42 43
f 43 44 22
f 42 44 43
f 45 73 74
f 74 47 45
f 45 72 73
f 44 72 45
f 22 44 45
f 64 34 63
f 65 34 64
f 64 63 101
f 101 65 64
f 169 173 172
f 172 173 149
f 172 152 169
f 149 152 172
f 46 47 22
f 22 45 46
f 46 45 47
f 77 108 140
f 107 77 140
f 9 8 23
f 24 9 23
f 78 77 107
f 107 109 78
f 78 109 88
f 88 80 78
f 26 53 82
f 82 54 26
f 126 128 127
f 127 128 100
f 146 166 168
f 145 166 146
f 100 128 161
f 161 129 100
f 24 23 50
f 51 24 50
f 77 78 50
f 50 78 51
f 177 150 176
f 1 2 177
f 28 57 177
f 177 10 28
f 177 3 1
f 177 153 120
f 2 10 177
f 57 87 177
f 120 93 177
f 11 3 177
f 111 144 177
f 177 12 11
f 177 58 29
f 177 87 111
f 29 13 177
f 13 12 177
f 93 58 177
f 177 144 150
f 178 197 179
f 174 197 178
f 179 197 196
f 180 179 196

