# https://github.com/mikedh/trimesh
v -0.16304597 0.07191035 -0.25429593
v -0.16302776 0.06392535 -0.25187942
v -0.16304597 0.06392535 -0.25187942
v -0.16304597 0.08190579 -0.25102584
v -0.16237235 0.08190579 -0.25100179
v -0.13479030 0.07809569 -0.25019628
v -0.13479030 0.07191035 -0.25210785
v -0.13479030 0.06309848 -0.25091763
v -0.14420279 0.06347949 -0.25138651
v -0.13479030 0.05838854 -0.24789999
v -0.16304597 0.05899654 -0.24466596
v -0.16304597 0.08985836 -0.24639720
v -0.15880398 0.08612933 -0.24909022
v -0.15802113 0.08612933 -0.24909022
v -0.12796306 0.07740662 -0.24954707
v -0.12623349 0.07191035 -0.25016022
v -0.12707096 0.06454956 -0.25001595
v -0.05949039 0.05486217 -0.23319656
v -0.03123472 0.04744463 -0.22205176
v -0.04066541 0.04721765 -0.22259277
v -0.01240974 0.04012437 -0.20922382
v 0.01584593 0.02725109 -0.18483029
v -0.16304597 0.04432359 -0.19722542
v -0.16304597 0.09033666 -0.24607259
v -0.16302776 0.09699217 -0.24128766
v -0.15361528 0.09655442 -0.24080676
v -0.13870459 0.09560594 -0.23973676
v -0.08770965 0.08867480 -0.23174185
v -0.08057291 0.08724804 -0.23092432
v -0.07429185 0.08548080 -0.22995050
v -0.06351391 0.07720396 -0.23041937
v -0.05949039 0.06248238 -0.23443487
v -0.06890288 0.06248238 -0.23667104
v -0.04534435 0.05776433 -0.23020297
v -0.03123472 0.05308683 -0.22475680
v -0.02508110 0.04789049 -0.22129435
v 0.00645165 0.03813015 -0.20297216
v 0.02196314 0.02754293 -0.18428928
v 0.01584593 0.01605588 -0.14074402
v 0.00936460 0.01802578 -0.14691152
v -0.14043415 0.03875436 -0.18404883
v -0.16304597 0.02798068 -0.13147472
v -0.16304597 0.09699217 -0.24128766
v -0.16304597 0.09860539 -0.23490374
v -0.12537781 0.09696786 -0.23294408
v -0.11594712 0.09634364 -0.23168173
v -0.10906526 0.09579240 -0.23081612
v -0.05007790 0.08692378 -0.22155884
v -0.04532614 0.08604826 -0.22078940
v -0.06890288 0.08369735 -0.22913297
v -0.06001836 0.08073033 -0.22775040
v -0.05007790 0.08132211 -0.22432400
v -0.02590037 0.06804350 -0.22113805
v -0.04534435 0.05779676 -0.23020297
v -0.03123472 0.06248238 -0.22463658
v -0.02369745 0.05308683 -0.22207580
v 0.00248274 0.04774458 -0.21167640
v -0.00297905 0.04626107 -0.21273436
v 0.01187703 0.03870572 -0.20219069
v 0.02294626 0.03686552 -0.19568655
v 0.02294626 0.02901022 -0.18531118
v 0.02294626 0.02754293 -0.18226951
v 0.02294626 0.01693139 -0.14074402
v 0.00641523 0.01653417 -0.13147472
v -0.16279108 0.02795636 -0.13147472
v 0.01945071 0.01591806 -0.13716133
v 0.01943251 0.01591806 -0.13716133
v -0.16304597 0.06903251 -0.13147472
v -0.16304597 0.09725158 -0.22549018
v -0.16302776 0.09725158 -0.22549018
v -0.12537781 0.09696786 -0.22631972
v -0.11594712 0.09634364 -0.22718534
v -0.10906526 0.09579240 -0.22849578
v -0.01652429 0.08620229 -0.20249125
v -0.03289146 0.08699673 -0.21293875
v -0.02661040 0.08599152 -0.21088292
v 0.00297430 0.07739042 -0.20251530
v -0.01581426 0.07780385 -0.21190482
v -0.02928668 0.07431802 -0.21962322
v -0.04157571 0.08060063 -0.22167907
v -0.02429824 0.06248238 -0.22196760
v 0.00925537 0.07454499 -0.20106059
v 0.01198626 0.06827049 -0.20235901
v 0.00144500 0.05700232 -0.21123156
v 0.00248274 0.05072781 -0.21167640
v 0.02294626 0.05308683 -0.19994250
v 0.02294626 0.04767972 -0.19976216
v 0.02294626 0.04367506 -0.19938946
v 0.02294626 0.03921643 -0.19718936
v 0.02294626 0.01591806 -0.13446830
v 0.02292805 0.01578836 -0.13367482
v 0.02292805 0.01588564 -0.13148674
v 0.02254573 0.01591806 -0.13147472
v -0.16304597 0.09564647 -0.22014019
v -0.16302776 0.06903251 -0.13147472
v -0.16302776 0.09564647 -0.22014019
v -0.13479030 0.09699217 -0.22580275
v 0.01584593 0.07889013 -0.17841031
v -0.01652429 0.08620229 -0.20149339
v 0.01584593 0.08030068 -0.18783590
v 0.02294626 0.07830646 -0.18728287
v 0.02294626 0.07739852 -0.19009611
v 0.02121669 0.07700130 -0.19295746
v 0.01584593 0.07822539 -0.19454442
v 0.01542719 0.07161041 -0.19908890
v 0.02294626 0.07424505 -0.19358263
v 0.02294626 0.07144017 -0.19515757
v 0.02294626 0.06465494 -0.19764620
v 0.02294626 0.06248238 -0.19839160
v 0.00596009 0.05354890 -0.20939213
v 0.02294626 0.05623219 -0.19942553
v 0.02294626 0.01591806 -0.13147472
v -0.15361528 0.06877310 -0.13147472
v 0.00645165 0.08153289 -0.18783590
v -0.12537781 0.06797055 -0.13147472
v -0.11860519 0.06777598 -0.13147472
v -0.10653462 0.06741119 -0.13147472
v -0.04066541 0.06489003 -0.13147472
v 0.01595516 0.06265261 -0.13147472
v 0.02294626 0.06236078 -0.13147472
v 0.02294626 0.07677431 -0.17327674
v 0.02294626 0.07817675 -0.17841031
v 0.02294626 0.07623117 -0.19210387
f 69 70 44
f 92 112 93
f 93 64 92
f 23 41 42
f 11 22 23
f 22 41 23
f 1 8 9
f 11 3 10
f 10 9 8
f 10 22 11
f 10 8 18
f 22 10 21
f 21 10 20
f 7 8 1
f 27 15 14
f 29 48 49
f 46 47 27
f 27 45 46
f 118 98 117
f 44 70 71
f 71 45 44
f 65 39 64
f 42 41 65
f 92 64 91
f 91 112 92
f 38 39 22
f 38 61 62
f 22 21 38
f 60 61 38
f 38 59 60
f 2 3 1
f 1 9 2
f 2 10 3
f 9 10 2
f 56 34 54
f 18 8 17
f 8 7 17
f 16 7 15
f 16 17 7
f 27 14 26
f 26 45 27
f 28 15 27
f 28 29 15
f 27 47 28
f 47 48 28
f 48 29 28
f 49 31 51
f 30 31 15
f 15 29 30
f 30 29 49
f 75 48 47
f 47 74 75
f 49 48 75
f 121 98 120
f 121 122 98
f 98 122 114
f 122 100 114
f 120 98 119
f 98 118 119
f 113 115 98
f 117 98 116
f 98 115 116
f 97 71 70
f 82 106 107
f 82 53 78
f 52 31 49
f 52 53 31
f 40 65 41
f 39 65 40
f 40 41 22
f 22 39 40
f 64 39 67
f 67 91 64
f 112 91 90
f 57 87 88
f 58 57 59
f 59 36 58
f 58 36 57
f 37 36 59
f 59 38 37
f 37 38 21
f 20 10 19
f 19 21 20
f 19 10 18
f 18 36 19
f 19 37 21
f 36 37 19
f 34 56 35
f 18 34 35
f 35 36 18
f 57 36 35
f 35 56 57
f 54 34 32
f 32 16 15
f 15 31 32
f 32 34 18
f 31 53 32
f 6 7 1
f 15 7 6
f 6 14 15
f 25 26 14
f 45 26 25
f 25 43 44
f 44 45 25
f 50 51 31
f 31 30 50
f 49 51 50
f 50 30 49
f 76 75 74
f 49 75 76
f 101 100 122
f 102 74 101
f 74 100 101
f 95 113 98
f 98 71 95
f 71 97 95
f 99 72 71
f 99 71 98
f 99 73 72
f 98 114 99
f 99 100 74
f 99 114 100
f 82 107 105
f 79 53 49
f 49 78 79
f 79 78 53
f 49 53 80
f 80 52 49
f 53 52 80
f 86 87 57
f 53 84 81
f 63 38 62
f 39 38 63
f 91 67 66
f 66 90 91
f 66 63 90
f 66 67 39
f 39 63 66
f 60 59 89
f 59 57 89
f 57 88 89
f 18 17 33
f 33 32 18
f 17 16 33
f 16 32 33
f 43 25 24
f 24 25 14
f 1 4 5
f 5 6 1
f 5 4 14
f 14 6 5
f 103 74 102
f 103 106 82
f 83 107 108
f 83 105 107
f 83 84 53
f 83 53 82
f 82 105 83
f 109 83 108
f 84 83 109
f 85 86 57
f 85 81 84
f 57 56 85
f 56 81 85
f 55 32 53
f 53 81 55
f 54 32 55
f 55 56 54
f 55 81 56
f 12 24 13
f 13 24 14
f 4 12 13
f 14 4 13
f 123 103 102
f 106 103 123
f 104 76 74
f 74 103 104
f 104 103 76
f 49 76 77
f 76 103 77
f 77 78 49
f 82 78 77
f 77 103 82
f 96 97 70
f 96 95 97
f 84 109 110
f 110 85 84
f 86 85 110
f 86 110 111
f 111 110 109
f 45 71 72
f 72 46 45
f 95 68 42
f 120 119 95
f 95 112 120
f 95 93 112
f 42 65 95
f 64 93 95
f 95 118 117
f 117 116 95
f 95 65 64
f 95 119 118
f 115 113 95
f 95 116 115
f 46 72 73
f 47 46 73
f 47 73 99
f 99 74 47
f 94 69 44
f 42 68 94
f 1 3 94
f 94 23 42
f 44 43 94
f 43 24 94
f 94 3 11
f 11 23 94
f 94 4 1
f 94 12 4
f 94 24 12
f 69 94 96
f 70 69 96
f 68 95 96
f 96 94 68
f 120 112 111
f 111 109 108
f 111 61 60
f 112 90 111
f 108 107 111
f 62 61 111
f 111 63 62
f 111 121 120
f 102 101 111
f 122 121 111
f 111 107 106
f 60 89 111
f 111 88 87
f 111 101 122
f 87 86 111
f 90 63 111
f 111 89 88
f 111 123 102
f 106 123 111

