# https://github.com/mikedh/trimesh
v 0.22156336 0.47250644 -0.05207913
v 0.21962909 0.47250644 -0.05207913
v 0.22650348 0.47230806 -0.05207913
v 0.21926129 0.48230384 -0.07672432
v 0.21802627 0.47244543 -0.05207913
v 0.21607384 0.48230384 -0.07672432
v 0.22725267 0.47214021 -0.05207913
v 0.21953373 0.48256326 -0.08423986
v 0.21320422 0.48260900 -0.08404400
v 0.22832424 0.47261328 -0.05770320
v 0.22867840 0.47308637 -0.06541461
v 0.21749955 0.47117879 -0.05207913
v 0.20979880 0.48045726 -0.08077588
v 0.20848658 0.48196809 -0.08705469
v 0.23114846 0.46789775 -0.05207913
v 0.21883447 0.48198335 -0.09365808
v 0.21448009 0.48215117 -0.09407219
v 0.22840596 0.47290323 -0.07287980
v 0.20848658 0.48196809 -0.09121259
v 0.23256965 0.46512028 -0.05207913
v 0.19941457 0.46287697 -0.08878949
v 0.20857740 0.44509827 -0.05207913
v 0.20723338 0.47711519 -0.08404400
v 0.19842926 0.46483033 -0.10000964
v 0.20100829 0.46913383 -0.09365808
v 0.19863812 0.46443357 -0.09365808
v 0.21833048 0.48152553 -0.09837559
v 0.21819881 0.48152553 -0.09837559
v 0.21191922 0.48126608 -0.09749140
v 0.22127277 0.47680997 -0.09365808
v 0.23469916 0.45829876 -0.05207913
v 0.22875103 0.46739412 -0.07373600
v 0.22740250 0.46739412 -0.07844791
v 0.20650690 0.47499395 -0.10039577
v 0.20609824 0.47760352 -0.09407219
v 0.19652224 0.45797830 -0.09365808
v 0.19853370 0.45797830 -0.08697076
v 0.20798711 0.44309915 -0.05207913
v 0.20442280 0.46705840 -0.10333932
v 0.20208896 0.45797830 -0.10640598
v 0.20010473 0.45272861 -0.10744685
v 0.19836115 0.44644122 -0.10869478
v 0.19748030 0.45797830 -0.10169966
v 0.19390233 0.43914663 -0.10307630
v 0.19234039 0.43914663 -0.09365808
v 0.21920682 0.47680997 -0.09964030
v 0.20926301 0.46301431 -0.10788893
v 0.21448009 0.47760352 -0.10060283
v 0.22550454 0.46739412 -0.08423986
v 0.22238520 0.46739412 -0.09365808
v 0.23365938 0.45797830 -0.05599639
v 0.23444036 0.45436151 -0.05207913
v 0.23063538 0.45797830 -0.06541461
v 0.20861371 0.46301431 -0.10788893
v 0.19475142 0.43914663 -0.08423986
v 0.19915575 0.43545354 -0.06934867
v 0.20164399 0.42074226 -0.05207913
v 0.20424569 0.43008178 -0.05207913
v 0.19648136 0.44917289 -0.10381498
v 0.20679295 0.45797830 -0.10843176
v 0.20362818 0.44917289 -0.10882908
v 0.19782536 0.43914663 -0.10902494
v 0.18831292 0.35441939 -0.09160991
v 0.18831292 0.37328156 -0.09074812
v 0.18831292 0.37709673 -0.09023327
v 0.18831292 0.39316622 -0.08255544
v 0.18831292 0.39510434 -0.07482724
v 0.18831292 0.39379190 -0.07315401
v 0.21957459 0.46739412 -0.10050769
v 0.21016657 0.45797830 -0.10843176
v 0.22676229 0.45797830 -0.07672991
v 0.22406519 0.45797830 -0.08423986
v 0.22022844 0.45741364 -0.09440236
v 0.21882541 0.46016057 -0.09953957
v 0.23361398 0.44865402 -0.05207913
v 0.23229721 0.44856245 -0.05599639
v 0.18994752 0.39707296 -0.06992506
v 0.18937540 0.39208272 -0.06901290
v 0.18831292 0.37758509 -0.06761388
v 0.18831292 0.37387673 -0.06714940
v 0.20134884 0.41311192 -0.05207913
v 0.20420031 0.43914663 -0.10924879
v 0.19840656 0.43325600 -0.10852689
v 0.18831292 0.33789206 -0.09036199
v 0.18831292 0.34500354 -0.09113984
v 0.18831292 0.39208272 -0.07224744
v 0.20913134 0.43404955 -0.10800646
v 0.20999859 0.44856245 -0.10840937
v 0.22900986 0.44895924 -0.06567763
v 0.22733439 0.44607497 -0.06899051
v 0.21819881 0.45388845 -0.09803422
v 0.23287386 0.44465571 -0.05207913
v 0.23184769 0.43914663 -0.05207913
v 0.23054002 0.43914663 -0.05599639
v 0.18831292 0.38903057 -0.07089319
v 0.18831292 0.36383521 -0.06683602
v 0.20126709 0.41089912 -0.05207913
v 0.20420031 0.43325600 -0.10851010
v 0.19027445 0.33943339 -0.08920919
v 0.18831292 0.32672127 -0.08423986
v 0.21761762 0.44856245 -0.09649530
v 0.21670951 0.43908557 -0.09329993
v 0.21851211 0.42448113 -0.08002041
v 0.20928117 0.40587837 -0.08910286
v 0.22830606 0.43914663 -0.06231438
v 0.22659882 0.43914663 -0.06702629
v 0.22372919 0.43914663 -0.07482724
v 0.22169049 0.42973079 -0.07482724
v 0.21912962 0.42973079 -0.08162089
v 0.23106671 0.43523989 -0.05207913
v 0.22879192 0.43053960 -0.05592365
v 0.22826520 0.42263458 -0.05273388
v 0.18831292 0.34750629 -0.06717738
v 0.20501760 0.40418444 -0.05207913
v 0.18831292 0.34517141 -0.06749076
v 0.22729353 0.41723231 -0.05207913
v 0.18831292 0.33433634 -0.07407177
v 0.22536835 0.41089912 -0.05207913
v 0.22118650 0.40358927 -0.05207913
v 0.22646260 0.41982661 -0.05592365
v 0.22779300 0.43420216 -0.06084261
v 0.22711645 0.42793004 -0.05901269
v 0.22564530 0.43053960 -0.06455281
v 0.22841505 0.42229886 -0.05207913
v 0.20804161 0.40244470 -0.05207913
v 0.18831292 0.33926552 -0.06989708
v 0.21378086 0.40163588 -0.05207913
v 0.18991119 0.34047112 -0.07035037
f 82 87 98
f 87 84 98
f 99 84 87
f 69 70 46
f 116 103 120
f 99 103 116
f 84 99 100
f 99 116 100
f 5 6 13
f 21 13 23
f 45 55 36
f 61 70 82
f 78 79 57
f 57 79 80
f 87 101 102
f 102 103 87
f 104 99 87
f 87 103 104
f 104 103 99
f 87 69 74
f 88 69 87
f 70 69 88
f 88 87 82
f 82 70 88
f 49 33 53
f 112 116 120
f 117 119 128
f 117 100 119
f 119 100 118
f 118 100 116
f 14 6 9
f 14 13 6
f 23 13 14
f 14 21 23
f 9 6 4
f 4 8 9
f 4 1 3
f 22 21 37
f 36 55 37
f 37 21 36
f 12 21 22
f 5 13 12
f 13 21 12
f 67 45 66
f 66 45 65
f 44 64 65
f 65 45 44
f 63 64 44
f 79 78 95
f 57 55 77
f 77 78 57
f 91 101 87
f 87 74 91
f 90 107 91
f 109 102 101
f 103 102 109
f 101 91 109
f 49 53 50
f 50 74 69
f 50 69 46
f 127 115 119
f 128 119 126
f 119 115 126
f 126 117 128
f 97 115 114
f 97 80 96
f 116 112 124
f 2 6 5
f 24 45 36
f 24 44 45
f 10 4 7
f 7 4 3
f 7 15 10
f 58 37 57
f 56 55 57
f 57 37 56
f 56 37 55
f 62 85 63
f 63 44 62
f 84 85 62
f 62 61 82
f 46 70 47
f 68 45 67
f 78 77 68
f 55 45 68
f 68 77 55
f 31 18 20
f 32 18 31
f 33 18 32
f 30 18 33
f 30 33 49
f 30 50 46
f 49 50 30
f 108 91 107
f 108 109 91
f 120 103 108
f 103 109 108
f 108 112 120
f 108 122 112
f 52 75 53
f 71 50 53
f 90 91 73
f 73 91 74
f 74 50 73
f 114 115 125
f 115 127 125
f 113 97 96
f 115 97 113
f 57 80 81
f 80 97 81
f 90 94 105
f 110 124 112
f 110 94 93
f 112 94 110
f 93 94 76
f 76 94 90
f 53 75 76
f 76 71 53
f 48 54 34
f 48 47 54
f 8 18 16
f 9 8 17
f 8 16 17
f 19 24 14
f 19 14 9
f 9 17 19
f 21 14 26
f 36 21 26
f 26 24 36
f 22 37 38
f 37 58 38
f 39 24 34
f 34 54 39
f 83 98 84
f 84 62 83
f 82 98 83
f 83 62 82
f 70 61 60
f 46 47 27
f 27 30 46
f 27 48 28
f 47 48 27
f 18 30 27
f 27 16 18
f 28 17 27
f 27 17 16
f 86 95 78
f 78 68 86
f 15 20 11
f 11 20 18
f 10 15 11
f 11 18 8
f 11 4 10
f 8 4 11
f 123 108 107
f 122 108 123
f 31 52 51
f 51 32 31
f 33 32 51
f 51 53 33
f 51 52 53
f 72 71 90
f 50 71 72
f 90 73 72
f 72 73 50
f 112 122 121
f 93 76 92
f 92 76 75
f 90 71 89
f 89 76 90
f 71 76 89
f 34 24 35
f 35 19 34
f 24 19 35
f 34 19 29
f 29 48 34
f 28 48 29
f 29 17 28
f 29 19 17
f 14 24 25
f 25 26 14
f 24 26 25
f 44 24 43
f 43 59 44
f 59 43 42
f 42 62 44
f 44 59 42
f 54 60 42
f 42 41 54
f 61 62 42
f 42 60 61
f 24 41 42
f 42 43 24
f 40 41 24
f 24 39 40
f 54 41 40
f 40 39 54
f 112 121 111
f 111 121 105
f 111 94 112
f 111 105 94
f 106 121 122
f 106 123 107
f 122 123 106
f 105 121 106
f 106 107 90
f 90 105 106
f 2 4 6
f 1 4 2
f 54 47 60
f 60 47 70
f 63 85 86
f 86 64 63
f 100 117 86
f 67 66 86
f 86 85 84
f 65 64 86
f 84 100 86
f 96 80 86
f 86 80 79
f 86 68 67
f 86 126 115
f 86 66 65
f 79 95 86
f 117 126 86
f 86 113 96
f 115 113 86
f 92 58 57
f 15 7 92
f 5 12 92
f 92 127 119
f 114 125 92
f 57 81 92
f 31 20 92
f 119 118 92
f 92 2 5
f 92 118 116
f 3 1 92
f 92 12 22
f 22 38 92
f 92 52 31
f 92 97 114
f 116 124 92
f 1 2 92
f 92 7 3
f 92 110 93
f 92 20 15
f 75 52 92
f 92 125 127
f 92 81 97
f 124 110 92
f 92 38 58

