# https://github.com/mikedh/trimesh
v 0.02295802 -0.03873714 0.06260127
v 0.03598788 -0.06484786 0.09801521
v 0.03127971 -0.06484786 0.10022785
v 0.02780743 -0.06484786 0.10265011
v 0.02295802 -0.06484786 0.10738982
v 0.02295802 0.00526360 0.06260127
v 0.04991230 -0.04117030 0.06260127
v 0.04501580 -0.06484786 0.09781724
v 0.11002388 -0.04599442 0.06260127
v 0.02295802 -0.06484786 0.17036864
v 0.02295802 -0.01297804 0.14408477
v 0.06560228 0.00699353 0.15960820
v 0.06283623 0.00699353 0.15208522
v 0.06265967 0.00699353 0.15116522
v 0.06215355 0.00699353 0.14274554
v 0.06303632 0.00699353 0.13332433
v 0.06315403 0.00699353 0.13234611
v 0.06561405 0.00699353 0.12558008
v 0.09310977 0.00699353 0.06260127
v 0.04914722 -0.06484786 0.09956406
v 0.11002388 -0.04729538 0.06654909
v 0.11944023 -0.04450358 0.06260127
v 0.02295802 -0.06118406 0.17309368
v 0.02552397 -0.06484786 0.16964662
v 0.02295802 -0.01493300 0.15116522
v 0.06592008 0.00699353 0.16009731
v 0.02295802 -0.02265441 0.17206888
v 0.12863293 0.00699353 0.06260127
v 0.05314916 -0.06484786 0.10142733
v 0.11002388 -0.04999576 0.07584220
v 0.11944023 -0.04644448 0.06866857
v 0.12840929 -0.04142346 0.06260127
v 0.12434850 -0.04591003 0.07088121
v 0.02295802 -0.05697878 0.17595847
v 0.08745997 -0.05593801 0.15665024
v 0.06449586 -0.06484786 0.15699961
v 0.07173467 0.00699353 0.16419653
v 0.02295802 -0.02536182 0.17740252
v 0.12476046 0.00699353 0.07598194
v 0.13697816 0.00328051 0.06260127
v 0.06127076 -0.06484786 0.10674933
v 0.11002388 -0.05165537 0.08526339
v 0.13477710 -0.03759792 0.06260127
v 0.12437203 -0.04593113 0.07584220
v 0.10599840 -0.05562859 0.10729666
v 0.02295802 -0.05079744 0.17856707
v 0.08668312 -0.03676811 0.16541930
v 0.07359440 -0.06484786 0.15041991
v 0.07699606 -0.06484786 0.14701943
v 0.07737271 -0.06477753 0.14678652
v 0.08941386 -0.05695065 0.15116522
v 0.09568750 -0.05495349 0.14605286
v 0.09392193 -0.05128969 0.15139813
v 0.08888419 -0.05049505 0.15798947
v 0.06713244 -0.06484786 0.15604468
v 0.06762679 -0.06484786 0.15577684
v 0.07228789 0.00699353 0.16452260
v 0.02295802 -0.02678936 0.17873010
v 0.13442398 0.00227489 0.07335006
v 0.13585997 0.00304141 0.06642099
v 0.08736580 0.00699353 0.15750037
v 0.14126259 -0.00205697 0.06260127
v 0.07992689 -0.06484786 0.13370863
v 0.13656620 -0.03503818 0.06260127
v 0.13462407 -0.03757682 0.06642099
v 0.12424256 -0.04586080 0.08169987
v 0.10599840 -0.05562859 0.11118625
v 0.02295802 -0.04325887 0.18084958
v 0.02295802 -0.03493973 0.18154830
v 0.02295802 -0.04107888 0.18145513
v 0.08967281 -0.04037565 0.16086591
v 0.09504013 -0.04107888 0.15472874
v 0.09567572 -0.03166270 0.15552063
v 0.08668312 -0.03560779 0.16541930
v 0.07727854 -0.06484786 0.14669335
v 0.08332855 -0.06300541 0.14174402
v 0.09201513 -0.05811800 0.14244275
v 0.09689985 -0.05594504 0.13977593
v 0.11685073 -0.04798454 0.10409415
v 0.10584537 -0.04654293 0.13770304
v 0.09714704 -0.04867370 0.14841688
v 0.07321775 0.00699353 0.16477879
v 0.02295802 -0.03143767 0.18131540
v 0.13290559 0.00029180 0.07962697
v 0.08608283 0.00699353 0.15995756
v 0.14312233 -0.00678263 0.06260127
v 0.07957378 -0.06484786 0.14174402
v 0.13839062 -0.03132516 0.06260127
v 0.13412972 -0.03710566 0.07303563
v 0.12397183 -0.04559358 0.08797679
v 0.10505676 -0.05499569 0.11746318
v 0.09795919 -0.05664826 0.13233446
v 0.09119120 -0.06060038 0.13233446
v 0.10659868 -0.04107888 0.13878606
v 0.08414071 0.00699353 0.16288058
v 0.10650452 -0.03326606 0.13870454
v 0.08171600 0.00699353 0.16371906
v 0.12318322 -0.04392694 0.09467295
v 0.11552066 -0.04680312 0.11040601
v 0.12578448 -0.03921534 0.09467295
v 0.12452505 -0.03722521 0.10004152
v 0.13440043 -0.02916626 0.08225886
v 0.12839752 -0.03166270 0.09467295
v 0.10948244 -0.04107888 0.13233446
v 0.07500686 0.00699353 0.16477879
v 0.13427096 -0.00598799 0.08210747
v 0.12549023 -0.01283739 0.10177670
v 0.12485462 -0.00739444 0.10021620
v 0.14319295 -0.00733115 0.06260127
v 0.13497719 -0.01283739 0.08363303
v 0.13983837 -0.02696517 0.06260127
v 0.13751960 -0.03166270 0.06642099
v 0.13534207 -0.03204948 0.07604017
v 0.13318809 -0.03543902 0.07931255
v 0.13507135 -0.02225357 0.08374948
v 0.13283497 -0.02225357 0.08845426
v 0.12576095 -0.02225357 0.10274328
v 0.12341863 -0.02225357 0.10744805
v 0.13777856 -0.02225357 0.07584220
v 0.12949216 -0.01283739 0.09467295
v 0.13285851 -0.01283739 0.08833780
v 0.14319295 -0.01007372 0.06260127
v 0.14116844 -0.02225357 0.06260127
v 0.14193350 -0.01807642 0.06260127
f 35 47 34
f 7 2 1
f 7 9 2
f 21 9 22
f 12 6 11
f 11 25 12
f 4 5 1
f 24 36 35
f 2 9 8
f 9 21 8
f 67 87 63
f 12 25 27
f 83 82 58
f 1 2 3
f 3 4 1
f 105 82 83
f 83 97 105
f 95 97 74
f 74 73 95
f 47 73 74
f 74 97 83
f 54 47 35
f 35 53 54
f 47 54 71
f 96 73 94
f 35 34 23
f 23 24 35
f 46 34 47
f 89 64 88
f 115 102 119
f 32 33 22
f 31 21 22
f 22 33 31
f 65 64 89
f 90 65 89
f 103 115 94
f 103 102 115
f 110 115 109
f 110 121 115
f 118 96 94
f 107 96 118
f 84 62 59
f 59 39 61
f 61 84 59
f 28 39 40
f 59 62 40
f 18 19 6
f 6 17 18
f 93 87 67
f 91 78 67
f 79 78 91
f 67 90 91
f 91 90 79
f 77 93 78
f 42 63 41
f 38 37 26
f 26 27 38
f 12 27 26
f 57 37 38
f 38 58 57
f 57 58 82
f 69 74 83
f 69 70 47
f 47 74 69
f 72 73 47
f 47 71 72
f 94 73 72
f 72 71 54
f 72 54 53
f 53 81 72
f 24 23 10
f 47 70 68
f 68 46 47
f 123 119 113
f 113 119 102
f 109 115 122
f 115 119 122
f 64 65 43
f 33 32 43
f 66 90 67
f 65 90 66
f 66 43 65
f 98 90 89
f 79 90 98
f 115 121 116
f 94 115 116
f 107 118 120
f 120 118 121
f 62 84 86
f 86 110 109
f 85 96 107
f 95 73 85
f 73 96 85
f 84 61 85
f 60 39 59
f 59 40 60
f 60 40 39
f 13 6 12
f 13 14 6
f 6 14 15
f 20 8 21
f 41 29 30
f 30 42 41
f 21 31 30
f 30 31 33
f 33 42 30
f 29 20 30
f 30 20 21
f 35 36 55
f 55 56 35
f 48 49 35
f 35 56 48
f 67 78 92
f 92 93 67
f 78 93 92
f 87 93 76
f 93 77 76
f 67 63 45
f 63 42 45
f 45 42 33
f 89 88 112
f 112 113 89
f 124 119 123
f 124 122 119
f 44 66 67
f 67 45 44
f 44 45 33
f 33 43 44
f 43 66 44
f 79 98 99
f 80 99 98
f 102 103 80
f 79 99 80
f 94 72 80
f 80 72 81
f 80 81 53
f 121 118 117
f 117 116 121
f 117 118 94
f 94 116 117
f 107 120 108
f 108 85 107
f 16 17 6
f 6 15 16
f 87 76 75
f 35 51 52
f 52 77 78
f 52 51 77
f 52 53 35
f 52 80 53
f 52 78 79
f 79 80 52
f 111 112 88
f 123 113 111
f 113 112 111
f 104 103 94
f 94 80 104
f 104 80 103
f 100 80 98
f 84 85 106
f 85 108 106
f 106 86 84
f 106 120 121
f 106 108 120
f 121 110 106
f 110 86 106
f 49 75 50
f 35 49 50
f 50 51 35
f 77 51 50
f 50 76 77
f 50 75 76
f 102 80 101
f 80 100 101
f 114 113 102
f 102 101 114
f 114 101 100
f 89 113 114
f 114 98 89
f 114 100 98
f 68 6 1
f 68 27 25
f 68 11 6
f 1 5 68
f 83 58 68
f 25 11 68
f 34 46 68
f 68 69 83
f 38 27 68
f 68 58 38
f 68 23 34
f 5 10 68
f 70 69 68
f 68 10 23
f 16 97 95
f 19 18 16
f 28 19 16
f 82 105 16
f 95 85 16
f 16 39 28
f 16 57 82
f 12 26 16
f 16 105 97
f 16 61 39
f 16 18 17
f 16 13 12
f 16 26 37
f 37 57 16
f 16 85 61
f 14 13 16
f 16 15 14
f 2 8 75
f 36 24 75
f 41 63 75
f 75 29 41
f 5 4 75
f 8 20 75
f 75 3 2
f 49 48 75
f 75 63 87
f 4 3 75
f 75 10 5
f 75 55 36
f 24 10 75
f 75 20 29
f 56 55 75
f 75 48 56
f 28 40 111
f 1 6 111
f 111 7 1
f 22 9 111
f 6 19 111
f 9 7 111
f 111 88 64
f 111 19 28
f 64 43 111
f 111 32 22
f 111 124 123
f 109 122 111
f 111 40 62
f 111 86 109
f 111 43 32
f 62 86 111
f 122 124 111

