# https://github.com/mikedh/trimesh
v 0.09059865 0.00022154 -0.10342529
v 0.09770447 0.00022154 -0.11530121
v 0.05700425 0.00022154 -0.10342529
v 0.08816237 -0.00281928 -0.10342529
v 0.13469057 -0.19830485 -0.19197747
v 0.14319366 -0.21578077 -0.20180383
v 0.14393410 -0.21057294 -0.20103764
v 0.14471037 -0.20113596 -0.19992667
v 0.14217855 -0.18233187 -0.19356731
v 0.14250100 -0.17292983 -0.19377801
v 0.12397809 -0.09330956 -0.16899183
v 0.09784779 0.00022154 -0.12169887
v 0.15244914 -0.20533017 -0.21124710
v 0.13383070 -0.12948471 -0.18232349
v 0.07494197 -0.07558898 -0.13474322
v 0.06759729 -0.02707585 -0.10771594
v 0.06652247 -0.00991449 -0.10342529
v 0.05813880 0.00022154 -0.11212153
v 0.10014076 -0.22483330 -0.24049632
v 0.10014076 -0.22511292 -0.24020901
v 0.10014076 -0.22602164 -0.23480739
v 0.10014076 -0.22602164 -0.23459667
v 0.10014076 -0.22549739 -0.22545989
v 0.10014076 -0.21955557 -0.21775970
v 0.08148649 -0.00834166 -0.10342529
v 0.09213924 -0.07967835 -0.13246381
v 0.14193971 -0.24304319 -0.21155356
v 0.14486563 -0.23678681 -0.21028936
v 0.15093244 -0.25761811 -0.22145655
v 0.15339261 -0.24639857 -0.21959854
v 0.15408528 -0.23877906 -0.21839180
v 0.15224612 -0.21322929 -0.21166850
v 0.15244914 -0.20697291 -0.21124710
v 0.12505292 -0.09974070 -0.17596413
v 0.11537946 -0.06286651 -0.15709676
v 0.13383070 -0.12948471 -0.18460290
v 0.14349223 -0.16642879 -0.20437056
v 0.09603252 0.00022154 -0.12656418
v 0.10604038 -0.03500990 -0.14686815
v 0.16322133 -0.25761811 -0.23666538
v 0.16261226 -0.24821607 -0.23710594
v 0.16206291 -0.24272863 -0.23844677
v 0.15291490 -0.20368744 -0.21607408
v 0.14763630 -0.18233187 -0.20664997
v 0.14349223 -0.16642879 -0.19985006
v 0.08500954 -0.08478132 -0.13382380
v 0.10373546 -0.22696536 -0.21896644
v 0.11271627 -0.22731486 -0.20921669
v 0.06830191 -0.02707585 -0.10771594
v 0.07219518 -0.01229122 -0.10342529
v 0.05966745 0.00022154 -0.12192874
v 0.06230674 -0.01285044 -0.13133370
v 0.10014076 -0.21997500 -0.24365686
v 0.15181619 -0.34821326 -0.28826814
v 0.15124295 -0.35153367 -0.28114260
v 0.15230584 -0.35656674 -0.27746489
v 0.15230584 -0.35656674 -0.27692857
v 0.07458369 -0.02490883 -0.10815651
v 0.08961937 -0.08478132 -0.13382380
v 0.13368740 -0.22479836 -0.20193791
v 0.14432821 -0.26335021 -0.22034558
v 0.16260032 -0.31081479 -0.24838804
v 0.16214650 -0.28215429 -0.23921295
v 0.17161694 -0.31130413 -0.25786965
v 0.16066563 -0.25761811 -0.23195333
v 0.11615573 -0.07142972 -0.16661665
v 0.15302238 -0.20358259 -0.22375512
v 0.15127877 -0.20071653 -0.22632184
v 0.15235360 -0.20595931 -0.23001870
v 0.15010841 -0.19176886 -0.21607408
v 0.09309465 0.00022154 -0.13137201
v 0.09614001 -0.00778244 -0.13631391
v 0.11432852 -0.06513838 -0.16336035
v 0.17174831 -0.30469825 -0.25758230
v 0.17152141 -0.29697389 -0.25785048
v 0.17121089 -0.29068255 -0.25988087
v 0.15198339 -0.19900390 -0.21607408
v 0.17123479 -0.29057767 -0.26614446
v 0.16206291 -0.24272863 -0.24040054
v 0.12154182 -0.23668197 -0.20992542
v 0.12562617 -0.24293835 -0.21178343
v 0.13310220 -0.26272108 -0.22055628
v 0.12372730 -0.22493814 -0.20184214
v 0.13828528 -0.26338515 -0.22026896
v 0.12318989 -0.26436383 -0.22888858
v 0.10933652 -0.23032074 -0.21538451
v 0.11527198 -0.23360621 -0.21180259
v 0.06137523 0.00022154 -0.13133370
v 0.10014076 -0.21955557 -0.24365686
v 0.15919669 -0.34237629 -0.29815197
v 0.15449132 -0.34237629 -0.29326753
v 0.15992519 -0.34800357 -0.29742409
v 0.15279549 -0.35656674 -0.27746489
v 0.16239730 -0.35684636 -0.26899851
v 0.16080894 -0.35684636 -0.26754275
v 0.15437190 -0.35181329 -0.27024358
v 0.16239730 -0.35684636 -0.26754275
v 0.17085262 -0.31756051 -0.25896145
v 0.17091234 -0.34657054 -0.26804076
v 0.17201105 -0.34031413 -0.26715966
v 0.17291869 -0.33293931 -0.26591462
v 0.17699109 -0.33293931 -0.27254214
v 0.11600047 -0.08128613 -0.17521710
v 0.11376722 -0.07499480 -0.17288023
v 0.15231778 -0.21543126 -0.23946196
v 0.17123479 -0.29057767 -0.26786840
v 0.16258837 -0.26065893 -0.25953608
v 0.08787576 0.00022154 -0.13671616
v 0.09543539 -0.01798837 -0.14514423
v 0.17663282 -0.32353727 -0.27254214
v 0.17321724 -0.30469825 -0.26313718
v 0.17899744 -0.33293931 -0.28196624
v 0.06529239 0.00022154 -0.13792291
v 0.10014076 -0.20994382 -0.24298645
v 0.16651748 -0.34237629 -0.29909055
v 0.15990129 -0.33293931 -0.29755818
v 0.16651748 -0.34793363 -0.29734748
v 0.16651748 -0.35324632 -0.28196624
v 0.17443538 -0.35031038 -0.28196624
v 0.17328890 -0.35006573 -0.27432352
v 0.17466230 -0.34300544 -0.27171848
v 0.17891384 -0.34237629 -0.28196624
v 0.14453124 -0.19439025 -0.23181925
v 0.13435618 -0.16719773 -0.22151401
v 0.11528392 -0.09215615 -0.18354940
v 0.10748543 -0.07212875 -0.17491063
v 0.10547909 -0.05503731 -0.16443302
v 0.15126683 -0.22630127 -0.24798581
v 0.14370720 -0.20491075 -0.24024732
v 0.17093622 -0.30057393 -0.27662209
v 0.17617900 -0.32353727 -0.28196624
v 0.16264809 -0.28952914 -0.27786715
v 0.15708285 -0.25789773 -0.26304140
v 0.08628739 0.00022154 -0.13755896
v 0.09732232 -0.03521962 -0.15567931
v 0.08917749 -0.01554174 -0.14663830
v 0.17627455 -0.34237629 -0.29137120
v 0.17481755 -0.33293931 -0.29163937
v 0.06905429 0.00022154 -0.13974260
v 0.12194787 -0.17670463 -0.23078488
v 0.14768407 -0.25632489 -0.26641264
v 0.14768407 -0.26100846 -0.26834727
v 0.16086864 -0.32738199 -0.29663876
v 0.16632639 -0.33293931 -0.29780718
v 0.17228572 -0.33601509 -0.29700269
v 0.17228572 -0.34237629 -0.29704100
v 0.17156918 -0.34733947 -0.29642806
v 0.17314558 -0.34828316 -0.29137120
v 0.13255285 -0.17824250 -0.22978884
v 0.10535965 -0.08345314 -0.18312800
v 0.10304280 -0.06583742 -0.17286107
v 0.14498505 -0.22238667 -0.25018860
v 0.15468240 -0.25013842 -0.26026399
v 0.17156918 -0.31832945 -0.28694646
v 0.15321347 -0.26146280 -0.26832811
v 0.08159397 0.00022154 -0.13945529
v 0.07815452 0.00022154 -0.14043218
v 0.09542345 -0.06419469 -0.17395290
v 0.12628301 -0.17670463 -0.23078488
v 0.16307802 -0.32738199 -0.29663876
v 0.11497341 -0.12099140 -0.20205284
v 0.09676101 -0.06419469 -0.17395290
f 3 24 15
f 15 16 3
f 46 16 15
f 15 48 46
f 1 4 5
f 4 26 5
f 119 122 120
f 47 15 24
f 48 15 47
f 118 119 94
f 88 52 51
f 46 48 80
f 80 81 46
f 95 96 57
f 3 16 17
f 16 50 17
f 25 26 4
f 100 64 98
f 98 62 100
f 64 63 98
f 98 63 62
f 59 25 58
f 26 25 59
f 46 84 59
f 59 84 61
f 1 5 6
f 27 5 26
f 102 122 112
f 56 55 54
f 94 95 56
f 56 95 57
f 48 47 86
f 57 96 85
f 85 47 57
f 85 86 47
f 96 95 85
f 48 86 85
f 31 64 65
f 18 51 52
f 97 62 61
f 61 84 97
f 97 84 95
f 97 95 94
f 94 119 97
f 119 120 97
f 87 80 48
f 87 95 80
f 48 85 87
f 87 85 95
f 83 84 46
f 49 25 50
f 49 50 16
f 58 25 49
f 49 59 58
f 62 63 30
f 30 64 31
f 30 63 64
f 61 27 60
f 60 27 26
f 60 59 61
f 26 59 60
f 28 6 5
f 5 27 28
f 28 27 61
f 101 64 100
f 101 102 64
f 121 120 122
f 122 102 121
f 121 101 100
f 102 101 121
f 148 122 119
f 119 118 148
f 118 147 148
f 145 138 137
f 122 148 137
f 137 148 147
f 112 122 137
f 137 138 112
f 117 147 118
f 112 138 131
f 131 138 130
f 113 114 88
f 53 52 88
f 72 108 71
f 66 72 73
f 73 39 66
f 72 39 73
f 31 65 32
f 7 30 31
f 6 30 7
f 1 6 7
f 13 2 10
f 10 2 1
f 1 9 10
f 66 39 35
f 35 39 12
f 100 62 99
f 62 97 99
f 99 97 120
f 99 121 100
f 120 121 99
f 46 81 82
f 82 83 46
f 81 80 82
f 80 95 82
f 95 84 82
f 84 83 82
f 62 30 29
f 29 30 6
f 6 28 29
f 61 62 29
f 29 28 61
f 64 102 74
f 74 40 64
f 75 40 74
f 13 40 41
f 41 40 75
f 110 102 112
f 110 74 102
f 75 74 110
f 145 137 146
f 146 137 147
f 93 117 118
f 93 118 94
f 94 56 93
f 114 113 139
f 139 140 114
f 149 129 152
f 88 114 89
f 89 53 88
f 114 90 89
f 89 90 53
f 19 18 52
f 52 53 19
f 3 18 19
f 19 53 54
f 72 71 38
f 12 39 38
f 38 39 72
f 157 150 162
f 161 150 149
f 104 72 66
f 9 32 33
f 13 10 33
f 33 10 9
f 33 40 13
f 64 40 33
f 33 65 64
f 33 32 65
f 8 7 31
f 31 32 8
f 8 32 9
f 8 9 1
f 1 7 8
f 14 2 13
f 13 44 14
f 66 69 105
f 123 104 105
f 105 129 123
f 66 35 34
f 34 69 66
f 112 131 106
f 106 131 130
f 76 41 75
f 76 110 112
f 43 44 13
f 92 56 54
f 92 93 56
f 117 93 92
f 54 53 91
f 53 90 91
f 91 92 54
f 90 92 91
f 114 140 141
f 145 146 115
f 147 117 115
f 115 146 147
f 117 92 115
f 115 92 90
f 116 90 114
f 114 143 116
f 116 115 90
f 23 24 3
f 23 47 24
f 57 47 23
f 156 150 157
f 156 136 150
f 158 139 157
f 157 162 158
f 140 139 158
f 159 162 150
f 150 161 159
f 159 161 149
f 149 152 159
f 159 141 140
f 109 108 72
f 72 104 109
f 124 129 149
f 123 129 124
f 124 104 123
f 12 2 11
f 2 14 11
f 11 35 12
f 37 34 11
f 11 34 35
f 45 14 44
f 45 70 37
f 44 70 45
f 103 104 66
f 66 105 103
f 103 105 104
f 67 34 37
f 37 70 67
f 107 105 69
f 69 106 107
f 107 106 130
f 130 132 107
f 75 110 111
f 111 76 75
f 110 76 111
f 41 76 42
f 13 41 42
f 42 43 13
f 77 70 44
f 44 43 77
f 77 67 70
f 43 42 77
f 145 132 154
f 154 132 130
f 154 138 145
f 130 138 154
f 145 115 144
f 144 116 143
f 115 116 144
f 142 143 114
f 114 141 142
f 142 141 143
f 136 156 134
f 108 109 134
f 134 109 136
f 155 159 152
f 141 159 155
f 155 132 145
f 149 150 126
f 37 11 36
f 36 11 14
f 69 34 68
f 68 67 69
f 34 67 68
f 78 42 76
f 112 106 78
f 78 76 112
f 79 106 69
f 69 67 79
f 67 77 79
f 79 77 42
f 3 19 20
f 20 21 3
f 56 21 20
f 55 56 20
f 54 55 20
f 20 19 54
f 22 23 3
f 3 21 22
f 57 23 22
f 132 155 153
f 153 155 152
f 143 141 160
f 141 155 160
f 160 144 143
f 145 144 160
f 160 155 145
f 150 136 151
f 151 126 150
f 136 109 135
f 109 126 135
f 135 151 136
f 126 151 135
f 127 109 104
f 104 126 127
f 127 126 109
f 104 124 125
f 125 126 104
f 125 124 149
f 149 126 125
f 133 107 132
f 132 153 133
f 105 107 128
f 129 105 128
f 107 133 128
f 128 133 153
f 128 152 129
f 128 153 152
f 25 1 3
f 25 4 1
f 3 17 25
f 25 17 50
f 46 59 49
f 49 16 46
f 159 158 162
f 140 158 159
f 12 38 134
f 3 1 134
f 134 18 3
f 1 2 134
f 88 51 134
f 157 139 134
f 134 2 12
f 51 18 134
f 134 113 88
f 134 71 108
f 134 139 113
f 134 38 71
f 134 156 157
f 14 45 36
f 36 45 37
f 42 78 79
f 79 78 106
f 22 21 56
f 22 56 57

