# https://github.com/mikedh/trimesh
v -0.09796682 -0.30621404 0.05751171
v -0.09056201 -0.30188823 0.05751171
v -0.09826837 -0.30618314 0.05751171
v -0.09712247 -0.30315507 0.03816726
v -0.09168110 -0.30049777 0.03068180
v -0.09080995 -0.30103336 0.03816726
v -0.08184376 -0.29184611 0.01929941
v -0.08181696 -0.29194911 0.02210296
v -0.08175665 -0.29217569 0.02874736
v -0.08224583 -0.29179462 0.03816726
v -0.08727843 -0.29595564 0.05751171
v -0.10624279 -0.30500899 0.05751171
v -0.10192722 -0.30010639 0.02386919
v -0.09382549 -0.29997250 0.02440186
v -0.10010450 -0.30010639 0.02386919
v -0.07829213 -0.27418231 -0.09368340
v -0.07305181 -0.27228718 -0.09973906
v -0.08306338 -0.29056897 -0.00382982
v -0.08216542 -0.29137232 0.00987951
v -0.07262293 -0.27268885 -0.09368340
v -0.06989555 -0.27566546 -0.04658387
v -0.06553977 -0.26879561 -0.05603181
v -0.06528513 -0.26678720 -0.04672404
v -0.08285564 -0.29101184 0.04377435
v -0.06383767 -0.26346044 -0.04994812
v -0.08709749 -0.29532738 0.05751171
v -0.10653764 -0.30488540 0.05751171
v -0.10708714 -0.30439101 0.05751171
v -0.10256384 -0.29153714 -0.00612873
v -0.09732351 -0.29251560 -0.00915656
v -0.08428300 -0.27326564 -0.09368340
v -0.08327782 -0.27205030 -0.09889800
v -0.07829213 -0.27235928 -0.09979513
v -0.05347764 -0.23534253 -0.22281463
v -0.06358303 -0.26296605 -0.10960753
v -0.07583280 -0.28037237 -0.04658387
v -0.07025071 -0.27493418 -0.05603181
v -0.06328818 -0.26328533 -0.10307527
v -0.06302683 -0.26365613 -0.09368340
v -0.06587483 -0.26920761 -0.06545171
v -0.06313405 -0.26450070 -0.06545171
v -0.06351602 -0.26408870 -0.05603181
v -0.08285564 -0.28963171 0.04377435
v -0.07329305 -0.27349223 -0.00324108
v -0.06383767 -0.26032935 -0.04994812
v -0.05411425 -0.24526105 -0.12188705
v -0.05451632 -0.24443707 -0.11524265
v -0.06161288 -0.25765145 -0.06545171
v -0.08870578 -0.28634613 0.05751171
v -0.11079289 -0.29657363 0.05751171
v -0.10344169 -0.28608865 -0.00915656
v -0.09221050 -0.26163741 -0.09766443
v -0.08512064 -0.26437711 -0.11246715
v -0.08402835 -0.26296605 -0.11832655
v -0.06438047 -0.23429197 -0.22110447
v -0.05946850 -0.23516744 -0.22256231
v -0.05946850 -0.23128450 -0.22889832
v -0.04955744 -0.22845211 -0.22889832
v -0.04758059 -0.22635100 -0.22889832
v -0.04583828 -0.22408508 -0.22889832
v -0.04533569 -0.22473395 -0.22082411
v -0.05428848 -0.24397361 -0.16708019
v -0.05364517 -0.24509626 -0.15014677
v -0.05351114 -0.24566272 -0.14072687
v -0.06309384 -0.26426379 -0.07484359
v -0.05369207 -0.24567302 -0.13127892
v -0.08191077 -0.28626373 0.03853172
v -0.08219223 -0.27886862 0.03564407
v -0.08351236 -0.28335925 0.04192401
v -0.07329305 -0.27113363 -0.00324108
v -0.05451632 -0.24123391 -0.11524265
v -0.05488489 -0.23495115 -0.11762567
v -0.06442068 -0.25404659 -0.05219095
v -0.05137346 -0.23884439 -0.14072687
v -0.05241885 -0.23884439 -0.13127892
v -0.08892022 -0.28569724 0.05751171
v -0.11055835 -0.29544068 0.05751171
v -0.10838047 -0.28591356 0.03816726
v -0.10823304 -0.28591356 0.02874736
v -0.10456749 -0.27648943 -0.00893228
v -0.10191382 -0.27224599 -0.03391185
v -0.09574203 -0.25765145 -0.08426350
v -0.09373167 -0.25816644 -0.09416000
v -0.09296774 -0.25535465 -0.10086047
v -0.07397657 -0.22572271 -0.21202099
v -0.06532534 -0.22767963 -0.22889832
v -0.06062110 -0.23058412 -0.22889832
v -0.04371401 -0.22057292 -0.22889832
v -0.04526868 -0.22482665 -0.21605808
v -0.04520167 -0.22496054 -0.20661015
v -0.04524188 -0.22491934 -0.20019003
v -0.05095129 -0.23884439 -0.15014677
v -0.08117364 -0.27603623 0.02908378
v -0.08233965 -0.27119543 0.02616809
v -0.05389311 -0.23839123 -0.12121420
v -0.04924249 -0.22942027 -0.15953864
v -0.05418796 -0.23318992 -0.12390560
v -0.05341062 -0.22267404 -0.15014677
v -0.05460344 -0.21505233 -0.16354771
v -0.06415933 -0.24353071 -0.07010560
v -0.04823061 -0.22942027 -0.16895856
v -0.09144656 -0.28049597 0.05369889
v -0.09574873 -0.28229840 0.05751171
v -0.10483554 -0.28598565 0.05751171
v -0.10725466 -0.28591356 0.04755914
v -0.10449378 -0.27832276 0.03816726
v -0.10440666 -0.27609803 0.02807451
v -0.10505668 -0.27636581 0.02210296
v -0.10535823 -0.27648943 0.01929941
v -0.10328756 -0.26967108 0.00048763
v -0.10309993 -0.26904282 -0.00893228
v -0.10279168 -0.26861023 -0.01835218
v -0.10514379 -0.27648943 0.00048763
v -0.10145144 -0.26752877 -0.03710789
v -0.10191382 -0.27097915 -0.03391185
v -0.10045966 -0.26706528 -0.04658387
v -0.09415384 -0.24825822 -0.09368340
v -0.09294093 -0.24825822 -0.10130904
v -0.09217029 -0.24825822 -0.10601900
v -0.09704876 -0.25765145 -0.07484359
v -0.07397657 -0.22284913 -0.21202099
v -0.06825375 -0.21059261 -0.22889832
v -0.06815324 -0.22000644 -0.22889832
v -0.04248099 -0.21641188 -0.22889832
v -0.04233356 -0.21029392 -0.22889832
v -0.08207161 -0.25230598 -0.01282920
v -0.08546241 -0.27258586 0.03241999
v -0.07324614 -0.24306724 -0.05073311
v -0.05071675 -0.22942027 -0.15014677
v -0.04325163 -0.20765723 -0.22889832
v -0.04439753 -0.20489694 -0.22889832
v -0.05263329 -0.21958416 -0.16007131
v -0.06385778 -0.21508323 -0.14369862
v -0.05593027 -0.21615440 -0.15729581
v -0.04687027 -0.20346528 -0.22889832
v -0.04967806 -0.20200274 -0.22889832
v -0.09174142 -0.27171039 0.03368160
v -0.09712247 -0.28038267 0.05400728
v -0.09712247 -0.28222630 0.05751171
v -0.10232929 -0.28081524 0.05316622
v -0.10338808 -0.27970289 0.04755914
v -0.10199424 -0.27164860 0.02448597
v -0.10294580 -0.27049505 0.00987951
v -0.09280690 -0.24293335 -0.07745089
v -0.09310176 -0.24256255 -0.08426350
v -0.10112978 -0.26389301 -0.01835218
v -0.09507191 -0.24825822 -0.08426350
v -0.09256566 -0.24331442 -0.09979513
v -0.07428482 -0.21983135 -0.20638586
v -0.07330645 -0.21657667 -0.20935761
v -0.07376213 -0.21486694 -0.20307767
v -0.07026411 -0.21059261 -0.21605808
v -0.06661196 -0.20653457 -0.22889832
v -0.08412217 -0.25230598 -0.01282920
v -0.07829213 -0.24182097 -0.04902295
v -0.07829213 -0.23974046 -0.05603181
v -0.08514075 -0.24172828 -0.04888277
v -0.05946850 -0.20247653 -0.21605808
v -0.06480264 -0.21508323 -0.14369862
v -0.05606430 -0.20100369 -0.22889832
v -0.09269969 -0.27171039 0.03368160
v -0.09712247 -0.27764298 0.04755914
v -0.09436828 -0.25048295 -0.04658387
v -0.08323761 -0.23400359 -0.07927319
v -0.08829031 -0.23786593 -0.08426350
v -0.07415750 -0.21468154 -0.17114532
v -0.07415750 -0.21468154 -0.17565901
v -0.06681300 -0.20392878 -0.21605808
v -0.07384925 -0.21475365 -0.19721828
v -0.09291412 -0.24285093 -0.09368340
v -0.06557328 -0.20429956 -0.22889832
v -0.05946850 -0.20126118 -0.22889832
v -0.06625680 -0.20483513 -0.20661015
v -0.06505729 -0.20549431 -0.20024610
v -0.06352272 -0.20290911 -0.22889832
f 57 34 56
f 56 55 57
f 35 17 34
f 158 136 160
f 133 136 158
f 57 55 87
f 55 86 87
f 55 56 32
f 32 54 55
f 33 56 34
f 33 32 56
f 52 54 53
f 53 32 31
f 54 32 53
f 58 34 57
f 62 35 34
f 34 61 62
f 37 35 21
f 66 41 64
f 37 21 36
f 36 21 19
f 19 21 7
f 29 28 50
f 29 53 31
f 52 53 29
f 128 133 126
f 45 73 70
f 94 128 126
f 172 158 160
f 168 158 172
f 150 122 121
f 150 151 122
f 122 151 152
f 168 171 152
f 152 151 168
f 122 123 85
f 121 122 85
f 85 123 86
f 85 86 55
f 85 54 52
f 55 54 85
f 34 17 16
f 16 33 34
f 31 32 16
f 32 33 16
f 60 61 34
f 88 61 60
f 35 62 63
f 63 61 64
f 63 62 61
f 125 91 124
f 124 91 88
f 88 91 90
f 90 91 64
f 9 21 22
f 2 9 10
f 92 91 74
f 74 66 92
f 64 91 92
f 92 66 64
f 37 36 20
f 20 35 37
f 17 35 20
f 8 9 2
f 2 7 8
f 8 21 9
f 8 7 21
f 141 104 140
f 51 29 50
f 52 29 51
f 30 29 31
f 31 16 30
f 4 1 3
f 2 1 6
f 6 7 2
f 19 7 6
f 17 20 6
f 99 131 135
f 135 136 99
f 99 136 133
f 100 94 73
f 128 94 100
f 43 70 67
f 43 49 26
f 126 137 102
f 175 171 168
f 168 172 175
f 173 158 168
f 173 174 158
f 159 157 133
f 164 157 159
f 133 158 159
f 158 174 159
f 159 173 164
f 174 173 159
f 156 157 126
f 133 157 156
f 166 173 168
f 164 173 166
f 168 151 169
f 169 145 168
f 151 145 169
f 84 85 52
f 151 150 148
f 122 152 153
f 153 152 171
f 34 58 59
f 59 60 34
f 35 63 38
f 38 21 35
f 38 39 21
f 64 39 38
f 38 63 64
f 74 91 101
f 101 96 74
f 101 91 125
f 125 96 101
f 125 130 97
f 97 130 131
f 89 61 88
f 88 90 89
f 64 61 89
f 89 90 64
f 42 22 41
f 41 66 42
f 64 41 65
f 65 39 64
f 21 39 40
f 40 22 21
f 39 65 40
f 41 22 40
f 40 65 41
f 24 10 25
f 25 44 24
f 43 26 24
f 75 47 74
f 74 96 75
f 75 96 95
f 45 25 48
f 25 47 48
f 105 77 104
f 105 104 141
f 139 140 104
f 103 102 139
f 154 140 162
f 126 157 154
f 13 30 16
f 13 3 12
f 4 3 13
f 29 30 13
f 12 27 13
f 13 27 28
f 28 29 13
f 14 16 17
f 4 16 14
f 5 1 4
f 5 6 1
f 4 14 5
f 17 6 5
f 5 14 17
f 18 36 19
f 19 6 18
f 18 20 36
f 18 6 20
f 132 99 98
f 131 99 132
f 98 97 132
f 132 97 131
f 133 128 134
f 134 99 133
f 128 100 134
f 134 100 99
f 68 67 70
f 43 67 68
f 2 10 11
f 10 24 11
f 11 24 26
f 76 102 103
f 94 102 76
f 76 68 94
f 49 68 76
f 127 94 126
f 126 102 127
f 127 102 94
f 126 133 155
f 155 156 126
f 133 156 155
f 157 163 142
f 141 140 142
f 142 154 157
f 140 154 142
f 168 145 167
f 167 166 168
f 145 166 167
f 164 166 165
f 83 84 52
f 83 82 84
f 52 51 83
f 51 82 83
f 170 145 151
f 151 148 170
f 149 150 121
f 121 148 149
f 149 148 150
f 95 96 72
f 96 97 72
f 72 73 45
f 72 100 73
f 99 100 72
f 98 99 72
f 72 97 98
f 129 96 125
f 125 97 129
f 129 97 96
f 22 42 23
f 9 22 23
f 23 10 9
f 25 10 23
f 23 42 25
f 46 42 66
f 46 66 74
f 74 47 46
f 46 47 25
f 25 42 46
f 71 75 95
f 47 75 71
f 71 72 45
f 95 72 71
f 45 48 71
f 71 48 47
f 50 77 78
f 78 79 50
f 77 105 78
f 81 51 50
f 81 82 51
f 162 140 138
f 140 139 138
f 138 139 102
f 138 102 137
f 161 154 162
f 162 138 161
f 161 138 137
f 15 16 4
f 4 13 15
f 15 13 16
f 69 49 43
f 43 68 69
f 69 68 49
f 73 94 93
f 94 68 93
f 93 70 73
f 93 68 70
f 144 166 145
f 144 165 166
f 144 142 163
f 164 165 144
f 144 157 164
f 144 163 157
f 84 82 119
f 82 118 119
f 85 84 119
f 121 85 119
f 119 118 121
f 79 78 111
f 146 145 111
f 142 144 143
f 106 78 105
f 106 105 141
f 141 142 106
f 50 79 80
f 80 81 50
f 147 170 148
f 145 170 147
f 147 111 145
f 110 111 78
f 146 111 110
f 110 143 144
f 110 145 146
f 110 144 145
f 78 106 107
f 142 143 107
f 107 106 142
f 111 147 112
f 79 111 112
f 109 110 78
f 143 110 109
f 82 81 116
f 116 120 82
f 117 118 82
f 82 120 117
f 117 120 147
f 117 147 148
f 117 148 121
f 121 118 117
f 113 80 79
f 79 112 113
f 113 112 80
f 78 107 108
f 108 109 78
f 108 107 143
f 143 109 108
f 81 80 115
f 115 116 81
f 114 112 147
f 147 120 114
f 120 116 114
f 80 112 114
f 114 115 80
f 116 115 114
f 45 70 44
f 44 25 45
f 125 124 59
f 160 136 59
f 59 58 57
f 88 60 59
f 57 87 59
f 59 123 122
f 59 136 135
f 171 175 59
f 59 87 86
f 86 123 59
f 59 172 160
f 135 131 59
f 59 130 125
f 122 153 59
f 59 124 88
f 131 130 59
f 59 175 172
f 59 153 171
f 24 44 70
f 24 70 43
f 76 1 2
f 50 28 76
f 12 3 76
f 76 77 50
f 103 139 76
f 76 27 12
f 2 11 76
f 104 77 76
f 28 27 76
f 76 3 1
f 76 26 49
f 76 139 104
f 76 11 26
f 126 154 161
f 161 137 126

