# https://github.com/mikedh/trimesh
v 0.00109018 -0.02780217 -0.16899214
v 0.00146554 -0.02729733 -0.17387238
v 0.00250348 -0.02780217 -0.16899214
v 0.00115092 -0.02774511 -0.16385999
v 0.00109018 -0.02631887 -0.16899214
v 0.00204885 -0.02729733 -0.17387238
v 0.00146554 -0.02669870 -0.17387238
v 0.00250348 -0.02631887 -0.16899214
v 0.00245201 -0.02774511 -0.16385999
v 0.00115092 -0.02636635 -0.16385999
v 0.00204885 -0.02669870 -0.17387238
v 0.00245201 -0.02636635 -0.16385999
f 9 4 1
f 1 3 9
f 1 4 10
f 10 5 1
f 4 9 10
f 10 9 12
f 6 3 1
f 1 2 6
f 5 10 8
f 8 10 12
f 8 9 3
f 12 9 8
f 3 6 8
f 8 6 11
f 1 5 7
f 7 2 1
f 5 8 7
f 7 8 11
f 7 6 2
f 11 6 7

