# https://github.com/mikedh/trimesh
v 0.02894614 -0.09671560 0.11439831
v 0.02919059 -0.09671560 0.12266047
v 0.03516082 -0.09667977 0.13215220
v 0.02941624 -0.09671560 0.10855782
v 0.03841389 -0.19767072 0.06954872
v 0.03841389 -0.19767072 0.07224779
v 0.02933162 -0.09671560 0.12314030
v 0.06301877 -0.32863665 0.09465009
v 0.06301877 -0.32337222 0.09853376
v 0.06301877 -0.31395354 0.10474912
v 0.04388583 -0.09671560 0.13502372
v 0.04415848 -0.09671560 0.13497874
v 0.05184927 -0.09671560 0.13104259
v 0.06216319 -0.09671560 0.12143090
v 0.06673254 -0.09671560 0.11392598
v 0.06548208 -0.09671560 0.10408185
v 0.06514361 -0.09671560 0.10352705
v 0.06064949 -0.09671560 0.09712424
v 0.05356042 -0.09671560 0.09333054
v 0.05263903 -0.09671560 0.09318060
v 0.04413027 -0.09671560 0.09354047
v 0.04343453 -0.09671560 0.09379539
v 0.03710702 -0.09671560 0.09737166
v 0.03665573 -0.09671560 0.09783650
v 0.03239665 -0.09671560 0.10324214
v 0.03210519 -0.09671560 0.10369199
v 0.02954786 -0.09671560 0.10795052
v 0.06301877 -0.30474977 0.10740321
v 0.09556828 -0.46046205 0.09971085
v 0.06727785 -0.27241117 0.11853688
v 0.07525069 -0.29221543 0.11897923
v 0.03841389 -0.19505641 0.06954872
v 0.10058892 -0.44631616 0.05890237
v 0.09530503 -0.45125825 0.06102415
v 0.09437424 -0.45244006 0.06643729
v 0.06301877 -0.32709669 0.08549574
v 0.06301877 -0.32849338 0.08952186
v 0.07659517 -0.38615133 0.09099885
v 0.09461869 -0.46107086 0.09467259
v 0.07878582 -0.29221543 0.11897923
v 0.05354162 -0.11644821 0.13197227
v 0.05880670 -0.11071823 0.12832853
v 0.06788898 -0.11021687 0.11850690
v 0.06737187 -0.10391389 0.11739728
v 0.06687356 -0.09732441 0.11395596
v 0.06826506 -0.10022521 0.11112193
v 0.06826506 -0.10022521 0.10725326
v 0.06575473 -0.09732441 0.10410435
v 0.06882917 -0.11874021 0.09795646
v 0.06084693 -0.09761091 0.09694431
v 0.05354162 -0.09761091 0.09298566
v 0.04134730 -0.19505641 0.06954872
v 0.10060772 -0.46250333 0.09467259
v 0.10060772 -0.46142900 0.10058805
v 0.09552128 -0.38532764 0.10896268
v 0.11014129 -0.44574316 0.05843003
v 0.11002847 -0.45244006 0.05899234
v 0.10060772 -0.45190286 0.05955465
v 0.09453408 -0.46103505 0.08729512
v 0.09327421 -0.45415905 0.07585405
v 0.09110237 -0.44595802 0.07585405
v 0.09331181 -0.45612874 0.08460355
v 0.09661191 -0.38532764 0.10896268
v 0.09742987 -0.38002741 0.10928507
v 0.09803160 -0.37064457 0.10959995
v 0.08654242 -0.25321574 0.11822949
v 0.08654242 -0.25278598 0.11822949
v 0.07751656 -0.17582516 0.11858936
v 0.07603105 -0.15408705 0.11690995
v 0.06836848 -0.11644821 0.11911419
v 0.07866360 -0.15408705 0.11220156
v 0.07777981 -0.14470419 0.11037969
v 0.07722510 -0.13926071 0.10918010
v 0.07722510 -0.13926071 0.10795052
v 0.07776101 -0.14506232 0.10452420
v 0.07728151 -0.14842869 0.09905858
v 0.07803367 -0.15408705 0.09797145
v 0.09580333 -0.24437009 0.09040655
v 0.09648968 -0.27889323 0.07994764
v 0.09549307 -0.31033650 0.07138559
v 0.06068709 -0.13528554 0.08808235
v 0.09190153 -0.31373869 0.06932379
v 0.10060772 -0.46114247 0.08743007
v 0.12489293 -0.46071271 0.08882459
v 0.12489293 -0.46071271 0.09154616
v 0.10797884 -0.46150062 0.10064803
v 0.11654401 -0.44875140 0.06027441
v 0.11654401 -0.45197448 0.06027441
v 0.10214024 -0.38002741 0.10745570
v 0.09887776 -0.34242439 0.11049215
v 0.09896239 -0.33300573 0.11047715
v 0.10366335 -0.33300573 0.10743320
v 0.09745808 -0.28591246 0.11046216
v 0.09605719 -0.25232043 0.10899267
v 0.08673986 -0.19527129 0.10930006
v 0.09625463 -0.24222133 0.10069302
v 0.09625463 -0.24222133 0.09668189
v 0.07963200 -0.15408705 0.10408185
v 0.10562836 -0.29869747 0.08919946
v 0.11485166 -0.36545176 0.08034500
v 0.10691643 -0.33300573 0.07851563
v 0.10563776 -0.35535268 0.07087576
v 0.09648028 -0.31663947 0.07068832
v 0.12453565 -0.45147313 0.07029846
v 0.12492113 -0.45211775 0.07585405
v 0.12499636 -0.44620871 0.07607897
v 0.12489293 -0.45709567 0.09154616
v 0.10357874 -0.34242439 0.10743320
v 0.10274196 -0.37064457 0.10741071
v 0.12453565 -0.44950344 0.07029846
v 0.10747114 -0.33300573 0.10272482
v 0.10559075 -0.29887654 0.09991329
v 0.09670592 -0.24881082 0.10393190
v 0.10575999 -0.29816028 0.09467259
v 0.10674719 -0.30474977 0.09467259
v 0.11606451 -0.37064457 0.08526332
v 0.11742780 -0.38002741 0.08526332
v 0.11872526 -0.38944607 0.08526332
v 0.12490233 -0.44595802 0.08383880
v 0.12450745 -0.43954760 0.07937034
v 0.12450745 -0.43954760 0.08197195
v 0.11557561 -0.37064457 0.09188354
v 0.11498329 -0.36341046 0.09079641
f 30 3 29
f 1 5 6
f 5 8 6
f 2 3 1
f 1 6 2
f 2 6 8
f 3 2 7
f 37 8 5
f 53 29 39
f 39 59 53
f 29 8 39
f 29 3 28
f 10 7 2
f 29 28 10
f 3 7 10
f 10 28 3
f 36 37 5
f 8 37 38
f 38 39 8
f 106 105 104
f 92 85 107
f 107 85 106
f 84 85 53
f 84 104 105
f 84 105 106
f 106 85 84
f 33 34 5
f 57 33 56
f 4 5 1
f 4 27 5
f 1 3 4
f 3 27 4
f 5 27 32
f 32 52 56
f 32 33 5
f 56 33 32
f 31 30 29
f 11 3 31
f 3 30 31
f 53 85 86
f 89 86 85
f 9 2 8
f 9 10 2
f 9 8 29
f 29 10 9
f 34 59 35
f 5 34 35
f 35 36 5
f 37 36 61
f 61 38 37
f 36 35 61
f 87 103 102
f 19 3 18
f 120 121 106
f 106 121 119
f 119 107 106
f 58 59 34
f 58 57 59
f 34 33 58
f 33 57 58
f 59 57 83
f 83 57 84
f 53 59 83
f 83 84 53
f 104 84 88
f 84 57 88
f 88 56 87
f 88 57 56
f 56 52 82
f 87 56 82
f 82 103 87
f 22 32 23
f 21 32 22
f 22 23 3
f 3 21 22
f 23 32 24
f 24 32 25
f 3 23 24
f 24 25 3
f 26 32 27
f 25 32 26
f 26 27 3
f 3 25 26
f 52 32 20
f 20 32 21
f 20 3 19
f 20 21 3
f 11 31 40
f 54 31 29
f 54 29 53
f 53 86 54
f 38 61 62
f 59 39 62
f 39 38 62
f 60 35 59
f 60 61 35
f 59 62 60
f 60 62 61
f 106 104 110
f 87 102 110
f 3 16 17
f 17 18 3
f 121 120 118
f 118 119 121
f 107 119 118
f 118 120 106
f 94 93 92
f 52 81 80
f 103 82 80
f 80 82 52
f 51 20 19
f 52 20 51
f 51 81 52
f 19 18 51
f 31 54 55
f 55 54 86
f 108 85 92
f 92 90 108
f 108 90 85
f 109 89 85
f 85 90 109
f 109 90 89
f 91 90 92
f 89 90 65
f 64 86 65
f 86 89 65
f 65 40 64
f 90 91 66
f 40 65 66
f 66 65 90
f 79 102 103
f 103 80 79
f 78 79 49
f 49 79 80
f 92 107 111
f 111 94 92
f 12 3 11
f 12 13 3
f 11 40 12
f 69 42 68
f 68 94 69
f 46 47 15
f 15 47 16
f 15 16 3
f 14 13 42
f 42 43 14
f 3 13 14
f 14 15 3
f 64 40 63
f 63 86 64
f 63 55 86
f 101 110 102
f 102 79 101
f 18 17 50
f 17 49 50
f 50 49 80
f 50 80 81
f 50 51 18
f 81 51 50
f 48 17 16
f 48 49 17
f 16 47 48
f 47 49 48
f 76 49 47
f 94 111 112
f 112 111 107
f 68 42 67
f 67 94 68
f 93 94 67
f 92 93 67
f 67 91 92
f 67 66 91
f 40 66 41
f 41 12 40
f 66 67 41
f 41 67 42
f 42 13 41
f 13 12 41
f 70 43 42
f 42 69 70
f 70 69 43
f 94 112 113
f 113 112 96
f 43 69 71
f 71 69 94
f 97 99 78
f 43 71 44
f 44 14 43
f 15 14 44
f 44 73 46
f 100 79 78
f 100 101 79
f 78 99 100
f 110 101 100
f 100 99 116
f 106 110 100
f 100 118 106
f 78 49 77
f 77 76 78
f 49 76 77
f 78 76 98
f 96 112 114
f 114 97 96
f 99 97 114
f 107 118 122
f 122 112 107
f 95 71 94
f 94 113 95
f 96 73 95
f 95 113 96
f 73 44 72
f 72 44 71
f 72 95 73
f 71 95 72
f 46 15 45
f 45 44 46
f 15 44 45
f 74 97 78
f 78 98 74
f 117 100 116
f 118 100 117
f 123 122 118
f 112 122 123
f 118 117 123
f 75 98 76
f 75 74 98
f 47 74 75
f 75 76 47
f 115 114 112
f 112 123 115
f 115 123 117
f 115 117 116
f 116 99 115
f 99 114 115
f 104 88 110
f 110 88 87
f 31 55 63
f 63 40 31
f 96 97 74
f 74 73 96
f 74 47 46
f 46 73 74

