# https://github.com/mikedh/trimesh
v 0.11599841 -0.46586001 0.12024186
v 0.09924116 -0.45370860 0.08301626
v 0.11845294 -0.45322008 0.08574830
v -0.30726637 -0.45774801 0.04406963
v -0.30723762 -0.45493051 0.04135687
v 0.10583596 -0.44017176 0.09248024
v -0.29987969 -0.44818853 0.04271707
v -0.30897520 -0.44238667 0.03202423
v 0.10625657 -0.44824995 0.06354751
v -0.30230246 -0.44155530 0.05521582
v 0.11617540 -0.43425069 0.07504872
v -0.31758475 -0.42492277 0.04519981
v 0.09411193 -0.43108420 0.08260127
v 0.09987554 -0.41799223 0.06870661
v 0.11472191 -0.42091188 0.08716159
v -0.30270087 -0.41663532 0.03520814
v -0.30260168 -0.40766824 0.06477531
v 0.08909836 -0.43142199 -0.00145014
v 0.09721714 -0.41373709 0.09509576
v -0.29234322 -0.40935088 0.04337334
v 0.10781783 -0.41116813 0.09412017
v -0.33872961 -0.42182499 -0.05343010
v -0.30804492 -0.39967806 0.04034521
v -0.29116847 -0.40298829 0.05885947
v 0.10820797 -0.39736879 0.07450614
v -0.30882172 -0.37450984 0.06248274
v 0.08535222 -0.39990583 0.08694582
v 0.08587128 -0.38539321 0.07782965
v -0.29336242 -0.38957686 0.04108868
v 0.10301070 -0.38650395 0.10158123
v -0.28346725 -0.37125205 0.05625577
v 0.08917783 -0.38449883 0.09878917
v -0.28985534 -0.38084896 0.06433734
v 0.10953814 -0.37460976 0.09336006
v -0.30615398 -0.36699158 0.04734918
v 0.10571238 -0.36801541 0.07737237
v 0.09415837 -0.37458254 0.07045389
v -0.29538804 -0.36583127 0.04081018
v 0.08717763 -0.36974338 0.10414026
v -0.29656413 -0.36156014 0.07287218
v 0.07870785 -0.35785825 0.08799593
v -0.28590949 -0.34092977 0.07574155
v -0.27758712 -0.36172101 0.05125738
v 0.10592087 -0.34139251 0.08502932
v 0.09067795 -0.34725295 0.10485300
v 0.10349122 -0.34072330 0.10034945
v 0.07846735 -0.34686294 0.10110916
v 0.08675418 -0.34682665 0.07378258
v -0.30637361 -0.33790519 0.06184709
v -0.27605978 -0.34418348 0.06069908
v 0.16356727 -0.34180921 -0.27068868
v 0.17352864 -0.34063518 -0.28272080
v 0.09438328 -0.32601305 0.07474628
v 0.15387852 -0.33850174 -0.27747166
v -0.27958365 -0.33963378 0.04737788
v -0.29700821 -0.33116120 0.04964535
v 0.09239175 -0.33113971 0.10679504
v -0.29792894 -0.32310402 0.07596880
v 0.07133973 -0.33377722 0.08911226
v 0.16256511 -0.33613139 -0.29300663
v 0.16135237 -0.34567050 -0.27489862
v 0.16079638 -0.34420700 -0.29654536
v -0.28327388 -0.32513615 0.04942396
v 0.17460337 -0.33844703 -0.31548010
v 0.17587938 -0.33855402 -0.31458311
v 0.07671367 -0.32477239 0.07893804
v -0.28667062 -0.33677589 0.04497113
v -0.27454905 -0.31828946 0.07294908
v 0.15871114 -0.33711752 -0.27306738
v 0.17164069 -0.32082588 -0.27400821
v 0.07208851 -0.31687042 0.10279048
v -0.24577365 -0.32617319 -0.34419093
v 0.15125321 -0.31312151 -0.25248050
v -0.27877254 -0.31781430 0.05209079
v -0.21735350 -0.33145827 0.07182376
v 0.16209088 -0.30700084 -0.25421820
v -0.25162630 -0.31397155 -0.36318081
v 0.15332439 -0.32745904 -0.27004810
v -0.25602152 -0.30888384 -0.34881683
v -0.23321061 -0.31602175 -0.34937937
v 0.10010150 -0.30097525 0.08841572
v -0.23665781 -0.31429253 -0.35962192
v 0.16269414 -0.32561526 -0.25906686
v 0.15920884 -0.31681496 -0.28333021
v 0.14461680 -0.30828914 -0.26678879
v 0.09897738 -0.29903525 0.10043202
v -0.30005910 -0.30860119 0.06125182
v -0.20480174 -0.32023613 0.07393463
v -0.23874716 -0.30241674 -0.35767228
v -0.18614087 -0.31887851 0.07394064
v 0.03837842 -0.31527965 0.08859052
v -0.24584702 -0.30412578 -0.33236287
v 0.06157042 -0.31147025 0.08595769
v -0.07107728 -0.31336580 0.08706124
v -0.15419296 -0.31383560 0.07525367
v 0.08161597 -0.30430363 0.10981335
v -0.28275118 -0.29669201 0.08812993
v 0.00142341 -0.31383171 0.08411102
v 0.02437436 -0.30976501 0.09931288
v 0.07985980 -0.30518117 0.07570917
v 0.16006780 -0.30043546 -0.27687346
v 0.01463878 -0.30510657 0.08107001
v -0.08254112 -0.31559928 0.07375338
v -0.25693621 -0.30583208 0.07267985
v -0.19387598 -0.31099880 0.07244038
v -0.10152442 -0.30918073 0.09009333
v -0.09103832 -0.30930978 0.07310358
v 0.04970225 -0.30535976 0.09844663
v -0.13151592 -0.30909170 0.07126324
v -0.03594237 -0.30846233 0.09510749
v -0.17168031 -0.30543860 0.06734769
v -0.28838895 -0.28850115 0.05551475
v -0.03389006 -0.31115758 0.07984270
v -0.04352789 -0.30658260 0.07534877
v -0.27541310 -0.29735940 0.05702005
v -0.24044335 -0.30811428 0.07170252
v -0.19020293 -0.30280913 0.08578150
v -0.13832964 -0.30059702 0.08968705
v -0.08803861 -0.30963650 0.07668088
v -0.20675428 -0.30262881 0.06542017
v -0.04513865 -0.29952891 0.07547645
v 0.04543729 -0.30056744 0.08731368
v 0.06262082 -0.29791742 0.09939763
v -0.00951852 -0.30208457 0.09710913
v -0.06285902 -0.30418928 0.09643200
v 0.02156962 -0.29967107 0.09608878
v 0.14701221 -0.29510573 -0.27480029
v 0.06829875 -0.29048688 0.08521560
v -0.21220768 -0.29960457 0.08274002
v -0.08192687 -0.30790751 0.08027915
v -0.07408370 -0.29977518 0.07273541
v -0.26997620 -0.29212153 0.07655235
v -0.10520186 -0.30032500 0.06871189
v -0.16697168 -0.29911529 0.08739490
v -0.23722446 -0.30019307 0.06372685
v -0.13799913 -0.29761422 0.07240897
v 0.08988284 -0.28309119 0.10895370
v -0.29609837 -0.28083717 0.07820021
v -0.25256015 -0.29561566 0.06906857
v -0.10282756 -0.29853552 0.04664466
v 0.13805780 -0.28954885 -0.25326624
v -0.10958718 -0.29726081 0.09244610
v -0.17828842 -0.29447207 0.07435282
v -0.03906467 -0.29471555 0.09190093
v -0.07081914 -0.29421753 0.09126250
v -0.01795014 -0.30077450 0.08333714
v -0.01948470 -0.29338131 0.08408796
v -0.08893222 -0.29184100 0.07306781
v -0.29325942 -0.27137167 0.06504353
v -0.22694637 -0.26986919 -0.33696428
v -0.08909539 -0.29281099 0.03780062
v 0.00302295 -0.29534290 0.09073186
v -0.11036992 -0.29149678 0.08553903
v -0.21417934 -0.29213220 0.07512129
v 0.08302434 -0.28590605 0.07861519
v 0.16020239 -0.26285186 -0.24333724
v -0.09761400 -0.29209629 0.01654955
v -0.07914862 -0.29503590 0.09957687
v 0.14557014 -0.26981473 -0.26425864
v -0.10288539 -0.28535784 0.03398464
v -0.28557250 -0.27414133 0.09090422
v -0.14466361 -0.29066374 0.08288320
v 0.15884372 -0.27987805 -0.26645292
v 0.07430712 -0.29193576 0.11532689
v -0.23328040 -0.28453277 -0.32933052
v 0.07294891 -0.28618622 0.10811487
v -0.23624036 -0.27813682 -0.35042438
v 0.13876315 -0.27630396 -0.23521131
v -0.08370851 -0.28372022 0.00389109
v 0.14249041 -0.29080903 -0.25260012
v -0.08882049 -0.28523749 -0.01795214
v -0.26871909 -0.27098004 0.06528343
v -0.09926001 -0.28109313 -0.00947921
v -0.08756427 -0.28010165 0.03626330
v -0.24509177 -0.25290085 -0.33752494
v -0.24429118 -0.28034563 -0.32025530
v 0.06273802 -0.27313072 0.09356512
v -0.09136737 -0.27692524 -0.04506437
v 0.13039571 -0.27458507 -0.24558702
v 0.09023779 -0.27050159 0.08528919
v -0.08083066 -0.27642672 -0.02336765
v -0.09695519 -0.26916977 -0.00515582
v 0.14942328 -0.26656465 -0.23064748
v -0.23365624 -0.26322388 -0.31133112
v -0.07813648 -0.27461372 -0.05231400
v 0.06783071 -0.26113393 0.11155376
v -0.09289406 -0.26996172 0.01246172
v -0.08084043 -0.26704624 -0.01502089
v -0.09592263 -0.26668970 -0.03745355
v -0.07279728 -0.27170129 -0.03578806
v -0.25129171 -0.25215939 -0.32201335
v -0.07359763 -0.26629194 -0.08835213
v -0.08642565 -0.26575350 -0.08478981
v -0.27420090 -0.25328365 0.06034707
v -0.23573587 -0.27056688 -0.30966218
v -0.07773512 -0.27053302 -0.10030412
v -0.06849780 -0.26152317 -0.06416590
v 0.06265401 -0.25310213 0.08922598
v -0.23809874 -0.25879492 -0.34322769
v 0.08895139 -0.23827709 0.10525372
v 0.07631126 -0.25452939 0.08300484
v -0.07698474 -0.26760088 -0.10179587
v -0.26193179 -0.25594569 0.07894872
v -0.09004196 -0.25333348 -0.08763177
v 0.07847171 -0.24477520 0.11527924
v -0.07609118 -0.25670562 -0.04327870
v -0.07965891 -0.26048240 -0.10994179
v -0.08627949 -0.25506027 -0.03305829
v 0.15495260 -0.25472435 -0.25378146
v -0.29008812 -0.23920846 0.08316262
v 0.13328066 -0.24703617 -0.21907767
v -0.08841832 -0.24787659 -0.07098400
v 0.13809472 -0.25500664 -0.25768780
v -0.22186270 -0.23561503 -0.30731370
v -0.23449936 -0.26188001 -0.30526562
v -0.06678270 -0.25666133 -0.11651973
v -0.28062370 -0.23978802 0.09397928
v 0.12532918 -0.25491337 -0.23529631
v -0.07654315 -0.25055940 -0.13054202
v 0.14394637 -0.22451590 -0.21252742
v -0.22094088 -0.23182331 -0.32544909
v -0.06430057 -0.24642407 -0.09098359
v 0.05784529 -0.23676724 0.10599933
v -0.24550495 -0.22426199 -0.30126298
v -0.05878570 -0.24393561 -0.12117131
v 0.08828622 -0.23789603 0.09206962
v -0.23449443 -0.23730531 -0.29839502
v -0.08058059 -0.24630665 -0.05878099
v -0.05962549 -0.24584089 -0.14102050
v -0.26387740 -0.23908439 0.07094534
v -0.26778752 -0.22983851 0.09792026
v -0.07308541 -0.24349571 -0.07482313
v 0.12110668 -0.24188022 -0.23579739
v -0.23060598 -0.23474240 -0.33257227
v 0.13931748 -0.23109510 -0.24834751
v -0.06618277 -0.24484921 -0.15916563
v 0.12188394 -0.23899173 -0.21828694
v -0.08169405 -0.23896785 -0.10896811
v -0.28370223 -0.22563915 0.07143583
v -0.25310199 -0.21110180 0.08177510
v -0.26485429 -0.22412438 0.06755351
v 0.14896819 -0.21610910 -0.23315561
v -0.07522635 -0.23548970 -0.15486092
v -0.06673809 -0.23696080 -0.18622710
v -0.07854711 -0.24191502 -0.05554461
v 0.06042473 -0.22983497 0.09088362
v -0.07100082 -0.23680283 -0.09846749
v -0.05422144 -0.23254538 -0.18346752
v -0.05402593 -0.22971908 -0.15607001
v -0.07442961 -0.23194768 -0.13240916
v 0.06816144 -0.21796956 0.08672477
v 0.06479642 -0.22063482 0.11579120
v 0.11155679 -0.22676602 -0.22225501
v -0.06709959 -0.22768909 -0.12438220
v -0.05702786 -0.23119864 -0.21940111
v -0.06985723 -0.22229628 -0.16407725
v -0.06837963 -0.21984856 -0.17855071
v -0.05752836 -0.22675583 -0.21438758
v -0.27376942 -0.21289311 0.10008372
v -0.05265790 -0.22456811 -0.26493955
v -0.23229683 -0.21175479 -0.32351087
v 0.12027107 -0.21269606 -0.20422093
v -0.05378029 -0.22365325 -0.24010883
v -0.07268537 -0.22775900 -0.14101761
v -0.06877911 -0.22079083 -0.20019817
v 0.11725128 -0.22041972 -0.23263477
v -0.06306825 -0.22136930 -0.15291809
v -0.05123254 -0.21989071 -0.19517457
v -0.24484856 -0.21295248 -0.31338143
v -0.02833066 -0.22280282 -0.25546554
v 0.05255085 -0.20504434 0.10533510
v -0.23303457 -0.20572431 -0.28479360
v 0.07840637 -0.22147436 -0.24085576
v 0.06845764 -0.22294689 -0.24195724
v -0.06243653 -0.21570299 -0.22894982
v -0.06986615 -0.21691868 -0.26274727
v 0.07995429 -0.19855781 0.09606915
v -0.06064534 -0.21646067 -0.24863757
v 0.01283168 -0.21874499 -0.24518282
v 0.01027719 -0.21921169 -0.25740107
v -0.07060580 -0.21663393 -0.27407265
v 0.08271403 -0.21459560 -0.24538252
v 0.07747972 -0.20322445 0.11356229
v 0.04698199 -0.21599509 -0.25266149
v -0.21292214 -0.19810802 -0.30138038
v -0.04511416 -0.21239426 -0.27305498
v -0.00950205 -0.21909894 -0.25055102
v -0.03970956 -0.20585808 -0.24903136
v -0.07112274 -0.22054040 -0.26585412
v 0.03974471 -0.21809724 -0.23752162
v 0.10237325 -0.21454500 -0.23736442
v 0.06890334 -0.21652643 -0.22844120
v 0.09425662 -0.21409446 -0.22721787
v -0.06123187 -0.21066523 -0.20860274
v 0.13789994 -0.19739308 -0.23107401
v -0.00139051 -0.21026529 -0.23997351
v -0.21828929 -0.20198540 -0.31340395
v -0.26383352 -0.20213413 0.10386338
v 0.11259467 -0.20755930 -0.22089414
v 0.01612636 -0.21850198 -0.23761111
v 0.03083009 -0.21305476 -0.23456967
v -0.08849762 -0.21430813 -0.27612787
v -0.28421305 -0.20971752 0.09267714
v -0.08415239 -0.21094195 -0.26496224
v -0.06767336 -0.21793526 -0.19787536
v -0.06973184 -0.20469001 -0.25367510
v 0.14497807 -0.19641397 -0.20894782
v -0.10214389 -0.21340502 -0.27643200
v 0.01221919 -0.20878595 -0.26294463
v -0.05076627 -0.20583067 -0.23142722
v -0.11123174 -0.21180963 -0.28472611
v -0.02394524 -0.20630293 -0.26868397
v -0.09283862 -0.21424974 -0.28450037
v -0.06065563 -0.21471202 -0.16558411
v -0.02604688 -0.20906220 -0.24578877
v -0.09081349 -0.21336488 -0.26455099
v -0.13924839 -0.21046977 -0.28731097
v -0.12459430 -0.20728198 -0.27138272
v 0.06347116 -0.20568502 -0.23165916
v -0.06398562 -0.20779274 -0.27901896
v -0.14902023 -0.20806538 -0.27630400
v -0.10796328 -0.20630857 -0.26751288
v 0.08729013 -0.20607176 -0.23020190
v 0.05363088 -0.21137500 -0.23359512
v -0.25621562 -0.19424140 0.07752441
v 0.05943739 -0.20461837 -0.24533577
v -0.27435781 -0.19309502 0.07379114
v 0.06322557 -0.19038417 0.11843654
v 0.05609427 -0.19648711 0.09178640
v 0.12353534 -0.18174044 -0.22560180
v -0.16714207 -0.20731418 -0.28472188
v -0.16001487 -0.20920975 -0.27967961
v -0.09366463 -0.20145533 -0.26054506
v 0.01183860 -0.20402655 -0.23774233
v -0.25715062 -0.20815725 0.08100837
v -0.08271501 -0.19828702 -0.27778828
v -0.17900865 -0.20181229 -0.28009844
v 0.04531400 -0.20312086 -0.23619440
v 0.11060849 -0.20107358 -0.20692532
v -0.05710602 -0.19867378 -0.25160726
v -0.27708689 -0.17833559 0.08322570
v -0.12467156 -0.20199389 -0.28977513
v -0.24925291 -0.17643327 0.09041496
v -0.17783215 -0.19902921 -0.29485564
v -0.14468179 -0.19791369 -0.27144704
v -0.19731194 -0.20035850 -0.29329511
v -0.01364106 -0.19808037 -0.25001587
v -0.21170853 -0.18736443 -0.29052358
v -0.01984686 -0.20379925 -0.27128712
v -0.26087634 -0.18341190 0.07317347
v 0.02456768 -0.19954871 -0.24978148
v -0.16942324 -0.20333864 -0.28842350
v -0.03020400 -0.19597826 -0.26423562
v -0.05479935 -0.20308551 -0.27840936
v -0.20878174 -0.20181913 -0.28902137
v -0.12297087 -0.19383507 -0.26994362
v -0.14883411 -0.19331422 -0.28554956
v -0.09089340 -0.19437684 -0.26754606
v -0.23446646 -0.18041443 -0.30879783
v -0.06338939 -0.19431063 -0.26608223
v -0.23984330 -0.17413570 -0.29381914
v -0.14849212 -0.20021251 -0.28204111
v -0.22166292 -0.18487967 -0.31072349
v -0.10659953 -0.19367897 -0.28011052
v -0.19625501 -0.19303935 -0.28859354
v 0.12144784 -0.18239698 -0.18901276
v -0.22230738 -0.18773246 -0.27777966
v -0.16994660 -0.19111818 -0.28378191
v 0.04187837 -0.19620401 0.07023088
v -0.27220971 -0.18359763 0.10356593
v 0.10897552 -0.18652588 -0.19791537
v 0.10983504 -0.18412740 -0.21082965
v -0.25778307 -0.17324003 0.10730863
v -0.23534905 -0.17599204 -0.27783903
v 0.04665706 -0.16908935 0.10763549
v 0.13001291 -0.16057700 -0.18438560
v 0.06774322 -0.17656734 0.09296368
v 0.07303088 -0.16281075 0.11388172
v 0.07549757 -0.15637286 0.10631599
v 0.05132398 -0.16597796 0.09469712
v 0.13607571 -0.16574762 -0.20877317
v -0.21651258 -0.16655062 -0.30020040
v 0.10246455 -0.16723829 -0.19539161
v -0.27582860 -0.16691329 0.09697209
v -0.26775763 -0.17962801 0.10332237
v 0.10570270 -0.16240462 -0.18279341
v -0.26399036 -0.16109801 0.10844769
v -0.21109744 -0.15474031 -0.27099218
v -0.22299004 -0.16014185 -0.26411533
v 0.05772058 -0.16053032 0.12119492
v 0.11674806 -0.15532788 -0.21288411
v 0.12282874 -0.10894224 -0.17717408
v -0.25733972 -0.15420827 0.08142576
v -0.23661041 -0.13897467 -0.27296585
v -0.25267891 -0.15054806 0.10720905
v 0.06800780 -0.15092155 0.09688351
v 0.11146950 -0.14946855 -0.17425167
v -0.22938847 -0.13977750 -0.29025491
v -0.26796171 -0.12536386 0.10150946
v 0.12280367 -0.13774445 -0.20093982
v 0.06090020 -0.13550003 0.11897260
v -0.24462124 -0.14383446 0.09478621
v -0.22161740 -0.14317094 -0.29400318
v 0.09906684 -0.14401858 -0.18857243
v -0.20548999 -0.13232308 -0.27276284
v 0.04125377 -0.13190670 0.11062101
v -0.25908388 -0.13545504 0.11038089
v 0.09860684 -0.13193466 -0.16903071
v 0.05310942 -0.13896688 0.09425361
v 0.04732623 -0.13796951 0.12076656
v -0.22917962 -0.12692932 -0.25508820
v -0.25254834 -0.12567962 0.08645545
v -0.25941293 -0.10494525 0.09279643
v -0.21737233 -0.11540250 -0.24487414
v 0.10357650 -0.12210518 -0.19128492
v -0.21486193 -0.13023626 -0.24388367
v -0.23984432 -0.12644694 0.10419847
v 0.05806866 -0.12224468 0.09861687
v -0.21451509 -0.12581495 -0.28530809
v 0.09307289 -0.11683698 -0.17352104
v -0.26366112 -0.13223176 0.11131327
v -0.20313804 -0.08454115 -0.23806110
v 0.04004829 -0.12274598 0.10348592
v -0.22838058 -0.10484885 -0.26945751
v 0.05184361 -0.11594058 0.12517929
v 0.05895014 -0.10500525 0.10293793
v 0.10374525 -0.12109857 -0.15963299
v -0.25144580 -0.11093189 0.11643382
v -0.21818662 -0.12135951 -0.24126411
v -0.23602267 -0.11179566 0.10004548
v -0.23022540 -0.10393580 -0.25381419
v 0.04214937 -0.11943202 0.11185638
v 0.09623689 -0.11901577 -0.18547711
v 0.09049240 -0.09969921 -0.15798395
v 0.10223951 -0.08885606 -0.18011782
v 0.11243237 -0.09272959 -0.15466016
v 0.04547485 -0.09806481 0.09871916
v 0.05883443 -0.09242561 0.11581632
v -0.20184193 -0.09286056 -0.25747182
v 0.03521089 -0.09573383 0.11236505
v 0.04602160 -0.09984561 0.12787295
v 0.08912027 -0.09435083 -0.16674070
v -0.21395350 -0.08909339 -0.26872987
v -0.23351260 -0.09289075 0.10494676
v -0.25458278 -0.09343858 0.11356184
v -0.21412309 -0.09513565 -0.23548581
v 0.09699704 -0.09271777 -0.14738685
v -0.21434837 -0.10256927 -0.27954486
v -0.22159274 -0.10080726 -0.23557050
v 0.04158443 -0.08670492 0.13406191
v -0.22709604 -0.08467046 -0.24279840
v 0.05369257 -0.07941032 0.10538256
v 0.03450443 -0.08380726 0.12405216
v -0.24345431 -0.07832740 0.09637219
v -0.21994523 -0.06054762 -0.24979677
v -0.23450677 -0.07862314 0.11105423
v 0.09142939 -0.07635085 -0.14063326
v -0.24475963 -0.07474263 0.12378389
v -0.22811263 -0.08633751 0.11845438
v 0.05511142 -0.07159097 0.12028427
v -0.20858436 -0.08037951 -0.22640537
v 0.08009534 -0.06930365 -0.15210961
v -0.25217579 -0.06722238 0.10198054
v 0.04916032 -0.06618563 0.14156139
v -0.21190677 -0.07451530 -0.22776013
v 0.08684951 -0.08205150 -0.13422237
v 0.02150740 -0.07712970 0.13951496
v -0.20701808 -0.06115648 -0.25246156
v 0.10852953 -0.05527631 -0.14668999
v 0.03791857 -0.06508802 0.10352555
v 0.05060314 -0.06848435 0.13114337
v -0.23796462 -0.07970413 0.11964663
v -0.20583837 -0.07941575 -0.26378811
v 0.09174490 -0.05407020 -0.16212284
v 0.03001038 -0.06658880 0.11696571
v -0.20837787 -0.07619350 -0.22081286
v 0.02827240 -0.07636650 0.11834864
v 0.07590944 -0.06959895 -0.13968211
v 0.08890296 -0.05873414 -0.13357411
v -0.25397766 -0.06255892 0.12134852
v -0.24171877 -0.05740747 0.09929067
v -0.19933231 -0.05286544 -0.22193318
v -0.16991769 -0.07041869 0.18120088
v 0.09219574 -0.04000285 -0.12714920
v -0.21247412 -0.06882126 -0.22491699
v -0.19538056 -0.04605628 -0.23283996
v 0.10238281 -0.04544695 -0.15145686
v -0.08980739 -0.06699679 0.18945186
v -0.16974693 -0.06012528 0.15893276
v 0.01742640 -0.07084602 0.15966688
v -0.19189522 -0.06522220 0.18431676
v -0.02671873 -0.05994216 0.14573190
v -0.03443462 -0.06255689 0.18035532
v 0.08402840 -0.05332204 -0.15210428
v -0.24279065 -0.05850704 0.12781720
v -0.22019532 -0.05590313 -0.22495965
v 0.02954813 -0.06667676 0.12673112
v -0.06914800 -0.06433797 0.18730501
v -0.20115162 -0.06261200 0.17293189
v 0.06131940 -0.06346801 0.15308688
v -0.02122717 -0.05655286 0.18586226
v 0.06505253 -0.05409321 0.12444373
v -0.14662203 -0.06372012 0.19187562
v -0.11164055 -0.06328488 0.18563254
v -0.12635340 -0.06119811 0.17865860
v -0.23649387 -0.06357352 0.17595362
v -0.16615678 -0.05524338 0.19870301
v 0.00219005 -0.05806882 0.12133922
v -0.18331393 -0.04455587 0.14046165
v -0.23234330 -0.06044369 0.16604095
v -0.24724012 -0.06353751 0.11989788
v -0.16403624 -0.05842026 0.18259845
v -0.07825655 -0.05762634 0.16745203
v -0.03377291 -0.05679168 0.15842712
v 0.03411362 -0.06248753 0.14657664
v 0.02362393 -0.05220402 0.17091798
v -0.20851662 -0.05491508 0.18359600
v 0.07458636 -0.06144500 0.13990889
v -0.13947663 -0.05923486 0.20010431
v -0.26228363 -0.05962503 0.16890387
v -0.07631958 -0.04577222 0.19966953
v 0.04452949 -0.04738549 0.10330016
v 0.07634228 -0.04695213 -0.13593841
v -0.23380916 -0.04800820 0.17997143
v 0.08537964 -0.05158026 0.15472087
v -0.02283960 -0.04958595 0.12514732
v 0.07591297 -0.03356626 -0.14202218
v -0.22980371 -0.04864965 0.11508731
v 0.05726758 -0.05399756 0.11790836
v 0.02805616 -0.05614817 0.13772482
v -0.04971740 -0.05653106 0.14988393
v 0.07718863 -0.05658151 -0.13413543
v 0.09777994 -0.04517594 0.13723370
v 0.03517089 -0.05781975 0.13277713
v -0.23555707 -0.05128765 0.16846451
v 0.02629635 -0.04809072 0.10856674
v -0.16246637 -0.05508033 0.17062300
v -0.18842369 -0.05033452 0.15879582
v 0.05887527 -0.05702888 0.14217190
v -0.13650096 -0.05356213 0.16349404
v 0.09768486 -0.05215464 0.12537948
v -0.00669709 -0.04534193 0.11484589
v -0.11495503 -0.04667868 0.19901697
v -0.13744847 -0.03271165 0.19908417
v -0.06726680 -0.04846838 0.13367228
v 0.00888687 -0.05499202 0.14921890
v -0.23244017 -0.04167429 0.13141516
v -0.20888613 -0.05171801 0.16453557
v -0.09188485 -0.04849604 0.13996461
v -0.03630009 -0.03870569 0.19450553
v -0.00033750 -0.03334812 0.18519154
v -0.26493442 -0.04681840 0.16481063
v 0.09736195 -0.04909146 0.10527214
v -0.00339488 -0.05296088 0.13773725
v -0.11003079 -0.04684202 0.13434872
v -0.13319163 -0.04540266 0.13119924
v -0.19133745 -0.03134264 0.19254260
v -0.16741598 -0.04142517 0.12748538
v -0.24191261 -0.05300951 0.09911186
v -0.25001218 -0.03209319 0.10863135
v -0.25690337 -0.05218426 0.12676501
v -0.20921494 -0.03427884 0.18866542
v -0.01557747 -0.03712791 0.18232814
v -0.02719887 -0.05111126 0.18137587
v -0.04233258 -0.04564708 0.11974238
v 0.02379022 -0.05045828 0.12314685
v -0.22313408 -0.04532907 0.15022572
v 0.01642337 -0.05092552 0.14230288
v 0.09717312 -0.05049176 0.13492663
v -0.26430281 -0.04812282 0.14091470
v -0.25182912 -0.03717039 0.12407535
v 0.10740328 -0.04565967 0.08569284
v -0.25744875 -0.04182549 0.13672037
v -0.21958662 -0.04864999 0.18153138
v -0.25114385 -0.04658181 0.15365766
v 0.04173548 -0.04343153 0.09169651
v 0.01016014 -0.04147226 0.10595739
v -0.10508526 -0.03466356 0.19894682
v 0.05253531 -0.04174528 0.08438814
v 0.09929036 -0.04879501 0.13297338
v -0.20765463 -0.03865113 -0.21187367
v 0.08180859 -0.04421586 0.09149019
v 0.06546895 -0.02949623 0.16030606
v 0.02362637 -0.04615794 0.11392689
v -0.21692690 -0.03291599 -0.21722887
v 0.07922344 -0.03068434 0.16052595
v -0.27462967 -0.04179575 0.14464962
v -0.28824237 -0.03934062 0.15572790
v -0.14694850 -0.04120721 0.12529725
v -0.19800770 -0.04045187 0.13418591
v -0.22730471 -0.03748106 0.11082131
v -0.16762087 -0.03189269 0.19600620
v -0.00254050 -0.04498376 0.17465138
v -0.04430611 -0.04607349 0.18602140
v 0.02618307 -0.04138251 0.09049780
v -0.01169190 -0.03833978 0.09245632
v -0.10808762 -0.04471999 0.19307787
v 0.06895225 -0.03807696 0.07344551
v -0.29264802 -0.03749297 0.14055868
v 0.11336369 -0.03119995 0.11233989
v 0.12500666 -0.03888196 0.07697031
v 0.00664702 -0.04060265 0.08920247
v -0.25048508 -0.03330811 0.17692102
v -0.03343136 -0.04244527 0.18363264
v 0.10065143 -0.03978713 0.06893523
v -0.19772270 -0.03470035 0.11136554
v 0.00284147 -0.03235972 0.06490921
v 0.11592476 -0.04185397 0.06727869
v -0.19929708 -0.02111002 -0.23263247
v -0.24888037 -0.04089603 0.11854661
v 0.08983187 -0.03574524 0.15096638
v -0.27087830 -0.02754470 0.16718932
v 0.03698302 -0.02935101 0.17005162
v -0.10564351 -0.03756486 0.10336798
v -0.07841608 -0.03457354 0.08890384
v 0.05169775 -0.03996976 0.06727963
v -0.21437021 -0.00572294 -0.21651147
v 0.10014400 -0.03930082 0.05729233
v 0.11215946 -0.03541640 0.05489302
v -0.04279668 -0.03476291 0.08614206
v -0.08282220 -0.03126221 0.19343687
v -0.27110229 -0.03338730 0.11762266
v 0.06960755 -0.02164450 -0.13096703
v -0.14255492 -0.03242169 0.09309385
v -0.19326297 -0.02241327 -0.21336751
v 0.03713793 -0.03429629 0.06823597
v 0.00859868 -0.03741975 0.06677169
v 0.11768457 -0.03187515 0.04457800
v 0.08119793 -0.01422451 -0.14200713
v -0.28865075 -0.03251115 0.12071351
v -0.17953861 -0.03732300 0.19104091
v 0.09221457 -0.03276473 0.05031519
v 0.07676387 -0.02174157 -0.11819961
v -0.05280082 -0.03207257 0.19269455
v -0.17566330 -0.03245641 0.09834649
v 0.06909876 -0.03191297 0.05234485
v 0.09714838 -0.03576600 0.03238587
v 0.12805264 -0.02337656 0.08523665
v -0.08123921 -0.03150145 0.17365514
v 0.05335444 -0.03523240 0.03875926
v -0.04436267 -0.03318399 0.18103346
v -0.09677023 -0.03297752 0.18514926
v -0.06682225 -0.03255224 0.18201624
v 0.10861489 -0.03527798 0.12699650
v -0.22899611 -0.03405076 0.18171414
v -0.11169998 -0.02838984 0.17445848
v -0.11887363 -0.03194183 0.18703431
v 0.10701527 -0.02960661 0.03688985
v 0.13755316 -0.02999494 0.03872888
v -0.01818905 -0.02839552 0.16701561
v -0.20493529 0.00075022 -0.22275391
v -0.23499031 -0.02588058 0.18077178
v 0.10233568 -0.01920795 0.12764448
v -0.22243663 -0.03118844 0.09803955
v -0.08483299 -0.03290702 0.16865812
v 0.01005340 -0.02975952 0.17292852
v -0.02932909 -0.02857724 0.06256982
v -0.26271200 -0.02880060 0.09806836
v -0.23955787 -0.03295502 0.17940938
v -0.29305037 -0.01975125 0.15046388
v -0.04876477 -0.02959047 0.16860937
v -0.30270774 -0.02889670 0.12098216
v 0.01473680 -0.02647424 0.13305459
v 0.09009310 0.01290396 -0.11814490
v -0.09581061 -0.03268146 0.18395788
v -0.09109361 -0.03301954 0.18253938
v 0.02892115 -0.02892649 0.04930490
v -0.21363096 -0.02540058 0.07952640
v -0.26272962 -0.03165305 0.18547289
v 0.12170935 -0.02650316 0.02667717
v -0.13953260 -0.02896439 0.18999674
v -0.15309048 -0.02542949 0.07766399
v -0.18512464 -0.02716554 0.18109968
v 0.00121457 -0.02349864 0.01734952
v -0.09065882 -0.02572034 0.06025260
v -0.21058401 -0.02084856 -0.20470013
v -0.17635902 -0.02761007 0.08268176
v 0.01698788 -0.02888989 0.03335951
v 0.07870438 -0.03035000 0.03323888
v -0.24433242 -0.02569283 0.08321007
v -0.05397250 -0.02385794 0.04935205
v 0.11546627 -0.02334989 0.01410414
v -0.13519713 -0.02350618 0.16958990
v 0.05704723 -0.02725379 0.03588941
v 0.07776450 -0.02844377 0.13728613
v 0.01845940 -0.02979398 0.03822986
v 0.01842575 -0.02446890 0.15804582
v -0.06651600 -0.02487315 0.16108328
v -0.28849444 -0.02275782 0.08921409
v -0.14203322 -0.02508629 0.06740746
v -0.15380620 -0.02535081 0.16822227
v -0.00294903 -0.02496574 0.14721716
v -0.30836875 -0.02706790 0.11995100
v 0.11136464 -0.02735573 0.00763939
v 0.00202837 -0.02791279 -0.16866562
v -0.20130493 -0.01111304 -0.19626113
v 0.00014156 -0.02260694 0.03578291
v 0.13731349 -0.02373029 0.01184647
v -0.21838323 -0.02325053 0.17485516
v 0.07656398 -0.02476159 0.01980227
v -0.10033590 -0.02068455 0.15051826
v -0.24723462 -0.02771503 0.18038688
v -0.00038669 -0.01993984 0.12854177
v -0.04200933 -0.02074700 0.14270238
v -0.26420896 -0.02155384 0.16819704
v 0.06913338 -0.02613547 0.16858038
v 0.04585881 -0.02419599 0.15656587
v 0.08246291 -0.02259927 0.13986002
v -0.18786546 -0.02191762 0.06925827
v -0.02826282 -0.02033219 0.03132625
v 0.12684049 -0.01969614 -0.00122228
v -0.01287188 -0.02317251 0.02289801
v 0.07841798 -0.01925231 0.12566688
v 0.02220720 -0.01830698 0.14201153
v 0.03609511 -0.02052672 0.02055182
v -0.16909929 -0.01813909 0.05151707
v 0.06272194 -0.01572115 0.14393531
v -0.20574472 -0.01948534 0.05800783
v -0.24299137 -0.02368951 0.17950689
v -0.12826659 -0.01960189 0.04411594
v 0.05920447 -0.01922675 0.00979997
v 0.10643837 -0.01660668 -0.00256854
v -0.26980406 -0.01899454 0.07293627
v 0.07250839 -0.02279799 -0.13420124
v -0.20570190 -0.01900823 0.15584177
v -0.23266385 -0.01699281 0.06133489
v -0.02404609 -0.01901106 0.01498688
v -0.30103805 -0.00868402 0.12084833
v 0.01531530 -0.01660068 0.01672594
v 0.08430740 -0.02224696 0.12637786
v -0.24368676 -0.01592044 0.14932097
v 0.11712722 -0.01294502 0.10437486
v -0.16658118 -0.01620820 0.14380880
v 0.08072844 -0.01568528 -0.00337330
v -0.08146143 -0.01926397 0.03632555
v -0.12732367 -0.01735101 0.14309465
v 0.03006840 -0.01479729 0.00065478
v 0.14145354 -0.01383559 -0.01893571
v -0.29852112 -0.01689081 0.06782802
v 0.03579759 -0.01507019 0.11354581
v -0.27549493 -0.01375012 0.14210198
v -0.28073760 -0.01447215 0.05703463
v -0.04596582 -0.01598866 0.01837829
v 0.06195857 -0.01679030 0.12652895
v -0.25894002 -0.01605003 0.05915805
v -0.22612809 -0.01288572 0.04123766
v 0.07799865 -0.00358470 0.14740716
v 0.03289592 -0.01292593 -0.01290512
v -0.10782106 -0.01126965 0.01466343
v 0.06957715 -0.00443409 -0.10579049
v -0.08606398 -0.01294590 0.01691814
v -0.07196660 -0.01190958 0.11733565
v 0.14924580 0.00402015 -0.01692043
v -0.16585564 -0.01299993 0.03098588
v -0.00996871 -0.01137182 -0.00685260
v 0.13372079 -0.00814051 -0.03223259
v -0.19399677 -0.01245374 0.03811328
v 0.07784181 0.00551381 -0.10119740
v -0.01531723 -0.00711932 0.09244467
v -0.21085835 -0.00235541 -0.19813781
v -0.23006523 -0.00945296 0.12579751
v -0.19699150 0.00060630 -0.19506180
v -0.20036950 -0.01005414 0.12505302
v 0.06609868 -0.01058408 0.11525467
v 0.05879523 -0.01068048 -0.01829150
v 0.09866637 -0.00514380 0.10845968
v -0.14893133 -0.00903275 0.01382583
v -0.11994668 -0.00995055 0.11740984
v 0.08692066 -0.00576101 0.11598567
v 0.04013108 -0.01419424 -0.03367549
v 0.00790787 -0.00991901 0.09918865
v -0.03230573 -0.00927155 -0.00880633
v -0.25673813 -0.01067094 0.03911635
v -0.30030529 -0.00107562 0.04272016
v 0.02111713 -0.01363715 -0.04844849
v -0.19646662 -0.01329164 -0.19006862
v -0.12782386 -0.00972597 0.01057954
v 0.00988481 -0.00603692 -0.02314735
v 0.08944750 -0.00899281 -0.03354328
v -0.23529462 -0.01347777 0.15269263
v -0.07399174 -0.00746652 -0.00555871
v -0.20912373 -0.00995114 0.02850361
v -0.18650059 -0.00666648 0.01557604
v 0.14554667 0.00453094 0.02671056
v 0.13215167 -0.00212638 0.06773152
v 0.05432440 -0.00874288 0.09351383
v 0.08097282 -0.00964203 0.09931391
v 0.11520565 -0.00800020 -0.03504760
v -0.04542310 -0.00375192 0.08435470
v -0.28857570 -0.00762419 0.04100396
v 0.04095813 -0.00513261 -0.03465658
v -0.23299914 -0.00730534 0.01928423
v -0.02298261 -0.00913434 -0.05206112
v 0.06333523 -0.00491306 -0.04351267
v -0.25736876 -0.00500090 0.11059463
v 0.09219827 -0.00205833 0.09317399
v -0.29189797 -0.00413962 0.02052086
v 0.11912641 -0.00455033 0.08756055
v 0.09075987 -0.00829451 -0.05650586
v 0.02558641 -0.00282331 -0.04366371
v -0.15706845 0.00193191 0.08017525
v 0.13180878 -0.00553316 -0.04649446
v -0.25988793 -0.00308434 0.01634654
v -0.28414201 -0.00165725 0.09869178
v 0.07171935 0.00616849 0.14038294
v 0.06616265 0.00220702 -0.12223800
v -0.26569161 -0.00844949 0.02356038
v 0.08662502 -0.00300927 -0.05076193
v -0.10266823 0.00086680 0.07751514
v -0.18877533 0.00916530 -0.20581912
v -0.04097476 -0.00121112 -0.03195270
v 0.04557447 -0.00088242 0.06106274
v 0.07233116 -0.00262638 0.07478512
v -0.16317331 -0.00316754 -0.00015203
v 0.09934614 -0.00019249 -0.06250095
v 0.12193808 -0.00131747 -0.06199807
v 0.02252264 -0.00706553 -0.05109512
v -0.21939362 -0.00329446 0.00753076
v 0.09822918 -0.00399121 0.07704435
v 0.14128332 0.00002958 -0.06428838
v -0.00884853 -0.00167797 -0.03733325
v -0.18646417 -0.00085173 0.09230165
v -0.13778540 -0.00199815 -0.01471372
v -0.27295300 -0.00245927 0.02573037
v -0.10585909 -0.00151585 -0.01931370
v 0.07713714 -0.00536302 -0.05049712
v 0.08856914 -0.00479573 -0.05147861
v 0.01081049 -0.00031936 0.06445808
v -0.22295935 0.00397670 0.07774325
v 0.00899562 0.00105260 -0.04573893
v 0.03698787 0.00199143 -0.05975605
v 0.06304583 0.00111519 -0.08114159
v -0.06777717 0.00368048 -0.04484953
v -0.23626660 0.00154571 -0.00451462
v 0.12144738 -0.00368601 -0.05210613
v -0.18836914 -0.00091272 -0.00705713
v 0.11790864 0.00019012 0.06795357
v 0.10987978 0.00184863 -0.07694233
v -0.29871418 0.00446492 0.07660535
v -0.22015562 0.00410982 -0.01896378
v 0.07301089 -0.00103050 -0.06649662
v 0.06987219 0.00299255 0.12841193
v 0.01177579 0.00371887 -0.05952468
v -0.29312437 0.00449498 -0.00466769
v 0.14587750 0.01695732 -0.06625683
v 0.06772556 0.00259381 -0.06667678
v -0.27085612 0.00264760 -0.00420153
v 0.13139847 0.00866984 0.03437640
v -0.21008644 0.01290759 -0.19271308
v 0.08042892 0.01473601 0.16178301
v -0.03334269 0.00445587 -0.05495472
v -0.25462493 0.00555404 -0.01524890
v 0.08557196 0.00464912 0.04602355
v 0.00840001 0.00049475 -0.08170100
v 0.11167799 0.00361282 0.05644838
v -0.10662032 0.00531297 -0.04311226
v 0.08174945 0.00761483 -0.08634357
v -0.19200696 0.00640346 -0.02660642
v -0.16760710 0.00429846 -0.02962589
v -0.13998258 0.00566498 -0.03720035
v -0.02975693 0.00168000 -0.03771348
v 0.04717465 0.00584838 -0.08121184
v -0.25676539 0.00673162 0.06884025
v -0.01528178 0.00624932 -0.06769607
v 0.12033613 0.00364162 -0.09038824
v 0.12952521 0.00670691 -0.09006236
v -0.04091231 0.00999269 -0.07240811
v 0.03390911 0.00318287 -0.09744287
v 0.02905196 0.00989461 -0.10025738
v 0.08948928 0.01506028 -0.10637274
v 0.12066808 0.01179116 0.04436914
v 0.09633424 0.01690072 0.12382273
v 0.05829521 0.01368378 -0.10650982
v 0.02525848 0.00804806 -0.07541261
v 0.07656035 0.01849725 -0.13269492
v -0.18196220 0.00820193 -0.04260236
v 0.11168293 0.00955128 0.02852187
v 0.08232150 0.01082163 0.01535669
v 0.12167913 0.00546639 -0.09433549
v -0.22250860 0.00890265 -0.03332307
v -0.29033973 0.01580682 -0.02823517
v -0.25877911 0.00589800 -0.00147559
v -0.02986859 0.02319340 -0.01120844
v -0.08896788 0.01183173 -0.06627861
v -0.28061125 0.01363669 -0.04151199
v -0.12339993 0.01027252 -0.05855219
v 0.13345739 0.01323605 -0.10762711
v 0.11004037 0.02929772 0.07562198
v 0.10866553 0.00947078 -0.09339102
v 0.13478940 0.01488310 0.01871659
v 0.07579836 0.00672698 0.13761286
v -0.29601958 0.01530585 0.03709516
v -0.19514541 0.01966074 -0.18907712
v 0.01595165 0.01269926 -0.09018942
v -0.06401124 0.01234607 -0.07147605
v -0.00173913 0.01038617 -0.08244330
v 0.09288621 0.03191742 0.11802988
v -0.26570240 0.01254497 -0.03058333
v -0.16037233 0.01473263 -0.06755644
v -0.14917196 0.01807269 0.02184919
v 0.07306360 0.02743118 0.16366781
v -0.20150310 0.01422058 -0.05788981
v -0.02885976 0.01440744 -0.08914159
v 0.11405800 0.02851348 0.08774705
v -0.23662056 0.01545655 -0.05147189
v 0.03709881 0.01551257 -0.10809715
v 0.00016716 0.01579226 -0.10152199
v 0.11654541 0.02284879 0.03756565
v -0.28248463 0.01260749 -0.04884312
v -0.14346439 0.02035314 -0.08822304
v 0.13382808 0.04452450 0.04421614
v -0.08092789 0.01836941 -0.08493055
v 0.09773591 0.02620228 0.10778742
v 0.07255993 0.01790679 0.13613715
v -0.29073343 0.03060272 -0.01682212
v -0.06116175 0.01955680 -0.10145455
v 0.12327982 0.04096311 0.08332176
v 0.10337805 0.01826663 -0.12557344
v 0.05923794 0.01403742 -0.13549199
v 0.04175027 0.01917667 -0.13116177
v 0.12266548 0.02612762 0.02764168
v 0.08513255 0.02954292 0.15749521
v 0.11625176 0.01910005 -0.13065724
v -0.28677806 0.01823587 -0.05118633
v 0.09354234 0.02594951 -0.02841962
v 0.09706918 0.02802904 0.13092153
v 0.11497770 0.02109812 -0.00947898
v 0.00973051 0.01597938 -0.09701010
v 0.12822291 0.02637923 -0.12139685
v 0.02679940 0.01613104 -0.09711709
v 0.12212202 0.01840589 0.00520919
v 0.10731127 0.03514240 0.12066109
v -0.23543614 0.01900828 -0.07106127
v -0.04315017 0.02133887 -0.11252738
v 0.14280456 0.02224409 -0.01298954
v 0.06063092 0.02028052 -0.13606643
v -0.23070287 0.03440723 -0.02894199
v -0.25896884 0.02022250 -0.07042453
v -0.26686462 0.01781297 -0.10318761
v -0.01765405 0.02081482 -0.11455878
v 0.07367432 0.02268115 -0.15049357
v 0.01089087 0.01774573 -0.14382537
v -0.10880443 0.02207068 -0.10008263
v -0.21445893 0.02247855 -0.08529555
v -0.00050390 0.02456662 -0.13324397
v 0.05956038 0.01753795 -0.09934612
v 0.12738834 0.02500027 -0.00936298
v 0.02088102 0.02356654 -0.12486547
v -0.18071032 0.02468881 -0.09750792
v -0.01978061 0.01881999 -0.09477561
v 0.04422226 0.02109271 -0.11042561
v 0.08795662 0.04247639 0.17695134
v 0.08952592 0.02985970 -0.14964590
v -0.19074761 0.03083243 -0.20897275
v 0.04109861 0.02584628 -0.14474734
v 0.14579414 0.02966367 -0.04561559
v -0.12813460 0.03202423 -0.02819376
v -0.28797061 0.03120512 -0.05941490
v 0.12449283 0.03218956 0.05041910
v -0.20361625 0.04258800 -0.18562228
v 0.04107525 0.02185162 -0.16267961
v -0.14270067 0.02757350 -0.11473749
v 0.05568792 0.02795190 -0.16778703
v 0.06814513 0.02273172 -0.13567537
v -0.16946422 0.03036432 -0.12001203
v -0.27344407 0.02535988 -0.08178001
v -0.25217275 0.02693968 -0.09474323
v 0.05010475 0.03013226 -0.16086701
v -0.20082757 0.04093912 -0.20558530
v -0.18480173 0.03484191 -0.19362037
v -0.11288176 0.02861333 -0.12514566
v 0.03126624 0.03267851 -0.16498845
v -0.04442724 0.02958723 -0.13849509
v 0.11809938 0.02496407 0.05647025
v -0.07972870 0.02842115 -0.12985079
v -0.01233837 0.03073134 -0.14800090
v -0.28091103 0.03520334 -0.09726602
v 0.12051644 0.02928378 -0.03608064
v 0.07711051 0.02681811 0.13398750
v 0.00979530 0.03092486 -0.15422987
v 0.13290095 0.04943807 0.01342147
v -0.20823831 0.02960560 -0.11146773
v 0.01864913 0.02681913 -0.18086749
v 0.07510225 0.04109788 -0.08533612
v 0.10779315 0.02695912 0.09041101
v 0.11516841 0.03761854 -0.13658975
v 0.09805963 0.02795774 0.10372475
v 0.06269845 0.02890287 -0.15653130
v 0.05604917 0.04041386 -0.17400089
v 0.12446633 0.04228802 0.01142543
v 0.08405437 0.04781322 0.16166653
v -0.02797092 0.03460791 -0.16294937
v -0.19363795 0.04198824 -0.17824441
v -0.09899783 0.03326012 -0.14679835
v 0.13112581 0.03328598 -0.04343271
v 0.13490825 0.04254038 -0.10177548
v -0.26997033 0.03420272 -0.11566518
v -0.25566278 0.03455792 -0.11764165
v 0.03888639 0.03093222 -0.17741487
v -0.04603421 0.03388893 -0.15542224
v -0.07555121 0.03389467 -0.15138631
v -0.12208895 0.03373545 -0.13993616
v -0.23281698 0.03436857 -0.12229713
v 0.10695661 0.03139287 0.09407864
v 0.00999519 0.03279307 -0.18207893
v 0.12928130 0.03609802 -0.05911461
v -0.19407807 0.03694340 -0.12934680
v 0.01369558 0.03570658 -0.17513331
v -0.20917056 0.03705499 -0.13707226
v 0.12202705 0.05315672 -0.04405706
v 0.00900293 0.04382284 -0.08661139
v -0.14795243 0.03794530 -0.15265153
v -0.00479383 0.03993081 -0.18119994
v 0.12517999 0.04956004 0.04297065
v 0.12686654 0.04739269 -0.11876620
v 0.11803007 0.04336511 0.06859189
v 0.12227443 0.05042050 -0.03015050
v -0.17203377 0.03850336 -0.14585267
v -0.04879323 0.04228911 -0.18189896
v -0.07216941 0.03979419 -0.17184297
v 0.10532485 0.05550223 -0.13418594
v -0.24369726 0.04408010 -0.13874619
v -0.23169722 0.04325716 -0.14282383
v 0.01222701 0.04101435 -0.19133594
v -0.10629256 0.04036085 -0.16887703
v 0.12003876 0.03981362 -0.07129473
v -0.26350328 0.04105453 -0.14095724
v -0.06313230 0.05189350 -0.10348303
v 0.03203177 0.04201147 -0.18824906
v 0.08801063 0.04494421 0.14844325
v -0.13028216 0.04258715 -0.17406189
v -0.27940658 0.05257287 -0.10027713
v -0.27942573 0.04850122 -0.07348377
v 0.10253007 0.04532589 0.13548279
v -0.24914389 0.04504474 -0.15329627
v 0.13044120 0.05654778 -0.00176631
v 0.10767938 0.04238080 -0.08164062
v -0.15903072 0.05328976 -0.09736469
v -0.20207777 0.04327644 -0.15767239
v 0.07161643 0.05334169 -0.11538489
v -0.01440327 0.04162568 -0.19512193
v 0.13385926 0.06497980 -0.03976157
v 0.11757926 0.05886131 0.09011118
v 0.08619563 0.04108873 0.15631215
v -0.26011044 0.04749906 -0.16128088
v -0.04339791 0.04349754 -0.19928605
v -0.27041161 0.04919249 -0.14685018
v 0.10784011 0.05783468 0.12178309
v 0.01250671 0.04920638 -0.19998227
v -0.17450237 0.04689562 -0.17373891
v 0.12028135 0.04695777 -0.09110071
v -0.22798860 0.04480932 -0.15924568
v -0.06018645 0.04903645 -0.20707415
v -0.17729940 0.05190333 -0.19362454
v 0.08090489 0.06237025 0.17648100
v -0.02666883 0.04913479 -0.21576973
v 0.04191790 0.06136413 -0.18081856
v 0.09777449 0.05228298 -0.10905761
v 0.12160988 0.05279513 0.10185697
v -0.15333344 0.04658420 -0.18494956
v -0.12449376 0.04994831 -0.19521872
v -0.24088574 0.05097573 -0.17964543
v -0.18933975 0.05527701 -0.20636845
v -0.09125767 0.04966572 -0.20061160
v -0.21708160 0.05030775 -0.18117324
v 0.13161660 0.06744681 0.05924015
v 0.11985327 0.06317154 -0.06722534
v -0.16651242 0.05452480 -0.20848861
v -0.26839331 0.06514994 -0.13039177
v -0.02400754 0.05557971 -0.21687284
v -0.18052912 0.04789800 -0.18193712
v 0.11915856 0.04917605 0.07525177
v -0.25945926 0.05627538 -0.18822514
v 0.14681248 0.07967090 0.01504037
v 0.04559137 0.05707771 -0.13462936
v 0.11502900 0.06275419 0.14090231
v -0.08999684 0.05455077 -0.21997074
v -0.11819097 0.05381585 -0.21281341
v 0.12794374 0.06338746 -0.02316003
v 0.11729940 0.05163396 -0.04565313
v 0.10958229 0.07041762 0.15011598
v 0.12956353 0.06631490 0.01082251
v -0.05906718 0.05850681 -0.22901475
v 0.10316956 0.06741270 0.12880623
v -0.20859410 0.05777479 -0.21149829
v 0.10812637 0.06522204 -0.10706690
v 0.09188295 0.05633100 0.14826194
v 0.08158938 0.05413036 0.16210700
v -0.13884423 0.05863871 -0.22380690
v 0.10274796 0.06408613 -0.11961461
v -0.16683362 0.05363202 -0.18823012
v 0.12654887 0.05647409 0.03049188
v 0.08440650 0.05900957 0.15240577
v 0.06246133 0.06563169 -0.16084918
v 0.09622507 0.07034009 0.19376657
v 0.12985489 0.08415812 -0.07853550
v -0.17392449 0.05707210 -0.20080923
v -0.10605596 0.07090959 -0.16162190
v -0.26381382 0.07528240 -0.16568849
v -0.23160221 0.06136277 -0.21471625
v -0.09076745 0.06068462 -0.23352158
v 0.12768807 0.07616203 -0.02515930
v -0.02461371 0.06994080 -0.16853857
v 0.13227701 0.06182264 0.02736487
v -0.17548775 0.06070273 -0.24994924
v 0.10316464 0.06230225 0.12072657
v -0.17619842 0.06396718 -0.24052170
v 0.10219701 0.06006923 0.11345075
v 0.12767157 0.08227667 0.09404290
v -0.13363523 0.06852967 -0.24492288
v 0.12315929 0.09143832 -0.07293536
v 0.09308880 0.07448599 0.17544525
v 0.13277208 0.07655431 0.10521200
v -0.12550643 0.07522951 -0.23808166
v -0.15546692 0.06817535 -0.24673714
v 0.01382222 0.07472597 -0.19140569
v 0.01898513 0.07174051 -0.17313715
v -0.24424051 0.06841418 -0.22032843
v 0.14428999 0.08270716 0.05250896
v -0.19849931 0.06716514 -0.24397072
v -0.21380450 0.06332912 -0.24028412
v -0.22895690 0.06936668 -0.23376176
v 0.11844915 0.06479326 -0.04876586
v 0.12022514 0.06490469 0.07750713
v 0.14394246 0.08150482 0.06544032
v -0.25697511 0.08298971 -0.18971174
v 0.08930071 0.08762051 0.19276293
v 0.11535007 0.09458215 -0.11493783
v -0.08765474 0.08807273 -0.22683030
v 0.09758195 0.06797842 -0.10110362
v 0.14417029 0.11815145 -0.06301512
v -0.02769665 0.08219055 -0.20844740
v -0.16337409 0.07704020 -0.24592488
v 0.11535081 0.07320821 -0.06295852
v -0.18805573 0.07545757 -0.24726346
v 0.10758426 0.07173394 0.12212889
v 0.13929040 0.08540451 0.02425885
v 0.11911675 0.07051450 -0.04944935
v -0.17028626 0.07889203 -0.18260010
v 0.14200960 0.09260517 0.00961314
v 0.13506358 0.08795190 -0.01549908
v 0.14066490 0.09654506 0.05644909
v 0.10843438 0.10041847 -0.10994524
v -0.16481637 0.07179001 -0.24693887
v 0.11431432 0.08397375 0.13405803
v 0.10454720 0.07498349 -0.09913775
v -0.23106439 0.08697896 -0.22794510
v -0.06670777 0.08710830 -0.21994624
v 0.12769039 0.09384159 0.10953820
v 0.10197801 0.07707454 -0.09380130
v 0.10324167 0.08971227 0.18965373
v 0.11373804 0.07887669 0.12259994
v -0.13028411 0.07528788 -0.24541536
v 0.12228713 0.07605574 0.14859263
v 0.13077087 0.07602349 -0.01223238
v -0.12531749 0.07663623 -0.24364374
v -0.15469549 0.08134923 -0.24704036
v 0.11044394 0.09636508 0.14681038
v 0.11364421 0.09331588 -0.10015051
v 0.12337887 0.07792944 0.11302588
v 0.12553373 0.10085685 0.15632817
v 0.12772241 0.07907999 -0.00343909
v -0.12928929 0.09169948 -0.23254407
v 0.12852040 0.09463026 -0.06265973
v 0.13905925 0.08232994 0.07258639
v 0.13536263 0.10069937 0.11812877
v 0.15253790 0.11137636 -0.02161326
v 0.11625628 0.08782405 0.15695652
v 0.10231157 0.08300654 -0.09736506
v -0.24537412 0.09131849 -0.21382987
v 0.10259687 0.08500900 0.20175288
v 0.14191468 0.10459693 -0.03196277
v 0.10194346 0.10019318 0.18540289
v 0.09817119 0.08893092 0.20051155
v -0.17942512 0.09516800 -0.23630687
v 0.13941395 0.10361998 0.02437618
v 0.12685364 0.08763376 0.11974063
v 0.10651776 0.09032919 0.20268906
v 0.13965239 0.08903247 0.02268688
v 0.12184777 0.11381633 -0.10034339
v 0.14604974 0.10106529 0.02986570
v 0.13900516 0.11088532 -0.01633878
v 0.13301225 0.11823856 -0.07238972
v 0.13930375 0.10143204 0.06632907
v 0.12300813 0.09293097 -0.06019436
v 0.10547236 0.09394425 0.20617665
v 0.14834894 0.10773239 0.07742287
v -0.12660211 0.09529823 -0.23397236
v 0.14602069 0.11429951 0.11817650
v 0.10216186 0.09738523 0.20893537
v 0.13804020 0.09851981 0.04527432
v 0.12070956 0.10834548 0.14291360
v 0.13997750 0.09795411 0.03915727
v 0.13900264 0.11330684 0.10770791
v 0.11747738 0.09874574 0.16499213
v 0.13490612 0.10074824 0.09082488
v 0.10602359 0.11898474 0.21522454
v 0.13829189 0.12098723 -0.05853045
v 0.11868241 0.10077500 0.13794486
v 0.10590389 0.10237473 0.21160088
v 0.10299345 0.11742809 0.19691089
v 0.11836214 0.10344185 0.16388300
v 0.11378997 0.12923891 0.19715668
v 0.12585172 0.12139758 0.16995655
v 0.16356148 0.13887134 0.07687194
v 0.15258186 0.12304915 0.03618622
v 0.13498701 0.10758026 -0.01609912
v 0.16310753 0.13097103 0.03230398
v 0.16237366 0.13954980 0.02632346
v 0.12917610 0.11629287 -0.05739078
v 0.11440932 0.11799225 0.21608140
v 0.14338214 0.11521936 0.05594549
v 0.12453438 0.10954571 0.13831363
v 0.11409312 0.11054213 -0.09481419
v 0.15208173 0.13681253 0.02199352
v 0.14110161 0.11277960 0.12675363
v 0.14765723 0.12830913 0.07875619
v 0.13750642 0.13052872 0.12289944
v 0.15861912 0.13225255 0.08323455
v 0.11760217 0.13166385 -0.10686695
v 0.13655563 0.11589614 -0.02200659
v 0.12614829 0.13177677 0.15340279
v 0.14461162 0.11541972 -0.00519062
v 0.13174836 0.14297236 -0.10564322
v 0.15263339 0.13695975 0.06911228
v 0.14916760 0.13181902 0.03291372
v 0.14397885 0.13035947 0.13143994
v 0.10549129 0.14445137 0.21800400
v 0.14674482 0.13774588 -0.02484699
v 0.13981862 0.12081999 0.13262237
v 0.15232976 0.14736061 -0.00657017
v 0.11026638 0.12288499 0.20081989
v 0.14354839 0.12303305 0.07519386
v 0.16169441 0.14157290 -0.01136117
v 0.12055637 0.14937143 0.22571414
v 0.14606725 0.14405309 -0.06865826
v 0.12754529 0.13794377 -0.09707058
v 0.14205517 0.15296161 0.17860854
v 0.14971098 0.14761093 0.12229399
v 0.11442088 0.12837422 0.22575013
v 0.12565745 0.14385365 0.17036308
v 0.12798336 0.12984395 0.17549286
v 0.14246298 0.14151072 -0.05172941
v 0.12090441 0.12962103 0.19370387
v 0.14411640 0.13171920 0.11103437
v 0.11457571 0.14877879 0.21352221
v 0.11066940 0.13270697 0.22806814
v 0.11615513 0.13499698 0.22886589
v 0.13203739 0.13475949 0.17929886
v 0.14891989 0.13592300 0.06037063
v 0.16054826 0.17223386 0.14714564
v 0.13545278 0.16057458 0.18719152
v 0.11861488 0.13929552 0.23051886
v 0.16083300 0.15974451 0.04025844
v 0.14475106 0.15094488 0.13784330
v 0.13346461 0.15536091 0.16344559
v 0.17346029 0.18180015 -0.00586082
v 0.16097489 0.15380304 0.09526691
v 0.16260156 0.17872174 -0.05281280
v 0.15569513 0.14490722 0.09323564
v 0.15360900 0.14658296 0.06268876
v 0.12197725 0.14735887 0.23258208
v 0.11787469 0.16396026 0.24325568
v 0.15275969 0.17287533 0.13060304
v 0.14436001 0.14775436 0.11064127
v 0.13278908 0.16569419 -0.09370230
v 0.13658138 0.15055895 0.15276591
v 0.15444239 0.16633656 -0.01448483
v 0.16144103 0.17063132 0.08185118
v 0.14641289 0.15197948 0.11132414
v 0.13264357 0.17850438 -0.10478303
v 0.16654598 0.18136303 0.03454335
v 0.11651986 0.15440148 0.20943640
v 0.14627548 0.15576605 0.10721191
v 0.15090353 0.16651472 -0.04752815
v 0.12277214 0.15573421 0.23960237
v 0.17674231 0.18501928 0.09357767
v 0.17640899 0.18820216 0.05309363
v 0.14363302 0.18415437 -0.10033620
v 0.15871640 0.15775597 0.06370888
v 0.15226095 0.17399015 0.14565368
v 0.12127498 0.17919747 0.23030470
v 0.12313490 0.16028749 -0.09098548
v 0.17105851 0.18570200 0.10412895
v 0.16349939 0.17747383 0.00077116
v 0.16955141 0.18777027 -0.01322392
v 0.15500710 0.18400753 -0.06349952
v 0.14792969 0.17841038 -0.05791929
v 0.14555286 0.18394075 0.18380570
v 0.15001514 0.16417125 -0.04826586
v 0.15068704 0.18113088 -0.04680887
v 0.13831826 0.17562253 0.17753686
v 0.13967326 0.16790262 -0.08766348
v 0.13015629 0.18431999 0.24605416
v 0.14740992 0.18479791 0.19882251
v 0.17724378 0.19435834 0.03973837
v 0.15397065 0.17065251 -0.04346538
v 0.13301589 0.17113024 0.16182914
v 0.12146792 0.17269768 0.22235934
v 0.12860339 0.17191722 0.24617776
v 0.14266087 0.17109972 0.17104376
v 0.14725302 0.17278370 0.19768838
v 0.16610445 0.19220863 0.14621892
v 0.12869416 0.19256396 0.25793071
v 0.13891690 0.17734403 0.17088188
v 0.15018090 0.17680848 0.19740338
v 0.17332916 0.20196261 0.00581615
v 0.15942707 0.19537642 0.15835167
v 0.14192866 0.19769670 0.19465327
v 0.14701364 0.18203781 0.17659657
v 0.14322935 0.19680656 -0.08816150
v 0.17332484 0.20521898 0.09171283
v 0.16614970 0.20764069 -0.00374104
v 0.13805525 0.18528335 0.17776589
v 0.15912314 0.20248024 -0.04122805
v 0.14225637 0.18625146 0.16468240
v 0.12437088 0.20130886 0.24726491
v 0.16762807 0.19812298 0.09691422
v 0.15954276 0.20161528 0.14509730
v 0.15543636 0.19349897 0.13113613
v 0.14922431 0.19621872 0.18513920
v 0.14848206 0.20445532 0.21162710
v 0.14346340 0.19194997 0.16744188
v 0.17342096 0.21155112 0.04854617
v 0.15377204 0.21664106 -0.09411812
v 0.15840462 0.21493622 -0.05249204
v 0.14089868 0.21666474 -0.09491465
v 0.16417202 0.19453362 0.13508627
v 0.18824575 0.23010775 0.11634980
v 0.14217936 0.19518751 0.21846939
v 0.18134189 0.21616198 0.06170745
v 0.16902550 0.21373425 0.16531537
v 0.19004499 0.22477713 0.05812357
v 0.15195922 0.21639813 0.19955501
v 0.12775825 0.20080754 0.23584682
v 0.15590726 0.20095024 0.16908563
v 0.16152413 0.20153460 0.13868950
v 0.13316826 0.22040230 0.25287181
v 0.13738260 0.21495678 0.26763362
v 0.17618978 0.21956345 0.10906279
v 0.16984253 0.22918562 -0.05354729
v 0.12730270 0.20984851 0.26546944
v 0.15756629 0.21308280 0.21331500
v 0.13006907 0.20526009 0.24176730
v 0.16444688 0.20585424 -0.06266863
v 0.17011587 0.20781452 0.08538965
v 0.17797382 0.23527711 -0.04348280
v 0.15361045 0.23355015 -0.08551082
v 0.15920243 0.24629163 -0.09671050
v 0.17966579 0.23269865 0.01288804
v 0.16848954 0.22786791 -0.03857731
v 0.18813941 0.23661625 0.00507001
v 0.16659565 0.22886783 0.16246340
v 0.15266013 0.21577148 0.18771064
v 0.17372395 0.23250321 0.15899863
v 0.17794292 0.23225655 -0.00214918
v 0.18696044 0.23828394 0.10585208
v 0.17020757 0.22284093 0.14698126
v 0.17346709 0.23740572 0.17759095
v 0.19473681 0.25739932 0.05723347
v 0.16352376 0.22608273 0.11747889
v 0.16418246 0.25065126 0.21809484
v 0.16245789 0.22481874 0.22060288
v 0.16241777 0.23462959 0.22417487
v 0.13856182 0.24559909 0.27998431
v 0.14296229 0.24710878 0.27367717
v 0.17980082 0.23015774 0.06690026
v 0.15672107 0.24716161 0.21840305
v 0.16291766 0.24712490 0.22953595
v 0.17877676 0.25046168 0.18102069
v 0.17178698 0.25450384 -0.04652522
v 0.19235832 0.25048607 0.07148673
v 0.18510996 0.24746667 0.11906766
v 0.19241196 0.27121100 0.06550642
v 0.15028601 0.23579839 0.27078788
v 0.16090663 0.23635823 0.20527314
v 0.15753588 0.23740685 0.20152740
v 0.15133179 0.24933266 -0.09369920
v 0.18647977 0.25562326 0.01574289
v 0.17697995 0.25952999 0.17174294
v 0.16110935 0.24237800 0.20889089
v 0.15436276 0.24561891 0.27540381
v 0.17789309 0.25737071 -0.03145803
v 0.19996233 0.26960085 0.07733317
v 0.19051605 0.26470147 0.11456571
v 0.16198662 0.27000184 -0.08300328
v 0.17743536 0.25002694 0.15637187
v 0.18408626 0.25104384 -0.05613822
v 0.15446851 0.25175285 0.18605195
v 0.18778669 0.27551987 -0.03599514
v 0.14553114 0.25354526 0.26666288
v 0.18941536 0.27730280 0.01421626
v 0.16796626 0.26810302 0.24033156
v 0.16645625 0.25379236 0.20422051
v 0.19676347 0.27660873 0.13245468
v 0.20079487 0.28213507 0.12225929
v 0.18754572 0.27608596 0.17892698
v 0.19882938 0.27482905 0.01171251
v 0.15607076 0.25742373 0.28771014
v 0.19493289 0.25733198 0.05188526
v 0.14837441 0.26952737 0.29382082
v 0.18547226 0.27259752 0.19038918
v 0.19076357 0.27390124 0.00608579
v 0.14634737 0.25805998 0.27022063
v 0.15772190 0.25897050 0.28426489
v 0.17913087 0.27142021 -0.03026730
v 0.18451971 0.28909002 -0.04385777
v 0.15485089 0.26209174 0.28950676
v 0.16967387 0.26261047 0.21652363
v 0.14605046 0.27943041 0.29251827
v 0.15722763 0.26531726 0.28767563
v 0.17137454 0.29281896 -0.07888993
v 0.16408096 0.27636544 -0.09390980
v 0.18480710 0.31295112 0.25668566
v 0.14423965 0.26716288 0.26681426
v 0.17457213 0.26886100 0.10286164
v 0.17041553 0.27784820 0.22787798
v 0.16601063 0.28014370 0.30298537
v 0.18748585 0.27255757 0.20382497
v 0.17429009 0.29766137 0.24337788
v 0.14628451 0.27181988 0.27676538
v 0.18868437 0.27007497 0.02237085
v 0.16220439 0.27059898 0.28705763
v 0.17649014 0.27247399 -0.05173387
v 0.18547250 0.28872316 0.18769403
v 0.20415368 0.29711711 0.14061367
v 0.18149240 0.27606127 -0.01882287
v 0.16464236 0.27530003 0.24219487
v 0.17036637 0.27650702 0.21954886
v 0.19563732 0.27923615 0.13962038
v 0.20702484 0.29661144 0.08305406
v 0.15217559 0.29526224 0.31064541
v 0.20156714 0.27936426 0.05715565
v 0.20547550 0.30105204 0.07055677
v 0.16086007 0.30836438 0.30860876
v 0.18688222 0.29426637 -0.02866915
v 0.18737356 0.28181311 0.20169769
v 0.15699863 0.28095722 0.29647414
v 0.17069077 0.30478939 -0.08989958
v 0.19377066 0.29907441 0.19740552
v 0.19942301 0.29935613 0.02762126
v 0.14810588 0.28424568 0.27930951
v 0.15443076 0.28394447 0.28655176
v 0.20136676 0.28645262 0.11891613
v 0.18750387 0.28516674 -0.02759362
v 0.20141023 0.30989821 0.01456775
v 0.19967992 0.30110531 0.12805498
v 0.17595101 0.28913114 0.22151214
v 0.21475796 0.31349745 0.07814903
v 0.15549388 0.28888649 0.29141189
v 0.19463875 0.29061486 -0.04956099
v 0.20935468 0.30192095 0.20362282
v 0.15954728 0.29693324 0.29811673
v 0.20323239 0.29247853 0.11733065
v 0.17539133 0.30793308 0.25656521
v 0.20719239 0.29389511 0.06290663
v 0.16730488 0.29414749 0.24537140
v 0.18859893 0.30867567 0.20419092
v 0.16349414 0.29339698 0.30940312
v 0.19801786 0.32183745 0.19848303
v 0.18844839 0.29730201 0.21353290
v 0.16718339 0.29781103 0.22029864
v 0.18285079 0.32970101 -0.07920968
v 0.16612589 0.29968703 0.31346939
v 0.21120279 0.32259117 0.13685874
v 0.16319286 0.30162549 0.20791839
v 0.18954500 0.30307096 0.22518739
v 0.19416851 0.30613661 -0.04544987
v 0.15156805 0.30748956 0.32923489
v 0.18283638 0.30347599 0.24060601
v 0.19604991 0.32295120 -0.03817655
v 0.17731737 0.30272201 -0.07533262
v 0.16690388 0.30377069 0.31614589
v 0.17603867 0.32278548 -0.07867621
v 0.17123088 0.31113649 0.30155689
v 0.20646667 0.32368327 0.14307072
v 0.20409938 0.30646694 0.14900289
v 0.21350558 0.33346324 0.15469691
v 0.19513440 0.30789372 0.25935414
v 0.19957810 0.32011449 0.21035604
v 0.19818718 0.33057727 -0.02388429
v 0.14999907 0.31641646 0.34186860
v 0.16174888 0.33228797 0.35590840
v 0.21149521 0.32976210 0.01897158
v 0.20374182 0.31423116 0.01023949
v 0.18436112 0.31674299 0.27543340
v 0.17353188 0.31089148 0.25787964
v 0.18451741 0.31134099 0.22562639
v 0.20589320 0.31358497 0.08994623
v 0.19022919 0.31931888 0.24230853
v 0.15681513 0.31749210 0.30829120
v 0.20537121 0.32756273 0.03604498
v 0.21008965 0.31532896 0.12772515
v 0.20229200 0.31478422 -0.04104324
v 0.17903513 0.35467221 0.33616963
v 0.21526231 0.32311539 0.09067037
v 0.16725405 0.32274437 0.28080334
v 0.21502897 0.33480114 0.07982230
v 0.21392885 0.34161642 0.03505208
v 0.14954267 0.33083209 0.33985621
v 0.20333243 0.32738519 0.22763213
v 0.19890226 0.31963411 -0.02097661
v 0.18784389 0.33595573 0.23138711
v 0.17855924 0.33561809 -0.08841511
v 0.19404533 0.33337416 0.21275965
v 0.20220651 0.32197066 -0.04037086
v 0.20972141 0.32161594 0.18153886
v 0.21303237 0.33244778 0.19205852
v 0.17950462 0.32950505 0.25138814
v 0.19403588 0.32653952 0.20552037
v 0.16029652 0.34024172 0.32326868
v 0.20888601 0.32673626 0.13123212
v 0.21431069 0.33246493 0.09486057
v 0.22100588 0.34221250 0.16304887
v 0.20789784 0.34037975 0.16894715
v 0.20147706 0.34120817 0.18812806
v 0.20743819 0.36673636 0.26889049
v 0.19768588 0.33520174 0.11567887
v 0.18689088 0.35966102 -0.08473361
v 0.20173664 0.35154957 -0.02493916
v 0.22183406 0.34861185 0.09729767
v 0.21939957 0.33653636 0.16991427
v 0.20485439 0.33906645 -0.03931760
v 0.15654926 0.34310046 0.35478661
v 0.19424425 0.35869860 0.25169452
v 0.21300688 0.34857449 0.14175784
v 0.22705946 0.37208314 0.04224155
v 0.22293189 0.33764401 0.12701439
v 0.19068214 0.33860350 0.05921536
v 0.21976201 0.33929886 0.13433524
v 0.18186963 0.33928014 -0.07109487
v 0.22042140 0.33929002 0.12992687
v 0.20700313 0.35524507 -0.03402355
v 0.22362596 0.34583775 0.13372891
v 0.21925774 0.36029390 0.02674435
v 0.21456314 0.34246823 0.01633989
v 0.18455807 0.35750232 0.28457818
v 0.22830471 0.34981878 0.12243165
v 0.21291567 0.36825154 -0.01851522
v 0.21896341 0.34319604 0.07483588
v 0.19251620 0.36986540 -0.07341495
v 0.18126264 0.34706748 -0.07396661
v 0.23585463 0.38689873 0.17311464
v 0.18843688 0.34847324 -0.06804874
v 0.16508301 0.35659504 0.34904247
v 0.21983934 0.36434037 0.08038458
v 0.20328035 0.35753837 0.20281405
v 0.22585639 0.35173595 0.08006589
v 0.21647145 0.37086135 0.15079808
v 0.21437346 0.35959524 0.11346808
v 0.18842077 0.35310564 -0.07010011
v 0.17882918 0.36337195 0.32224419
v 0.20234388 0.35548236 -0.01473199
v 0.21921711 0.37551601 0.02956299
v 0.21528988 0.35912350 0.04013813
v 0.21950641 0.35819602 0.02153186
v 0.21529686 0.35912097 0.04315386
v 0.19085063 0.36884129 0.29517523
v 0.19191387 0.35935652 -0.08745385
v 0.19378214 0.38168332 -0.08510353
v 0.20319941 0.36176598 -0.00813409
v 0.20901953 0.37845289 -0.02148872
v 0.22953857 0.36597691 0.06554687
v 0.22182108 0.38804658 0.20423520
v 0.17790752 0.36293867 0.33801713
v 0.21462249 0.37773394 -0.03149272
v 0.21800745 0.37458655 0.05630984
v 0.20436135 0.37593224 0.25926030
v 0.21661487 0.36853904 0.01817040
v 0.21760761 0.37011299 -0.03751687
v 0.22443024 0.39089188 -0.01347642
v 0.22584974 0.38950445 0.09897783
v 0.22724453 0.37890934 0.01663584
v 0.24813738 0.42355549 0.06091888
v 0.22201865 0.37666887 0.01764637
v 0.21587057 0.38194207 0.23046418
v 0.19856165 0.38125146 -0.08633587
v 0.22797013 0.38196701 -0.00284961
v 0.21645054 0.39046383 0.01005722
v 0.19371038 0.38618601 -0.06952210
v 0.21628171 0.39561857 -0.00963162
v 0.22352277 0.39689230 -0.02855636
v 0.23146712 0.39115738 0.00424064
v 0.19949558 0.40290991 -0.08095495
v 0.20375403 0.40753351 -0.06990177
v 0.22935680 0.39433057 0.17676655
v 0.23432097 0.40328248 0.14613556
v 0.22784277 0.40798693 0.04494394
v 0.21633863 0.39504102 -0.03306813
v 0.20720813 0.40969202 -0.04508351
v 0.23966988 0.41658451 0.09863327
v 0.21902132 0.40978301 -0.05247542
v 0.20133965 0.42006797 -0.07249013
v 0.20165638 0.40779472 -0.06582036
v 0.20371992 0.42329391 -0.08799710
v 0.24155084 0.43925838 0.00944019
v 0.22362645 0.43628771 -0.01623768
v 0.21048993 0.44420103 -0.06207283
v 0.19845040 0.42343274 -0.09378274
v 0.24147297 0.43448189 0.04118683
v 0.19919672 0.43549617 -0.09928135
v 0.21617685 0.47292153 -0.09702093
v 0.23525269 0.44842676 0.00376315
v 0.24229213 0.43601036 0.04826401
v 0.20822646 0.45525057 -0.10179113
v 0.22959207 0.46444068 -0.05262680
v 0.20580796 0.46531943 -0.09407945
v 0.22707800 0.46281074 -0.03501046
v 0.21776355 0.47372222 -0.07064165
f 2 3 6
f 9 11 3
f 2 6 13
f 3 11 15
f 11 9 14
f 6 3 15
f 13 9 2
f 9 13 14
f 16 8 12
f 12 10 17
f 7 8 16
f 19 13 6
f 6 15 21
f 16 20 7
f 20 10 7
f 10 20 17
f 19 6 21
f 16 12 23
f 17 20 24
f 13 19 27
f 11 14 25
f 12 17 26
f 14 13 27
f 15 11 25
f 28 14 27
f 20 16 29
f 30 19 21
f 16 23 29
f 21 15 30
f 24 20 31
f 27 19 32
f 19 30 32
f 25 14 28
f 17 24 33
f 15 25 34
f 30 15 34
f 23 12 35
f 33 24 31
f 20 29 31
f 25 28 37
f 29 23 38
f 28 27 32
f 32 30 39
f 34 25 36
f 38 23 35
f 35 12 26
f 17 33 40
f 25 37 36
f 28 32 41
f 26 17 40
f 33 42 40
f 32 39 41
f 36 44 34
f 31 42 33
f 31 29 38
f 43 31 38
f 39 30 45
f 37 28 41
f 37 48 36
f 45 30 46
f 30 34 46
f 37 41 48
f 41 39 47
f 35 26 49
f 47 39 45
f 31 50 42
f 26 40 49
f 46 34 44
f 53 36 48
f 35 55 38
f 50 31 43
f 38 55 43
f 59 41 47
f 53 44 36
f 50 43 55
f 57 45 46
f 35 56 55
f 49 40 58
f 56 35 49
f 41 59 48
f 58 40 42
f 66 48 59
f 70 51 52
f 54 51 73
f 42 50 68
f 50 55 63
f 53 48 66
f 71 47 45
f 59 47 71
f 71 45 57
f 50 63 74
f 68 50 74
f 51 76 73
f 63 55 56
f 44 81 46
f 60 84 52
f 84 70 52
f 70 76 51
f 54 84 60
f 44 53 81
f 72 92 79
f 84 54 85
f 56 49 87
f 66 59 93
f 77 89 82
f 73 85 54
f 57 46 86
f 59 71 93
f 91 98 102
f 66 93 100
f 87 49 58
f 71 57 96
f 58 42 97
f 99 98 91
f 46 81 86
f 107 94 106
f 53 66 100
f 68 97 42
f 68 74 115
f 63 56 112
f 92 72 80
f 105 111 95
f 63 112 74
f 91 108 99
f 110 94 113
f 113 102 98
f 112 56 87
f 107 114 94
f 108 91 93
f 108 93 71
f 70 84 101
f 105 95 117
f 110 113 98
f 110 98 99
f 106 109 107
f 114 113 94
f 102 113 114
f 84 85 127
f 94 110 125
f 117 95 118
f 99 124 110
f 106 94 125
f 95 111 109
f 93 91 122
f 114 107 131
f 96 57 137
f 107 109 133
f 104 68 115
f 116 105 129
f 81 53 100
f 109 136 133
f 87 58 138
f 108 126 99
f 116 120 105
f 95 106 118
f 106 95 109
f 117 118 134
f 57 86 137
f 74 112 115
f 100 93 128
f 135 120 116
f 120 111 105
f 128 93 122
f 123 71 96
f 91 102 122
f 144 125 110
f 109 111 136
f 105 117 129
f 127 101 84
f 140 107 133
f 115 139 104
f 118 106 142
f 108 71 123
f 123 126 108
f 97 68 132
f 116 104 139
f 131 121 114
f 85 73 141
f 99 126 124
f 106 125 142
f 142 125 145
f 135 116 139
f 111 120 143
f 136 111 143
f 131 107 148
f 110 124 144
f 102 114 147
f 104 116 129
f 148 107 140
f 121 147 114
f 123 122 126
f 126 102 152
f 58 97 138
f 124 126 152
f 122 123 128
f 156 76 70
f 132 68 104
f 102 147 152
f 126 122 102
f 82 150 80
f 154 120 135
f 85 141 127
f 81 100 155
f 140 157 151
f 143 117 134
f 104 129 139
f 148 140 151
f 147 144 124
f 92 80 165
f 125 144 145
f 133 136 153
f 154 129 117
f 115 132 139
f 147 124 152
f 159 127 141
f 150 82 89
f 162 134 118
f 138 97 161
f 149 112 87
f 136 143 162
f 157 140 160
f 132 104 139
f 135 139 154
f 139 129 154
f 163 70 101
f 80 150 165
f 143 134 162
f 149 87 138
f 133 153 148
f 123 96 166
f 153 136 162
f 96 137 166
f 153 162 118
f 160 140 133
f 153 142 145
f 70 163 156
f 121 144 147
f 101 127 163
f 144 121 145
f 118 142 153
f 131 145 121
f 77 167 89
f 150 89 167
f 73 76 168
f 115 172 132
f 154 117 143
f 143 120 154
f 174 148 151
f 157 171 169
f 157 173 171
f 148 145 131
f 77 79 175
f 157 169 151
f 79 92 176
f 92 165 176
f 145 148 153
f 141 73 168
f 169 174 151
f 174 133 148
f 128 155 100
f 166 177 123
f 177 128 123
f 77 175 167
f 174 160 133
f 173 157 160
f 155 180 81
f 179 141 168
f 178 171 173
f 183 76 156
f 181 171 178
f 169 171 181
f 168 76 183
f 163 127 159
f 187 182 160
f 166 186 177
f 165 150 184
f 173 160 182
f 178 185 181
f 86 81 180
f 169 187 174
f 159 141 179
f 97 132 161
f 79 176 191
f 190 181 185
f 155 128 177
f 188 169 181
f 166 137 186
f 174 187 160
f 176 165 184
f 115 112 194
f 178 173 189
f 181 190 188
f 185 192 197
f 190 185 197
f 180 155 201
f 169 188 187
f 178 193 185
f 161 132 203
f 167 175 199
f 176 184 191
f 200 86 180
f 115 194 172
f 155 177 201
f 185 193 192
f 137 86 200
f 189 173 182
f 204 178 189
f 163 209 156
f 175 79 191
f 201 177 198
f 167 199 150
f 178 204 193
f 188 190 206
f 186 137 205
f 132 172 203
f 190 197 206
f 189 212 204
f 149 138 210
f 207 192 193
f 187 188 208
f 213 159 179
f 194 112 149
f 184 150 214
f 193 204 207
f 192 207 216
f 208 182 187
f 163 159 209
f 183 211 168
f 218 179 168
f 179 218 213
f 189 182 208
f 189 208 212
f 219 216 207
f 191 184 224
f 198 177 223
f 177 186 223
f 203 231 161
f 137 200 205
f 150 199 221
f 200 180 226
f 218 168 211
f 225 192 216
f 206 208 188
f 138 161 210
f 228 206 197
f 172 194 230
f 207 204 219
f 217 210 161
f 220 211 183
f 212 208 228
f 159 213 209
f 220 183 156
f 227 184 214
f 226 180 201
f 161 231 217
f 229 216 219
f 192 225 222
f 232 197 222
f 172 230 203
f 218 211 237
f 197 192 222
f 197 232 228
f 209 213 235
f 206 228 208
f 184 227 224
f 214 150 221
f 216 229 225
f 221 199 234
f 219 236 229
f 149 239 194
f 199 175 234
f 219 204 238
f 239 149 210
f 240 203 230
f 233 213 218
f 231 203 240
f 236 219 243
f 230 194 241
f 218 237 233
f 242 156 209
f 213 233 235
f 249 225 229
f 232 212 228
f 201 198 246
f 219 238 243
f 212 238 204
f 242 209 235
f 248 229 236
f 244 248 236
f 247 222 225
f 250 243 238
f 232 222 247
f 186 205 252
f 233 237 253
f 201 246 251
f 223 246 198
f 223 186 252
f 238 212 247
f 236 243 244
f 225 249 254
f 229 248 249
f 254 247 225
f 250 238 254
f 247 254 238
f 244 243 257
f 258 248 244
f 241 194 239
f 217 231 259
f 234 175 261
f 201 251 226
f 256 257 243
f 243 250 256
f 237 211 262
f 253 266 233
f 250 267 256
f 248 258 268
f 241 240 230
f 237 262 253
f 244 265 258
f 269 175 191
f 257 265 244
f 254 249 267
f 246 223 271
f 200 226 277
f 283 252 205
f 283 205 200
f 267 250 254
f 261 175 269
f 233 266 235
f 263 260 270
f 224 269 191
f 248 268 249
f 211 220 262
f 227 272 224
f 210 217 259
f 281 260 276
f 288 263 270
f 280 279 287
f 276 260 278
f 268 267 249
f 226 251 277
f 220 156 307
f 287 270 280
f 260 281 286
f 275 263 258
f 284 290 280
f 294 258 265
f 270 260 286
f 268 258 288
f 253 262 299
f 258 263 288
f 242 235 295
f 292 273 293
f 257 256 267
f 293 273 291
f 294 275 258
f 280 270 312
f 287 279 296
f 293 266 253
f 263 275 278
f 221 285 214
f 261 221 234
f 239 210 303
f 278 306 276
f 290 273 292
f 291 266 293
f 268 257 267
f 284 282 273
f 210 259 303
f 291 273 282
f 290 301 279
f 260 263 278
f 271 223 252
f 279 280 290
f 272 227 214
f 301 290 292
f 294 257 268
f 299 266 291
f 284 273 290
f 293 253 299
f 270 287 315
f 310 268 288
f 298 231 240
f 251 246 271
f 285 221 297
f 286 281 320
f 309 284 280
f 265 257 294
f 259 231 298
f 317 311 318
f 286 312 270
f 304 302 281
f 241 239 327
f 288 270 315
f 307 156 242
f 276 304 281
f 315 287 296
f 310 294 268
f 321 317 318
f 293 323 292
f 330 266 299
f 282 284 326
f 301 296 279
f 235 266 330
f 291 282 326
f 251 271 329
f 297 221 261
f 306 304 276
f 318 311 308
f 283 328 252
f 333 308 302
f 322 308 333
f 295 235 330
f 214 285 348
f 302 304 333
f 309 280 312
f 296 301 334
f 271 252 328
f 299 323 293
f 341 239 303
f 320 281 336
f 323 299 291
f 311 317 342
f 214 348 272
f 281 302 336
f 262 339 299
f 345 321 318
f 278 275 340
f 241 327 350
f 291 326 323
f 318 308 322
f 326 319 323
f 240 241 325
f 327 239 341
f 292 323 319
f 315 296 347
f 298 240 343
f 337 344 331
f 306 278 340
f 319 338 292
f 301 292 338
f 308 336 302
f 294 310 275
f 337 346 344
f 286 320 312
f 344 317 331
f 337 331 321
f 350 325 241
f 304 306 333
f 340 275 310
f 351 284 309
f 331 317 321
f 326 284 351
f 326 338 319
f 318 322 356
f 333 356 322
f 261 269 359
f 364 308 311
f 358 333 306
f 347 296 334
f 269 224 361
f 337 321 345
f 301 338 334
f 346 337 365
f 356 345 318
f 357 342 317
f 329 277 251
f 364 336 308
f 315 347 288
f 326 351 338
f 306 340 360
f 261 363 297
f 340 310 288
f 344 357 317
f 351 334 338
f 262 220 366
f 360 353 312
f 309 312 351
f 367 272 348
f 361 224 272
f 285 344 346
f 358 306 360
f 347 334 351
f 337 345 368
f 351 312 347
f 356 333 358
f 312 320 360
f 339 262 371
f 340 288 353
f 277 283 200
f 330 299 372
f 363 261 359
f 347 312 353
f 343 373 298
f 356 311 342
f 288 347 353
f 299 339 372
f 345 356 357
f 220 307 376
f 303 259 370
f 371 372 339
f 344 285 365
f 356 364 311
f 259 298 370
f 361 359 269
f 336 360 320
f 348 285 346
f 364 356 358
f 360 340 353
f 271 375 329
f 356 342 357
f 365 337 368
f 336 364 358
f 329 377 277
f 376 366 220
f 371 262 366
f 343 240 325
f 336 358 360
f 341 303 370
f 368 357 344
f 374 272 367
f 368 344 365
f 357 368 345
f 348 346 365
f 283 277 379
f 328 283 378
f 272 374 361
f 375 271 328
f 363 285 297
f 285 348 365
f 377 329 380
f 242 295 381
f 298 373 370
f 285 363 382
f 285 382 348
f 341 370 384
f 307 242 381
f 372 371 383
f 329 375 380
f 343 325 350
f 377 379 277
f 378 283 379
f 386 371 366
f 367 348 388
f 374 367 389
f 375 328 390
f 330 391 295
f 389 367 388
f 330 372 383
f 363 359 382
f 330 383 391
f 307 381 392
f 393 350 327
f 387 384 370
f 307 392 376
f 370 373 387
f 373 343 395
f 386 366 397
f 361 374 394
f 386 383 371
f 343 350 393
f 379 377 396
f 295 391 381
f 359 361 398
f 393 327 341
f 382 388 348
f 396 377 380
f 382 359 403
f 381 391 400
f 403 359 398
f 395 343 402
f 373 395 387
f 401 390 328
f 376 397 366
f 378 401 328
f 374 389 394
f 382 405 388
f 383 386 404
f 341 384 399
f 382 403 405
f 375 406 380
f 402 343 393
f 386 397 408
f 384 387 407
f 398 361 394
f 384 407 399
f 407 387 395
f 380 406 409
f 412 402 393
f 404 391 383
f 396 380 409
f 375 390 410
f 401 410 390
f 375 410 406
f 413 341 399
f 404 386 408
f 381 400 392
f 341 413 393
f 394 389 411
f 401 378 379
f 388 414 389
f 391 404 415
f 395 402 417
f 396 418 379
f 388 405 422
f 417 402 412
f 403 419 405
f 404 408 420
f 393 413 412
f 411 389 414
f 418 396 409
f 424 398 394
f 409 406 423
f 415 404 420
f 376 427 397
f 408 397 427
f 379 418 426
f 425 410 401
f 388 422 414
f 419 403 398
f 409 423 418
f 395 417 407
f 400 391 415
f 417 412 430
f 399 407 428
f 436 376 392
f 425 406 410
f 420 408 427
f 417 428 407
f 423 437 418
f 427 376 436
f 401 379 426
f 400 415 435
f 414 431 411
f 420 427 434
f 440 406 425
f 425 401 438
f 392 400 435
f 423 406 440
f 405 419 439
f 419 398 443
f 411 431 394
f 425 441 440
f 435 415 420
f 443 398 424
f 394 431 424
f 417 430 444
f 426 418 437
f 442 420 434
f 422 405 439
f 426 438 401
f 419 443 439
f 423 440 437
f 399 428 445
f 444 428 417
f 420 442 435
f 436 447 427
f 413 430 412
f 441 425 438
f 445 428 444
f 414 451 431
f 440 441 450
f 434 427 447
f 414 422 446
f 452 426 437
f 451 414 446
f 438 426 452
f 431 451 424
f 440 450 453
f 454 444 430
f 445 444 456
f 443 424 455
f 430 413 454
f 458 445 456
f 447 436 457
f 434 447 457
f 413 399 463
f 424 451 455
f 460 441 438
f 442 434 462
f 399 445 463
f 451 446 465
f 464 441 460
f 450 441 464
f 457 462 434
f 465 446 422
f 436 392 469
f 443 455 468
f 450 467 453
f 435 442 474
f 452 460 438
f 437 440 470
f 440 453 475
f 452 437 470
f 454 413 463
f 464 460 471
f 439 443 468
f 440 475 470
f 454 456 444
f 445 458 463
f 462 474 442
f 463 481 454
f 453 467 475
f 465 422 482
f 422 439 486
f 462 457 479
f 487 392 435
f 469 392 487
f 480 458 495
f 457 436 484
f 481 456 454
f 486 439 468
f 493 467 490
f 451 465 496
f 469 484 436
f 458 480 463
f 482 422 486
f 471 460 502
f 499 489 483
f 491 499 483
f 484 479 457
f 494 474 462
f 504 503 505
f 503 519 483
f 507 491 483
f 467 508 475
f 509 489 499
f 467 492 508
f 493 492 467
f 490 501 493
f 460 452 522
f 504 498 488
f 512 503 483
f 455 451 496
f 487 435 474
f 498 521 488
f 512 483 489
f 516 490 500
f 507 483 519
f 517 506 510
f 493 501 498
f 496 465 482
f 458 456 528
f 493 498 514
f 493 514 492
f 498 513 514
f 494 462 527
f 462 479 523
f 521 498 501
f 501 490 516
f 517 499 491
f 464 502 518
f 503 504 519
f 508 492 526
f 488 519 504
f 498 504 513
f 502 460 529
f 510 520 535
f 512 537 503
f 507 517 491
f 537 512 489
f 510 535 517
f 519 488 521
f 509 499 538
f 458 528 495
f 514 513 531
f 502 464 471
f 505 503 540
f 522 529 460
f 521 501 550
f 537 540 503
f 452 470 522
f 489 540 537
f 519 521 543
f 513 545 531
f 508 536 475
f 526 542 508
f 504 505 513
f 533 518 541
f 518 502 541
f 481 528 456
f 536 470 475
f 489 555 540
f 544 507 519
f 517 507 557
f 480 560 463
f 505 549 513
f 501 516 551
f 520 552 535
f 538 499 517
f 565 514 531
f 506 517 562
f 517 535 548
f 527 462 523
f 505 540 549
f 555 549 540
f 520 524 552
f 524 506 562
f 549 545 513
f 545 565 531
f 548 567 509
f 556 555 489
f 489 558 556
f 489 509 558
f 526 492 514
f 481 463 560
f 517 548 538
f 482 581 496
f 535 567 548
f 522 470 536
f 480 495 573
f 572 541 553
f 544 519 543
f 522 576 579
f 560 480 571
f 514 565 526
f 582 541 502
f 577 536 508
f 575 535 552
f 541 582 553
f 586 583 500
f 500 525 586
f 528 481 591
f 502 529 522
f 509 567 590
f 543 521 578
f 558 589 556
f 533 541 600
f 495 528 547
f 582 502 522
f 548 509 538
f 573 495 547
f 542 577 508
f 525 533 611
f 526 596 542
f 587 588 599
f 575 547 535
f 547 567 535
f 557 562 517
f 501 551 550
f 585 496 581
f 522 579 582
f 595 536 577
f 565 596 526
f 553 582 572
f 571 480 573
f 588 587 552
f 612 552 603
f 524 603 552
f 536 595 576
f 455 609 468
f 573 575 552
f 522 536 576
f 601 572 605
f 484 523 479
f 507 592 557
f 542 596 602
f 576 595 579
f 578 521 621
f 567 547 590
f 582 579 598
f 552 587 573
f 555 614 549
f 595 577 602
f 547 528 591
f 617 455 496
f 617 496 585
f 572 601 541
f 591 481 560
f 590 547 606
f 549 615 545
f 555 556 614
f 547 591 606
f 602 577 542
f 572 582 605
f 565 620 596
f 589 614 556
f 573 547 575
f 549 614 615
f 615 565 545
f 516 500 613
f 607 602 596
f 474 494 527
f 582 598 605
f 629 487 474
f 482 486 625
f 573 587 622
f 486 468 609
f 624 589 558
f 509 590 558
f 599 630 587
f 579 595 626
f 589 624 614
f 605 619 601
f 581 482 625
f 523 484 633
f 635 590 606
f 590 635 558
f 565 615 620
f 664 469 487
f 630 622 587
f 638 541 601
f 573 622 571
f 595 602 626
f 521 550 634
f 500 583 613
f 603 524 652
f 588 552 612
f 611 533 653
f 533 600 653
f 635 624 558
f 527 523 623
f 626 598 579
f 634 641 643
f 586 525 611
f 607 626 602
f 551 516 613
f 646 647 642
f 551 563 550
f 632 619 605
f 638 600 541
f 551 650 563
f 649 601 619
f 605 598 636
f 544 543 578
f 654 606 591
f 605 636 632
f 641 634 550
f 599 662 630
f 550 563 650
f 633 623 523
f 596 620 657
f 621 643 639
f 657 607 596
f 643 621 634
f 652 524 562
f 641 550 650
f 544 592 507
f 621 521 634
f 606 654 668
f 668 635 606
f 672 624 635
f 647 578 642
f 598 626 636
f 560 654 591
f 667 626 607
f 619 648 628
f 676 585 581
f 614 624 675
f 677 635 668
f 643 661 639
f 672 635 677
f 615 614 675
f 643 641 661
f 658 560 622
f 571 622 560
f 649 628 670
f 578 647 671
f 592 544 671
f 621 639 642
f 639 661 688
f 642 578 621
f 630 662 689
f 620 615 681
f 680 560 658
f 636 667 684
f 681 657 620
f 671 544 578
f 551 613 656
f 581 625 696
f 624 672 690
f 648 619 632
f 680 654 560
f 650 551 656
f 626 667 636
f 675 681 615
f 673 557 592
f 667 607 697
f 474 527 629
f 650 661 641
f 636 648 632
f 696 676 581
f 671 647 683
f 651 455 617
f 661 650 704
f 691 592 671
f 689 622 630
f 646 683 647
f 700 636 684
f 656 687 650
f 675 624 690
f 486 609 625
f 662 599 660
f 673 562 557
f 698 649 670
f 612 603 705
f 601 649 638
f 657 697 607
f 672 677 690
f 680 668 654
f 673 592 691
f 652 705 603
f 599 588 660
f 673 699 562
f 691 671 683
f 636 700 648
f 687 656 613
f 690 677 709
f 613 583 707
f 622 689 658
f 639 646 642
f 697 657 710
f 652 562 699
f 709 677 668
f 661 704 688
f 690 720 675
f 663 692 714
f 717 707 583
f 648 682 670
f 639 688 701
f 668 680 718
f 692 704 650
f 710 657 681
f 664 487 629
f 721 700 684
f 700 722 648
f 673 725 699
f 680 658 723
f 663 703 692
f 701 646 639
f 699 731 652
f 683 646 701
f 680 723 726
f 648 722 682
f 692 650 687
f 684 667 715
f 588 612 660
f 687 613 707
f 611 653 708
f 714 692 687
f 703 704 692
f 609 455 651
f 684 715 721
f 682 711 670
f 662 660 728
f 698 670 711
f 697 729 667
f 701 736 683
f 668 718 709
f 681 675 735
f 690 709 716
f 691 733 673
f 583 586 708
f 731 705 652
f 611 708 586
f 725 673 733
f 733 691 683
f 721 734 700
f 705 741 612
f 709 718 716
f 729 715 667
f 707 714 687
f 658 689 723
f 720 735 675
f 739 742 689
f 731 699 725
f 697 710 727
f 722 700 734
f 663 714 740
f 653 713 708
f 698 711 738
f 732 653 600
f 689 742 723
f 585 676 617
f 744 707 717
f 649 738 753
f 739 689 662
f 733 683 736
f 701 688 704
f 740 703 663
f 690 716 720
f 743 710 681
f 718 680 726
f 681 735 743
f 735 751 743
f 707 744 714
f 583 708 747
f 697 727 729
f 623 629 527
f 749 735 720
f 718 757 716
f 735 749 751
f 625 762 696
f 746 718 726
f 600 638 732
f 623 633 750
f 682 722 711
f 710 743 727
f 711 756 738
f 484 469 758
f 660 612 741
f 721 715 737
f 723 745 726
f 752 701 704
f 716 754 720
f 714 744 740
f 746 757 718
f 715 729 737
f 759 704 703
f 676 696 760
f 739 662 774
f 676 760 617
f 747 713 764
f 727 755 729
f 717 583 747
f 745 773 726
f 758 469 664
f 754 716 757
f 745 723 742
f 771 703 740
f 754 767 720
f 766 713 653
f 733 736 768
f 731 725 761
f 732 766 653
f 742 773 745
f 781 743 751
f 727 743 772
f 729 755 778
f 708 713 747
f 725 763 761
f 777 749 720
f 752 768 701
f 767 777 720
f 721 765 734
f 638 649 785
f 725 733 763
f 705 731 741
f 721 737 765
f 726 773 746
f 741 728 660
f 771 759 703
f 768 736 701
f 734 779 722
f 713 769 764
f 766 769 713
f 722 756 711
f 782 757 746
f 757 783 754
f 740 744 764
f 789 752 704
f 787 764 769
f 732 638 798
f 484 758 633
f 729 778 737
f 753 784 649
f 788 722 779
f 742 739 790
f 788 756 722
f 734 765 779
f 789 704 759
f 727 772 755
f 740 764 786
f 737 748 765
f 761 795 731
f 804 728 741
f 746 773 792
f 790 739 774
f 758 750 633
f 778 791 737
f 737 791 748
f 762 625 810
f 733 768 801
f 781 772 743
f 629 623 806
f 747 764 805
f 786 771 740
f 751 749 781
f 795 741 731
f 732 796 766
f 767 754 814
f 791 794 765
f 742 790 773
f 786 787 813
f 765 748 791
f 772 821 755
f 741 795 804
f 798 638 785
f 787 786 764
f 788 815 816
f 800 791 778
f 777 767 823
f 812 771 786
f 764 744 805
f 792 818 782
f 798 796 732
f 813 787 796
f 738 756 802
f 752 809 768
f 754 783 814
f 819 796 798
f 822 763 733
f 746 792 782
f 757 782 783
f 788 816 802
f 823 767 814
f 779 815 788
f 794 779 765
f 789 809 752
f 785 649 784
f 824 773 790
f 820 738 802
f 803 773 824
f 782 818 783
f 829 761 763
f 772 781 811
f 828 759 771
f 777 823 825
f 790 797 824
f 822 733 801
f 839 774 662
f 749 777 825
f 662 728 839
f 755 821 778
f 797 790 774
f 809 801 768
f 822 829 763
f 825 781 749
f 815 779 808
f 786 813 812
f 781 833 811
f 813 796 819
f 773 803 792
f 625 609 810
f 836 783 818
f 837 819 798
f 792 834 818
f 779 794 808
f 830 778 821
f 811 821 772
f 834 836 818
f 756 788 802
f 778 830 800
f 836 814 783
f 738 820 845
f 845 753 738
f 812 828 771
f 829 795 761
f 717 747 850
f 840 836 834
f 833 781 825
f 816 815 838
f 834 792 803
f 802 816 820
f 785 837 798
f 851 821 811
f 852 834 803
f 804 839 728
f 810 609 651
f 785 848 837
f 750 806 623
f 813 853 812
f 774 844 797
f 785 784 848
f 824 797 803
f 805 744 717
f 795 863 804
f 856 825 823
f 814 859 823
f 808 794 846
f 831 791 800
f 819 853 813
f 830 843 800
f 859 860 823
f 847 803 797
f 814 836 859
f 760 696 762
f 844 847 797
f 791 831 794
f 864 821 851
f 836 840 858
f 863 795 829
f 823 860 856
f 828 789 759
f 831 862 846
f 846 815 808
f 846 794 831
f 852 803 847
f 846 862 832
f 866 820 816
f 851 811 833
f 825 856 833
f 866 816 838
f 855 837 848
f 830 864 843
f 819 855 853
f 821 864 830
f 846 857 815
f 871 855 848
f 800 843 831
f 862 873 750
f 832 862 750
f 629 806 875
f 760 762 849
f 878 812 853
f 769 766 872
f 853 855 877
f 846 832 857
f 843 874 831
f 880 834 852
f 880 840 834
f 820 866 887
f 849 617 760
f 829 822 801
f 859 876 860
f 883 789 828
f 806 750 873
f 857 838 815
f 862 831 874
f 806 873 875
f 804 863 839
f 819 888 855
f 838 857 889
f 787 897 796
f 877 855 871
f 858 840 876
f 858 859 836
f 717 850 901
f 847 844 881
f 784 890 848
f 845 820 887
f 839 863 892
f 880 876 840
f 839 892 774
f 847 881 898
f 801 809 900
f 886 856 860
f 843 896 874
f 851 833 867
f 884 895 833
f 851 867 864
f 750 857 832
f 869 874 894
f 902 876 880
f 762 893 849
f 884 833 856
f 859 858 876
f 871 908 877
f 857 750 758
f 847 898 852
f 880 852 905
f 866 838 889
f 857 870 889
f 864 896 843
f 860 876 899
f 856 886 884
f 860 899 886
f 867 833 895
f 874 896 894
f 870 758 664
f 888 819 904
f 664 629 875
f 837 904 819
f 907 864 903
f 872 787 769
f 758 870 857
f 911 871 848
f 789 900 809
f 829 801 900
f 898 881 885
f 917 837 855
f 878 828 812
f 907 896 864
f 893 762 810
f 912 895 884
f 896 907 894
f 805 717 901
f 905 902 880
f 867 903 864
f 874 869 862
f 862 869 906
f 910 886 899
f 796 913 766
f 866 889 887
f 900 863 829
f 789 883 900
f 927 853 877
f 916 867 895
f 883 828 878
f 898 885 905
f 925 853 927
f 881 924 885
f 913 796 897
f 787 872 926
f 918 923 887
f 887 889 918
f 862 906 873
f 921 848 890
f 870 918 889
f 877 931 927
f 902 899 876
f 898 905 852
f 853 925 878
f 805 922 747
f 903 867 916
f 932 766 913
f 904 837 917
f 900 937 863
f 894 907 869
f 923 929 887
f 915 844 774
f 921 877 908
f 892 863 937
f 884 886 910
f 935 890 784
f 897 787 926
f 938 933 905
f 902 933 944
f 933 902 905
f 903 934 940
f 936 873 906
f 906 920 936
f 850 747 922
f 906 869 948
f 938 905 885
f 895 912 916
f 753 935 784
f 848 921 911
f 921 931 877
f 903 940 907
f 870 664 918
f 944 899 902
f 934 903 916
f 884 910 943
f 871 911 959
f 890 935 947
f 884 943 912
f 918 664 875
f 944 949 899
f 907 940 945
f 931 921 890
f 907 948 869
f 899 949 910
f 890 947 931
f 885 924 938
f 810 651 954
f 873 936 875
f 917 855 888
f 916 912 943
f 906 948 920
f 875 953 918
f 774 892 915
f 901 850 952
f 924 966 938
f 965 910 949
f 907 945 948
f 753 956 935
f 941 875 936
f 954 651 969
f 931 947 981
f 923 918 953
f 963 941 968
f 967 933 938
f 955 948 945
f 875 941 953
f 958 966 924
f 915 892 937
f 753 845 956
f 910 965 962
f 936 920 955
f 960 849 893
f 943 971 916
f 967 938 966
f 943 910 962
f 932 872 766
f 871 959 908
f 916 975 934
f 970 893 810
f 920 948 955
f 651 617 969
f 617 849 960
f 945 972 955
f 975 973 934
f 900 883 957
f 960 969 617
f 881 844 915
f 923 953 986
f 944 933 967
f 966 958 977
f 980 972 945
f 810 954 970
f 968 936 955
f 973 940 934
f 925 984 878
f 936 968 941
f 962 971 943
f 929 923 986
f 971 975 916
f 924 881 958
f 956 978 935
f 945 940 976
f 982 949 944
f 978 947 935
f 845 887 996
f 947 978 927
f 925 927 978
f 994 975 971
f 878 984 883
f 992 976 973
f 995 978 956
f 944 967 982
f 957 937 900
f 949 982 965
f 997 967 966
f 960 893 993
f 940 973 976
f 887 929 996
f 991 805 901
f 922 805 991
f 994 971 1002
f 963 989 941
f 958 881 915
f 925 978 1006
f 967 1003 982
f 997 966 977
f 1007 965 982
f 953 941 989
f 1015 929 986
f 1011 883 984
f 952 850 922
f 1006 978 1010
f 973 1000 992
f 976 980 945
f 967 997 998
f 1014 921 908
f 1001 1000 973
f 994 1001 975
f 962 965 1012
f 953 1021 986
f 956 1006 995
f 1003 1009 982
f 992 980 976
f 975 1001 973
f 981 990 931
f 967 998 1003
f 1000 1019 992
f 980 992 1013
f 1008 980 1013
f 927 931 990
f 982 1009 1007
f 955 972 968
f 996 956 845
f 972 980 1008
f 971 962 1002
f 968 972 963
f 962 1012 1002
f 908 959 1014
f 1022 1003 998
f 1021 953 989
f 1003 1023 1009
f 1006 1026 925
f 994 1002 1025
f 956 996 1006
f 994 1025 1001
f 1001 1025 1020
f 965 1018 1012
f 1033 915 937
f 1003 1022 1023
f 972 1029 963
f 1006 1010 995
f 1007 1018 965
f 1013 1024 1008
f 947 927 1036
f 1034 926 872
f 997 1027 998
f 957 883 1028
f 1001 1020 1000
f 1002 1031 1025
f 1022 998 1027
f 1037 925 1026
f 1012 1031 1002
f 1007 1009 1018
f 1029 972 1008
f 970 993 893
f 1040 984 925
f 1000 1020 1019
f 915 1033 958
f 1032 977 958
f 932 913 1048
f 1038 937 957
f 1008 1024 1029
f 888 904 1043
f 897 926 1034
f 1006 996 1026
f 1039 1018 1009
f 993 970 1054
f 1032 958 1033
f 995 1010 1042
f 963 1029 989
f 1040 925 1037
f 1050 1012 1018
f 1017 978 995
f 1017 1010 978
f 1028 883 1011
f 1041 1019 1056
f 996 1051 1026
f 1027 1047 1035
f 1052 1022 1035
f 1023 1039 1009
f 1040 1037 1058
f 1019 1013 992
f 1041 1024 1013
f 954 969 1063
f 1029 1024 1049
f 1013 1019 1041
f 1027 997 1047
f 1034 872 932
f 1022 1052 1023
f 1019 1046 1056
f 1014 911 921
f 1031 1012 1060
f 913 897 1048
f 1066 1014 959
f 1035 1022 1027
f 1018 1039 1050
f 991 901 1055
f 1047 997 977
f 1054 1050 993
f 1035 1047 1045
f 1060 1012 1050
f 1053 1020 1064
f 1038 957 1028
f 917 1059 904
f 952 1055 901
f 1061 1025 1031
f 1061 1031 1060
f 1052 1039 1023
f 1025 1064 1020
f 1020 1053 1019
f 1024 1041 1049
f 1046 1019 1053
f 1065 1039 1052
f 1070 1041 1056
f 1039 993 1050
f 1062 1065 1052
f 1046 1053 1056
f 1061 1064 1025
f 1063 1054 954
f 970 954 1054
f 1049 1041 1070
f 959 911 1066
f 1015 1051 996
f 1037 1026 1067
f 1039 1065 993
f 1058 1037 1051
f 996 929 1015
f 947 1074 981
f 960 993 1065
f 1035 1045 1073
f 952 922 991
f 1069 1033 937
f 1052 1035 1062
f 1075 1011 984
f 1040 1075 984
f 1050 1068 1060
f 1050 1054 1068
f 969 960 1063
f 1038 1069 937
f 1064 1077 1053
f 1051 1015 1058
f 1034 1076 1081
f 1060 1068 1061
f 986 1021 1015
f 1062 1035 1073
f 1076 1034 932
f 1064 1061 1078
f 1073 1045 1047
f 1029 1057 989
f 1036 927 1082
f 1043 917 888
f 1084 1048 897
f 1056 1053 1083
f 1068 1054 1063
f 1011 1075 1028
f 897 1034 1084
f 1089 1061 1068
f 1095 1055 952
f 1089 1078 1061
f 1058 1021 1090
f 1021 1058 1015
f 1096 1026 1051
f 1077 1083 1053
f 1029 1049 1057
f 1059 1043 904
f 1065 1085 960
f 1090 1086 1058
f 1064 1078 1077
f 1047 977 1032
f 1070 1056 1083
f 1058 1090 1021
f 1063 960 1085
f 1058 1021 1040
f 1021 989 1094
f 927 990 1082
f 1051 1037 1096
f 1083 1077 1101
f 1082 990 981
f 1074 947 1036
f 1076 932 1048
f 1038 1028 1098
f 1034 1081 1084
f 1077 1078 1089
f 1062 1073 1100
f 1100 1065 1062
f 1017 995 1079
f 1017 1079 1102
f 1073 1047 1099
f 1065 1100 1085
f 1094 1040 1021
f 1085 1068 1063
f 1089 1101 1077
f 1109 917 1043
f 1028 1075 1103
f 991 1112 952
f 1089 1114 1101
f 1068 1107 1089
f 1037 1067 1111
f 1059 917 1113
f 1110 1114 1089
f 1085 1107 1068
f 1110 1089 1115
f 1032 1033 1069
f 1073 1118 1100
f 1058 1086 1090
f 989 1057 1094
f 1100 1120 1085
f 1107 1115 1089
f 1095 952 1112
f 1120 1107 1085
f 1100 1118 1122
f 1066 911 1125
f 1059 1113 1043
f 1057 1049 1116
f 1119 911 1014
f 1117 1075 1040
f 1086 1090 1128
f 1103 1098 1028
f 1047 1032 1099
f 1100 1122 1120
f 1094 1117 1040
f 1026 1131 1067
f 1010 1017 1102
f 1103 1075 1117
f 1129 1101 1114
f 1113 917 1109
f 1099 1032 1069
f 1119 1014 1142
f 1049 1070 1132
f 1127 1055 1095
f 1112 991 1055
f 1098 1069 1038
f 1099 1126 1073
f 1139 1069 1098
f 1129 1083 1101
f 1116 1094 1057
f 981 1074 1137
f 1107 1120 1135
f 1082 1140 1036
f 1118 1073 1126
f 1095 1112 1151
f 1090 1086 1143
f 1126 1069 1139
f 1083 1132 1070
f 1122 1118 1147
f 1145 1076 1048
f 1131 1026 1096
f 1116 1117 1094
f 1043 1113 1149
f 1066 1142 1014
f 1048 1084 1145
f 1103 1148 1098
f 1099 1069 1126
f 1133 1107 1135
f 1115 1114 1110
f 1115 1107 1133
f 1079 1141 1102
f 1074 1036 1140
f 1082 981 1137
f 1103 1117 1132
f 1116 1049 1132
f 1043 1149 1109
f 1084 1081 1158
f 1125 911 1119
f 1122 1147 1120
f 1116 1132 1117
f 1096 1037 1111
f 1076 1145 1161
f 1079 995 1167
f 1114 1115 1163
f 1166 1149 1113
f 1132 1148 1103
f 1143 1086 1159
f 1129 1148 1083
f 1131 1164 1067
f 1067 1164 1111
f 1083 1148 1132
f 1079 1167 1141
f 1115 1133 1163
f 1147 1135 1120
f 995 1042 1167
f 1151 1112 1173
f 1170 1126 1139
f 1170 1118 1126
f 1168 1158 1081
f 1129 1114 1163
f 1145 1084 1158
f 1076 1161 1168
f 1095 1151 1174
f 1081 1076 1168
f 1139 1098 1163
f 1167 1042 1172
f 1175 1135 1147
f 1127 1095 1174
f 1042 1010 1172
f 1118 1170 1147
f 1086 1180 1159
f 1140 1082 1176
f 1148 1163 1098
f 1082 1137 1176
f 1172 1010 1102
f 1086 1128 1180
f 1133 1135 1175
f 1181 1137 1074
f 1066 1125 1184
f 1163 1148 1129
f 1183 1096 1111
f 1141 1182 1102
f 1175 1139 1163
f 1133 1175 1163
f 1175 1170 1139
f 1184 1125 1187
f 1112 1055 1173
f 1113 1109 1189
f 1170 1175 1147
f 1166 1113 1189
f 1142 1066 1184
f 1192 1145 1158
f 1181 1176 1137
f 1090 1143 1128
f 1194 1189 1109
f 1161 1145 1192
f 1055 1127 1201
f 1198 1164 1131
f 1173 1055 1201
f 1125 1119 1142
f 1197 1174 1151
f 1173 1203 1151
f 1109 1149 1194
f 1168 1161 1204
f 1074 1140 1209
f 1208 1181 1074
f 1203 1173 1201
f 1131 1096 1183
f 1125 1142 1205
f 1206 1181 1208
f 1176 1181 1206
f 1174 1197 1127
f 1143 1159 1180
f 1140 1176 1215
f 1209 1140 1215
f 1182 1141 1167
f 1219 1125 1205
f 1187 1125 1219
f 1151 1203 1197
f 1168 1204 1158
f 1184 1187 1217
f 1209 1208 1074
f 1149 1166 1218
f 1142 1184 1217
f 1172 1102 1182
f 1180 1128 1224
f 1127 1197 1201
f 1143 1220 1128
f 1217 1225 1142
f 1158 1222 1192
f 1161 1192 1222
f 1149 1218 1194
f 1227 1166 1189
f 1172 1182 1229
f 1183 1111 1164
f 1206 1226 1176
f 1226 1215 1176
f 1164 1198 1183
f 1201 1197 1228
f 1217 1187 1219
f 1227 1218 1166
f 1143 1180 1220
f 1182 1167 1231
f 1131 1183 1236
f 1197 1203 1235
f 1205 1142 1225
f 1231 1167 1234
f 1128 1220 1224
f 1194 1218 1239
f 1161 1222 1238
f 1237 1180 1224
f 1220 1180 1237
f 1203 1201 1228
f 1204 1161 1238
f 1167 1172 1229
f 1198 1131 1243
f 1246 1235 1203
f 1241 1158 1204
f 1241 1222 1158
f 1189 1194 1239
f 1234 1167 1229
f 1229 1182 1231
f 1251 1227 1189
f 1236 1183 1198
f 1255 1218 1227
f 1203 1228 1246
f 1255 1227 1251
f 1204 1252 1241
f 1243 1236 1198
f 1252 1204 1238
f 1257 1234 1229
f 1208 1254 1206
f 1251 1189 1239
f 1238 1222 1256
f 1217 1219 1258
f 1222 1241 1256
f 1226 1206 1254
f 1236 1259 1131
f 1263 1228 1197
f 1215 1226 1254
f 1239 1218 1264
f 1218 1255 1264
f 1224 1266 1237
f 1235 1263 1197
f 1268 1229 1231
f 1220 1237 1266
f 1225 1217 1269
f 1215 1254 1272
f 1220 1266 1271
f 1205 1277 1219
f 1224 1220 1271
f 1208 1209 1278
f 1254 1208 1278
f 1243 1131 1275
f 1205 1225 1269
f 1131 1259 1275
f 1217 1258 1269
f 1281 1255 1251
f 1224 1279 1266
f 1286 1229 1268
f 1236 1243 1288
f 1235 1246 1282
f 1257 1229 1286
f 1238 1256 1289
f 1209 1215 1272
f 1231 1234 1285
f 1228 1282 1246
f 1284 1219 1277
f 1258 1219 1284
f 1275 1288 1243
f 1289 1256 1292
f 1205 1269 1277
f 1258 1284 1269
f 1285 1268 1231
f 1252 1238 1295
f 1288 1275 1291
f 1294 1263 1235
f 1287 1236 1288
f 1257 1285 1234
f 1278 1209 1296
f 1241 1252 1256
f 1281 1264 1255
f 1303 1251 1239
f 1296 1209 1272
f 1294 1235 1282
f 1239 1264 1303
f 1252 1292 1256
f 1294 1304 1263
f 1263 1282 1228
f 1257 1307 1285
f 1281 1251 1308
f 1292 1252 1309
f 1224 1271 1279
f 1269 1312 1277
f 1252 1295 1309
f 1238 1289 1295
f 1271 1266 1311
f 1315 1291 1275
f 1285 1313 1268
f 1269 1284 1318
f 1259 1236 1287
f 1266 1279 1311
f 1275 1259 1315
f 1312 1269 1318
f 1286 1268 1313
f 1263 1304 1317
f 1282 1263 1317
f 1289 1292 1309
f 1303 1264 1319
f 1264 1281 1319
f 1319 1281 1308
f 1254 1278 1324
f 1294 1282 1317
f 1291 1315 1288
f 1309 1295 1322
f 1313 1285 1307
f 1311 1279 1325
f 1272 1254 1324
f 1329 1284 1277
f 1326 1287 1288
f 1271 1311 1327
f 1303 1332 1251
f 1251 1332 1308
f 1288 1315 1326
f 1294 1317 1338
f 1295 1289 1334
f 1272 1324 1296
f 1287 1326 1341
f 1289 1309 1334
f 1259 1287 1341
f 1294 1339 1304
f 1318 1284 1340
f 1324 1278 1331
f 1278 1296 1333
f 1342 1317 1304
f 1295 1334 1343
f 1259 1347 1315
f 1259 1341 1347
f 1279 1271 1349
f 1348 1311 1325
f 1295 1343 1322
f 1308 1332 1319
f 1342 1304 1339
f 1271 1327 1349
f 1339 1294 1338
f 1309 1322 1334
f 1352 1307 1257
f 1279 1349 1325
f 1315 1347 1351
f 1348 1327 1311
f 1319 1332 1353
f 1331 1278 1333
f 1350 1307 1352
f 1284 1329 1340
f 1312 1318 1340
f 1286 1356 1257
f 1355 1303 1319
f 1303 1355 1332
f 1356 1352 1257
f 1356 1286 1313
f 1357 1277 1312
f 1355 1319 1353
f 1307 1350 1313
f 1326 1315 1351
f 1333 1296 1360
f 1332 1359 1353
f 1296 1324 1360
f 1342 1338 1317
f 1329 1277 1357
f 1343 1334 1362
f 1339 1338 1366
f 1364 1343 1362
f 1339 1365 1342
f 1322 1343 1364
f 1322 1369 1368
f 1338 1342 1365
f 1334 1322 1368
f 1370 1332 1355
f 1364 1369 1322
f 1326 1371 1341
f 1372 1331 1333
f 1359 1332 1370
f 1351 1371 1326
f 1349 1327 1378
f 1356 1313 1350
f 1324 1331 1374
f 1327 1348 1378
f 1373 1340 1329
f 1365 1366 1338
f 1362 1334 1368
f 1357 1312 1340
f 1374 1331 1372
f 1350 1352 1379
f 1357 1340 1373
f 1355 1353 1380
f 1348 1325 1349
f 1359 1380 1353
f 1365 1339 1366
f 1351 1347 1383
f 1369 1364 1362
f 1372 1333 1384
f 1360 1324 1374
f 1373 1385 1357
f 1348 1349 1386
f 1350 1379 1392
f 1351 1383 1371
f 1380 1359 1370
f 1356 1350 1392
f 1360 1384 1333
f 1383 1347 1390
f 1329 1357 1396
f 1352 1356 1403
f 1365 1366 1401
f 1373 1329 1395
f 1379 1352 1398
f 1355 1380 1397
f 1369 1393 1368
f 1370 1355 1397
f 1396 1357 1385
f 1403 1356 1392
f 1348 1386 1378
f 1398 1352 1403
f 1385 1373 1395
f 1402 1370 1397
f 1406 1383 1390
f 1341 1371 1407
f 1365 1410 1366
f 1386 1349 1412
f 1329 1396 1395
f 1370 1402 1380
f 1401 1366 1410
f 1390 1347 1341
f 1349 1378 1413
f 1413 1378 1386
f 1393 1369 1414
f 1341 1407 1390
f 1412 1349 1413
f 1368 1417 1362
f 1414 1369 1362
f 1401 1410 1365
f 1371 1383 1406
f 1392 1379 1398
f 1374 1372 1384
f 1368 1393 1420
f 1368 1420 1417
f 1402 1425 1380
f 1407 1371 1406
f 1426 1395 1396
f 1414 1362 1417
f 1401 1432 1410
f 1440 1402 1397
f 1432 1401 1435
f 1434 1360 1374
f 1397 1380 1425
f 1431 1384 1360
f 1446 1398 1403
f 1441 1392 1398
f 1413 1386 1439
f 1406 1436 1407
f 1406 1390 1436
f 1385 1395 1447
f 1414 1417 1420
f 1435 1401 1410
f 1396 1385 1447
f 1393 1414 1420
f 1439 1386 1412
f 1431 1360 1449
f 1425 1402 1440
f 1435 1410 1453
f 1374 1384 1431
f 1420 1414 1455
f 1403 1392 1446
f 1412 1413 1439
f 1460 1397 1425
f 1447 1395 1426
f 1449 1360 1434
f 1453 1410 1432
f 1439 1463 1412
f 1465 1396 1447
f 1460 1425 1440
f 1374 1431 1434
f 1407 1436 1471
f 1446 1392 1441
f 1469 1432 1435
f 1426 1396 1465
f 1435 1432 1469
f 1453 1432 1435
f 1397 1460 1440
f 1426 1476 1447
f 1412 1463 1474
f 1440 1480 1458
f 1436 1390 1481
f 1435 1453 1475
f 1435 1475 1469
f 1460 1440 1458
f 1439 1412 1474
f 1483 1469 1475
f 1398 1446 1484
f 1471 1436 1481
f 1483 1482 1469
f 1490 1420 1455
f 1435 1469 1491
f 1475 1435 1491
f 1496 1434 1431
f 1483 1475 1495
f 1420 1490 1414
f 1499 1492 1441
f 1498 1449 1434
f 1475 1486 1495
f 1496 1431 1449
f 1484 1499 1398
f 1441 1398 1499
f 1426 1478 1476
f 1486 1475 1497
f 1475 1491 1497
f 1500 1469 1482
f 1500 1491 1469
f 1447 1476 1465
f 1460 1458 1505
f 1463 1439 1504
f 1390 1407 1471
f 1455 1486 1509
f 1490 1486 1414
f 1478 1426 1465
f 1434 1496 1498
f 1441 1492 1499
f 1509 1490 1455
f 1482 1483 1500
f 1499 1446 1441
f 1509 1486 1497
f 1478 1465 1514
f 1511 1491 1500
f 1486 1490 1501
f 1440 1460 1508
f 1504 1439 1474
f 1480 1440 1508
f 1497 1491 1511
f 1509 1503 1490
f 1508 1501 1480
f 1527 1499 1484
f 1495 1486 1517
f 1516 1508 1460
f 1519 1463 1504
f 1526 1476 1478
f 1498 1496 1521
f 1500 1483 1524
f 1481 1520 1471
f 1516 1460 1505
f 1390 1471 1533
f 1504 1474 1463
f 1476 1534 1465
f 1514 1465 1534
f 1508 1516 1515
f 1535 1446 1499
f 1496 1449 1521
f 1471 1520 1533
f 1535 1484 1446
f 1543 1508 1514
f 1481 1390 1539
f 1486 1501 1517
f 1509 1525 1503
f 1476 1526 1534
f 1541 1463 1519
f 1526 1478 1515
f 1497 1537 1509
f 1509 1537 1525
f 1520 1481 1539
f 1500 1524 1545
f 1505 1503 1547
f 1500 1545 1511
f 1449 1498 1546
f 1539 1390 1533
f 1516 1505 1547
f 1526 1515 1549
f 1549 1515 1516
f 1449 1546 1521
f 1483 1495 1545
f 1526 1550 1538
f 1527 1484 1535
f 1483 1545 1524
f 1538 1514 1534
f 1519 1504 1463
f 1526 1538 1534
f 1537 1497 1511
f 1511 1545 1552
f 1498 1521 1546
f 1538 1550 1521
f 1501 1508 1517
f 1499 1554 1535
f 1550 1526 1549
f 1519 1463 1541
f 1495 1552 1545
f 1549 1516 1547
f 1495 1517 1552
f 1563 1521 1546
f 1558 1511 1552
f 1552 1517 1558
f 1537 1511 1558
f 1547 1503 1564
f 1550 1546 1521
f 1549 1547 1564
f 1533 1520 1562
f 1554 1499 1527
f 1538 1521 1563
f 1550 1572 1546
f 1525 1537 1568
f 1503 1525 1564
f 1539 1562 1520
f 1539 1533 1571
f 1543 1514 1538
f 1558 1568 1537
f 1538 1563 1574
f 1568 1558 1517
f 1535 1554 1573
f 1533 1562 1566
f 1574 1563 1527
f 1571 1533 1566
f 1535 1573 1527
f 1576 1525 1568
f 1567 1554 1527
f 1564 1525 1576
f 1549 1572 1550
f 1517 1508 1543
f 1541 1560 1519
f 1576 1568 1517
f 1543 1576 1517
f 1573 1554 1579
f 1527 1573 1583
f 1541 1519 1560
f 1560 1541 1584
f 1583 1574 1527
f 1576 1543 1564
f 1573 1579 1571
f 1567 1546 1572
f 1539 1581 1562
f 1571 1581 1539
f 1560 1584 1541
f 1543 1586 1564
f 1571 1583 1573
f 1549 1564 1586
f 1554 1567 1579
f 1584 1585 1541
f 1582 1566 1562
f 1587 1549 1586
f 1567 1572 1588
f 1541 1585 1584
f 1571 1566 1582
f 1579 1567 1588
f 1582 1562 1590
f 1587 1586 1543
f 1572 1549 1591
f 1583 1571 1582
f 1543 1538 1574
f 1585 1593 1584
f 1549 1587 1591
f 1579 1588 1581
f 1588 1572 1591
f 1587 1543 1574
f 1581 1590 1562
f 1587 1574 1591
f 1585 1584 1595
f 1582 1592 1583
f 1593 1595 1584
f 1597 1581 1588
f 1585 1595 1592
f 1590 1593 1585
f 1581 1597 1590
f 1574 1583 1596
f 1600 1588 1591
f 1598 1590 1597
f 1600 1591 1574
f 1593 1590 1598
f 1601 1595 1593
f 1596 1600 1574
f 1583 1592 1596
f 1588 1603 1597
f 1603 1588 1600
f 1595 1602 1592
f 1595 1601 1605
f 1602 1595 1605
f 1601 1593 1598
f 1603 1600 1596
f 1601 1598 1607
f 1596 1592 1606
f 1597 1603 1608
f 1606 1603 1596
f 1606 1608 1603
f 1606 1592 1602
f 1601 1607 1605
f 1598 1597 1609
f 1609 1597 1608
f 1602 1605 1607
f 1608 1606 1609
f 1607 1598 1609
f 1602 1609 1606
f 1602 1607 1609
f 506 524 520
f 510 506 520
f 518 533 525
f 518 525 500
f 490 467 450
f 500 490 450
f 518 500 450
f 450 464 518

